<?xml version="1.0" encoding="utf-8"?>
<!-- Generator: Adobe Illustrator 24.3.0, SVG Export Plug-In . SVG Version: 6.00 Build 0)  -->
<svg version="1.1" id="Layer_2_1_" xmlns="http://www.w3.org/2000/svg" xmlns:xlink="http://www.w3.org/1999/xlink" x="0px" y="0px"
	 viewBox="0 0 32 26" style="enable-background:new 0 0 32 26;" xml:space="preserve">
<style type="text/css">
	.st0{fill:#231F20;}
	.st1{fill:#FFFFFF;}
	.st2{fill:#FFFFFF;stroke:#231F20;stroke-width:0.25;stroke-miterlimit:10;}
	.st3{fill:none;stroke:#231F20;stroke-width:0.25;stroke-linecap:round;stroke-miterlimit:10;}
	.st4{font-family:'DMSans-Bold';}
	.st5{font-size:1.8793px;}
</style>
<path class="st0" d="M7.3,7.6C7.6,7,8.1,6.3,8.6,5.8c0.5-0.6,1.1-1.1,1.8-1.6c1.3-0.9,2.9-1.4,4.5-1.5c1.6,0,3.2,0.3,4.6,0.8
	c0.7,0.3,1.4,0.7,2,1.2c0.6,0.5,1.2,1,1.7,1.6l0,0c-1.1-1.1-2.3-2.1-3.8-2.7c-1.5-0.5-3-0.8-4.6-0.7c-1.6,0.1-3.1,0.6-4.4,1.4
	C9.2,5.2,8.1,6.3,7.3,7.6L7.3,7.6L7.3,7.6z"/>
<path class="st0" d="M23.8,7c0.6,0.8,1.1,1.6,1.5,2.6c0.6,1.9,0.6,4,0,5.9c-0.3,0.9-0.8,1.8-1.4,2.6l0,0C26.1,14.7,26.1,10.3,23.8,7
	L23.8,7L23.8,7z"/>
<path class="st0" d="M7.4,17.4C7,16.7,6.6,16,6.3,15.2c-0.2-0.8-0.4-1.5-0.4-2.3c0-0.8,0-1.6,0.2-2.4C6.3,9.8,6.6,9,7,8.3l0,0
	C5.7,11.2,5.8,14.6,7.4,17.4L7.4,17.4L7.4,17.4z"/>
<path class="st0" d="M8.9,25.6H7.8c-0.3,0-0.8,0.1-1-0.2c-0.2-0.3-0.3-0.6-0.2-1v-3.2c0-0.4,0-0.7,0-1.1c0.1-0.4,0.5-0.7,0.9-0.7h1
	c0.7-0.1,1.3,0.4,1.4,1.1c0,0,0,0,0,0c0,0.1,0,0.2,0,0.3V24c0,0.4,0,0.7-0.1,1.1C9.6,25.4,9.3,25.7,8.9,25.6z M8.9,25.6
	c0.4,0,0.7-0.2,0.8-0.6c0.1-0.3,0.1-0.7,0-1.1v-3.2c0.1-0.6-0.4-1.1-1-1.2c0,0,0,0,0,0c-0.1,0-0.2,0-0.3,0h-1
	c-0.3,0-0.6,0.2-0.7,0.5c0,0.3,0,0.7,0,1v3.2c0,0.4-0.1,0.7,0.2,1c0.3,0.2,0.6,0.3,1,0.2L8.9,25.6z"/>
<path class="st0" d="M9.8,21.3c0.2-0.4,0.5-0.7,0.9-0.9c0.4-0.2,0.8-0.3,1.2-0.4l0,0c0.4-0.1,0.8-0.1,1.1-0.2c0.2,0,0.4,0,0.6,0
	l0.6,0.1l2.2,0.6c0.7,0.2,1.5,0.4,2.2,0.6l0.3,0.1c0.1,0.1,0.2,0.2,0.3,0.3c0,0.1,0,0.3-0.1,0.4c-0.1,0.1-0.2,0.2-0.3,0.2l-1.1,0.5
	l0,0c-0.6,0.3-1.2,0.4-1.9,0.5c-0.3,0-0.7,0-1,0c-0.2,0-0.4-0.1-0.5-0.2c-0.2-0.1-0.3-0.4-0.3-0.6c0-0.2,0.2-0.4,0.5-0.4
	c0.2,0,0.4,0,0.6,0.1c0.3,0.1,0.6,0.2,0.9,0.4c0.6,0.3,1.1,0.7,1.6,1.1h-0.2c1.9-0.9,3.9-1.7,5.9-2.4c0.5-0.2,1.1-0.3,1.7-0.2
	c0.2,0.1,0.3,0.2,0.3,0.4c0.1,0.2,0.1,0.3,0.1,0.5c0,0.4-0.4,0.6-0.6,0.7c-0.9,0.6-1.8,1.1-2.8,1.6c-1,0.5-1.9,0.9-2.9,1.3
	c-0.5,0.2-1,0.4-1.5,0.6c-0.6,0-1.1-0.1-1.7-0.2c-2.1-0.4-4.1-1-6.2-1.5l0,0c2.1,0.5,4.1,1,6.2,1.4c0.5,0.1,1,0.2,1.6,0.2
	c0.5-0.2,1-0.4,1.5-0.6c1-0.4,2-0.8,2.9-1.3c1-0.4,1.9-0.9,2.8-1.6c0.2-0.1,0.5-0.3,0.5-0.6c0-0.3-0.1-0.5-0.3-0.7
	c-0.5-0.1-1.1,0-1.5,0.2c-2,0.7-3.9,1.5-5.9,2.4l0,0c-0.5-0.4-1-0.8-1.5-1.1c-0.3-0.2-0.6-0.3-0.9-0.4c-0.3-0.1-0.7-0.1-0.8,0.2
	S14.7,23,15,23c0.3,0,0.6,0,0.9,0c0.6-0.1,1.2-0.2,1.8-0.5l0,0l1-0.5c0.2,0,0.3-0.2,0.3-0.3c0,0,0,0,0,0l0,0
	c-0.1-0.2-0.3-0.2-0.4-0.3c-0.7-0.2-1.5-0.4-2.2-0.6l-2.2-0.6L13.7,20c-0.2,0-0.4,0-0.6,0c-0.4,0-0.8,0-1.1,0.1l0,0
	c-0.4,0.1-0.8,0.2-1.2,0.3C10.4,20.6,10.1,20.9,9.8,21.3L9.8,21.3L9.8,21.3z"/>
<path class="st0" d="M20.4,12.2c-0.1,2.6-2.2,4.6-4.8,4.6c-2.6,0-4.7-2-4.8-4.6c0-1.3,0.5-2.5,1.5-3.3c0.9-0.9,2.1-1.4,3.4-1.4
	C18.2,7.6,20.3,9.7,20.4,12.2z M20.4,12.2c-0.2-2.5-2.3-4.5-4.8-4.5c-2.5,0-4.5,2-4.6,4.5c0.1,2.5,2.1,4.5,4.6,4.5
	C18.1,16.7,20.2,14.7,20.4,12.2L20.4,12.2z"/>
<path class="st0" d="M16.7,0.4c-0.8-0.3-1.6-0.2-2.4,0.1c-0.6,0.5-1,1.3-1.1,2.1c0.2,0.8,0.6,1.5,1.3,2c0.8,0.3,1.6,0.2,2.4-0.1
	c0.6-0.5,1-1.3,1.1-2.1C17.7,1.6,17.3,0.9,16.7,0.4z"/>
<path class="st1" d="M16.6,0.4c-1.1-0.4-2.6-0.1-3,1.1c-0.1,0.3-0.2,0.5-0.3,0.8c0,0.3,0,0.6,0.2,0.8c0.2,0.5,0.6,1,1,1.3
	c0.5,0.2,1.1,0.2,1.7,0.1c0.3,0,0.5-0.1,0.7-0.3c0.2-0.2,0.4-0.4,0.5-0.7c0.4-0.5,0.5-1.1,0.2-1.7C17.5,1.3,17.1,0.8,16.6,0.4z
	 M16.6,0.4c0.5,0.4,0.9,0.9,1.1,1.4c0.3,0.6,0.2,1.2-0.2,1.7c-0.1,0.3-0.3,0.5-0.5,0.8c-0.2,0.2-0.5,0.4-0.8,0.4
	c-0.6,0.1-1.2,0.1-1.8-0.1c-0.5-0.4-0.9-0.9-1.1-1.4c-0.2-0.3-0.2-0.6-0.2-0.9c0.1-0.3,0.2-0.6,0.3-0.8c0.2-0.6,0.7-1,1.4-1.1
	C15.5,0.1,16.1,0.2,16.6,0.4L16.6,0.4z"/>
<path class="st2" d="M14.7,2.4l0.4,0.4c0,0,0.1,0,0.1,0l1.1-1.1c0,0,0.1,0,0.1,0l0.3,0.3c0,0,0,0.1,0,0.1l-1.4,1.5c0,0-0.1,0-0.1,0
	l-0.9-0.8c0,0,0-0.1,0-0.1l0,0l0.3-0.3C14.7,2.3,14.7,2.3,14.7,2.4C14.7,2.4,14.7,2.4,14.7,2.4L14.7,2.4z"/>
<line class="st3" x1="8.5" y1="21.5" x2="9.7" y2="20.8"/>
<line class="st3" x1="8.7" y1="20.8" x2="9.7" y2="20.3"/>
<line class="st3" x1="8.4" y1="22" x2="9.7" y2="21.3"/>
<line class="st3" x1="8.7" y1="22.3" x2="9.7" y2="21.8"/>
<line class="st3" x1="8.5" y1="22.9" x2="9.7" y2="22.2"/>
<line class="st3" x1="8.7" y1="23.2" x2="9.7" y2="22.8"/>
<line class="st3" x1="8.7" y1="24.3" x2="9.7" y2="23.8"/>
<line class="st3" x1="8.7" y1="24.7" x2="9.7" y2="24.3"/>
<line class="st3" x1="8.3" y1="24.1" x2="9.7" y2="23.3"/>
<path class="st3" d="M18.2,25.3c2.2-1,4.4-2,6.5-3.2"/>
<path class="st0" d="M19.4,4.9c2.6,0.7,4.6,2.9,5.1,5.6l0,0c-0.3-1.3-1-2.4-1.9-3.4C21.7,6.2,20.6,5.4,19.4,4.9L19.4,4.9L19.4,4.9z"
	/>
<g>
	<g>
		<path class="st0" d="M11.3,8.2c-0.5-0.6-0.8-0.8-1.3-1.4c0.3-0.3,0.5-0.4,0.9-0.7c0.2-0.2,0.4-0.2,0.6-0.2c0.2,0,0.3,0.1,0.4,0.2
			c0.1,0.1,0.1,0.2,0,0.3c0,0.1-0.1,0.2-0.2,0.3c0.1-0.1,0.3-0.1,0.4,0c0.1,0,0.2,0.1,0.3,0.2c0.1,0.1,0.1,0.3,0,0.4
			S12.1,7.6,12,7.7C11.7,7.9,11.5,8,11.3,8.2z M10.9,7.1C11,7,11.1,7,11.3,6.8c0.1-0.1,0.2-0.1,0.2-0.2c0-0.1,0-0.1,0-0.2
			c0-0.1-0.1-0.1-0.2-0.1c-0.1,0-0.2,0-0.3,0.1c-0.2,0.1-0.2,0.2-0.4,0.3C10.7,6.9,10.8,7,10.9,7.1z M11.4,7.8
			c0.1-0.1,0.2-0.2,0.4-0.3c0.1-0.1,0.2-0.1,0.2-0.2c0-0.1,0-0.1,0-0.2c0-0.1-0.1-0.1-0.2-0.1c-0.1,0-0.2,0-0.3,0.1
			c-0.2,0.1-0.2,0.2-0.4,0.3C11.2,7.5,11.2,7.6,11.4,7.8z"/>
		<path class="st0" d="M12.7,7.3c-0.3-0.7-0.5-1-0.8-1.7c0.4-0.2,0.5-0.2,0.9-0.4c0.2-0.1,0.4-0.1,0.5-0.1c0.1,0,0.3,0.1,0.3,0.1
			s0.1,0.2,0.2,0.3c0,0.1,0,0.2,0,0.3c-0.1,0.1-0.1,0.2-0.3,0.3c0.3,0.3,0.4,0.4,0.6,0.7c-0.2,0-0.2,0.1-0.4,0.1
			c-0.2-0.2-0.3-0.4-0.6-0.6c-0.1,0-0.2,0.1-0.3,0.1c0.1,0.3,0.2,0.4,0.3,0.7C12.9,7.2,12.8,7.2,12.7,7.3z M12.7,6.2
			c0.2-0.1,0.2-0.1,0.4-0.1c0.1,0,0.2-0.1,0.3-0.2c0-0.1,0.1-0.2,0-0.2c0-0.1-0.1-0.1-0.2-0.2c-0.1,0-0.2,0-0.4,0
			c-0.2,0.1-0.2,0.1-0.4,0.2C12.5,5.9,12.6,6,12.7,6.2z"/>
		<path class="st0" d="M14.2,6.8c0.1-0.8,0.3-1.2,0.6-2c0.2,0,0.3,0,0.5,0c0.4,0.7,0.5,1.1,0.8,1.9c-0.2,0-0.2,0-0.4,0
			c-0.1-0.2-0.1-0.3-0.2-0.4c-0.3,0-0.5,0-0.8,0c-0.1,0.2-0.1,0.3-0.1,0.5C14.4,6.7,14.3,6.7,14.2,6.8z M14.7,6c0.3,0,0.4,0,0.7,0
			c-0.1-0.3-0.2-0.5-0.4-0.8C14.9,5.5,14.8,5.6,14.7,6z"/>
		<path class="st0" d="M16.2,6.7c0.1-0.7,0.1-1.1,0.2-1.9c0.2,0,0.3,0,0.5,0.1c0.4,0.6,0.5,0.9,0.8,1.6c0.2-0.5,0.3-0.7,0.4-1.2
			c0.2,0.1,0.3,0.1,0.5,0.2c-0.3,0.7-0.4,1-0.7,1.7C17.7,7.1,17.6,7,17.5,7c-0.2-0.6-0.3-0.9-0.7-1.5c-0.1,0.5-0.1,0.8-0.2,1.3
			C16.4,6.7,16.3,6.7,16.2,6.7z"/>
		<path class="st0" d="M18,7.2c0.3-0.7,0.5-1,0.8-1.7c0.3,0.2,0.5,0.2,0.8,0.4c0.3,0.2,0.5,0.4,0.6,0.5c0.1,0.2,0.2,0.4,0.1,0.5
			c0,0.2-0.1,0.3-0.2,0.5c-0.1,0.1-0.3,0.2-0.4,0.3c-0.2,0.1-0.3,0.1-0.5,0c-0.2,0-0.4-0.1-0.6-0.3C18.4,7.4,18.3,7.4,18,7.2z
			 M18.5,7.2c0.1,0.1,0.2,0.1,0.3,0.2c0.2,0.1,0.3,0.2,0.4,0.2c0.1,0,0.2,0,0.3,0c0.1,0,0.2-0.1,0.3-0.2C19.9,7.1,19.9,7,20,6.9
			c0-0.1,0-0.2-0.1-0.3c-0.1-0.1-0.2-0.2-0.4-0.4c-0.1-0.1-0.2-0.1-0.3-0.2C18.9,6.5,18.8,6.7,18.5,7.2z"/>
	</g>
</g>
<text transform="matrix(1 0 0 1 13.2949 11.605)" class="st4 st5">ROI in</text>
<text transform="matrix(1 0 0 1 12.2998 13.8604)" class="st4 st5">1</text>
<text transform="matrix(0.583 0 0 0.583 12.854 13.2344)" class="st4 st5">st</text>
<text transform="matrix(1 0 0 1 13.7812 13.8604)" class="st4 st5"> Week</text>
<g>
	<g>
		<path class="st0" d="M9.6,18.2c0.3-0.7,0.5-1,0.8-1.7c0.3,0.1,0.4,0.2,0.7,0.3c0.1,0.1,0.3,0.1,0.3,0.2c0.1,0.1,0.1,0.2,0.1,0.3
			c0,0.1,0,0.2,0,0.3c0,0.1-0.1,0.2-0.2,0.2c-0.1,0.1-0.2,0.1-0.3,0.1c-0.1,0-0.3,0-0.4-0.1c-0.1-0.1-0.2-0.1-0.4-0.2
			c-0.1,0.3-0.2,0.4-0.3,0.7C9.8,18.3,9.7,18.3,9.6,18.2z M10.4,17.5c0.1,0.1,0.2,0.1,0.3,0.1c0.1,0.1,0.2,0.1,0.3,0
			c0.1,0,0.1-0.1,0.2-0.2c0-0.1,0-0.2,0-0.2c0-0.1-0.1-0.1-0.2-0.2c-0.1-0.1-0.2-0.1-0.3-0.1C10.5,17.1,10.5,17.2,10.4,17.5z"/>
		<path class="st0" d="M11.3,18.9c0.2-0.7,0.4-1.1,0.6-1.8c0.3,0.1,0.4,0.1,0.7,0.2c0.2,0,0.3,0.1,0.4,0.2c0.1,0.1,0.1,0.2,0.2,0.3
			c0,0.1,0,0.2,0,0.3c0,0.1-0.1,0.2-0.2,0.3c-0.1,0.1-0.2,0.1-0.4,0.1c0.1,0.3,0.2,0.5,0.3,0.9c-0.2,0-0.3-0.1-0.5-0.1
			c-0.1-0.3-0.1-0.5-0.2-0.8c-0.1,0-0.2-0.1-0.3-0.1c-0.1,0.3-0.1,0.4-0.2,0.7C11.5,19,11.4,18.9,11.3,18.9z M11.9,18.1
			c0.1,0,0.2,0.1,0.3,0.1c0.1,0,0.2,0,0.3,0c0.1,0,0.1-0.1,0.1-0.2c0-0.1,0-0.2,0-0.2c0-0.1-0.1-0.1-0.2-0.1c-0.1,0-0.2-0.1-0.3-0.1
			C12,17.7,12,17.8,11.9,18.1z"/>
		<path class="st0" d="M14.1,19.5c-0.2,0-0.4-0.1-0.6-0.2c-0.2-0.1-0.3-0.2-0.3-0.4c-0.1-0.2-0.1-0.3,0-0.5c0-0.2,0.1-0.3,0.2-0.5
			c0.1-0.1,0.2-0.2,0.4-0.3c0.2-0.1,0.3-0.1,0.5-0.1c0.2,0,0.4,0.1,0.5,0.2c0.1,0.1,0.2,0.2,0.3,0.4c0.1,0.1,0.1,0.3,0.1,0.5
			c0,0.2-0.1,0.4-0.2,0.5c-0.1,0.1-0.2,0.2-0.4,0.3C14.5,19.5,14.3,19.6,14.1,19.5z M14.1,19.2c0.2,0,0.4,0,0.5-0.1
			c0.1-0.1,0.2-0.3,0.2-0.5c0-0.2,0-0.4-0.1-0.5c-0.1-0.1-0.2-0.2-0.4-0.2c-0.2,0-0.3,0-0.5,0.1c-0.1,0.1-0.2,0.2-0.3,0.5
			s0,0.4,0.1,0.5C13.7,19.1,13.9,19.2,14.1,19.2z"/>
		<path class="st0" d="M15.4,19.6c0-0.8,0-1.1,0-1.9c0.2,0,0.3,0,0.4,0c0.3,0.5,0.4,0.7,0.7,1.2c0.2-0.5,0.3-0.7,0.5-1.2
			c0.2,0,0.3,0,0.4-0.1c0.1,0.7,0.2,1.1,0.3,1.9c-0.2,0-0.2,0-0.4,0.1c-0.1-0.5-0.1-0.8-0.2-1.3c-0.2,0.4-0.3,0.7-0.5,1.1
			c-0.1,0-0.2,0-0.3,0c-0.3-0.4-0.4-0.6-0.6-1c0,0.5,0,0.8,0,1.3C15.6,19.6,15.6,19.6,15.4,19.6z"/>
		<path class="st0" d="M18.1,19.4c-0.1-0.7-0.2-1.1-0.3-1.9c0.1,0,0.2,0,0.3-0.1c0.2,0.7,0.2,1.1,0.4,1.8
			C18.3,19.4,18.2,19.4,18.1,19.4z"/>
		<path class="st0" d="M19.5,19.1c-0.2,0-0.3,0.1-0.4,0c-0.1,0-0.2-0.1-0.3-0.1c-0.1-0.1-0.1-0.2-0.2-0.3c0.2,0,0.2-0.1,0.4-0.1
			c0,0.1,0.1,0.1,0.2,0.2c0.1,0,0.2,0,0.3,0c0.1,0,0.2-0.1,0.2-0.1s0.1-0.1,0-0.2c0-0.1-0.1-0.1-0.1-0.1c-0.1,0-0.1,0-0.2,0
			c-0.1,0-0.2,0-0.3,0c-0.2,0-0.3,0-0.4-0.1c-0.1-0.1-0.2-0.2-0.2-0.3c0-0.1,0-0.2,0-0.3c0-0.1,0.1-0.2,0.2-0.2
			c0.1-0.1,0.2-0.1,0.3-0.2c0.1,0,0.2,0,0.3,0c0.1,0,0.2,0,0.3,0.1c0.1,0.1,0.1,0.1,0.2,0.2c-0.2,0.1-0.2,0.1-0.4,0.1
			c0-0.1-0.1-0.1-0.1-0.1c-0.1,0-0.1,0-0.2,0c-0.1,0-0.1,0.1-0.2,0.1c0,0.1-0.1,0.1,0,0.2c0,0.1,0,0.1,0.1,0.1c0.1,0,0.1,0,0.2,0
			c0.1,0,0.2,0,0.3,0c0.1,0,0.2,0,0.3,0c0.1,0,0.2,0,0.3,0.1c0.1,0,0.1,0.1,0.2,0.2c0,0.1,0,0.2,0,0.3c0,0.1-0.1,0.2-0.2,0.3
			C19.8,19,19.6,19.1,19.5,19.1z"/>
		<path class="st0" d="M20.4,18.8c-0.3-0.7-0.4-1.1-0.6-1.8c0.5-0.2,0.7-0.3,1.2-0.5c0,0.1,0.1,0.1,0.1,0.2
			c-0.3,0.2-0.5,0.2-0.9,0.4c0.1,0.2,0.1,0.3,0.2,0.5c0.3-0.1,0.5-0.2,0.8-0.4c0,0.1,0.1,0.1,0.1,0.2c-0.3,0.2-0.5,0.2-0.8,0.4
			c0.1,0.2,0.1,0.3,0.2,0.5c0.4-0.2,0.6-0.2,1-0.4c0,0.1,0.1,0.1,0.1,0.2C21.3,18.5,21,18.6,20.4,18.8z"/>
	</g>
</g>
</svg>
