<?xml version="1.0" encoding="utf-8"?>
<!-- Generator: Adobe Illustrator 24.3.0, SVG Export Plug-In . SVG Version: 6.00 Build 0)  -->
<svg version="1.1" xmlns="http://www.w3.org/2000/svg" xmlns:xlink="http://www.w3.org/1999/xlink" x="0px" y="0px"
	 viewBox="0 0 500 500" style="enable-background:new 0 0 500 500;" xml:space="preserve">
<style type="text/css">
	.st0{display:none;}
	.st1{display:inline;opacity:0.5;}
	.st2{fill:#4D75A0;}
	.st3{fill:none;stroke:#3C5B8C;stroke-width:1.7211;stroke-miterlimit:10;}
	.st4{fill:#2D6AFF;}
	.st5{fill:none;stroke:#2A38FF;stroke-width:2.1514;stroke-miterlimit:10;}
	.st6{fill:#DCEFF7;}
	.st7{fill:#ABC6DD;}
	.st8{opacity:0.75;fill:#66737F;}
	.st9{fill:#FFFFFF;}
	.st10{fill:#E1E8F9;}
	.st11{fill:#168CDB;}
	.st12{fill:#A1D7FF;}
	.st13{fill:#D3DBED;}
	.st14{fill:#053A60;}
	.st15{fill:url(#SVGID_1_);}
	.st16{opacity:0.5;}
	.st17{font-family:'Arial-BoldMT';}
	.st18{font-size:5.2412px;}
	.st19{opacity:0.8;}
	.st20{fill:url(#SVGID_2_);}
	.st21{fill:url(#SVGID_3_);}
	.st22{fill:url(#SVGID_4_);}
	.st23{fill:url(#SVGID_5_);}
	.st24{fill:url(#SVGID_6_);}
	.st25{fill:url(#SVGID_7_);}
	.st26{fill:url(#SVGID_8_);}
	.st27{opacity:0.8;fill:#FFFFFF;}
	.st28{fill:#90FF26;}
	.st29{fill:url(#SVGID_9_);}
	.st30{fill:#FBB788;}
	.st31{fill:#B1C9F6;}
	.st32{fill:#FB906E;}
	.st33{fill:#EFECEA;}
	.st34{fill:#FCD9D9;}
	.st35{fill:#242E6C;}
	.st36{fill:#C0D3F8;}
	.st37{display:inline;opacity:0.5;fill:#0F9B00;}
	.st38{fill:none;stroke:#050505;stroke-width:3;stroke-miterlimit:10;}
	.st39{fill:none;stroke:#050505;stroke-width:3;stroke-linecap:round;stroke-miterlimit:10;}
	.st40{fill:none;stroke:#000000;stroke-miterlimit:10;}
</style>
<g id="Layer_1" class="st0">
	<g class="st1">
		<polygon class="st2" points="215.8,168.9 166.7,168.9 166.7,163.1 216,163.1 		"/>
		<line class="st3" x1="169.6" y1="163.1" x2="169.6" y2="168.9"/>
		<line class="st3" x1="173.6" y1="163.1" x2="173.6" y2="168.9"/>
		<line class="st3" x1="177.7" y1="163.1" x2="177.7" y2="168.9"/>
		<line class="st3" x1="181.8" y1="163.1" x2="181.8" y2="168.9"/>
		<line class="st3" x1="185.8" y1="163.1" x2="185.8" y2="168.9"/>
		<line class="st3" x1="189.9" y1="163.1" x2="189.9" y2="168.9"/>
		<line class="st3" x1="194" y1="163.1" x2="194" y2="168.9"/>
		<line class="st3" x1="198" y1="163.1" x2="198" y2="168.9"/>
		<line class="st3" x1="202.1" y1="163.1" x2="202.1" y2="168.9"/>
		<line class="st3" x1="206.2" y1="163.1" x2="206.2" y2="168.9"/>
		<line class="st3" x1="210.2" y1="163.1" x2="210.2" y2="168.9"/>
		<line class="st3" x1="214.3" y1="163.1" x2="214.3" y2="168.9"/>
	</g>
	<g class="st1">
		<g>
			<g>
				
					<rect x="337.9" y="278.6" transform="matrix(-1 3.024218e-04 -3.024218e-04 -1 735.879 562.8541)" class="st2" width="60" height="5.8"/>
				<line class="st3" x1="395" y1="278.6" x2="395" y2="284.4"/>
				<line class="st3" x1="391" y1="278.6" x2="391" y2="284.4"/>
				<line class="st3" x1="386.9" y1="278.6" x2="386.9" y2="284.4"/>
				<line class="st3" x1="382.8" y1="278.6" x2="382.8" y2="284.4"/>
				<line class="st3" x1="378.8" y1="278.6" x2="378.8" y2="284.4"/>
				<line class="st3" x1="374.7" y1="278.6" x2="374.7" y2="284.4"/>
				<line class="st3" x1="370.6" y1="278.6" x2="370.6" y2="284.4"/>
				<line class="st3" x1="366.6" y1="278.6" x2="366.6" y2="284.4"/>
				<line class="st3" x1="362.5" y1="278.6" x2="362.5" y2="284.4"/>
				<line class="st3" x1="358.4" y1="278.6" x2="358.4" y2="284.4"/>
				<line class="st3" x1="354.4" y1="278.6" x2="354.4" y2="284.4"/>
				<line class="st3" x1="350.3" y1="278.6" x2="350.3" y2="284.4"/>
				<line class="st3" x1="346.2" y1="278.6" x2="346.2" y2="284.4"/>
				<line class="st3" x1="342.1" y1="278.6" x2="342.1" y2="284.4"/>
				<line class="st3" x1="338.1" y1="278.6" x2="338.1" y2="284.4"/>
			</g>
			<g>
				
					<rect x="373.2" y="249.7" transform="matrix(-3.027904e-04 -1 1 -3.027904e-04 146.8141 652.0333)" class="st2" width="52.3" height="5.8"/>
				<line class="st3" x1="402.2" y1="275.9" x2="396.4" y2="275.9"/>
				<line class="st3" x1="402.2" y1="271.8" x2="396.4" y2="271.8"/>
				<line class="st3" x1="402.2" y1="267.8" x2="396.4" y2="267.8"/>
				<line class="st3" x1="402.2" y1="263.7" x2="396.4" y2="263.7"/>
				<line class="st3" x1="402.2" y1="259.6" x2="396.4" y2="259.6"/>
				<line class="st3" x1="402.2" y1="255.6" x2="396.4" y2="255.6"/>
				<line class="st3" x1="402.2" y1="251.5" x2="396.4" y2="251.5"/>
				<line class="st3" x1="402.2" y1="247.4" x2="396.4" y2="247.4"/>
				<line class="st3" x1="402.2" y1="243.4" x2="396.4" y2="243.4"/>
				<line class="st3" x1="402.2" y1="239.3" x2="396.4" y2="239.3"/>
				<line class="st3" x1="402.2" y1="235.2" x2="396.4" y2="235.2"/>
				<line class="st3" x1="402.2" y1="231.2" x2="396.4" y2="231.2"/>
				<line class="st3" x1="402.2" y1="227.1" x2="396.4" y2="227.1"/>
			</g>
			<g>
				<path class="st4" d="M393.5,281.5c0,3.2,2.6,5.9,5.9,5.9c3.2,0,5.9-2.6,5.9-5.9c0-3.2-2.6-5.9-5.9-5.9
					C396.1,275.6,393.5,278.2,393.5,281.5z"/>
				<path class="st5" d="M396.4,281.5c0,1.6,1.3,2.9,2.9,2.9c1.6,0,2.9-1.3,2.9-2.9c0-1.6-1.3-2.9-2.9-2.9
					C397.7,278.6,396.4,279.9,396.4,281.5z"/>
			</g>
		</g>
		<path class="st4" d="M404.6,244.2l-10.6,0c-1.2,0-2.2-1-2.2-2.2l0-7.9c0-1.2,1-2.2,2.2-2.2l10.6,0c1.2,0,2.2,1,2.2,2.2l0,7.9
			C406.8,243.3,405.8,244.2,404.6,244.2z"/>
	</g>
	<g class="st1">
		<g>
			<polygon class="st2" points="362.2,163 362.2,87.2 356.4,87.2 356.4,163.1 			"/>
			<line class="st3" x1="356.4" y1="84.8" x2="362.2" y2="84.8"/>
			<line class="st3" x1="356.4" y1="88.8" x2="362.2" y2="88.8"/>
			<line class="st3" x1="356.4" y1="92.9" x2="362.2" y2="92.9"/>
			<line class="st3" x1="356.4" y1="97" x2="362.2" y2="97"/>
			<line class="st3" x1="356.4" y1="101" x2="362.2" y2="101"/>
			<line class="st3" x1="356.4" y1="105.1" x2="362.2" y2="105.1"/>
			<line class="st3" x1="356.4" y1="109.2" x2="362.2" y2="109.2"/>
			<line class="st3" x1="356.4" y1="113.2" x2="362.2" y2="113.2"/>
			<line class="st3" x1="356.4" y1="117.3" x2="362.2" y2="117.3"/>
			<line class="st3" x1="356.4" y1="121.4" x2="362.2" y2="121.4"/>
			<line class="st3" x1="356.4" y1="125.4" x2="362.2" y2="125.4"/>
			<line class="st3" x1="356.4" y1="129.5" x2="362.2" y2="129.5"/>
			<line class="st3" x1="356.4" y1="133.6" x2="362.2" y2="133.6"/>
			<line class="st3" x1="356.4" y1="137.6" x2="362.2" y2="137.6"/>
			<line class="st3" x1="356.4" y1="141.7" x2="362.2" y2="141.7"/>
			<line class="st3" x1="356.4" y1="145.8" x2="362.2" y2="145.8"/>
			<line class="st3" x1="356.4" y1="149.8" x2="362.2" y2="149.8"/>
			<line class="st3" x1="356.4" y1="153.9" x2="362.2" y2="153.9"/>
			<line class="st3" x1="356.4" y1="158" x2="362.2" y2="158"/>
			<line class="st3" x1="356.4" y1="162" x2="362.2" y2="162"/>
		</g>
		<g>
			
				<rect x="305.3" y="93.9" transform="matrix(-1.836970e-16 1 -1 -1.836970e-16 411.6386 -218.0886)" class="st2" width="19.2" height="5.8"/>
			<line class="st3" x1="312" y1="85.2" x2="317.8" y2="85.2"/>
			<line class="st3" x1="312" y1="89.3" x2="317.8" y2="89.3"/>
			<line class="st3" x1="312" y1="93.4" x2="317.8" y2="93.4"/>
			<line class="st3" x1="312" y1="97.4" x2="317.8" y2="97.4"/>
			<line class="st3" x1="312" y1="101.5" x2="317.8" y2="101.5"/>
		</g>
		<g>
			
				<rect x="310.7" y="84.3" transform="matrix(-1 -1.224647e-16 1.224647e-16 -1 673.6847 174.3658)" class="st2" width="52.3" height="5.8"/>
			<line class="st3" x1="360.1" y1="84.3" x2="360.1" y2="90.1"/>
			<line class="st3" x1="356" y1="84.3" x2="356" y2="90.1"/>
			<line class="st3" x1="352" y1="84.3" x2="352" y2="90.1"/>
			<line class="st3" x1="347.9" y1="84.3" x2="347.9" y2="90.1"/>
			<line class="st3" x1="343.8" y1="84.3" x2="343.8" y2="90.1"/>
			<line class="st3" x1="339.8" y1="84.3" x2="339.8" y2="90.1"/>
			<line class="st3" x1="335.7" y1="84.3" x2="335.7" y2="90.1"/>
			<line class="st3" x1="331.6" y1="84.3" x2="331.6" y2="90.1"/>
			<line class="st3" x1="327.6" y1="84.3" x2="327.6" y2="90.1"/>
			<line class="st3" x1="323.5" y1="84.3" x2="323.5" y2="90.1"/>
			<line class="st3" x1="319.4" y1="84.3" x2="319.4" y2="90.1"/>
			<line class="st3" x1="315.4" y1="84.3" x2="315.4" y2="90.1"/>
			<line class="st3" x1="311.3" y1="84.3" x2="311.3" y2="90.1"/>
		</g>
		<g>
			<path class="st4" d="M359.3,93.1c3.2,0,5.9-2.6,5.9-5.9s-2.6-5.9-5.9-5.9c-3.2,0-5.9,2.6-5.9,5.9S356.1,93.1,359.3,93.1z"/>
			<path class="st5" d="M359.3,90.1c1.6,0,2.9-1.3,2.9-2.9c0-1.6-1.3-2.9-2.9-2.9c-1.6,0-2.9,1.3-2.9,2.9
				C356.4,88.8,357.7,90.1,359.3,90.1z"/>
		</g>
		<g>
			
				<rect x="310.7" y="159.5" transform="matrix(-1 -1.224647e-16 1.224647e-16 -1 673.6847 324.8565)" class="st2" width="52.3" height="5.8"/>
			<line class="st3" x1="360.1" y1="159.5" x2="360.1" y2="165.3"/>
			<line class="st3" x1="356" y1="159.5" x2="356" y2="165.3"/>
			<line class="st3" x1="352" y1="159.5" x2="352" y2="165.3"/>
			<line class="st3" x1="347.9" y1="159.5" x2="347.9" y2="165.3"/>
			<line class="st3" x1="343.8" y1="159.5" x2="343.8" y2="165.3"/>
			<line class="st3" x1="339.8" y1="159.5" x2="339.8" y2="165.3"/>
			<line class="st3" x1="335.7" y1="159.5" x2="335.7" y2="165.3"/>
			<line class="st3" x1="331.6" y1="159.5" x2="331.6" y2="165.3"/>
			<line class="st3" x1="327.6" y1="159.5" x2="327.6" y2="165.3"/>
			<line class="st3" x1="323.5" y1="159.5" x2="323.5" y2="165.3"/>
			<line class="st3" x1="319.4" y1="159.5" x2="319.4" y2="165.3"/>
			<line class="st3" x1="315.4" y1="159.5" x2="315.4" y2="165.3"/>
			<line class="st3" x1="311.3" y1="159.5" x2="311.3" y2="165.3"/>
		</g>
		<g>
			<path class="st4" d="M359.3,168.3c3.2,0,5.9-2.6,5.9-5.9c0-3.2-2.6-5.9-5.9-5.9c-3.2,0-5.9,2.6-5.9,5.9
				C353.5,165.7,356.1,168.3,359.3,168.3z"/>
			<path class="st5" d="M359.3,165.3c1.6,0,2.9-1.3,2.9-2.9s-1.3-2.9-2.9-2.9c-1.6,0-2.9,1.3-2.9,2.9S357.7,165.3,359.3,165.3z"/>
		</g>
		<g>
			<path class="st4" d="M314.9,93.1c3.2,0,5.9-2.6,5.9-5.9s-2.6-5.9-5.9-5.9c-3.2,0-5.9,2.6-5.9,5.9S311.6,93.1,314.9,93.1z"/>
			<path class="st5" d="M314.9,90.1c1.6,0,2.9-1.3,2.9-2.9c0-1.6-1.3-2.9-2.9-2.9c-1.6,0-2.9,1.3-2.9,2.9
				C312,88.8,313.3,90.1,314.9,90.1z"/>
		</g>
		<g>
			<g>
				<path class="st6" d="M305.4,118.8v-7c0-5.2,4.3-9.5,9.5-9.5c5.2,0,9.5,4.3,9.5,9.5v7h-5.6v-7c0-2.2-1.8-3.9-3.9-3.9
					c-2.2,0-3.9,1.8-3.9,3.9v7H305.4z"/>
			</g>
			<g>
				<path class="st7" d="M322.7,112.1v6.7h1.6v-7c0-5.1-4.1-9.3-9.1-9.5C319.5,103.3,322.7,107.3,322.7,112.1z"/>
				<path class="st7" d="M313.9,108c-0.2,0-0.4-0.1-0.6-0.1c-2.2,0-3.9,1.9-3.9,4.1v6.7h1.6v-7C310.9,110,312.2,108.5,313.9,108z"/>
			</g>
		</g>
	</g>
	<g class="st1">
		<g>
			<rect x="143.7" y="316.4" class="st2" width="63.5" height="5.8"/>
			<line class="st3" x1="146.5" y1="316.4" x2="146.5" y2="322.2"/>
			<line class="st3" x1="150.6" y1="316.4" x2="150.6" y2="322.2"/>
			<line class="st3" x1="154.7" y1="316.4" x2="154.7" y2="322.2"/>
			<line class="st3" x1="158.7" y1="316.4" x2="158.7" y2="322.2"/>
			<line class="st3" x1="162.8" y1="316.4" x2="162.8" y2="322.2"/>
			<line class="st3" x1="166.9" y1="316.4" x2="166.9" y2="322.2"/>
			<line class="st3" x1="170.9" y1="316.4" x2="170.9" y2="322.2"/>
			<line class="st3" x1="175" y1="316.4" x2="175" y2="322.2"/>
			<line class="st3" x1="179.1" y1="316.4" x2="179.1" y2="322.2"/>
			<line class="st3" x1="183.1" y1="316.4" x2="183.1" y2="322.2"/>
			<line class="st3" x1="187.2" y1="316.4" x2="187.2" y2="322.2"/>
			<line class="st3" x1="191.3" y1="316.4" x2="191.3" y2="322.2"/>
			<line class="st3" x1="195.3" y1="316.4" x2="195.3" y2="322.2"/>
			<line class="st3" x1="199.4" y1="316.4" x2="199.4" y2="322.2"/>
			<line class="st3" x1="203.5" y1="316.4" x2="203.5" y2="322.2"/>
		</g>
		<g>
			
				<rect x="181.1" y="287.3" transform="matrix(6.123234e-17 -1 1 6.123234e-17 -82.9427 497.3564)" class="st2" width="52.3" height="5.8"/>
			<line class="st3" x1="204.3" y1="313.4" x2="210.1" y2="313.4"/>
			<line class="st3" x1="204.3" y1="309.3" x2="210.1" y2="309.3"/>
			<line class="st3" x1="204.3" y1="305.3" x2="210.1" y2="305.3"/>
			<line class="st3" x1="204.3" y1="301.2" x2="210.1" y2="301.2"/>
			<line class="st3" x1="204.3" y1="297.1" x2="210.1" y2="297.1"/>
			<line class="st3" x1="204.3" y1="293.1" x2="210.1" y2="293.1"/>
			<line class="st3" x1="204.3" y1="289" x2="210.1" y2="289"/>
			<line class="st3" x1="204.3" y1="284.9" x2="210.1" y2="284.9"/>
			<line class="st3" x1="204.3" y1="280.9" x2="210.1" y2="280.9"/>
			<line class="st3" x1="204.3" y1="276.8" x2="210.1" y2="276.8"/>
			<line class="st3" x1="204.3" y1="272.7" x2="210.1" y2="272.7"/>
			<line class="st3" x1="204.3" y1="268.7" x2="210.1" y2="268.7"/>
			<line class="st3" x1="204.3" y1="264.6" x2="210.1" y2="264.6"/>
		</g>
		<g>
			<circle class="st4" cx="207.2" cy="319.3" r="5.9"/>
			<path class="st5" d="M210.1,319.3c0,1.6-1.3,2.9-2.9,2.9s-2.9-1.3-2.9-2.9s1.3-2.9,2.9-2.9S210.1,317.7,210.1,319.3z"/>
		</g>
		<g>
			<g>
				<path class="st6" d="M128.1,309.8h7c5.2,0,9.5,4.3,9.5,9.5c0,5.2-4.3,9.5-9.5,9.5h-7v-5.6h7c2.2,0,3.9-1.8,3.9-3.9
					s-1.8-3.9-3.9-3.9h-7V309.8z"/>
			</g>
			<g>
				<path class="st7" d="M134.8,327.1h-6.7v1.6h7c5.1,0,9.3-4.1,9.5-9.1C143.6,323.9,139.6,327.1,134.8,327.1z"/>
				<path class="st7" d="M138.9,318.3c0-0.2,0.1-0.4,0.1-0.6c0-2.2-1.9-3.9-4.1-3.9h-6.7v1.6h7C136.9,315.4,138.4,316.6,138.9,318.3
					z"/>
			</g>
		</g>
	</g>
	<g class="st1">
		<g>
			
				<rect x="171.9" y="241" transform="matrix(4.490636e-11 -1 1 4.490636e-11 -45.8413 441.9388)" class="st2" width="52.3" height="5.8"/>
			<line class="st3" x1="195.2" y1="267.1" x2="200.9" y2="267.1"/>
			<line class="st3" x1="195.2" y1="263.1" x2="200.9" y2="263.1"/>
			<line class="st3" x1="195.2" y1="259" x2="200.9" y2="259"/>
			<line class="st3" x1="195.2" y1="254.9" x2="200.9" y2="254.9"/>
			<line class="st3" x1="195.2" y1="250.9" x2="200.9" y2="250.9"/>
			<line class="st3" x1="195.2" y1="246.8" x2="200.9" y2="246.8"/>
			<line class="st3" x1="195.2" y1="242.7" x2="200.9" y2="242.7"/>
			<line class="st3" x1="195.2" y1="238.7" x2="200.9" y2="238.7"/>
			<line class="st3" x1="195.2" y1="234.6" x2="200.9" y2="234.6"/>
			<line class="st3" x1="195.2" y1="230.5" x2="200.9" y2="230.5"/>
			<line class="st3" x1="195.2" y1="226.5" x2="200.9" y2="226.5"/>
			<line class="st3" x1="195.2" y1="222.4" x2="200.9" y2="222.4"/>
			<line class="st3" x1="195.2" y1="218.3" x2="200.9" y2="218.3"/>
		</g>
		<g>
			
				<rect x="143.1" y="271.1" transform="matrix(-1 -4.490642e-11 4.490642e-11 -1 338.4148 548.0732)" class="st2" width="52.3" height="5.8"/>
			<line class="st3" x1="192.5" y1="276.9" x2="192.5" y2="271.1"/>
			<line class="st3" x1="188.4" y1="276.9" x2="188.4" y2="271.1"/>
			<line class="st3" x1="184.3" y1="276.9" x2="184.3" y2="271.1"/>
			<line class="st3" x1="180.3" y1="276.9" x2="180.3" y2="271.1"/>
			<line class="st3" x1="176.2" y1="276.9" x2="176.2" y2="271.1"/>
			<line class="st3" x1="172.1" y1="276.9" x2="172.1" y2="271.1"/>
			<line class="st3" x1="168.1" y1="276.9" x2="168.1" y2="271.1"/>
			<line class="st3" x1="164" y1="276.9" x2="164" y2="271.1"/>
			<line class="st3" x1="159.9" y1="276.9" x2="159.9" y2="271.1"/>
			<line class="st3" x1="155.9" y1="276.9" x2="155.9" y2="271.1"/>
			<line class="st3" x1="151.8" y1="276.9" x2="151.8" y2="271.1"/>
			<line class="st3" x1="147.7" y1="276.9" x2="147.7" y2="271.1"/>
			<line class="st3" x1="143.7" y1="276.9" x2="143.7" y2="271.1"/>
		</g>
		<g>
			
				<rect x="115.3" y="243.8" transform="matrix(4.490814e-11 -1 1 4.490814e-11 -108.075 385.3367)" class="st2" width="46.7" height="5.8"/>
			<line class="st3" x1="135.7" y1="267.1" x2="141.5" y2="267.1"/>
			<line class="st3" x1="135.7" y1="263.1" x2="141.5" y2="263.1"/>
			<line class="st3" x1="135.7" y1="259" x2="141.5" y2="259"/>
			<line class="st3" x1="135.7" y1="254.9" x2="141.5" y2="254.9"/>
			<line class="st3" x1="135.7" y1="250.9" x2="141.5" y2="250.9"/>
			<line class="st3" x1="135.7" y1="246.8" x2="141.5" y2="246.8"/>
			<line class="st3" x1="135.7" y1="242.7" x2="141.5" y2="242.7"/>
			<line class="st3" x1="135.7" y1="238.7" x2="141.5" y2="238.7"/>
			<line class="st3" x1="135.7" y1="234.6" x2="141.5" y2="234.6"/>
			<line class="st3" x1="135.7" y1="230.5" x2="141.5" y2="230.5"/>
			<line class="st3" x1="135.7" y1="226.5" x2="141.5" y2="226.5"/>
			<line class="st3" x1="135.7" y1="222.4" x2="141.5" y2="222.4"/>
		</g>
		<g>
			<path class="st4" d="M138.6,268.2c3.2,0,5.9,2.6,5.9,5.9c0,3.2-2.6,5.9-5.9,5.9c-3.2,0-5.9-2.6-5.9-5.9
				C132.7,270.8,135.4,268.2,138.6,268.2z"/>
			<path class="st5" d="M138.6,271.1c1.6,0,2.9,1.3,2.9,2.9c0,1.6-1.3,2.9-2.9,2.9c-1.6,0-2.9-1.3-2.9-2.9
				C135.7,272.4,137,271.1,138.6,271.1z"/>
		</g>
		<g>
			<path class="st4" d="M198,268.2c3.2,0,5.9,2.6,5.9,5.9c0,3.2-2.6,5.9-5.9,5.9c-3.2,0-5.9-2.6-5.9-5.9
				C192.2,270.8,194.8,268.2,198,268.2z"/>
			<path class="st5" d="M198,271.1c1.6,0,2.9,1.3,2.9,2.9c0,1.6-1.3,2.9-2.9,2.9c-1.6,0-2.9-1.3-2.9-2.9
				C195.2,272.4,196.5,271.1,198,271.1z"/>
		</g>
		<g>
			<g>
				<path class="st6" d="M129.1,208.4v7c0,5.2,4.3,9.5,9.5,9.5c5.2,0,9.5-4.3,9.5-9.5l0-7h-5.6v7c0,2.2-1.8,3.9-3.9,3.9
					c-2.2,0-3.9-1.8-3.9-3.9l0-7H129.1z"/>
			</g>
			<g>
				<path class="st7" d="M146.5,215.1v-6.7h1.6v7c0,5.1-4.1,9.3-9.1,9.5C143.3,223.9,146.5,219.9,146.5,215.1z"/>
				<path class="st7" d="M137.6,219.2c-0.2,0-0.4,0.1-0.6,0.1c-2.2,0-3.9-1.9-3.9-4.1v-6.7l1.6,0l0,7
					C134.7,217.2,136,218.7,137.6,219.2z"/>
			</g>
		</g>
		
			<rect x="181.1" y="269.9" transform="matrix(4.502094e-11 -1 1 4.502094e-11 -90.0235 458.0497)" class="st8" width="5.8" height="8.3"/>
	</g>
	<g class="st1">
		<circle class="st9" cx="110.4" cy="266.5" r="2.7"/>
		<path class="st9" d="M121.7,269.3c0.2-0.9,0.3-1.8,0.3-2.8c0-1-0.1-1.9-0.3-2.8l-2.9,0.6c-0.2-0.8-0.5-1.5-0.9-2.2l2.5-1.7
			c-1-1.6-2.3-2.9-3.9-3.9l-1.7,2.5c-0.7-0.4-1.4-0.7-2.2-0.9l0.6-2.9c-0.9-0.2-1.8-0.3-2.8-0.3c-1,0-1.9,0.1-2.8,0.3l0.6,2.9
			c-0.8,0.2-1.5,0.5-2.2,0.9l-1.7-2.5c-1.6,1-2.9,2.3-3.9,3.9l2.5,1.7c-0.4,0.7-0.7,1.4-0.9,2.2l-2.9-0.6c-0.2,0.9-0.3,1.8-0.3,2.8
			c0,1,0.1,1.9,0.3,2.8l2.9-0.6c0.2,0.8,0.5,1.5,0.9,2.2l-2.5,1.7c1,1.6,2.3,2.9,3.9,3.9l1.7-2.5c0.7,0.4,1.4,0.7,2.2,0.9l-0.6,2.9
			c0.9,0.2,1.8,0.3,2.8,0.3c1,0,1.9-0.1,2.8-0.3l-0.6-2.9c0.8-0.2,1.5-0.5,2.2-0.9l1.7,2.5c1.6-1,2.9-2.3,3.9-3.9l-2.5-1.7
			c0.4-0.7,0.7-1.4,0.9-2.2L121.7,269.3z M110.4,272.2c-3.1,0-5.7-2.6-5.7-5.7c0-3.1,2.6-5.7,5.7-5.7c3.1,0,5.7,2.6,5.7,5.7
			C116.1,269.7,113.6,272.2,110.4,272.2z"/>
	</g>
	<g class="st1">
		<g>
			<rect x="196" y="263.1" class="st10" width="67.9" height="47.6"/>
			<rect x="196" y="263.1" class="st11" width="67.9" height="7.5"/>
			<path class="st12" d="M249,266.8c0,0.9-0.7,1.5-1.5,1.5c-0.9,0-1.5-0.7-1.5-1.5c0-0.9,0.7-1.5,1.5-1.5
				C248.3,265.3,249,266,249,266.8z"/>
			<path class="st12" d="M255,266.8c0,0.9-0.7,1.5-1.5,1.5c-0.9,0-1.5-0.7-1.5-1.5c0-0.9,0.7-1.5,1.5-1.5
				C254.3,265.3,255,266,255,266.8z"/>
			<circle class="st12" cx="259.4" cy="266.8" r="1.5"/>
			<g>
				
					<rect x="231.2" y="276" transform="matrix(-1 -1.224647e-16 1.224647e-16 -1 488.4933 567.3673)" class="st13" width="26.1" height="15.4"/>
				<g>
					
						<rect x="202.6" y="276" transform="matrix(-1 -1.224647e-16 1.224647e-16 -1 430.713 553.7749)" class="st13" width="25.4" height="1.8"/>
					
						<rect x="202.6" y="280.5" transform="matrix(-1 -1.224647e-16 1.224647e-16 -1 430.713 562.8364)" class="st13" width="25.4" height="1.8"/>
					
						<rect x="202.6" y="285" transform="matrix(-1 -1.224647e-16 1.224647e-16 -1 430.713 571.8981)" class="st13" width="25.4" height="1.8"/>
					
						<rect x="202.6" y="289.6" transform="matrix(-1 -1.224647e-16 1.224647e-16 -1 430.713 580.9598)" class="st13" width="25.4" height="1.8"/>
					
						<rect x="202.6" y="294.1" transform="matrix(-1 -1.224647e-16 1.224647e-16 -1 459.9448 590.0215)" class="st13" width="54.7" height="1.8"/>
					
						<rect x="202.6" y="298.6" transform="matrix(-1 -1.224647e-16 1.224647e-16 -1 459.9448 599.0829)" class="st13" width="54.7" height="1.8"/>
					
						<rect x="202.6" y="303.2" transform="matrix(-1 -1.224647e-16 1.224647e-16 -1 459.9448 608.1445)" class="st13" width="54.7" height="1.8"/>
				</g>
			</g>
		</g>
		<rect x="198.2" y="223.8" class="st14" width="143" height="5"/>
		<linearGradient id="SVGID_1_" gradientUnits="userSpaceOnUse" x1="196.911" y1="209.9065" x2="322.3452" y2="324.8877">
			<stop  offset="4.629630e-03" style="stop-color:#808285"/>
			<stop  offset="1" style="stop-color:#D1D3D4"/>
		</linearGradient>
		<path class="st15" d="M341.2,227.3H198.4c-2.8,0-5.1,2.3-5.1,5.1v88.5c0,2.8,2.3,5.1,5.1,5.1h142.8c2.8,0,5.1-2.3,5.1-5.1v-88.5
			C346.3,229.6,344,227.3,341.2,227.3z"/>
		<path class="st9" d="M289.3,297.5h-39.1c-0.7,0-1.3,0.6-1.3,1.3v20.8c0,0.7,0.6,1.3,1.3,1.3h39.1c0.7,0,1.3-0.6,1.3-1.3v-20.8
			C290.6,298.1,290,297.5,289.3,297.5z"/>
		<g>
			<g>
				<path class="st9" d="M207.1,232.2h-6.7c-0.5,0-0.8,0.4-0.8,0.8v6.7c0,0.5,0.4,0.8,0.8,0.8h6.7c0.5,0,0.8-0.4,0.8-0.8V233
					C208,232.6,207.6,232.2,207.1,232.2z"/>
				<path class="st9" d="M226,232.2h-6.7c-0.5,0-0.8,0.4-0.8,0.8v6.7c0,0.5,0.4,0.8,0.8,0.8h6.7c0.5,0,0.8-0.4,0.8-0.8V233
					C226.8,232.6,226.4,232.2,226,232.2z"/>
				<path class="st9" d="M235.4,232.2h-6.7c-0.5,0-0.8,0.4-0.8,0.8v6.7c0,0.5,0.4,0.8,0.8,0.8h6.7c0.5,0,0.8-0.4,0.8-0.8V233
					C236.2,232.6,235.9,232.2,235.4,232.2z"/>
				<path class="st9" d="M244.8,232.2h-6.7c-0.5,0-0.8,0.4-0.8,0.8v6.7c0,0.5,0.4,0.8,0.8,0.8h6.7c0.5,0,0.8-0.4,0.8-0.8V233
					C245.7,232.6,245.3,232.2,244.8,232.2z"/>
				<path class="st9" d="M254.3,232.2h-6.7c-0.5,0-0.8,0.4-0.8,0.8v6.7c0,0.5,0.4,0.8,0.8,0.8h6.7c0.5,0,0.8-0.4,0.8-0.8V233
					C255.1,232.6,254.7,232.2,254.3,232.2z"/>
				<path class="st9" d="M263.7,232.2H257c-0.5,0-0.8,0.4-0.8,0.8v6.7c0,0.5,0.4,0.8,0.8,0.8h6.7c0.5,0,0.8-0.4,0.8-0.8V233
					C264.5,232.6,264.1,232.2,263.7,232.2z"/>
				<path class="st9" d="M273.1,232.2h-6.7c-0.5,0-0.8,0.4-0.8,0.8v6.7c0,0.5,0.4,0.8,0.8,0.8h6.7c0.5,0,0.8-0.4,0.8-0.8V233
					C273.9,232.6,273.6,232.2,273.1,232.2z"/>
				<path class="st9" d="M282.5,232.2h-6.7c-0.5,0-0.8,0.4-0.8,0.8v6.7c0,0.5,0.4,0.8,0.8,0.8h6.7c0.5,0,0.8-0.4,0.8-0.8V233
					C283.4,232.6,283,232.2,282.5,232.2z"/>
				<path class="st9" d="M292,232.2h-6.7c-0.5,0-0.8,0.4-0.8,0.8v6.7c0,0.5,0.4,0.8,0.8,0.8h6.7c0.5,0,0.8-0.4,0.8-0.8V233
					C292.8,232.6,292.4,232.2,292,232.2z"/>
				<path class="st9" d="M301.4,232.2h-6.7c-0.5,0-0.8,0.4-0.8,0.8v6.7c0,0.5,0.4,0.8,0.8,0.8h6.7c0.5,0,0.8-0.4,0.8-0.8V233
					C302.2,232.6,301.8,232.2,301.4,232.2z"/>
				<path class="st9" d="M310.8,232.2h-6.7c-0.5,0-0.8,0.4-0.8,0.8v6.7c0,0.5,0.4,0.8,0.8,0.8h6.7c0.5,0,0.8-0.4,0.8-0.8V233
					C311.6,232.6,311.3,232.2,310.8,232.2z"/>
				<path class="st9" d="M320.2,232.2h-6.7c-0.5,0-0.8,0.4-0.8,0.8v6.7c0,0.5,0.4,0.8,0.8,0.8h6.7c0.5,0,0.8-0.4,0.8-0.8V233
					C321.1,232.6,320.7,232.2,320.2,232.2z"/>
				<path class="st9" d="M329.7,232.2H323c-0.5,0-0.8,0.4-0.8,0.8v6.7c0,0.5,0.4,0.8,0.8,0.8h6.7c0.5,0,0.8-0.4,0.8-0.8V233
					C330.5,232.6,330.1,232.2,329.7,232.2z"/>
				<path class="st9" d="M339.1,232.2h-6.7c-0.5,0-0.8,0.4-0.8,0.8v6.7c0,0.5,0.4,0.8,0.8,0.8h6.7c0.5,0,0.8-0.4,0.8-0.8V233
					C339.9,232.6,339.5,232.2,339.1,232.2z"/>
				<path class="st9" d="M207.1,245.7h-6.7c-0.5,0-0.8,0.4-0.8,0.8v6.7c0,0.5,0.4,0.8,0.8,0.8h6.7c0.5,0,0.8-0.4,0.8-0.8v-6.7
					C208,246.1,207.6,245.7,207.1,245.7z"/>
				<path class="st9" d="M207.1,264.6h-6.7c-0.5,0-0.8,0.4-0.8,0.8v6.7c0,0.5,0.4,0.8,0.8,0.8h6.7c0.5,0,0.8-0.4,0.8-0.8v-6.7
					C208,265,207.6,264.6,207.1,264.6z"/>
				<path class="st9" d="M216.6,245.7h-6.7c-0.5,0-0.8,0.4-0.8,0.8v6.7c0,0.5,0.4,0.8,0.8,0.8h6.7c0.5,0,0.8-0.4,0.8-0.8v-6.7
					C217.4,246.1,217,245.7,216.6,245.7z"/>
				<path class="st9" d="M216.6,264.6h-6.7c-0.5,0-0.8,0.4-0.8,0.8v6.7c0,0.5,0.4,0.8,0.8,0.8h6.7c0.5,0,0.8-0.4,0.8-0.8v-6.7
					C217.4,265,217,264.6,216.6,264.6z"/>
				<path class="st9" d="M226,245.7h-6.7c-0.5,0-0.8,0.4-0.8,0.8v6.7c0,0.5,0.4,0.8,0.8,0.8h6.7c0.5,0,0.8-0.4,0.8-0.8v-6.7
					C226.8,246.1,226.4,245.7,226,245.7z"/>
				<path class="st9" d="M235.4,245.7h-6.7c-0.5,0-0.8,0.4-0.8,0.8v6.7c0,0.5,0.4,0.8,0.8,0.8h6.7c0.5,0,0.8-0.4,0.8-0.8v-6.7
					C236.2,246.1,235.9,245.7,235.4,245.7z"/>
				<path class="st9" d="M244.8,245.7h-6.7c-0.5,0-0.8,0.4-0.8,0.8v6.7c0,0.5,0.4,0.8,0.8,0.8h6.7c0.5,0,0.8-0.4,0.8-0.8v-6.7
					C245.7,246.1,245.3,245.7,244.8,245.7z"/>
				<path class="st9" d="M254.3,245.7h-6.7c-0.5,0-0.8,0.4-0.8,0.8v6.7c0,0.5,0.4,0.8,0.8,0.8h6.7c0.5,0,0.8-0.4,0.8-0.8v-6.7
					C255.1,246.1,254.7,245.7,254.3,245.7z"/>
				<path class="st9" d="M263.7,245.7H257c-0.5,0-0.8,0.4-0.8,0.8v6.7c0,0.5,0.4,0.8,0.8,0.8h6.7c0.5,0,0.8-0.4,0.8-0.8v-6.7
					C264.5,246.1,264.1,245.7,263.7,245.7z"/>
				<path class="st9" d="M273.1,245.7h-6.7c-0.5,0-0.8,0.4-0.8,0.8v6.7c0,0.5,0.4,0.8,0.8,0.8h6.7c0.5,0,0.8-0.4,0.8-0.8v-6.7
					C273.9,246.1,273.6,245.7,273.1,245.7z"/>
				<path class="st9" d="M282.5,245.7h-6.7c-0.5,0-0.8,0.4-0.8,0.8v6.7c0,0.5,0.4,0.8,0.8,0.8h6.7c0.5,0,0.8-0.4,0.8-0.8v-6.7
					C283.4,246.1,283,245.7,282.5,245.7z"/>
				<path class="st9" d="M292,245.7h-6.7c-0.5,0-0.8,0.4-0.8,0.8v6.7c0,0.5,0.4,0.8,0.8,0.8h6.7c0.5,0,0.8-0.4,0.8-0.8v-6.7
					C292.8,246.1,292.4,245.7,292,245.7z"/>
				<path class="st9" d="M301.4,245.7h-6.7c-0.5,0-0.8,0.4-0.8,0.8v6.7c0,0.5,0.4,0.8,0.8,0.8h6.7c0.5,0,0.8-0.4,0.8-0.8v-6.7
					C302.2,246.1,301.8,245.7,301.4,245.7z"/>
				<path class="st9" d="M310.8,245.7h-6.7c-0.5,0-0.8,0.4-0.8,0.8v6.7c0,0.5,0.4,0.8,0.8,0.8h6.7c0.5,0,0.8-0.4,0.8-0.8v-6.7
					C311.6,246.1,311.3,245.7,310.8,245.7z"/>
				<path class="st9" d="M320.2,245.7h-6.7c-0.5,0-0.8,0.4-0.8,0.8v6.7c0,0.5,0.4,0.8,0.8,0.8h6.7c0.5,0,0.8-0.4,0.8-0.8v-6.7
					C321.1,246.1,320.7,245.7,320.2,245.7z"/>
				<path class="st9" d="M226,264.6h-6.7c-0.5,0-0.8,0.4-0.8,0.8v6.7c0,0.5,0.4,0.8,0.8,0.8h6.7c0.5,0,0.8-0.4,0.8-0.8v-6.7
					C226.8,265,226.4,264.6,226,264.6z"/>
				<path class="st9" d="M235.4,264.6h-6.7c-0.5,0-0.8,0.4-0.8,0.8v6.7c0,0.5,0.4,0.8,0.8,0.8h6.7c0.5,0,0.8-0.4,0.8-0.8v-6.7
					C236.2,265,235.9,264.6,235.4,264.6z"/>
				<path class="st9" d="M244.8,264.6h-6.7c-0.5,0-0.8,0.4-0.8,0.8v6.7c0,0.5,0.4,0.8,0.8,0.8h6.7c0.5,0,0.8-0.4,0.8-0.8v-6.7
					C245.7,265,245.3,264.6,244.8,264.6z"/>
				<path class="st9" d="M254.3,264.6h-6.7c-0.5,0-0.8,0.4-0.8,0.8v6.7c0,0.5,0.4,0.8,0.8,0.8h6.7c0.5,0,0.8-0.4,0.8-0.8v-6.7
					C255.1,265,254.7,264.6,254.3,264.6z"/>
				<path class="st9" d="M263.7,264.6H257c-0.5,0-0.8,0.4-0.8,0.8v6.7c0,0.5,0.4,0.8,0.8,0.8h6.7c0.5,0,0.8-0.4,0.8-0.8v-6.7
					C264.5,265,264.1,264.6,263.7,264.6z"/>
				<path class="st9" d="M273.1,264.6h-6.7c-0.5,0-0.8,0.4-0.8,0.8v6.7c0,0.5,0.4,0.8,0.8,0.8h6.7c0.5,0,0.8-0.4,0.8-0.8v-6.7
					C273.9,265,273.6,264.6,273.1,264.6z"/>
				<path class="st9" d="M282.5,264.6h-6.7c-0.5,0-0.8,0.4-0.8,0.8v6.7c0,0.5,0.4,0.8,0.8,0.8h6.7c0.5,0,0.8-0.4,0.8-0.8v-6.7
					C283.4,265,283,264.6,282.5,264.6z"/>
				<path class="st9" d="M292,264.6h-6.7c-0.5,0-0.8,0.4-0.8,0.8v6.7c0,0.5,0.4,0.8,0.8,0.8h6.7c0.5,0,0.8-0.4,0.8-0.8v-6.7
					C292.8,265,292.4,264.6,292,264.6z"/>
				<path class="st9" d="M301.4,264.6h-6.7c-0.5,0-0.8,0.4-0.8,0.8v6.7c0,0.5,0.4,0.8,0.8,0.8h6.7c0.5,0,0.8-0.4,0.8-0.8v-6.7
					C302.2,265,301.8,264.6,301.4,264.6z"/>
				<path class="st9" d="M310.8,264.6h-6.7c-0.5,0-0.8,0.4-0.8,0.8v6.7c0,0.5,0.4,0.8,0.8,0.8h6.7c0.5,0,0.8-0.4,0.8-0.8v-6.7
					C311.6,265,311.3,264.6,310.8,264.6z"/>
				<path class="st9" d="M339.1,245.7H323c-0.5,0-0.8,0.4-0.8,0.8v6.7c0,0.5,0.4,0.8,0.8,0.8h16.1c0.5,0,0.8-0.4,0.8-0.8v-6.7
					C339.9,246.1,339.5,245.7,339.1,245.7z"/>
				<path class="st9" d="M320.2,283.4h-6.7c-0.5,0-0.8,0.4-0.8,0.8v6.7c0,0.5,0.4,0.8,0.8,0.8h6.7c0.5,0,0.8-0.4,0.8-0.8v-6.7
					C321.1,283.8,320.7,283.4,320.2,283.4z"/>
				<path class="st9" d="M339.1,283.4H323c-0.5,0-0.8,0.4-0.8,0.8v6.7c0,0.5,0.4,0.8,0.8,0.8h16.1c0.5,0,0.8-0.4,0.8-0.8v-6.7
					C339.9,283.8,339.5,283.4,339.1,283.4z"/>
				<path class="st9" d="M207.1,283.4h-6.7c-0.5,0-0.8,0.4-0.8,0.8v6.7c0,0.5,0.4,0.8,0.8,0.8h6.7c0.5,0,0.8-0.4,0.8-0.8v-6.7
					C208,283.8,207.6,283.4,207.1,283.4z"/>
				<path class="st9" d="M216.6,283.4h-6.7c-0.5,0-0.8,0.4-0.8,0.8v6.7c0,0.5,0.4,0.8,0.8,0.8h6.7c0.5,0,0.8-0.4,0.8-0.8v-6.7
					C217.4,283.8,217,283.4,216.6,283.4z"/>
				<path class="st9" d="M226,283.4h-6.7c-0.5,0-0.8,0.4-0.8,0.8v6.7c0,0.5,0.4,0.8,0.8,0.8h6.7c0.5,0,0.8-0.4,0.8-0.8v-6.7
					C226.8,283.8,226.4,283.4,226,283.4z"/>
				<path class="st9" d="M292,283.4h-63.2c-0.5,0-0.8,0.4-0.8,0.8v6.7c0,0.5,0.4,0.8,0.8,0.8H292c0.5,0,0.8-0.4,0.8-0.8v-6.7
					C292.8,283.8,292.4,283.4,292,283.4z"/>
				<path class="st9" d="M301.4,283.4h-6.7c-0.5,0-0.8,0.4-0.8,0.8v6.7c0,0.5,0.4,0.8,0.8,0.8h6.7c0.5,0,0.8-0.4,0.8-0.8v-6.7
					C302.2,283.8,301.8,283.4,301.4,283.4z"/>
				<path class="st9" d="M310.8,283.4h-6.7c-0.5,0-0.8,0.4-0.8,0.8v6.7c0,0.5,0.4,0.8,0.8,0.8h6.7c0.5,0,0.8-0.4,0.8-0.8v-6.7
					C311.6,283.8,311.3,283.4,310.8,283.4z"/>
				<path class="st9" d="M221.2,255.2h-6.7c-0.5,0-0.8,0.4-0.8,0.8v6.7c0,0.5,0.4,0.8,0.8,0.8h6.7c0.5,0,0.8-0.4,0.8-0.8V256
					C222.1,255.5,221.7,255.2,221.2,255.2z"/>
				<path class="st9" d="M230.7,255.2H224c-0.5,0-0.8,0.4-0.8,0.8v6.7c0,0.5,0.4,0.8,0.8,0.8h6.7c0.5,0,0.8-0.4,0.8-0.8V256
					C231.5,255.5,231.1,255.2,230.7,255.2z"/>
				<path class="st9" d="M240.1,255.2h-6.7c-0.5,0-0.8,0.4-0.8,0.8v6.7c0,0.5,0.4,0.8,0.8,0.8h6.7c0.5,0,0.8-0.4,0.8-0.8V256
					C240.9,255.5,240.6,255.2,240.1,255.2z"/>
				<path class="st9" d="M249.5,255.2h-6.7c-0.5,0-0.8,0.4-0.8,0.8v6.7c0,0.5,0.4,0.8,0.8,0.8h6.7c0.5,0,0.8-0.4,0.8-0.8V256
					C250.3,255.5,250,255.2,249.5,255.2z"/>
				<path class="st9" d="M258.9,255.2h-6.7c-0.5,0-0.8,0.4-0.8,0.8v6.7c0,0.5,0.4,0.8,0.8,0.8h6.7c0.5,0,0.8-0.4,0.8-0.8V256
					C259.8,255.5,259.4,255.2,258.9,255.2z"/>
				<path class="st9" d="M268.4,255.2h-6.7c-0.5,0-0.8,0.4-0.8,0.8v6.7c0,0.5,0.4,0.8,0.8,0.8h6.7c0.5,0,0.8-0.4,0.8-0.8V256
					C269.2,255.5,268.8,255.2,268.4,255.2z"/>
				<path class="st9" d="M277.8,255.2h-6.7c-0.5,0-0.8,0.4-0.8,0.8v6.7c0,0.5,0.4,0.8,0.8,0.8h6.7c0.5,0,0.8-0.4,0.8-0.8V256
					C278.6,255.5,278.3,255.2,277.8,255.2z"/>
				<path class="st9" d="M287.2,255.2h-6.7c-0.5,0-0.8,0.4-0.8,0.8v6.7c0,0.5,0.4,0.8,0.8,0.8h6.7c0.5,0,0.8-0.4,0.8-0.8V256
					C288,255.5,287.7,255.2,287.2,255.2z"/>
				<path class="st9" d="M296.6,255.2H290c-0.5,0-0.8,0.4-0.8,0.8v6.7c0,0.5,0.4,0.8,0.8,0.8h6.7c0.5,0,0.8-0.4,0.8-0.8V256
					C297.5,255.5,297.1,255.2,296.6,255.2z"/>
				<path class="st9" d="M306.1,255.2h-6.7c-0.5,0-0.8,0.4-0.8,0.8v6.7c0,0.5,0.4,0.8,0.8,0.8h6.7c0.5,0,0.8-0.4,0.8-0.8V256
					C306.9,255.5,306.5,255.2,306.1,255.2z"/>
				<path class="st9" d="M315.5,255.2h-6.7c-0.5,0-0.8,0.4-0.8,0.8v6.7c0,0.5,0.4,0.8,0.8,0.8h6.7c0.5,0,0.8-0.4,0.8-0.8V256
					C316.3,255.5,316,255.2,315.5,255.2z"/>
				<path class="st9" d="M324.9,255.2h-6.7c-0.5,0-0.8,0.4-0.8,0.8v6.7c0,0.5,0.4,0.8,0.8,0.8h6.7c0.5,0,0.8-0.4,0.8-0.8V256
					C325.7,255.5,325.4,255.2,324.9,255.2z"/>
				<path class="st9" d="M339.1,255.2h-11.4c-0.5,0-0.8,0.4-0.8,0.8v6.7c0,0.5,0.4,0.8,0.8,0.8h11.4c0.5,0,0.8-0.4,0.8-0.8V256
					C339.9,255.5,339.5,255.2,339.1,255.2z"/>
				<path class="st9" d="M211.9,255.2h-11.4c-0.5,0-0.8,0.4-0.8,0.8v6.7c0,0.5,0.4,0.8,0.8,0.8h11.4c0.5,0,0.8-0.4,0.8-0.8V256
					C212.7,255.5,212.3,255.2,211.9,255.2z"/>
				<path class="st9" d="M221.2,274h-6.7c-0.5,0-0.8,0.4-0.8,0.8v6.7c0,0.5,0.4,0.8,0.8,0.8h6.7c0.5,0,0.8-0.4,0.8-0.8v-6.7
					C222.1,274.4,221.7,274,221.2,274z"/>
				<path class="st9" d="M230.7,274H224c-0.5,0-0.8,0.4-0.8,0.8v6.7c0,0.5,0.4,0.8,0.8,0.8h6.7c0.5,0,0.8-0.4,0.8-0.8v-6.7
					C231.5,274.4,231.1,274,230.7,274z"/>
				<path class="st9" d="M240.1,274h-6.7c-0.5,0-0.8,0.4-0.8,0.8v6.7c0,0.5,0.4,0.8,0.8,0.8h6.7c0.5,0,0.8-0.4,0.8-0.8v-6.7
					C240.9,274.4,240.6,274,240.1,274z"/>
				<path class="st9" d="M249.5,274h-6.7c-0.5,0-0.8,0.4-0.8,0.8v6.7c0,0.5,0.4,0.8,0.8,0.8h6.7c0.5,0,0.8-0.4,0.8-0.8v-6.7
					C250.3,274.4,250,274,249.5,274z"/>
				<path class="st9" d="M258.9,274h-6.7c-0.5,0-0.8,0.4-0.8,0.8v6.7c0,0.5,0.4,0.8,0.8,0.8h6.7c0.5,0,0.8-0.4,0.8-0.8v-6.7
					C259.8,274.4,259.4,274,258.9,274z"/>
				<path class="st9" d="M268.4,274h-6.7c-0.5,0-0.8,0.4-0.8,0.8v6.7c0,0.5,0.4,0.8,0.8,0.8h6.7c0.5,0,0.8-0.4,0.8-0.8v-6.7
					C269.2,274.4,268.8,274,268.4,274z"/>
				<path class="st9" d="M277.8,274h-6.7c-0.5,0-0.8,0.4-0.8,0.8v6.7c0,0.5,0.4,0.8,0.8,0.8h6.7c0.5,0,0.8-0.4,0.8-0.8v-6.7
					C278.6,274.4,278.3,274,277.8,274z"/>
				<path class="st9" d="M287.2,274h-6.7c-0.5,0-0.8,0.4-0.8,0.8v6.7c0,0.5,0.4,0.8,0.8,0.8h6.7c0.5,0,0.8-0.4,0.8-0.8v-6.7
					C288,274.4,287.7,274,287.2,274z"/>
				<path class="st9" d="M296.6,274H290c-0.5,0-0.8,0.4-0.8,0.8v6.7c0,0.5,0.4,0.8,0.8,0.8h6.7c0.5,0,0.8-0.4,0.8-0.8v-6.7
					C297.5,274.4,297.1,274,296.6,274z"/>
				<path class="st9" d="M306.1,274h-6.7c-0.5,0-0.8,0.4-0.8,0.8v6.7c0,0.5,0.4,0.8,0.8,0.8h6.7c0.5,0,0.8-0.4,0.8-0.8v-6.7
					C306.9,274.4,306.5,274,306.1,274z"/>
				<path class="st9" d="M315.5,274h-6.7c-0.5,0-0.8,0.4-0.8,0.8v6.7c0,0.5,0.4,0.8,0.8,0.8h6.7c0.5,0,0.8-0.4,0.8-0.8v-6.7
					C316.3,274.4,316,274,315.5,274z"/>
				<path class="st9" d="M324.9,274h-6.7c-0.5,0-0.8,0.4-0.8,0.8v6.7c0,0.5,0.4,0.8,0.8,0.8h6.7c0.5,0,0.8-0.4,0.8-0.8v-6.7
					C325.7,274.4,325.4,274,324.9,274z"/>
				<path class="st9" d="M339.1,274h-11.4c-0.5,0-0.8,0.4-0.8,0.8v6.7c0,0.5,0.4,0.8,0.8,0.8h11.4c0.5,0,0.8-0.4,0.8-0.8v-6.7
					C339.9,274.4,339.5,274,339.1,274z"/>
				<path class="st9" d="M211.9,274h-11.4c-0.5,0-0.8,0.4-0.8,0.8v6.7c0,0.5,0.4,0.8,0.8,0.8h11.4c0.5,0,0.8-0.4,0.8-0.8v-6.7
					C212.7,274.4,212.3,274,211.9,274z"/>
				<text transform="matrix(1 0 0 1 316.8661 270.6256)" class="st16 st17 st18">Enter</text>
			</g>
			<g class="st19">
				<path class="st9" d="M200.5,240.5h6.7c0.5,0,0.8-0.4,0.8-0.8V233c0-0.5-0.4-0.8-0.8-0.8h-6.7c-0.5,0-0.8,0.4-0.8,0.8v6.7
					C199.6,240.2,200,240.5,200.5,240.5z M200.2,233c0-0.1,0.1-0.3,0.3-0.3h6.7c0.1,0,0.3,0.1,0.3,0.3v6.7c0,0.1-0.1,0.3-0.3,0.3
					h-6.7c-0.1,0-0.3-0.1-0.3-0.3V233z"/>
				<path class="st9" d="M219.3,240.5h6.7c0.5,0,0.8-0.4,0.8-0.8V233c0-0.5-0.4-0.8-0.8-0.8h-6.7c-0.5,0-0.8,0.4-0.8,0.8v6.7
					C218.5,240.2,218.9,240.5,219.3,240.5z M219.1,233c0-0.1,0.1-0.3,0.3-0.3h6.7c0.1,0,0.3,0.1,0.3,0.3v6.7c0,0.1-0.1,0.3-0.3,0.3
					h-6.7c-0.1,0-0.3-0.1-0.3-0.3V233z"/>
				<path class="st9" d="M228.7,240.5h6.7c0.5,0,0.8-0.4,0.8-0.8V233c0-0.5-0.4-0.8-0.8-0.8h-6.7c-0.5,0-0.8,0.4-0.8,0.8v6.7
					C227.9,240.2,228.3,240.5,228.7,240.5z M228.5,233c0-0.1,0.1-0.3,0.3-0.3h6.7c0.1,0,0.3,0.1,0.3,0.3v6.7c0,0.1-0.1,0.3-0.3,0.3
					h-6.7c-0.1,0-0.3-0.1-0.3-0.3V233z"/>
				<path class="st9" d="M238.2,240.5h6.7c0.5,0,0.8-0.4,0.8-0.8V233c0-0.5-0.4-0.8-0.8-0.8h-6.7c-0.5,0-0.8,0.4-0.8,0.8v6.7
					C237.3,240.2,237.7,240.5,238.2,240.5z M237.9,233c0-0.1,0.1-0.3,0.3-0.3h6.7c0.1,0,0.3,0.1,0.3,0.3v6.7c0,0.1-0.1,0.3-0.3,0.3
					h-6.7c-0.1,0-0.3-0.1-0.3-0.3V233z"/>
				<path class="st9" d="M247.6,240.5h6.7c0.5,0,0.8-0.4,0.8-0.8V233c0-0.5-0.4-0.8-0.8-0.8h-6.7c-0.5,0-0.8,0.4-0.8,0.8v6.7
					C246.8,240.2,247.1,240.5,247.6,240.5z M247.3,233c0-0.1,0.1-0.3,0.3-0.3h6.7c0.1,0,0.3,0.1,0.3,0.3v6.7c0,0.1-0.1,0.3-0.3,0.3
					h-6.7c-0.1,0-0.3-0.1-0.3-0.3V233z"/>
				<path class="st9" d="M257,240.5h6.7c0.5,0,0.8-0.4,0.8-0.8V233c0-0.5-0.4-0.8-0.8-0.8H257c-0.5,0-0.8,0.4-0.8,0.8v6.7
					C256.2,240.2,256.6,240.5,257,240.5z M256.8,233c0-0.1,0.1-0.3,0.3-0.3h6.7c0.1,0,0.3,0.1,0.3,0.3v6.7c0,0.1-0.1,0.3-0.3,0.3
					H257c-0.1,0-0.3-0.1-0.3-0.3V233z"/>
				<path class="st9" d="M266.4,240.5h6.7c0.5,0,0.8-0.4,0.8-0.8V233c0-0.5-0.4-0.8-0.8-0.8h-6.7c-0.5,0-0.8,0.4-0.8,0.8v6.7
					C265.6,240.2,266,240.5,266.4,240.5z M266.2,233c0-0.1,0.1-0.3,0.3-0.3h6.7c0.1,0,0.3,0.1,0.3,0.3v6.7c0,0.1-0.1,0.3-0.3,0.3
					h-6.7c-0.1,0-0.3-0.1-0.3-0.3V233z"/>
				<path class="st9" d="M275.9,240.5h6.7c0.5,0,0.8-0.4,0.8-0.8V233c0-0.5-0.4-0.8-0.8-0.8h-6.7c-0.5,0-0.8,0.4-0.8,0.8v6.7
					C275,240.2,275.4,240.5,275.9,240.5z M275.6,233c0-0.1,0.1-0.3,0.3-0.3h6.7c0.1,0,0.3,0.1,0.3,0.3v6.7c0,0.1-0.1,0.3-0.3,0.3
					h-6.7c-0.1,0-0.3-0.1-0.3-0.3V233z"/>
				<path class="st9" d="M285.3,240.5h6.7c0.5,0,0.8-0.4,0.8-0.8V233c0-0.5-0.4-0.8-0.8-0.8h-6.7c-0.5,0-0.8,0.4-0.8,0.8v6.7
					C284.5,240.2,284.8,240.5,285.3,240.5z M285,233c0-0.1,0.1-0.3,0.3-0.3h6.7c0.1,0,0.3,0.1,0.3,0.3v6.7c0,0.1-0.1,0.3-0.3,0.3
					h-6.7c-0.1,0-0.3-0.1-0.3-0.3V233z"/>
				<path class="st9" d="M294.7,240.5h6.7c0.5,0,0.8-0.4,0.8-0.8V233c0-0.5-0.4-0.8-0.8-0.8h-6.7c-0.5,0-0.8,0.4-0.8,0.8v6.7
					C293.9,240.2,294.3,240.5,294.7,240.5z M294.5,233c0-0.1,0.1-0.3,0.3-0.3h6.7c0.1,0,0.3,0.1,0.3,0.3v6.7c0,0.1-0.1,0.3-0.3,0.3
					h-6.7c-0.1,0-0.3-0.1-0.3-0.3V233z"/>
				<path class="st9" d="M304.1,240.5h6.7c0.5,0,0.8-0.4,0.8-0.8V233c0-0.5-0.4-0.8-0.8-0.8h-6.7c-0.5,0-0.8,0.4-0.8,0.8v6.7
					C303.3,240.2,303.7,240.5,304.1,240.5z M303.9,233c0-0.1,0.1-0.3,0.3-0.3h6.7c0.1,0,0.3,0.1,0.3,0.3v6.7c0,0.1-0.1,0.3-0.3,0.3
					h-6.7c-0.1,0-0.3-0.1-0.3-0.3V233z"/>
				<path class="st9" d="M313.6,240.5h6.7c0.5,0,0.8-0.4,0.8-0.8V233c0-0.5-0.4-0.8-0.8-0.8h-6.7c-0.5,0-0.8,0.4-0.8,0.8v6.7
					C312.7,240.2,313.1,240.5,313.6,240.5z M313.3,233c0-0.1,0.1-0.3,0.3-0.3h6.7c0.1,0,0.3,0.1,0.3,0.3v6.7c0,0.1-0.1,0.3-0.3,0.3
					h-6.7c-0.1,0-0.3-0.1-0.3-0.3V233z"/>
				<path class="st9" d="M323,240.5h6.7c0.5,0,0.8-0.4,0.8-0.8V233c0-0.5-0.4-0.8-0.8-0.8H323c-0.5,0-0.8,0.4-0.8,0.8v6.7
					C322.2,240.2,322.5,240.5,323,240.5z M322.7,233c0-0.1,0.1-0.3,0.3-0.3h6.7c0.1,0,0.3,0.1,0.3,0.3v6.7c0,0.1-0.1,0.3-0.3,0.3
					H323c-0.1,0-0.3-0.1-0.3-0.3V233z"/>
				<path class="st9" d="M339.1,232.2h-6.7c-0.5,0-0.8,0.4-0.8,0.8v6.7c0,0.5,0.4,0.8,0.8,0.8h6.7c0.5,0,0.8-0.4,0.8-0.8V233
					C339.9,232.6,339.5,232.2,339.1,232.2z M339.3,239.7c0,0.1-0.1,0.3-0.3,0.3h-6.7c-0.1,0-0.3-0.1-0.3-0.3V233
					c0-0.1,0.1-0.3,0.3-0.3h6.7c0.1,0,0.3,0.1,0.3,0.3V239.7z"/>
				<path class="st9" d="M200.5,254.1h6.7c0.5,0,0.8-0.4,0.8-0.8v-6.7c0-0.5-0.4-0.8-0.8-0.8h-6.7c-0.5,0-0.8,0.4-0.8,0.8v6.7
					C199.6,253.7,200,254.1,200.5,254.1z M200.2,246.6c0-0.1,0.1-0.3,0.3-0.3h6.7c0.1,0,0.3,0.1,0.3,0.3v6.7c0,0.1-0.1,0.3-0.3,0.3
					h-6.7c-0.1,0-0.3-0.1-0.3-0.3V246.6z"/>
				<path class="st9" d="M200.5,272.9h6.7c0.5,0,0.8-0.4,0.8-0.8v-6.7c0-0.5-0.4-0.8-0.8-0.8h-6.7c-0.5,0-0.8,0.4-0.8,0.8v6.7
					C199.6,272.5,200,272.9,200.5,272.9z M200.2,265.4c0-0.1,0.1-0.3,0.3-0.3h6.7c0.1,0,0.3,0.1,0.3,0.3v6.7c0,0.1-0.1,0.3-0.3,0.3
					h-6.7c-0.1,0-0.3-0.1-0.3-0.3V265.4z"/>
				<path class="st9" d="M209.9,254.1h6.7c0.5,0,0.8-0.4,0.8-0.8v-6.7c0-0.5-0.4-0.8-0.8-0.8h-6.7c-0.5,0-0.8,0.4-0.8,0.8v6.7
					C209.1,253.7,209.4,254.1,209.9,254.1z M209.6,246.6c0-0.1,0.1-0.3,0.3-0.3h6.7c0.1,0,0.3,0.1,0.3,0.3v6.7
					c0,0.1-0.1,0.3-0.3,0.3h-6.7c-0.1,0-0.3-0.1-0.3-0.3V246.6z"/>
				<path class="st9" d="M209.1,265.4v6.7c0,0.5,0.4,0.8,0.8,0.8h6.7c0.5,0,0.8-0.4,0.8-0.8v-6.7c0-0.5-0.4-0.8-0.8-0.8h-6.7
					C209.4,264.6,209.1,265,209.1,265.4z M216.8,265.4v6.7c0,0.1-0.1,0.3-0.3,0.3h-6.7c-0.1,0-0.3-0.1-0.3-0.3v-6.7
					c0-0.1,0.1-0.3,0.3-0.3h6.7C216.7,265.2,216.8,265.3,216.8,265.4z"/>
				<path class="st9" d="M219.3,254.1h6.7c0.5,0,0.8-0.4,0.8-0.8v-6.7c0-0.5-0.4-0.8-0.8-0.8h-6.7c-0.5,0-0.8,0.4-0.8,0.8v6.7
					C218.5,253.7,218.9,254.1,219.3,254.1z M219.1,246.6c0-0.1,0.1-0.3,0.3-0.3h6.7c0.1,0,0.3,0.1,0.3,0.3v6.7
					c0,0.1-0.1,0.3-0.3,0.3h-6.7c-0.1,0-0.3-0.1-0.3-0.3V246.6z"/>
				<path class="st9" d="M228.7,254.1h6.7c0.5,0,0.8-0.4,0.8-0.8v-6.7c0-0.5-0.4-0.8-0.8-0.8h-6.7c-0.5,0-0.8,0.4-0.8,0.8v6.7
					C227.9,253.7,228.3,254.1,228.7,254.1z M228.5,246.6c0-0.1,0.1-0.3,0.3-0.3h6.7c0.1,0,0.3,0.1,0.3,0.3v6.7
					c0,0.1-0.1,0.3-0.3,0.3h-6.7c-0.1,0-0.3-0.1-0.3-0.3V246.6z"/>
				<path class="st9" d="M238.2,254.1h6.7c0.5,0,0.8-0.4,0.8-0.8v-6.7c0-0.5-0.4-0.8-0.8-0.8h-6.7c-0.5,0-0.8,0.4-0.8,0.8v6.7
					C237.3,253.7,237.7,254.1,238.2,254.1z M237.9,246.6c0-0.1,0.1-0.3,0.3-0.3h6.7c0.1,0,0.3,0.1,0.3,0.3v6.7
					c0,0.1-0.1,0.3-0.3,0.3h-6.7c-0.1,0-0.3-0.1-0.3-0.3V246.6z"/>
				<path class="st9" d="M247.6,254.1h6.7c0.5,0,0.8-0.4,0.8-0.8v-6.7c0-0.5-0.4-0.8-0.8-0.8h-6.7c-0.5,0-0.8,0.4-0.8,0.8v6.7
					C246.8,253.7,247.1,254.1,247.6,254.1z M247.3,246.6c0-0.1,0.1-0.3,0.3-0.3h6.7c0.1,0,0.3,0.1,0.3,0.3v6.7
					c0,0.1-0.1,0.3-0.3,0.3h-6.7c-0.1,0-0.3-0.1-0.3-0.3V246.6z"/>
				<path class="st9" d="M257,254.1h6.7c0.5,0,0.8-0.4,0.8-0.8v-6.7c0-0.5-0.4-0.8-0.8-0.8H257c-0.5,0-0.8,0.4-0.8,0.8v6.7
					C256.2,253.7,256.6,254.1,257,254.1z M256.8,246.6c0-0.1,0.1-0.3,0.3-0.3h6.7c0.1,0,0.3,0.1,0.3,0.3v6.7c0,0.1-0.1,0.3-0.3,0.3
					H257c-0.1,0-0.3-0.1-0.3-0.3V246.6z"/>
				<path class="st9" d="M266.4,254.1h6.7c0.5,0,0.8-0.4,0.8-0.8v-6.7c0-0.5-0.4-0.8-0.8-0.8h-6.7c-0.5,0-0.8,0.4-0.8,0.8v6.7
					C265.6,253.7,266,254.1,266.4,254.1z M266.2,246.6c0-0.1,0.1-0.3,0.3-0.3h6.7c0.1,0,0.3,0.1,0.3,0.3v6.7c0,0.1-0.1,0.3-0.3,0.3
					h-6.7c-0.1,0-0.3-0.1-0.3-0.3V246.6z"/>
				<path class="st9" d="M275.9,254.1h6.7c0.5,0,0.8-0.4,0.8-0.8v-6.7c0-0.5-0.4-0.8-0.8-0.8h-6.7c-0.5,0-0.8,0.4-0.8,0.8v6.7
					C275,253.7,275.4,254.1,275.9,254.1z M275.6,246.6c0-0.1,0.1-0.3,0.3-0.3h6.7c0.1,0,0.3,0.1,0.3,0.3v6.7c0,0.1-0.1,0.3-0.3,0.3
					h-6.7c-0.1,0-0.3-0.1-0.3-0.3V246.6z"/>
				<path class="st9" d="M285.3,254.1h6.7c0.5,0,0.8-0.4,0.8-0.8v-6.7c0-0.5-0.4-0.8-0.8-0.8h-6.7c-0.5,0-0.8,0.4-0.8,0.8v6.7
					C284.5,253.7,284.8,254.1,285.3,254.1z M285,246.6c0-0.1,0.1-0.3,0.3-0.3h6.7c0.1,0,0.3,0.1,0.3,0.3v6.7c0,0.1-0.1,0.3-0.3,0.3
					h-6.7c-0.1,0-0.3-0.1-0.3-0.3V246.6z"/>
				<path class="st9" d="M294.7,254.1h6.7c0.5,0,0.8-0.4,0.8-0.8v-6.7c0-0.5-0.4-0.8-0.8-0.8h-6.7c-0.5,0-0.8,0.4-0.8,0.8v6.7
					C293.9,253.7,294.3,254.1,294.7,254.1z M294.5,246.6c0-0.1,0.1-0.3,0.3-0.3h6.7c0.1,0,0.3,0.1,0.3,0.3v6.7
					c0,0.1-0.1,0.3-0.3,0.3h-6.7c-0.1,0-0.3-0.1-0.3-0.3V246.6z"/>
				<path class="st9" d="M304.1,254.1h6.7c0.5,0,0.8-0.4,0.8-0.8v-6.7c0-0.5-0.4-0.8-0.8-0.8h-6.7c-0.5,0-0.8,0.4-0.8,0.8v6.7
					C303.3,253.7,303.7,254.1,304.1,254.1z M303.9,246.6c0-0.1,0.1-0.3,0.3-0.3h6.7c0.1,0,0.3,0.1,0.3,0.3v6.7
					c0,0.1-0.1,0.3-0.3,0.3h-6.7c-0.1,0-0.3-0.1-0.3-0.3V246.6z"/>
				<path class="st9" d="M313.6,254.1h6.7c0.5,0,0.8-0.4,0.8-0.8v-6.7c0-0.5-0.4-0.8-0.8-0.8h-6.7c-0.5,0-0.8,0.4-0.8,0.8v6.7
					C312.7,253.7,313.1,254.1,313.6,254.1z M313.3,246.6c0-0.1,0.1-0.3,0.3-0.3h6.7c0.1,0,0.3,0.1,0.3,0.3v6.7
					c0,0.1-0.1,0.3-0.3,0.3h-6.7c-0.1,0-0.3-0.1-0.3-0.3V246.6z"/>
				<path class="st9" d="M226.8,272.1v-6.7c0-0.5-0.4-0.8-0.8-0.8h-6.7c-0.5,0-0.8,0.4-0.8,0.8v6.7c0,0.5,0.4,0.8,0.8,0.8h6.7
					C226.4,272.9,226.8,272.5,226.8,272.1z M219.1,272.1v-6.7c0-0.1,0.1-0.3,0.3-0.3h6.7c0.1,0,0.3,0.1,0.3,0.3v6.7
					c0,0.1-0.1,0.3-0.3,0.3h-6.7C219.2,272.3,219.1,272.2,219.1,272.1z"/>
				<path class="st9" d="M236.2,272.1v-6.7c0-0.5-0.4-0.8-0.8-0.8h-6.7c-0.5,0-0.8,0.4-0.8,0.8v6.7c0,0.5,0.4,0.8,0.8,0.8h6.7
					C235.9,272.9,236.2,272.5,236.2,272.1z M228.5,272.1v-6.7c0-0.1,0.1-0.3,0.3-0.3h6.7c0.1,0,0.3,0.1,0.3,0.3v6.7
					c0,0.1-0.1,0.3-0.3,0.3h-6.7C228.6,272.3,228.5,272.2,228.5,272.1z"/>
				<path class="st9" d="M245.7,272.1v-6.7c0-0.5-0.4-0.8-0.8-0.8h-6.7c-0.5,0-0.8,0.4-0.8,0.8v6.7c0,0.5,0.4,0.8,0.8,0.8h6.7
					C245.3,272.9,245.7,272.5,245.7,272.1z M237.9,272.1v-6.7c0-0.1,0.1-0.3,0.3-0.3h6.7c0.1,0,0.3,0.1,0.3,0.3v6.7
					c0,0.1-0.1,0.3-0.3,0.3h-6.7C238,272.3,237.9,272.2,237.9,272.1z"/>
				<path class="st9" d="M255.1,272.1v-6.7c0-0.5-0.4-0.8-0.8-0.8h-6.7c-0.5,0-0.8,0.4-0.8,0.8v6.7c0,0.5,0.4,0.8,0.8,0.8h6.7
					C254.7,272.9,255.1,272.5,255.1,272.1z M247.3,272.1v-6.7c0-0.1,0.1-0.3,0.3-0.3h6.7c0.1,0,0.3,0.1,0.3,0.3v6.7
					c0,0.1-0.1,0.3-0.3,0.3h-6.7C247.4,272.3,247.3,272.2,247.3,272.1z"/>
				<path class="st9" d="M264.5,272.1v-6.7c0-0.5-0.4-0.8-0.8-0.8H257c-0.5,0-0.8,0.4-0.8,0.8v6.7c0,0.5,0.4,0.8,0.8,0.8h6.7
					C264.1,272.9,264.5,272.5,264.5,272.1z M256.8,272.1v-6.7c0-0.1,0.1-0.3,0.3-0.3h6.7c0.1,0,0.3,0.1,0.3,0.3v6.7
					c0,0.1-0.1,0.3-0.3,0.3H257C256.9,272.3,256.8,272.2,256.8,272.1z"/>
				<path class="st9" d="M273.9,272.1v-6.7c0-0.5-0.4-0.8-0.8-0.8h-6.7c-0.5,0-0.8,0.4-0.8,0.8v6.7c0,0.5,0.4,0.8,0.8,0.8h6.7
					C273.6,272.9,273.9,272.5,273.9,272.1z M266.2,272.1v-6.7c0-0.1,0.1-0.3,0.3-0.3h6.7c0.1,0,0.3,0.1,0.3,0.3v6.7
					c0,0.1-0.1,0.3-0.3,0.3h-6.7C266.3,272.3,266.2,272.2,266.2,272.1z"/>
				<path class="st9" d="M283.4,272.1v-6.7c0-0.5-0.4-0.8-0.8-0.8h-6.7c-0.5,0-0.8,0.4-0.8,0.8v6.7c0,0.5,0.4,0.8,0.8,0.8h6.7
					C283,272.9,283.4,272.5,283.4,272.1z M275.6,272.1v-6.7c0-0.1,0.1-0.3,0.3-0.3h6.7c0.1,0,0.3,0.1,0.3,0.3v6.7
					c0,0.1-0.1,0.3-0.3,0.3h-6.7C275.7,272.3,275.6,272.2,275.6,272.1z"/>
				<path class="st9" d="M292.8,272.1v-6.7c0-0.5-0.4-0.8-0.8-0.8h-6.7c-0.5,0-0.8,0.4-0.8,0.8v6.7c0,0.5,0.4,0.8,0.8,0.8h6.7
					C292.4,272.9,292.8,272.5,292.8,272.1z M285,272.1v-6.7c0-0.1,0.1-0.3,0.3-0.3h6.7c0.1,0,0.3,0.1,0.3,0.3v6.7
					c0,0.1-0.1,0.3-0.3,0.3h-6.7C285.1,272.3,285,272.2,285,272.1z"/>
				<path class="st9" d="M302.2,272.1v-6.7c0-0.5-0.4-0.8-0.8-0.8h-6.7c-0.5,0-0.8,0.4-0.8,0.8v6.7c0,0.5,0.4,0.8,0.8,0.8h6.7
					C301.8,272.9,302.2,272.5,302.2,272.1z M294.5,272.1v-6.7c0-0.1,0.1-0.3,0.3-0.3h6.7c0.1,0,0.3,0.1,0.3,0.3v6.7
					c0,0.1-0.1,0.3-0.3,0.3h-6.7C294.6,272.3,294.5,272.2,294.5,272.1z"/>
				<path class="st9" d="M310.8,264.6h-6.7c-0.5,0-0.8,0.4-0.8,0.8v6.7c0,0.5,0.4,0.8,0.8,0.8h6.7c0.5,0,0.8-0.4,0.8-0.8v-6.7
					C311.6,265,311.3,264.6,310.8,264.6z M311.1,272.1c0,0.1-0.1,0.3-0.3,0.3h-6.7c-0.1,0-0.3-0.1-0.3-0.3v-6.7
					c0-0.1,0.1-0.3,0.3-0.3h6.7c0.1,0,0.3,0.1,0.3,0.3V272.1z"/>
				<path class="st9" d="M339.1,245.7H323c-0.5,0-0.8,0.4-0.8,0.8v6.7c0,0.5,0.4,0.8,0.8,0.8h16.1c0.5,0,0.8-0.4,0.8-0.8v-6.7
					C339.9,246.1,339.5,245.7,339.1,245.7z M339.3,253.2c0,0.1-0.1,0.3-0.3,0.3H323c-0.1,0-0.3-0.1-0.3-0.3v-6.7
					c0-0.1,0.1-0.3,0.3-0.3h16.1c0.1,0,0.3,0.1,0.3,0.3V253.2z"/>
				<path class="st9" d="M320.2,283.4h-6.7c-0.5,0-0.8,0.4-0.8,0.8v6.7c0,0.5,0.4,0.8,0.8,0.8h6.7c0.5,0,0.8-0.4,0.8-0.8v-6.7
					C321.1,283.8,320.7,283.4,320.2,283.4z M320.5,290.9c0,0.1-0.1,0.3-0.3,0.3h-6.7c-0.1,0-0.3-0.1-0.3-0.3v-6.7
					c0-0.1,0.1-0.3,0.3-0.3h6.7c0.1,0,0.3,0.1,0.3,0.3V290.9z"/>
				<path class="st9" d="M339.1,283.4H323c-0.5,0-0.8,0.4-0.8,0.8v6.7c0,0.5,0.4,0.8,0.8,0.8h16.1c0.5,0,0.8-0.4,0.8-0.8v-6.7
					C339.9,283.8,339.5,283.4,339.1,283.4z M339.3,290.9c0,0.1-0.1,0.3-0.3,0.3H323c-0.1,0-0.3-0.1-0.3-0.3v-6.7
					c0-0.1,0.1-0.3,0.3-0.3h16.1c0.1,0,0.3,0.1,0.3,0.3V290.9z"/>
				<path class="st9" d="M339.1,264.6h-25.5c-0.5,0-0.8,0.4-0.8,0.8v6.7c0,0.5,0.4,0.8,0.8,0.8h25.5c0.5,0,0.8-0.4,0.8-0.8v-6.7
					C339.9,265,339.5,264.6,339.1,264.6z M339.3,272.1c0,0.1-0.1,0.3-0.3,0.3h-25.5c-0.1,0-0.3-0.1-0.3-0.3v-6.7
					c0-0.1,0.1-0.3,0.3-0.3h25.5c0.1,0,0.3,0.1,0.3,0.3V272.1z"/>
				<path class="st9" d="M207.1,283.4h-6.7c-0.5,0-0.8,0.4-0.8,0.8v6.7c0,0.5,0.4,0.8,0.8,0.8h6.7c0.5,0,0.8-0.4,0.8-0.8v-6.7
					C208,283.8,207.6,283.4,207.1,283.4z M207.4,290.9c0,0.1-0.1,0.3-0.3,0.3h-6.7c-0.1,0-0.3-0.1-0.3-0.3v-6.7
					c0-0.1,0.1-0.3,0.3-0.3h6.7c0.1,0,0.3,0.1,0.3,0.3V290.9z"/>
				<path class="st9" d="M216.6,283.4h-6.7c-0.5,0-0.8,0.4-0.8,0.8v6.7c0,0.5,0.4,0.8,0.8,0.8h6.7c0.5,0,0.8-0.4,0.8-0.8v-6.7
					C217.4,283.8,217,283.4,216.6,283.4z M216.8,290.9c0,0.1-0.1,0.3-0.3,0.3h-6.7c-0.1,0-0.3-0.1-0.3-0.3v-6.7
					c0-0.1,0.1-0.3,0.3-0.3h6.7c0.1,0,0.3,0.1,0.3,0.3V290.9z"/>
				<path class="st9" d="M226,283.4h-6.7c-0.5,0-0.8,0.4-0.8,0.8v6.7c0,0.5,0.4,0.8,0.8,0.8h6.7c0.5,0,0.8-0.4,0.8-0.8v-6.7
					C226.8,283.8,226.4,283.4,226,283.4z M226.2,290.9c0,0.1-0.1,0.3-0.3,0.3h-6.7c-0.1,0-0.3-0.1-0.3-0.3v-6.7
					c0-0.1,0.1-0.3,0.3-0.3h6.7c0.1,0,0.3,0.1,0.3,0.3V290.9z"/>
				<path class="st9" d="M292,283.4h-63.2c-0.5,0-0.8,0.4-0.8,0.8v6.7c0,0.5,0.4,0.8,0.8,0.8H292c0.5,0,0.8-0.4,0.8-0.8v-6.7
					C292.8,283.8,292.4,283.4,292,283.4z M292.2,290.9c0,0.1-0.1,0.3-0.3,0.3h-63.2c-0.1,0-0.3-0.1-0.3-0.3v-6.7
					c0-0.1,0.1-0.3,0.3-0.3H292c0.1,0,0.3,0.1,0.3,0.3V290.9z"/>
				<path class="st9" d="M301.4,283.4h-6.7c-0.5,0-0.8,0.4-0.8,0.8v6.7c0,0.5,0.4,0.8,0.8,0.8h6.7c0.5,0,0.8-0.4,0.8-0.8v-6.7
					C302.2,283.8,301.8,283.4,301.4,283.4z M301.6,290.9c0,0.1-0.1,0.3-0.3,0.3h-6.7c-0.1,0-0.3-0.1-0.3-0.3v-6.7
					c0-0.1,0.1-0.3,0.3-0.3h6.7c0.1,0,0.3,0.1,0.3,0.3V290.9z"/>
				<path class="st9" d="M310.8,283.4h-6.7c-0.5,0-0.8,0.4-0.8,0.8v6.7c0,0.5,0.4,0.8,0.8,0.8h6.7c0.5,0,0.8-0.4,0.8-0.8v-6.7
					C311.6,283.8,311.3,283.4,310.8,283.4z M311.1,290.9c0,0.1-0.1,0.3-0.3,0.3h-6.7c-0.1,0-0.3-0.1-0.3-0.3v-6.7
					c0-0.1,0.1-0.3,0.3-0.3h6.7c0.1,0,0.3,0.1,0.3,0.3V290.9z"/>
				<path class="st9" d="M221.2,263.5c0.5,0,0.8-0.4,0.8-0.8V256c0-0.5-0.4-0.8-0.8-0.8h-6.7c-0.5,0-0.8,0.4-0.8,0.8v6.7
					c0,0.5,0.4,0.8,0.8,0.8H221.2z M214.3,262.7V256c0-0.1,0.1-0.3,0.3-0.3h6.7c0.1,0,0.3,0.1,0.3,0.3v6.7c0,0.1-0.1,0.3-0.3,0.3
					h-6.7C214.4,262.9,214.3,262.8,214.3,262.7z"/>
				<path class="st9" d="M230.7,263.5c0.5,0,0.8-0.4,0.8-0.8V256c0-0.5-0.4-0.8-0.8-0.8H224c-0.5,0-0.8,0.4-0.8,0.8v6.7
					c0,0.5,0.4,0.8,0.8,0.8H230.7z M223.7,262.7V256c0-0.1,0.1-0.3,0.3-0.3h6.7c0.1,0,0.3,0.1,0.3,0.3v6.7c0,0.1-0.1,0.3-0.3,0.3
					H224C223.9,262.9,223.7,262.8,223.7,262.7z"/>
				<path class="st9" d="M240.1,263.5c0.5,0,0.8-0.4,0.8-0.8V256c0-0.5-0.4-0.8-0.8-0.8h-6.7c-0.5,0-0.8,0.4-0.8,0.8v6.7
					c0,0.5,0.4,0.8,0.8,0.8H240.1z M233.2,262.7V256c0-0.1,0.1-0.3,0.3-0.3h6.7c0.1,0,0.3,0.1,0.3,0.3v6.7c0,0.1-0.1,0.3-0.3,0.3
					h-6.7C233.3,262.9,233.2,262.8,233.2,262.7z"/>
				<path class="st9" d="M249.5,263.5c0.5,0,0.8-0.4,0.8-0.8V256c0-0.5-0.4-0.8-0.8-0.8h-6.7c-0.5,0-0.8,0.4-0.8,0.8v6.7
					c0,0.5,0.4,0.8,0.8,0.8H249.5z M242.6,262.7V256c0-0.1,0.1-0.3,0.3-0.3h6.7c0.1,0,0.3,0.1,0.3,0.3v6.7c0,0.1-0.1,0.3-0.3,0.3
					h-6.7C242.7,262.9,242.6,262.8,242.6,262.7z"/>
				<path class="st9" d="M258.9,263.5c0.5,0,0.8-0.4,0.8-0.8V256c0-0.5-0.4-0.8-0.8-0.8h-6.7c-0.5,0-0.8,0.4-0.8,0.8v6.7
					c0,0.5,0.4,0.8,0.8,0.8H258.9z M252,262.7V256c0-0.1,0.1-0.3,0.3-0.3h6.7c0.1,0,0.3,0.1,0.3,0.3v6.7c0,0.1-0.1,0.3-0.3,0.3h-6.7
					C252.1,262.9,252,262.8,252,262.7z"/>
				<path class="st9" d="M268.4,263.5c0.5,0,0.8-0.4,0.8-0.8V256c0-0.5-0.4-0.8-0.8-0.8h-6.7c-0.5,0-0.8,0.4-0.8,0.8v6.7
					c0,0.5,0.4,0.8,0.8,0.8H268.4z M261.4,262.7V256c0-0.1,0.1-0.3,0.3-0.3h6.7c0.1,0,0.3,0.1,0.3,0.3v6.7c0,0.1-0.1,0.3-0.3,0.3
					h-6.7C261.6,262.9,261.4,262.8,261.4,262.7z"/>
				<path class="st9" d="M277.8,263.5c0.5,0,0.8-0.4,0.8-0.8V256c0-0.5-0.4-0.8-0.8-0.8h-6.7c-0.5,0-0.8,0.4-0.8,0.8v6.7
					c0,0.5,0.4,0.8,0.8,0.8H277.8z M270.9,262.7V256c0-0.1,0.1-0.3,0.3-0.3h6.7c0.1,0,0.3,0.1,0.3,0.3v6.7c0,0.1-0.1,0.3-0.3,0.3
					h-6.7C271,262.9,270.9,262.8,270.9,262.7z"/>
				<path class="st9" d="M287.2,263.5c0.5,0,0.8-0.4,0.8-0.8V256c0-0.5-0.4-0.8-0.8-0.8h-6.7c-0.5,0-0.8,0.4-0.8,0.8v6.7
					c0,0.5,0.4,0.8,0.8,0.8H287.2z M280.3,262.7V256c0-0.1,0.1-0.3,0.3-0.3h6.7c0.1,0,0.3,0.1,0.3,0.3v6.7c0,0.1-0.1,0.3-0.3,0.3
					h-6.7C280.4,262.9,280.3,262.8,280.3,262.7z"/>
				<path class="st9" d="M296.6,263.5c0.5,0,0.8-0.4,0.8-0.8V256c0-0.5-0.4-0.8-0.8-0.8H290c-0.5,0-0.8,0.4-0.8,0.8v6.7
					c0,0.5,0.4,0.8,0.8,0.8H296.6z M289.7,262.7V256c0-0.1,0.1-0.3,0.3-0.3h6.7c0.1,0,0.3,0.1,0.3,0.3v6.7c0,0.1-0.1,0.3-0.3,0.3
					H290C289.8,262.9,289.7,262.8,289.7,262.7z"/>
				<path class="st9" d="M306.1,263.5c0.5,0,0.8-0.4,0.8-0.8V256c0-0.5-0.4-0.8-0.8-0.8h-6.7c-0.5,0-0.8,0.4-0.8,0.8v6.7
					c0,0.5,0.4,0.8,0.8,0.8H306.1z M299.1,262.7V256c0-0.1,0.1-0.3,0.3-0.3h6.7c0.1,0,0.3,0.1,0.3,0.3v6.7c0,0.1-0.1,0.3-0.3,0.3
					h-6.7C299.3,262.9,299.1,262.8,299.1,262.7z"/>
				<path class="st9" d="M316.3,262.7V256c0-0.5-0.4-0.8-0.8-0.8h-6.7c-0.5,0-0.8,0.4-0.8,0.8v6.7c0,0.5,0.4,0.8,0.8,0.8h6.7
					C316,263.5,316.3,263.1,316.3,262.7z M308.6,262.7V256c0-0.1,0.1-0.3,0.3-0.3h6.7c0.1,0,0.3,0.1,0.3,0.3v6.7
					c0,0.1-0.1,0.3-0.3,0.3h-6.7C308.7,262.9,308.6,262.8,308.6,262.7z"/>
				<path class="st9" d="M317.4,256v6.7c0,0.5,0.4,0.8,0.8,0.8h6.7c0.5,0,0.8-0.4,0.8-0.8V256c0-0.5-0.4-0.8-0.8-0.8h-6.7
					C317.8,255.2,317.4,255.5,317.4,256z M325.2,256v6.7c0,0.1-0.1,0.3-0.3,0.3h-6.7c-0.1,0-0.3-0.1-0.3-0.3V256
					c0-0.1,0.1-0.3,0.3-0.3h6.7C325.1,255.7,325.2,255.8,325.2,256z"/>
				<path class="st9" d="M339.1,255.2h-11.4c-0.5,0-0.8,0.4-0.8,0.8v6.7c0,0.5,0.4,0.8,0.8,0.8h11.4c0.5,0,0.8-0.4,0.8-0.8V256
					C339.9,255.5,339.5,255.2,339.1,255.2z M339.3,262.7c0,0.1-0.1,0.3-0.3,0.3h-11.4c-0.1,0-0.3-0.1-0.3-0.3V256
					c0-0.1,0.1-0.3,0.3-0.3h11.4c0.1,0,0.3,0.1,0.3,0.3V262.7z"/>
				<path class="st9" d="M200.5,263.5h11.4c0.5,0,0.8-0.4,0.8-0.8V256c0-0.5-0.4-0.8-0.8-0.8h-11.4c-0.5,0-0.8,0.4-0.8,0.8v6.7
					C199.6,263.1,200,263.5,200.5,263.5z M200.2,256c0-0.1,0.1-0.3,0.3-0.3h11.4c0.1,0,0.3,0.1,0.3,0.3v6.7c0,0.1-0.1,0.3-0.3,0.3
					h-11.4c-0.1,0-0.3-0.1-0.3-0.3V256z"/>
				<path class="st9" d="M214.6,282.3h6.7c0.5,0,0.8-0.4,0.8-0.8v-6.7c0-0.5-0.4-0.8-0.8-0.8h-6.7c-0.5,0-0.8,0.4-0.8,0.8v6.7
					C213.8,282,214.1,282.3,214.6,282.3z M214.3,274.8c0-0.1,0.1-0.3,0.3-0.3h6.7c0.1,0,0.3,0.1,0.3,0.3v6.7c0,0.1-0.1,0.3-0.3,0.3
					h-6.7c-0.1,0-0.3-0.1-0.3-0.3V274.8z"/>
				<path class="st9" d="M224,282.3h6.7c0.5,0,0.8-0.4,0.8-0.8v-6.7c0-0.5-0.4-0.8-0.8-0.8H224c-0.5,0-0.8,0.4-0.8,0.8v6.7
					C223.2,282,223.6,282.3,224,282.3z M223.7,274.8c0-0.1,0.1-0.3,0.3-0.3h6.7c0.1,0,0.3,0.1,0.3,0.3v6.7c0,0.1-0.1,0.3-0.3,0.3
					H224c-0.1,0-0.3-0.1-0.3-0.3V274.8z"/>
				<path class="st9" d="M233.4,282.3h6.7c0.5,0,0.8-0.4,0.8-0.8v-6.7c0-0.5-0.4-0.8-0.8-0.8h-6.7c-0.5,0-0.8,0.4-0.8,0.8v6.7
					C232.6,282,233,282.3,233.4,282.3z M233.2,274.8c0-0.1,0.1-0.3,0.3-0.3h6.7c0.1,0,0.3,0.1,0.3,0.3v6.7c0,0.1-0.1,0.3-0.3,0.3
					h-6.7c-0.1,0-0.3-0.1-0.3-0.3V274.8z"/>
				<path class="st9" d="M242.9,282.3h6.7c0.5,0,0.8-0.4,0.8-0.8v-6.7c0-0.5-0.4-0.8-0.8-0.8h-6.7c-0.5,0-0.8,0.4-0.8,0.8v6.7
					C242,282,242.4,282.3,242.9,282.3z M242.6,274.8c0-0.1,0.1-0.3,0.3-0.3h6.7c0.1,0,0.3,0.1,0.3,0.3v6.7c0,0.1-0.1,0.3-0.3,0.3
					h-6.7c-0.1,0-0.3-0.1-0.3-0.3V274.8z"/>
				<path class="st9" d="M252.3,282.3h6.7c0.5,0,0.8-0.4,0.8-0.8v-6.7c0-0.5-0.4-0.8-0.8-0.8h-6.7c-0.5,0-0.8,0.4-0.8,0.8v6.7
					C251.5,282,251.8,282.3,252.3,282.3z M252,274.8c0-0.1,0.1-0.3,0.3-0.3h6.7c0.1,0,0.3,0.1,0.3,0.3v6.7c0,0.1-0.1,0.3-0.3,0.3
					h-6.7c-0.1,0-0.3-0.1-0.3-0.3V274.8z"/>
				<path class="st9" d="M261.7,282.3h6.7c0.5,0,0.8-0.4,0.8-0.8v-6.7c0-0.5-0.4-0.8-0.8-0.8h-6.7c-0.5,0-0.8,0.4-0.8,0.8v6.7
					C260.9,282,261.3,282.3,261.7,282.3z M261.4,274.8c0-0.1,0.1-0.3,0.3-0.3h6.7c0.1,0,0.3,0.1,0.3,0.3v6.7c0,0.1-0.1,0.3-0.3,0.3
					h-6.7c-0.1,0-0.3-0.1-0.3-0.3V274.8z"/>
				<path class="st9" d="M271.1,282.3h6.7c0.5,0,0.8-0.4,0.8-0.8v-6.7c0-0.5-0.4-0.8-0.8-0.8h-6.7c-0.5,0-0.8,0.4-0.8,0.8v6.7
					C270.3,282,270.7,282.3,271.1,282.3z M270.9,274.8c0-0.1,0.1-0.3,0.3-0.3h6.7c0.1,0,0.3,0.1,0.3,0.3v6.7c0,0.1-0.1,0.3-0.3,0.3
					h-6.7c-0.1,0-0.3-0.1-0.3-0.3V274.8z"/>
				<path class="st9" d="M280.6,282.3h6.7c0.5,0,0.8-0.4,0.8-0.8v-6.7c0-0.5-0.4-0.8-0.8-0.8h-6.7c-0.5,0-0.8,0.4-0.8,0.8v6.7
					C279.7,282,280.1,282.3,280.6,282.3z M280.3,274.8c0-0.1,0.1-0.3,0.3-0.3h6.7c0.1,0,0.3,0.1,0.3,0.3v6.7c0,0.1-0.1,0.3-0.3,0.3
					h-6.7c-0.1,0-0.3-0.1-0.3-0.3V274.8z"/>
				<path class="st9" d="M290,282.3h6.7c0.5,0,0.8-0.4,0.8-0.8v-6.7c0-0.5-0.4-0.8-0.8-0.8H290c-0.5,0-0.8,0.4-0.8,0.8v6.7
					C289.2,282,289.5,282.3,290,282.3z M289.7,274.8c0-0.1,0.1-0.3,0.3-0.3h6.7c0.1,0,0.3,0.1,0.3,0.3v6.7c0,0.1-0.1,0.3-0.3,0.3
					H290c-0.1,0-0.3-0.1-0.3-0.3V274.8z"/>
				<path class="st9" d="M299.4,282.3h6.7c0.5,0,0.8-0.4,0.8-0.8v-6.7c0-0.5-0.4-0.8-0.8-0.8h-6.7c-0.5,0-0.8,0.4-0.8,0.8v6.7
					C298.6,282,299,282.3,299.4,282.3z M299.1,274.8c0-0.1,0.1-0.3,0.3-0.3h6.7c0.1,0,0.3,0.1,0.3,0.3v6.7c0,0.1-0.1,0.3-0.3,0.3
					h-6.7c-0.1,0-0.3-0.1-0.3-0.3V274.8z"/>
				<path class="st9" d="M308,274.8v6.7c0,0.5,0.4,0.8,0.8,0.8h6.7c0.5,0,0.8-0.4,0.8-0.8v-6.7c0-0.5-0.4-0.8-0.8-0.8h-6.7
					C308.4,274,308,274.4,308,274.8z M315.8,274.8v6.7c0,0.1-0.1,0.3-0.3,0.3h-6.7c-0.1,0-0.3-0.1-0.3-0.3v-6.7
					c0-0.1,0.1-0.3,0.3-0.3h6.7C315.6,274.6,315.8,274.7,315.8,274.8z"/>
				<path class="st9" d="M324.9,282.3c0.5,0,0.8-0.4,0.8-0.8v-6.7c0-0.5-0.4-0.8-0.8-0.8h-6.7c-0.5,0-0.8,0.4-0.8,0.8v6.7
					c0,0.5,0.4,0.8,0.8,0.8H324.9z M318,281.5v-6.7c0-0.1,0.1-0.3,0.3-0.3h6.7c0.1,0,0.3,0.1,0.3,0.3v6.7c0,0.1-0.1,0.3-0.3,0.3
					h-6.7C318.1,281.8,318,281.7,318,281.5z"/>
				<path class="st9" d="M339.1,274h-11.4c-0.5,0-0.8,0.4-0.8,0.8v6.7c0,0.5,0.4,0.8,0.8,0.8h11.4c0.5,0,0.8-0.4,0.8-0.8v-6.7
					C339.9,274.4,339.5,274,339.1,274z M339.3,281.5c0,0.1-0.1,0.3-0.3,0.3h-11.4c-0.1,0-0.3-0.1-0.3-0.3v-6.7
					c0-0.1,0.1-0.3,0.3-0.3h11.4c0.1,0,0.3,0.1,0.3,0.3V281.5z"/>
				<path class="st9" d="M200.5,282.3h11.4c0.5,0,0.8-0.4,0.8-0.8v-6.7c0-0.5-0.4-0.8-0.8-0.8h-11.4c-0.5,0-0.8,0.4-0.8,0.8v6.7
					C199.6,282,200,282.3,200.5,282.3z M200.2,274.8c0-0.1,0.1-0.3,0.3-0.3h11.4c0.1,0,0.3,0.1,0.3,0.3v6.7c0,0.1-0.1,0.3-0.3,0.3
					h-11.4c-0.1,0-0.3-0.1-0.3-0.3V274.8z"/>
			</g>
		</g>
		<linearGradient id="SVGID_2_" gradientUnits="userSpaceOnUse" x1="248.9595" y1="309.1971" x2="290.5857" y2="309.1971">
			<stop  offset="4.629630e-03" style="stop-color:#003786"/>
			<stop  offset="1" style="stop-color:#0195C3"/>
		</linearGradient>
		<path class="st20" d="M289.3,297.5h-39.1c-0.7,0-1.3,0.6-1.3,1.3v20.8c0,0.7,0.6,1.3,1.3,1.3h39.1c0.7,0,1.3-0.6,1.3-1.3v-20.8
			C290.6,298.1,290,297.5,289.3,297.5z M289.8,319.6c0,0.3-0.2,0.5-0.5,0.5h-39.1c-0.3,0-0.5-0.2-0.5-0.5v-20.8
			c0-0.3,0.2-0.5,0.5-0.5h39.1c0.3,0,0.5,0.2,0.5,0.5V319.6z"/>
		<linearGradient id="SVGID_3_" gradientUnits="userSpaceOnUse" x1="167.9355" y1="258.146" x2="380.2713" y2="296.8242">
			<stop  offset="4.629630e-03" style="stop-color:#808285"/>
			<stop  offset="1" style="stop-color:#D1D3D4"/>
		</linearGradient>
		<path class="st21" d="M341.2,227.3H198.4c-2.8,0-5.1,2.3-5.1,5.1v88.5c0,2.8,2.3,5.1,5.1,5.1h142.8c2.8,0,5.1-2.3,5.1-5.1v-88.5
			C346.3,229.6,344,227.3,341.2,227.3z M344.8,320.9c0,2-1.6,3.6-3.6,3.6H198.4c-2,0-3.6-1.6-3.6-3.6v-88.5c0-2,1.6-3.6,3.6-3.6
			h142.8c2,0,3.6,1.6,3.6,3.6V320.9z"/>
		<linearGradient id="SVGID_4_" gradientUnits="userSpaceOnUse" x1="184.4978" y1="188.651" x2="350.8831" y2="188.651">
			<stop  offset="4.629630e-03" style="stop-color:#808285"/>
			<stop  offset="1" style="stop-color:#D1D3D4"/>
		</linearGradient>
		<path class="st22" d="M350.9,160.4c-0.4-2.4-1.2-3.2-1.2-3.2h0c-0.3-0.3-0.7-0.5-1.2-0.5H186.9c-0.6,0-1,0.2-1.3,0.6h0
			c-0.9,1-1.1,3.1-1.1,3.1h1.4L200,219c0.2,0.8,1,1.5,1.9,1.5h135c0.8,0,1.6-0.7,1.8-1.5l10.8-58.5H350.9z"/>
		<linearGradient id="SVGID_5_" gradientUnits="userSpaceOnUse" x1="200.9152" y1="126.6179" x2="317.4681" y2="233.4579">
			<stop  offset="0" style="stop-color:#6369B4"/>
			<stop  offset="1" style="stop-color:#310D72"/>
		</linearGradient>
		<path class="st23" d="M349.2,159H186.1c-1,0-1.7,0.7-1.6,1.6l10.1,63.8c0.1,0.9,1,1.6,1.9,1.6h147.6c0.9,0,1.7-0.7,1.8-1.6l5-63.8
			C350.9,159.8,350.2,159,349.2,159z"/>
		<linearGradient id="SVGID_6_" gradientUnits="userSpaceOnUse" x1="184.4978" y1="192.5428" x2="350.8831" y2="192.5428">
			<stop  offset="4.629630e-03" style="stop-color:#808285"/>
			<stop  offset="1" style="stop-color:#D1D3D4"/>
		</linearGradient>
		<path class="st24" d="M349.2,159H186.1c-1,0-1.7,0.7-1.6,1.6l10.1,63.8c0.1,0.9,1,1.6,1.9,1.6h147.6c0.9,0,1.7-0.7,1.8-1.6l5-63.8
			C350.9,159.8,350.2,159,349.2,159z M343.7,223.9h-147l-9.7-62.7h161.4L343.7,223.9z"/>
		<linearGradient id="SVGID_7_" gradientUnits="userSpaceOnUse" x1="189.8091" y1="165.9021" x2="341.3113" y2="165.9021">
			<stop  offset="4.629630e-03" style="stop-color:#003786"/>
			<stop  offset="1" style="stop-color:#0195C3"/>
		</linearGradient>
		<polygon class="st25" points="340.9,168.8 190.7,168.8 189.8,163 341.3,163 		"/>
		<linearGradient id="SVGID_8_" gradientUnits="userSpaceOnUse" x1="190.9365" y1="185.1179" x2="258.9952" y2="185.1179">
			<stop  offset="4.629630e-03" style="stop-color:#003786"/>
			<stop  offset="1" style="stop-color:#0195C3"/>
		</linearGradient>
		<polygon class="st26" points="259,199.8 195.4,199.8 190.9,170.4 257.4,170.4 		"/>
		<polygon class="st27" points="219.1,184.5 194.4,184.5 192.5,171.7 217.7,171.7 		"/>
		<polygon class="st27" points="220.7,198.4 196.4,198.4 194.5,185.7 219.3,185.7 		"/>
		<polygon class="st27" points="257.3,191.8 246.9,191.8 245.4,171.7 256.1,171.7 		"/>
		<polygon class="st27" points="257.6,198.4 247.4,198.4 246.9,192.6 257.3,192.6 		"/>
		<polygon class="st27" points="244.3,172.3 219,172.3 219,171.7 244.2,171.7 		"/>
		<polygon class="st27" points="244.4,173.7 219.2,173.7 219.1,173 244.3,173 		"/>
		<polygon class="st27" points="244.5,175 219.3,175 219.2,174.3 244.4,174.3 		"/>
		<polygon class="st27" points="244.6,176.3 219.5,176.3 219.4,175.6 244.5,175.6 		"/>
		<polygon class="st27" points="244.6,177.6 219.6,177.6 219.5,176.9 244.6,176.9 		"/>
		<polygon class="st27" points="244.7,178.9 219.8,178.9 219.7,178.2 244.7,178.2 		"/>
		<polygon class="st27" points="244.8,180.2 219.9,180.2 219.8,179.5 244.8,179.5 		"/>
		<polygon class="st27" points="234.9,181.5 220,181.5 220,180.8 234.8,180.8 		"/>
		<polygon class="st27" points="201.3,167.7 191.9,167.7 191.3,164.1 200.8,164.1 		"/>
		<polygon class="st27" points="339.8,165.9 337.6,165.9 337.7,164.1 339.9,164.1 		"/>
		<polygon class="st27" points="336.7,165.9 334.5,165.9 334.6,164.1 336.8,164.1 		"/>
		<polygon class="st27" points="333.6,165.9 331.4,165.9 331.5,164.1 333.7,164.1 		"/>
		<polygon class="st27" points="330.6,165.9 328.3,165.9 328.4,164.1 330.7,164.1 		"/>
		<polygon class="st27" points="213.3,165 201.8,165 201.7,164.1 213.2,164.1 		"/>
		<polygon class="st27" points="211.4,166.3 202,166.3 201.9,165.5 211.3,165.5 		"/>
		<polygon class="st28" points="268.7,172 262.4,172 262.3,170.4 268.7,170.4 		"/>
		<polygon class="st28" points="274.6,172 270.9,172 270.9,170.4 274.5,170.4 		"/>
		<polygon class="st28" points="268.8,175.1 262.5,175.1 262.5,173.5 268.8,173.5 		"/>
		<polygon class="st28" points="274.7,175.1 271,175.1 271,173.5 274.6,173.5 		"/>
		<polygon class="st28" points="269,178.2 262.7,178.2 262.6,176.6 268.9,176.6 		"/>
		<polygon class="st28" points="274.7,178.2 271.1,178.2 271.1,176.6 274.7,176.6 		"/>
		<polygon class="st28" points="269.1,181.2 262.8,181.2 262.8,179.7 269,179.7 		"/>
		<polygon class="st28" points="274.8,181.2 271.2,181.2 271.2,179.7 274.8,179.7 		"/>
		<polygon class="st28" points="269.2,184.3 263,184.3 262.9,182.7 269.1,182.7 		"/>
		<polygon class="st28" points="274.9,184.3 271.4,184.3 271.3,182.7 274.9,182.7 		"/>
		<polygon class="st28" points="269.3,187.4 263.1,187.4 263.1,185.8 269.3,185.8 		"/>
		<polygon class="st28" points="275,187.4 271.5,187.4 271.4,185.8 275,185.8 		"/>
		<polygon class="st28" points="269.4,190.4 263.3,190.4 263.2,188.9 269.4,188.9 		"/>
		<polygon class="st28" points="275.1,190.4 271.6,190.4 271.5,188.9 275.1,188.9 		"/>
		<polygon class="st28" points="269.5,193.5 263.4,193.5 263.3,191.9 269.5,191.9 		"/>
		<polygon class="st28" points="275.2,193.5 271.7,193.5 271.6,191.9 275.2,191.9 		"/>
		<polygon class="st28" points="269.7,196.6 263.6,196.6 263.5,195 269.6,195 		"/>
		<polygon class="st28" points="275.3,196.6 271.8,196.6 271.7,195 275.3,195 		"/>
		<polygon class="st28" points="269.8,199.6 263.7,199.6 263.6,198.1 269.7,198.1 		"/>
		<polygon class="st28" points="275.4,199.6 271.9,199.6 271.8,198.1 275.3,198.1 		"/>
		<polygon class="st28" points="269.9,202.7 263.9,202.7 263.8,201.1 269.8,201.1 		"/>
		<polygon class="st28" points="275.5,202.7 272,202.7 272,201.1 275.4,201.1 		"/>
		<polygon class="st28" points="270,205.8 264,205.8 263.9,204.2 270,204.2 		"/>
		<polygon class="st28" points="275.6,205.8 272.1,205.8 272.1,204.2 275.5,204.2 		"/>
		<polygon class="st28" points="270.1,208.8 264.2,208.8 264.1,207.3 270.1,207.3 		"/>
		<polygon class="st28" points="275.7,208.8 272.2,208.8 272.2,207.3 275.6,207.3 		"/>
		<g>
			<polygon class="st27" points="321.3,171.3 283.9,171.3 283.8,170.4 321.4,170.4 			"/>
			<polygon class="st27" points="340.6,173.1 283.9,173.1 283.9,172.3 340.7,172.3 			"/>
			<polygon class="st27" points="339.9,184 284.1,184 284.1,183.1 340,183.1 			"/>
			<polygon class="st27" points="339.6,189.4 284.2,189.4 284.1,188.6 339.6,188.6 			"/>
			<polygon class="st27" points="339.3,193 284.2,193 284.2,192.2 339.4,192.2 			"/>
			<polygon class="st27" points="300.5,174.1 283.9,174.1 283.9,174.9 300.4,174.9 			"/>
			<polygon class="st27" points="329.4,174.1 301.7,174.1 301.7,174.9 329.4,174.9 			"/>
			<polygon class="st27" points="330.7,174.1 330.6,174.9 340.5,174.9 340.6,174.1 			"/>
			<g>
				<polygon class="st27" points="312.5,190.4 284.2,190.4 284.2,191.2 312.5,191.2 				"/>
				<polygon class="st27" points="313.7,190.4 313.7,191.2 339.5,191.2 339.5,190.4 				"/>
			</g>
			<g>
				<polygon class="st27" points="296.7,181.3 284,181.3 284,182.2 296.7,182.2 				"/>
				<polygon class="st27" points="297.9,181.3 297.9,182.2 340.1,182.2 340.1,181.3 				"/>
			</g>
			<g>
				<polygon class="st27" points="305.9,184.9 284.1,184.9 284.1,185.8 305.8,185.8 				"/>
			</g>
			<g>
				<polygon class="st27" points="317.3,179.5 284,179.5 284,180.4 317.3,180.4 				"/>
				<polygon class="st27" points="318.6,179.5 318.5,180.4 340.2,180.4 340.2,179.5 				"/>
			</g>
			<g>
				<polygon class="st27" points="305.1,177.7 305.1,178.5 340.3,178.5 340.3,177.7 				"/>
				<polygon class="st27" points="303.8,177.7 284,177.7 284,178.5 303.8,178.5 				"/>
			</g>
			<polygon class="st27" points="310.7,175.9 283.9,175.9 283.9,176.7 310.7,176.7 			"/>
			<g>
				<polygon class="st27" points="333.8,175.9 312,175.9 312,176.7 333.8,176.7 				"/>
			</g>
			<g>
				<polygon class="st27" points="301.7,194 284.2,194 284.2,194.8 301.7,194.8 				"/>
				<polygon class="st27" points="303,194 303,194.8 323,194.8 323,194 				"/>
			</g>
		</g>
		<g>
			<polygon class="st27" points="320.3,198.9 284.3,198.9 284.3,198.1 320.3,198.1 			"/>
			<polygon class="st27" points="338.8,200.7 284.3,200.7 284.3,199.9 338.9,199.9 			"/>
			<polygon class="st27" points="338.1,211.6 284.5,211.6 284.5,210.7 338.2,210.7 			"/>
			<polygon class="st27" points="337.8,217 284.6,217 284.6,216.2 337.8,216.2 			"/>
			<polygon class="st27" points="337.5,220.6 284.7,220.6 284.7,219.8 337.6,219.8 			"/>
			<polygon class="st27" points="300.2,201.7 284.4,201.7 284.4,202.5 300.2,202.5 			"/>
			<polygon class="st27" points="328.1,201.7 301.5,201.7 301.5,202.5 328,202.5 			"/>
			<polygon class="st27" points="329.3,201.7 329.2,202.5 338.7,202.5 338.8,201.7 			"/>
			<g>
				<polygon class="st27" points="311.8,218 284.6,218 284.6,218.8 311.8,218.8 				"/>
				<polygon class="st27" points="313,218 312.9,218.8 337.6,218.8 337.7,218 				"/>
			</g>
			<g>
				<polygon class="st27" points="296.6,208.9 284.5,208.9 284.5,209.8 296.6,209.8 				"/>
				<polygon class="st27" points="297.8,208.9 297.8,209.8 338.2,209.8 338.3,208.9 				"/>
			</g>
			<g>
				<polygon class="st27" points="305.4,212.6 284.5,212.6 284.6,213.4 305.4,213.4 				"/>
			</g>
			<g>
				<polygon class="st27" points="316.4,207.1 284.5,207.1 284.5,208 316.4,208 				"/>
				<polygon class="st27" points="317.6,207.1 317.6,208 338.4,208 338.4,207.1 				"/>
			</g>
			<g>
				<polygon class="st27" points="304.7,205.3 304.7,206.2 338.5,206.2 338.5,205.3 				"/>
				<polygon class="st27" points="303.5,205.3 284.4,205.3 284.4,206.2 303.5,206.2 				"/>
			</g>
			<polygon class="st27" points="310.1,203.5 284.4,203.5 284.4,204.3 310.1,204.3 			"/>
			<g>
				<polygon class="st27" points="332.3,203.5 311.3,203.5 311.3,204.3 332.2,204.3 				"/>
			</g>
			<g>
				<polygon class="st27" points="301.5,221.6 284.7,221.6 284.7,222.5 301.5,222.5 				"/>
				<polygon class="st27" points="302.7,221.6 302.6,222.5 321.9,222.5 321.9,221.6 				"/>
			</g>
		</g>
		<polygon class="st27" points="221.9,198.1 246.2,198.1 245,182.6 241.5,192.6 238.7,189.1 236,194.6 233.1,191 231.1,194.6 
			227,189.8 		"/>
		<linearGradient id="SVGID_9_" gradientUnits="userSpaceOnUse" x1="198.392" y1="212.1421" x2="260.0992" y2="212.1421">
			<stop  offset="4.629630e-03" style="stop-color:#003786"/>
			<stop  offset="1" style="stop-color:#0195C3"/>
		</linearGradient>
		<polygon class="st29" points="198.4,219.9 260.1,219.9 259.2,204.3 249.1,214.4 242.4,210.9 234.7,216.4 227.9,212.8 222.3,216.4 
			212.4,211.6 		"/>
		<g>
			<path class="st30" d="M372.9,375.6l-34.7-0.2l-10.5-13.6c-1.4-1.8-8.6-11.4-10.9-17.5c-0.5-1.3-0.5-11-0.4-18.9
				c0.1-4.9,0.2-9.1,0.3-10c0-0.3,0.2-0.9,0.4-1.8l0,0c0.9-2.9,2.9-8.4,4.6-12.8l0,0l0-0.1c0.1-0.2,0.1-0.4,0.2-0.6l0,0
				c0,0,0,0,0-0.1c0.3-0.8,0.6-1.5,0.8-2.1c0.6-1.6,1.1-2.8,1.3-3.3l0.1-0.2c0,0,0,0,0,0c0.1,0,2.2-0.4,4,2.2
				c0.4,0.6,0.6,1.8,0.7,3.3c0,1,0,2-0.1,3.1c-0.3,4.3-1.1,9.3-1.2,10.7c0,2.3,4.6,13.8,4.9,14.6c0,0,0,0,0,0l4.8-14.2l-0.5-17.5
				l-0.2-7.2l-0.1-3.6c0,0-0.8-3.6-1.1-7.8c-0.1-1.8-0.2-3.7,0-5.5c0-0.4,0.1-0.8,0.2-1.2c0,0,0,0,0,0c0.2-1.4,0.7-2.7,1.3-3.7
				c1.2-1.7,2.6-1.6,3.5-1.2c0.1,0,0.2,0.1,0.3,0.1c0.1,0,0.2,0.1,0.3,0.1c0.2,0.1,0.3,0.2,0.4,0.4c0,0,0,0,0,0
				c0.2,0.2,0.3,0.5,0.4,0.8c0,0,0.5,1.4,1.1,3.2c0.4,1.2,0.9,2.6,1.3,3.9c0.8,2.4,1.5,4.6,1.7,5.3c1,3.5,3.3,14.5,3.3,14.5l6.2,2.4
				c1,0.4,1.8,1.1,2.3,2c1.5,2.9,4.8,9,5.2,9.9c-0.1,0.2,8.1-3.9,9.9,9c5.7-4,9.3,6,9.3,6c0.6,1,0.9,1.9,1,2.7
				c0.4,3.4-5.1,16.8-7.7,30C374.5,361.3,371.2,374.6,372.9,375.6z"/>
			<path class="st31" d="M377.2,385.3l-40.6,0.3l-0.9-12.1c2.1-0.8,10.4-4,18.9-6.1c0,0,0,0,0,0c7.3-1.8,14.8-3,18.9-1.3l0,0
				L377.2,385.3z"/>
			<path class="st32" d="M349.1,295c0,0,2.6,11.5,3.2,12.2c0.6,0.7,3.4,2.3,4.1,1.4C357.1,307.6,349.1,295,349.1,295z"/>
			<path class="st32" d="M372.9,321.2C372.9,321.2,372.9,321.2,372.9,321.2c0,0-0.1-7.5-3.1-10.4c-3.1-3.1-6.8-1.6-7-1.4
				c0.4,0.9,4.6,4.7,6.1,5.6C370.3,315.9,371.8,320.5,372.9,321.2z"/>
			<path class="st32" d="M382.7,330.1C382.7,330.1,382.7,330.1,382.7,330.1c0,0,0.3-2.2,0.1-3.7c-0.3-2.2-2.1-5.1-3.6-6.6
				c-2.8-4-5.8-2-6.6-1.6c1.9,0.5,5.2,3,6.1,4.5C382.2,328.4,382.3,327.9,382.7,330.1z"/>
			<path class="st32" d="M332.4,328.5l4.8-14.2c0,0,1.5,6.8,0.7,10C337.1,327.4,333.8,331.9,332.4,328.5z"/>
			<path class="st33" d="M337.9,272.3c-0.2-1-0.6-2.8-0.6-3.8c0-0.3,0.2-0.8,0.6-1.2c0.3-0.2,0.7-0.5,1.2-0.6
				c0.2-0.1,0.5-0.1,0.7-0.1c0.3,0,0.6,0,0.8,0.1c0.2,0.1,0.5,0.3,0.5,0.6c0,0,0,0,0,0c0.3,1.1,0.6,2.5,0.8,3.7
				c0.1,0.8-0.3,1.6-0.9,1.8l-0.3,0.1l-1.5,0.5C338.7,273.7,338.1,273.2,337.9,272.3z"/>
			<path class="st34" d="M337.9,272.3c-0.2-1-0.6-2.8-0.6-3.8c0-0.3,0.2-0.8,0.6-1.2c0.1,0,0.2-0.1,0.3-0.1c0.2-0.1,0.5-0.1,0.7-0.1
				c0.3,0,0.6,0,0.8,0.1c0.2,0.1,0.5,0.3,0.5,0.6c0,0,0,0,0,0c0.3,1.1,0.6,2.5,0.8,3.7c0.1,0.5-0.1,1.1-0.3,1.4l-1.5,0.5
				C338.7,273.7,338.1,273.2,337.9,272.3z"/>
			<path class="st32" d="M348.4,362.4l-13.2,2l-7.5-2.5c-1.4-1.8-8.6-11.4-10.9-17.5c-0.5-1.3-0.5-11-0.4-18.9l0,0
				c0,1,1.8,17,3.1,19.1c1.3,2.2,7.9,14.5,10.5,15.4C332.6,360.8,347.4,362.3,348.4,362.4C348.3,362.4,348.3,362.4,348.4,362.4z"/>
			<path class="st32" d="M321.9,300.2C321.9,300.2,321.9,300.2,321.9,300.2c0.8,0,1.8,0.1,2,1.1c0.3,1.5-6,11.2-6.8,12.5
				L321.9,300.2z"/>
			<path class="st34" d="M324,294.6l-2.4,6.4c0,0,1.3,0.7,2.3,0.4C324.8,301,326.3,295.2,324,294.6z"/>
			<path class="st35" d="M341.5,418.2h41c-3.9-25.3-7-42.9-7-42.9l-38.8,8.9C336.7,384.3,338.9,398.5,341.5,418.2z"/>
			<path class="st36" d="M344.1,390.1c0-1-0.8-1.8-1.7-1.8c-0.9-0.1-1.7,0.7-1.7,1.6c0,1,0.8,1.8,1.7,1.8
				C343.4,391.7,344.1,391,344.1,390.1z"/>
		</g>
	</g>
	<g class="st1">
		<g>
			
				<rect x="144.8" y="139.7" transform="matrix(6.123234e-17 -1 1 6.123234e-17 28.3225 313.5457)" class="st2" width="52.3" height="5.8"/>
			<line class="st3" x1="168" y1="165.9" x2="173.8" y2="165.9"/>
			<line class="st3" x1="168" y1="161.8" x2="173.8" y2="161.8"/>
			<line class="st3" x1="168" y1="157.7" x2="173.8" y2="157.7"/>
			<line class="st3" x1="168" y1="153.7" x2="173.8" y2="153.7"/>
			<line class="st3" x1="168" y1="149.6" x2="173.8" y2="149.6"/>
			<line class="st3" x1="168" y1="145.5" x2="173.8" y2="145.5"/>
			<line class="st3" x1="168" y1="141.5" x2="173.8" y2="141.5"/>
			<line class="st3" x1="168" y1="137.4" x2="173.8" y2="137.4"/>
			<line class="st3" x1="168" y1="133.3" x2="173.8" y2="133.3"/>
			<line class="st3" x1="168" y1="129.3" x2="173.8" y2="129.3"/>
			<line class="st3" x1="168" y1="125.2" x2="173.8" y2="125.2"/>
			<line class="st3" x1="168" y1="121.1" x2="173.8" y2="121.1"/>
			<line class="st3" x1="168" y1="117.1" x2="173.8" y2="117.1"/>
		</g>
		<g>
			<circle class="st4" cx="170.9" cy="166" r="5.9"/>
			<path class="st5" d="M173.8,166c0,1.6-1.3,2.9-2.9,2.9s-2.9-1.3-2.9-2.9c0-1.6,1.3-2.9,2.9-2.9S173.8,164.4,173.8,166z"/>
		</g>
		<g>
			<polygon class="st2" points="219.4,121.8 170.3,121.8 170.3,116 219.5,116 			"/>
			<line class="st3" x1="173.1" y1="116" x2="173.1" y2="121.8"/>
			<line class="st3" x1="177.2" y1="116" x2="177.2" y2="121.8"/>
			<line class="st3" x1="181.3" y1="116" x2="181.3" y2="121.8"/>
			<line class="st3" x1="185.3" y1="116" x2="185.3" y2="121.8"/>
			<line class="st3" x1="189.4" y1="116" x2="189.4" y2="121.8"/>
			<line class="st3" x1="193.5" y1="116" x2="193.5" y2="121.8"/>
			<line class="st3" x1="197.5" y1="116" x2="197.5" y2="121.8"/>
			<line class="st3" x1="201.6" y1="116" x2="201.6" y2="121.8"/>
			<line class="st3" x1="205.7" y1="116" x2="205.7" y2="121.8"/>
			<line class="st3" x1="209.7" y1="116" x2="209.7" y2="121.8"/>
			<line class="st3" x1="213.8" y1="116" x2="213.8" y2="121.8"/>
			<line class="st3" x1="217.9" y1="116" x2="217.9" y2="121.8"/>
		</g>
		<g>
			<circle class="st4" cx="170.9" cy="118.9" r="5.9"/>
			<path class="st5" d="M173.8,118.9c0,1.6-1.3,2.9-2.9,2.9s-2.9-1.3-2.9-2.9c0-1.6,1.3-2.9,2.9-2.9S173.8,117.3,173.8,118.9z"/>
		</g>
		<g>
			<g>
				<path class="st6" d="M231.8,109.4h-7c-5.2,0-9.5,4.3-9.5,9.5c0,5.2,4.3,9.5,9.5,9.5h7v-5.6h-7c-2.2,0-3.9-1.8-3.9-3.9
					c0-2.2,1.8-3.9,3.9-3.9h7V109.4z"/>
			</g>
			<g>
				<path class="st7" d="M225.1,126.8h6.7v1.6h-7c-5.1,0-9.3-4.1-9.5-9.1C216.4,123.6,220.3,126.8,225.1,126.8z"/>
				<path class="st7" d="M221.1,117.9c0-0.2-0.1-0.4-0.1-0.6c0-2.2,1.9-3.9,4.1-3.9h6.7v1.6h-7C223,115,221.5,116.2,221.1,117.9z"/>
			</g>
		</g>
	</g>
	<path class="st37" d="M339.1,264.6h-25.5c-0.5,0-0.8,0.4-0.8,0.8v6.7c0,0.5,0.4,0.8,0.8,0.8h25.5c0.5,0,0.8-0.4,0.8-0.8v-6.7
		C339.9,265,339.5,264.6,339.1,264.6z"/>
</g>
<g id="Layer_2">
	<path class="st38" d="M466.3,356.3H31.5v-266C31.5,83.5,37,78,43.8,78h410.1c6.8,0,12.3,5.5,12.3,12.3V356.3z"/>
	<polyline class="st39" points="453.5,309.9 453.5,356.3 44.3,356.3 44.3,270.5 	"/>
	<path class="st39" d="M175.4,90.4h266.4c6.5,0,11.7,5.2,11.7,11.7v63.4"/>
	<path class="st38" d="M479.9,362.5v26.7c0,5.3-4.3,9.6-9.6,9.6H27.2c-5.3,0-9.6-4.3-9.6-9.6v-26.7h185.5v1.4c0,3.2,2.6,5.9,5.9,5.9
		h79.6c3.2,0,5.9-2.6,5.9-5.9v-1.4H479.9z"/>
	<g>
		<g>
			<path d="M338.1,221.1c0.2-0.4,0.5-0.5,0.9-0.5c2.7,0,5.5,0,8.2,0c0.5,0,0.8,0.3,0.8,0.7c0,0.3-0.3,0.6-0.6,0.7
				c-0.1,0-0.2,0-0.4,0c-2.7,0-5.4,0-8,0c-0.4,0-0.8-0.1-1-0.5C338.1,221.4,338.1,221.2,338.1,221.1z"/>
			<path d="M361.6,213.4c0.4,0,0.7,0,1,0c1.3,0,2.7,0,4,0.1c2.9,0.2,5.4,2.7,5.7,5.5c0.1,1-0.2,1.8-0.3,2.7
				c-0.2,1.3-0.5,2.6-0.7,3.8c-0.1,0.5-0.3,0.7-0.8,0.7c-0.3,0-0.6,0-0.9,0c0,0,0,0-0.1,0c-0.2,0.6-0.4,1.2-0.9,1.7
				c-0.9,1-2.1,1.4-3.4,1.1c-1.3-0.3-2.2-1.1-2.6-2.4c-0.1-0.2-0.2-0.3-0.4-0.3c-2.7,0-5.3,0-8,0c-0.3,0-0.4,0.1-0.4,0.3
				c-0.5,1.5-1.8,2.5-3.4,2.5c-1.6,0-3-1.1-3.4-2.6c-0.1-0.2-0.2-0.3-0.4-0.3c-0.6,0-1.2,0-1.8,0c-0.5,0-0.8-0.3-0.8-0.7
				c0-0.4,0.3-0.7,0.8-0.7c0.7,0,1.4,0,2.1,0c0.1-0.3,0.2-0.5,0.3-0.7c0.6-1.3,2-2.2,3.4-2.1c1.6,0.1,2.8,1.1,3.3,2.5
				c0.1,0.3,0.2,0.3,0.5,0.3c1.1,0,2.2,0,3.3,0c0,0,0,0,0.1,0c1.1-4.7,2.2-9.4,3.2-14.2c-0.2,0-0.3,0-0.5,0c-5.1,0-10.3,0-15.4,0
				c-0.2,0-0.3,0-0.5,0c-0.3-0.1-0.5-0.4-0.5-0.7c0-0.3,0.2-0.6,0.5-0.7c0.1,0,0.3,0,0.4,0c5.5,0,11.1,0,16.6,0
				c0.8,0,1.1,0.3,0.9,1.1C362.1,211.3,361.8,212.3,361.6,213.4z M362.4,224.8c0.5-1.9,2-2.8,3.4-2.8c1.9,0,3.1,1,3.6,2.8
				c0.2,0,0.4,0,0.5,0c0.3-1.4,0.5-2.8,0.8-4.1c0.1-0.6,0.2-1.2,0.1-1.8c-0.5-2.3-2.5-3.9-4.8-4c-1.5,0-3,0-4.5,0
				c-0.3,0-0.4,0.1-0.4,0.3c-0.5,2.3-1,4.6-1.6,6.9c-0.2,0.9-0.4,1.8-0.6,2.7C360.2,224.8,361.3,224.8,362.4,224.8z M368.1,225.6
				c0-1.2-1-2.1-2.1-2.1c-1.2,0-2.1,0.9-2.1,2.1c0,1.2,0.9,2.2,2.1,2.2C367.1,227.7,368.1,226.7,368.1,225.6z M352.4,225.6
				c0-1.2-0.9-2.1-2.1-2.1c-1.2,0-2.1,0.9-2.1,2.1c0,1.2,0.9,2.2,2.1,2.2C351.4,227.7,352.4,226.8,352.4,225.6z"/>
			<path d="M343.8,217.7c-1.1,0-2.2,0-3.4,0c-0.1,0-0.3,0-0.4,0c-0.3-0.1-0.5-0.4-0.5-0.7c0-0.3,0.3-0.6,0.6-0.7c0.1,0,0.2,0,0.2,0
				c2.3,0,4.6,0,6.9,0c0.3,0,0.6,0.1,0.8,0.4c0.3,0.5-0.1,1-0.6,1c-0.8,0-1.7,0-2.5,0C344.5,217.7,344.2,217.7,343.8,217.7z"/>
			<path d="M344.5,213.4c-0.9,0-1.8,0-2.7,0c-0.5,0-0.8-0.3-0.8-0.7c0-0.4,0.3-0.7,0.8-0.7c1.8,0,3.6,0,5.5,0c0.6,0,1,0.6,0.7,1.1
				c-0.2,0.3-0.4,0.4-0.7,0.4C346.4,213.4,345.5,213.4,344.5,213.4z"/>
		</g>
		<path class="st40" d="M286.6,219.1h41.9"/>
		<circle cx="332.6" cy="219.1" r="4.1"/>
		<path class="st40" d="M210.5,219.1h-41.9"/>
		<circle cx="164.4" cy="219.1" r="4.1"/>
		<path class="st40" d="M249.9,257.8v41.9"/>
		<circle cx="249.9" cy="303.8" r="4.1"/>
		<line class="st40" x1="248.6" y1="181.9" x2="248.6" y2="143.1"/>
		<circle cx="248.6" cy="139.1" r="4.1"/>
		<g>
			<g>
				<path d="M252.1,318.3c0-0.1,0-0.1,0-0.2c-0.1-2.5-1.2-4.5-3.2-6c-2.2-1.6-4.5-2-7.1-1.2c-0.5,0.2-0.7,0.6-0.4,1
					c0.2,0.4,0.5,0.4,0.9,0.2c1.9-0.6,3.8-0.3,5.5,0.7c2.8,1.7,3.9,5.2,2.6,8.2c-1.3,3-4.7,4.6-7.8,3.7c-1.1-0.3-2-0.8-3.2-0.1
					c0-0.5,0-0.9,0-1.3c0-0.3-0.1-0.6-0.3-0.8c-2-2.6-1.9-6.2,0.3-8.6c0.3-0.4,0.4-0.8,0.1-1c-0.3-0.3-0.7-0.2-1,0.1
					c-0.8,0.9-1.4,1.9-1.7,3c-0.1,0.5-0.2,1-0.3,1.5c0,0.6,0,1.2,0,1.7c0,0.1,0.1,0.2,0.1,0.3c0.1,1,0.4,2.1,1,2.9
					c0.5,0.7,0.7,1.4,0.6,2.2c-0.1,1.1,0.1,1.5,1.4,1.1c0.8-0.2,1.6-0.2,2.5,0.1c0.9,0.3,1.8,0.3,2.7,0.5c0,0,1.8-0.4,1.9-0.5
					c2.8-1,4.6-2.9,5.4-5.8C251.9,320,252.1,318.3,252.1,318.3z"/>
				<path d="M244.1,319.2c-0.3,0-0.6-0.3-0.6-0.7c0-0.4,0.3-0.6,0.7-0.6c0.3,0,0.6,0.3,0.5,0.7C244.7,319,244.4,319.2,244.1,319.2z"
					/>
				<path d="M242.1,318.6c0,0.4-0.3,0.6-0.6,0.6c-0.4,0-0.6-0.3-0.6-0.7c0-0.4,0.3-0.6,0.6-0.6C241.8,317.9,242.1,318.2,242.1,318.6
					z"/>
				<path d="M246.8,319.2c-0.3,0-0.6-0.3-0.6-0.6c0-0.4,0.3-0.7,0.7-0.6c0.4,0,0.6,0.3,0.6,0.6C247.4,318.9,247.2,319.2,246.8,319.2
					z"/>
				<path d="M259.5,329.6c-0.3,0.2-0.5,0.4-0.7,0.6c-0.1,0.1-0.2,0.3-0.2,0.4c-0.1,0.5-0.1,1.1-0.1,1.6c-0.1,1-0.9,1.6-2,1.6
					c-1,0-1.8-0.8-1.8-1.8c0-0.7,0-1.4,0.1-2.1c0.1-1,0.5-1.9,1.3-2.6c0.4-0.3,0.8-0.7,1.2-1.1c-0.7-0.3-1.3-0.3-1.9,0
					c-0.4,0.2-0.8,0.1-1.1-0.2c-0.6-0.6-1.3-1.2-2-1.8c-0.4-0.3-0.4-0.7-0.1-1c0.3-0.3,0.6-0.3,1,0.1c0.5,0.5,1.1,0.9,1.6,1.4
					c0.2,0.2,0.3,0.2,0.6,0.2c1-0.3,1.9-0.2,2.8,0.3c0.1,0.1,0.4,0.1,0.5,0c0.8-0.4,1.7-0.5,2.6-0.2c0.3,0.1,0.4,0,0.6-0.2
					c0.5-0.5,1.1-1,1.6-1.5c0.4-0.4,0.8-0.4,1.1,0c0.3,0.3,0.2,0.7-0.2,1c-0.7,0.6-1.4,1.2-2.1,1.9c-0.3,0.3-0.6,0.3-1,0.2
					c-0.9-0.4-1.8-0.3-2.5,0.4c-0.6,0.5-1.2,1.1-1.8,1.6c-0.6,0.5-0.9,1.1-0.9,1.9c0,0.5,0,1-0.1,1.6c0,0.4,0.2,0.7,0.6,0.7
					c0.4,0,0.6-0.2,0.7-0.6c0.1-0.5,0.1-1.1,0.1-1.6c0-0.4,0.1-0.6,0.4-0.9c0.4-0.3,0.8-0.7,1.2-1.1c0.6-0.5,0.8-0.5,1.3,0
					c1.6,1.6,3.2,3.3,4.8,4.9c0.1,0.1,0.2,0.2,0.3,0.3c0.5-0.7,0.7-1.4,0.5-2.2c-0.2-0.5,0-0.9,0.4-1.2c0.7-0.5,1.3-1.1,1.9-1.6
					c0.4-0.3,0.8-0.3,1,0c0.3,0.3,0.2,0.7-0.2,1c-0.5,0.5-1.1,0.9-1.6,1.4c-0.1,0.1-0.2,0.3-0.2,0.4c0.2,1.2-0.1,2.3-0.9,3.2
					c-0.1,0.1-0.2,0.3-0.2,0.5c0,0.8-0.2,1.6-0.8,2.1c-1.4,1.3-2.8,2.6-4.2,3.9c-0.9,0.8-2,0.8-3.2,0.1c-0.1,0-0.1,0.1-0.2,0.2
					c-0.8,0.5-1.7,0.4-2.3-0.2c-1.5-1.4-2.9-2.9-4.3-4.3c-0.6-0.6-0.7-1.4-0.2-2.4c-0.7-0.9-1-2-0.8-3.1c0-0.1-0.1-0.3-0.2-0.3
					c-0.6-0.6-1.2-1.1-1.8-1.7c-0.4-0.3-0.4-0.7-0.1-1c0.3-0.2,0.6-0.3,0.9,0c0.8,0.8,1.7,1.5,2.5,2.3c0.1,0.1,0.2,0.5,0.1,0.7
					c-0.2,0.8-0.1,1.5,0.3,2.1c0.1,0.2,0.3,0.3,0.6,0.2c1.1-0.3,2,0,2.8,0.7c0.9,0.9,1.8,1.8,2.7,2.7c0.7,0.7,1,1.6,0.8,2.6
					c-0.1,0.4,0.1,0.5,0.3,0.6c0.5,0.2,0.9,0.1,1.3-0.2c1.4-1.3,2.8-2.5,4.1-3.8c0.5-0.5,0.5-1.2,0-1.8c-0.3-0.4-0.7-0.8-1.1-1.1
					C262,332.1,260.8,330.9,259.5,329.6z M257.3,339.1c-0.2-0.4-0.3-0.8-0.5-1c-0.9-1-1.9-2-2.9-2.9c-0.6-0.5-1.5-0.5-2-0.1
					c-0.3,0.3-0.4,0.5-0.1,0.8c1.4,1.4,2.8,2.9,4.3,4.3c0.3,0.3,0.6,0.3,0.8-0.1C257,339.9,257.1,339.5,257.3,339.1z"/>
			</g>
		</g>
		<g>
			<g>
				<path d="M125.1,231.7c0.2-0.7,0.5-1.2,1.2-1.5c0.1,0,0.1-0.2,0.1-0.2c0.1-1.9,1.5-3.2,3.4-3.2c2.6,0,5.1,0,7.7,0
					c1.8,0,3.2,1.3,3.3,3.2c0,0.1,0.1,0.2,0.2,0.3c0.7,0.4,1.1,1,1.1,1.8c0,0.6,0,1.2,0,1.8c0,0.6-0.2,0.8-0.8,0.8
					c-2.1,0-4.3,0-6.4,0c-3,0-5.9,0-8.9,0c-0.4,0-0.7-0.1-0.9-0.5C125.1,233.3,125.1,232.5,125.1,231.7z M140.7,233.3
					c0-0.3,0-0.7,0-1c0-0.8-0.2-1-1-1c-4.2,0-8.3,0-12.5,0c-0.1,0-0.2,0-0.4,0c-0.3,0-0.5,0.2-0.6,0.5c0,0.5,0,0.9,0,1.4
					C131.2,233.3,135.9,233.3,140.7,233.3z M127.7,230c3.9,0,7.8,0,11.7,0c0-0.1,0-0.2,0-0.4c-0.2-1-1-1.6-2-1.6c-2.1,0-4.2,0-6.4,0
					c-0.5,0-1,0-1.5,0C128.5,228.1,127.7,229,127.7,230z"/>
				<path d="M125.1,219.4c0.2-0.3,0.5-0.5,0.9-0.5c0.9,0,1.8,0,2.7,0c0.6,0,0.9,0.5,0.6,1c-0.1,0.2-0.4,0.3-0.6,0.3c-1,0-2,0-2.9,0
					c-0.3,0-0.6-0.2-0.7-0.5C125.1,219.6,125.1,219.5,125.1,219.4z"/>
				<path d="M142.3,218.6c-0.2,0.3-0.5,0.5-0.7,0.7c-0.1,0.1-0.1,0.2,0,0.4c0.2,1.7-1.1,3.2-2.8,3c-0.6-0.1-1.2-0.3-1.6-0.8
					c-1.5-1.5-3.1-3-4.5-4.6c-1.5-1.5-0.8-3.9,1.2-4.4c0.3-0.1,0.7,0,1.1,0c0.1,0,0.3,0,0.3-0.1c1.9-1.9,3.8-3.8,5.7-5.7
					c0.1-0.1,0.1-0.3,0.1-0.5c-0.2-1.5,0.9-2.8,2.4-3c0.8-0.1,1.5,0.2,2.1,0.8c1.5,1.5,3,3,4.5,4.6c0.8,0.8,1,1.8,0.6,2.8
					c-0.4,1-1.2,1.6-2.3,1.7c-0.1,0-0.1,0-0.2,0c-0.7-0.2-1,0.2-1.4,0.7c0.2,0.1,0.4,0.2,0.5,0.4c0.5,0.5,0.7,1.2,0.5,1.9
					c-0.1,0.2,0,0.3,0.2,0.5c3.1,2.6,6.2,5.1,9.3,7.7c1.7,1.4,1.6,3.9-0.1,5.2c-1.4,1-3.3,0.8-4.4-0.6c-2.6-3.1-5.1-6.2-7.7-9.3
					c-0.1-0.2-0.2-0.2-0.5-0.2C143.6,219.9,142.9,219.6,142.3,218.6z M142.7,209.1c-0.3-0.3-0.6-0.6-0.8-0.9
					c-1.8,1.8-3.7,3.7-5.5,5.4c1.5,1.5,3,3,4.5,4.5c1.8-1.8,3.6-3.6,5.5-5.4c-0.9-0.9-1.8-1.8-2.7-2.7c-0.1,0.1-0.2,0.1-0.2,0.2
					c-0.4,0.4-0.7,0.7-1.1,1.1c-0.2,0.2-0.5,0.3-0.7,0.2c-0.2-0.1-0.4-0.3-0.4-0.5c0-0.2,0.1-0.5,0.3-0.7
					C141.8,209.9,142.3,209.5,142.7,209.1z M145.9,218.9c0,0.1,0.1,0.1,0.2,0.2c2.6,3.1,5.1,6.2,7.7,9.2c0.5,0.6,1.2,0.9,2,0.7
					c0.8-0.2,1.3-0.7,1.5-1.5c0.2-0.8-0.1-1.5-0.7-2c-2.3-1.9-4.6-3.8-6.9-5.7c-0.9-0.7-1.7-1.4-2.5-2.1
					C146.6,218.1,146.3,218.5,145.9,218.9z M149.6,210.9c0-0.5-0.2-0.8-0.5-1.1c-1.3-1.3-2.7-2.7-4-4c-0.2-0.2-0.4-0.4-0.6-0.6
					c-0.6-0.5-1.5-0.4-1.9,0.3c-0.4,0.6-0.3,1.2,0.3,1.7c1.5,1.5,2.9,2.9,4.4,4.4c0.1,0.1,0.2,0.2,0.2,0.2c0.4,0.3,0.9,0.4,1.4,0.1
					C149.3,211.8,149.5,211.4,149.6,210.9z M138.8,221.4c0.7,0,1.1-0.3,1.4-0.8c0.2-0.5,0.1-1-0.3-1.4c-1.5-1.5-3.1-3.1-4.6-4.6
					c-0.5-0.5-1.3-0.5-1.8,0c-0.5,0.5-0.5,1.3,0,1.8c1.5,1.5,3.1,3.1,4.6,4.6C138.3,221.3,138.7,221.4,138.8,221.4z M146.7,215.9
					c-0.2-0.2-0.3-0.4-0.5-0.5c-0.3-0.1-0.5,0-0.8,0.2c-0.6,0.6-1.2,1.1-1.7,1.7c-0.3,0.3-0.3,0.7-0.1,1c0.3,0.3,0.7,0.3,1-0.1
					c0.6-0.6,1.2-1.1,1.7-1.7C146.5,216.3,146.5,216.2,146.7,215.9z"/>
				<path d="M127.9,225.1c-0.5,0-0.9-0.5-0.7-0.9c0,0,0-0.1,0.1-0.1c0.7-0.7,1.3-1.3,2-1.9c0.1-0.1,0.5-0.1,0.7-0.1
					c0.4,0.1,0.5,0.6,0.2,1c-0.6,0.7-1.3,1.3-1.9,1.9C128.1,225,128,225,127.9,225.1z"/>
				<path d="M127.7,214c0.2,0.1,0.4,0.2,0.6,0.3c0.6,0.6,1.1,1.1,1.7,1.7c0.3,0.3,0.3,0.7,0.1,1c-0.3,0.3-0.6,0.3-1,0
					c-0.6-0.6-1.2-1.2-1.8-1.8c-0.2-0.2-0.3-0.5-0.2-0.7C127.3,214.3,127.5,214.2,127.7,214z"/>
				<path d="M140.6,212.7c0,0.3-0.3,0.6-0.6,0.7c-0.3,0-0.6-0.3-0.6-0.6c0-0.4,0.3-0.7,0.6-0.7C140.3,212.1,140.6,212.4,140.6,212.7
					z"/>
			</g>
		</g>
		<g>
			<g>
				<path d="M255.7,106.9c0.1,0.1,0.2,0.2,0.3,0.3c0.9,0.9,1.8,1.8,2.6,2.7c0.1,0.2,0.2,0.3,0.2,0.5c-0.1,2.5-0.1,5-0.2,7.6
					c0,0.1-0.1,0.3-0.2,0.4c-0.2,0.2-0.5,0-0.6-0.2c0-0.1,0-0.2,0-0.3c0.1-2.4,0.1-4.8,0.2-7.2c0-0.2,0-0.3-0.2-0.4
					c-0.8-0.8-1.6-1.6-2.4-2.5c-0.1-0.1-0.2-0.2-0.4-0.2c-4.5-0.1-9.1-0.2-13.6-0.3c-0.7,0-1.2,0.4-1.2,1.1
					c-0.1,7.1-0.3,14.2-0.4,21.4c0,0.7,0.4,1.1,1.1,1.2c2.6,0.1,5.2,0.1,7.7,0.2c0,0,0.1,0,0.2,0c0-0.8,0-1.5,0-2.3
					c-0.2,0-0.3,0-0.5,0c-0.4,0-0.9,0-1.3,0c-0.3,0-0.4-0.2-0.4-0.4c0-0.2,0.2-0.3,0.4-0.3c0.6,0,1.2,0,1.8,0c0-0.3,0-0.5,0-0.7
					c-0.1,0-0.2,0-0.3,0c-0.5,0-1,0-1.5,0c-0.3,0-0.4-0.1-0.4-0.4c0-0.2,0.2-0.4,0.4-0.4c0.5,0,1,0,1.5,0c0.1,0,0.2,0,0.3,0
					c0-1,0-2,0.1-3.1c-0.5,0-1,0-1.5,0c-0.1,0-0.3,0-0.4,0c-0.2,0-0.4-0.2-0.4-0.4c0-0.2,0.2-0.4,0.4-0.4c0.4,0,0.7,0,1.1,0
					c0.3,0,0.5,0,0.8,0c0-0.3,0-0.5,0-0.7c-0.1,0-0.3,0-0.4,0c-0.5,0-0.9,0-1.4,0c-0.3,0-0.5-0.3-0.4-0.5c0.1-0.1,0.2-0.2,0.4-0.2
					c0.5,0,1.1,0,1.6,0c0.2,0,0.3-0.1,0.4-0.2c0.3-0.5,0.6-1,0.9-1.5c0.2-0.3,0.4-0.4,0.7-0.4c2.8,0.1,5.5,0.1,8.3,0.2
					c0.3,0,0.5,0.1,0.7,0.4c0.3,0.5,0.6,1.1,0.9,1.6c0.1,0.1,0.1,0.3,0.1,0.4c-0.1,3.1-0.1,6.3-0.2,9.4c0,0.4-0.2,0.7-0.6,0.8
					c-6.4-0.1-12.8-0.3-19.2-0.4c0,0,0,0,0,0c-1.2-0.3-1.6-0.9-1.6-2.1c0.1-4.5,0.2-9,0.3-13.5c0.1-2.6,0.1-5.2,0.2-7.8
					c0-0.8,0.5-1.5,1.3-1.7c0.1,0,0.2-0.1,0.2-0.1C246.1,106.7,250.9,106.8,255.7,106.9z M253.8,120.1
					C253.7,120.1,253.7,120.1,253.8,120.1c-0.9-0.1-1.8-0.1-2.7-0.1c-0.1,0-0.2,0.1-0.2,0.1c-0.3,0.4-0.5,0.8-0.8,1.2
					c-0.1,0.1-0.1,0.3-0.1,0.4c-0.1,3-0.1,6-0.2,9.1c0,0.1,0,0.2,0,0.3c3.4,0.1,6.8,0.1,10.2,0.2c0.1-3.1,0.1-6.2,0.2-9.3
					c-1.1,0-2.2,0-3.4-0.1c0,0.1,0,0.2,0,0.3c0,1,0,2-0.1,2.9c0,0.2,0,0.4-0.2,0.4c-0.1,0-0.3,0-0.4-0.1c-0.3-0.2-0.6-0.5-1-0.7
					c-0.3,0.2-0.7,0.5-1,0.7c-0.1,0.1-0.3,0.2-0.5,0.1c-0.2-0.1-0.2-0.3-0.2-0.4c0-1,0-2,0.1-2.9c0-0.1,0-0.2,0-0.3
					c-0.5,0-0.9,0-1.4,0c-0.2,0-0.4,0-0.7,0c-0.2,0-0.4-0.2-0.4-0.4c0-0.2,0.2-0.3,0.4-0.3c0.1,0,0.2,0,0.3,0c0.6,0,1.2,0,1.8,0
					C253.6,120.8,253.7,120.5,253.8,120.1z M254.2,122c0,0.9,0,1.7-0.1,2.6c0.2-0.2,0.4-0.3,0.6-0.4c0.2-0.2,0.4-0.1,0.6,0
					c0.2,0.2,0.4,0.3,0.6,0.5c0-0.9,0-1.7,0.1-2.6C255.4,122,254.8,122,254.2,122z M259.9,121.3c-0.2-0.3-0.4-0.6-0.5-1
					c-0.1-0.1-0.2-0.2-0.3-0.2c-0.8,0-1.5,0-2.3,0c-0.1,0-0.1,0-0.2,0c0.1,0.4,0.1,0.7,0.2,1.1C257.8,121.3,258.8,121.3,259.9,121.3
					z M254.3,121.2c0.6,0,1.1,0,1.7,0c-0.1-0.4-0.1-0.7-0.2-1.1c-0.4,0-0.8,0-1.2,0c0,0-0.1,0.1-0.1,0.2
					C254.4,120.6,254.4,120.9,254.3,121.2z"/>
				<path d="M245.3,109.5c0.2-0.2,0.4-0.4,0.6-0.6c0.2-0.2,0.4-0.2,0.6,0c0.2,0.2,0.1,0.4-0.1,0.6c-0.2,0.2-0.3,0.3-0.5,0.5
					c-0.1,0.1-0.1,0.2-0.1,0.4c0.5,1.2-0.1,2.5-1.3,2.8c-1.2,0.4-2.4-0.3-2.7-1.5c-0.2-0.9,0.1-1.8,0.9-2.3c0.7-0.5,1.7-0.5,2.4,0
					C245.1,109.4,245.2,109.4,245.3,109.5z M244.8,110c-0.6-0.5-1.4-0.4-1.9,0.1c-0.5,0.5-0.6,1.3-0.1,1.9c0.5,0.6,1.3,0.7,1.9,0.3
					c0.5-0.4,0.8-1.1,0.5-1.6c-0.1,0.1-0.1,0.1-0.2,0.2c-0.3,0.2-0.5,0.5-0.8,0.7c-0.2,0.2-0.4,0.2-0.6,0c-0.1-0.1-0.2-0.2-0.3-0.4
					c-0.1-0.2-0.1-0.3,0-0.5c0.1-0.2,0.3-0.1,0.5,0c0.1,0,0.1,0.1,0.1,0.1C244.2,110.5,244.5,110.3,244.8,110z"/>
				<path d="M245.2,115c0.2-0.2,0.4-0.4,0.6-0.6c0.2-0.2,0.4-0.2,0.5,0c0.2,0.2,0.1,0.4,0,0.6c-0.2,0.2-0.3,0.3-0.5,0.5
					c-0.1,0.1-0.1,0.2-0.1,0.4c0.5,1.2-0.1,2.5-1.3,2.8c-1.2,0.4-2.4-0.3-2.7-1.5c-0.2-0.9,0.1-1.8,0.9-2.3c0.7-0.5,1.7-0.5,2.4,0
					C245,114.9,245.1,114.9,245.2,115z M244.6,115.5c-0.5-0.5-1.3-0.4-1.8,0.1c-0.5,0.5-0.6,1.3-0.2,1.9c0.4,0.6,1.2,0.7,1.8,0.3
					c0.6-0.3,0.8-1.1,0.6-1.6c-0.2,0.2-0.4,0.4-0.7,0.6c-0.6,0.5-0.6,0.5-1.2,0c-0.2-0.2-0.2-0.4,0-0.5c0.2-0.2,0.4-0.2,0.6,0
					c0,0,0,0,0.1,0C244.1,116,244.4,115.8,244.6,115.5z"/>
				<path d="M241.5,122.3c0-1.2,1-2.1,2.2-2.1c1.2,0,2.1,1,2.1,2.2c0,1.2-1,2.1-2.2,2.1C242.4,124.4,241.5,123.4,241.5,122.3z
					 M243.7,120.9c-0.8,0-1.4,0.6-1.4,1.4c0,0.8,0.6,1.4,1.4,1.4c0.8,0,1.4-0.6,1.4-1.4C245.1,121.6,244.4,120.9,243.7,120.9z"/>
				<path d="M245.7,127.7c0,1.2-1,2.1-2.2,2.1c-1.2,0-2.1-1-2.1-2.2c0-1.2,1-2.1,2.2-2.1C244.8,125.5,245.7,126.5,245.7,127.7z
					 M242.1,127.6c0,0.8,0.6,1.4,1.4,1.4c0.8,0,1.4-0.6,1.4-1.4c0-0.8-0.6-1.4-1.4-1.4C242.8,126.2,242.1,126.8,242.1,127.6z"/>
				<path d="M251.7,110.1c1.3,0,2.6,0.1,3.9,0.1c0.1,0,0.1,0,0.2,0c0.2,0,0.3,0.2,0.3,0.4c0,0.2-0.1,0.3-0.3,0.3c-0.1,0-0.2,0-0.2,0
					c-2.6-0.1-5.3-0.1-7.9-0.2c-0.1,0-0.2,0-0.2,0c-0.2-0.1-0.3-0.2-0.3-0.4c0-0.2,0.1-0.3,0.3-0.3c0.1,0,0.1,0,0.2,0
					C249,110.1,250.3,110.1,251.7,110.1z"/>
				<path d="M251.5,116.4c-1.3,0-2.6-0.1-3.9-0.1c-0.1,0-0.1,0-0.2,0c-0.2,0-0.3-0.1-0.3-0.3c0-0.2,0.1-0.3,0.3-0.4
					c0.1,0,0.2,0,0.2,0c2.6,0.1,5.3,0.1,7.9,0.2c0.1,0,0.1,0,0.2,0c0.2,0,0.3,0.2,0.3,0.4c0,0.2-0.2,0.3-0.4,0.4c-0.2,0-0.3,0-0.5,0
					C254,116.4,252.7,116.4,251.5,116.4z"/>
				<path d="M249.1,112.3c-0.5,0-1,0-1.5,0c-0.3,0-0.4-0.1-0.4-0.4c0-0.2,0.2-0.4,0.4-0.4c1,0,2.1,0,3.1,0.1c0.3,0,0.4,0.2,0.4,0.4
					c0,0.2-0.2,0.3-0.4,0.3C250.2,112.3,249.6,112.3,249.1,112.3z"/>
				<path d="M249,117.8c-0.5,0-1,0-1.4,0c-0.1,0-0.2,0-0.3,0c-0.2,0-0.3-0.2-0.3-0.4c0-0.2,0.1-0.3,0.3-0.3c0.1,0,0.2,0,0.2,0
					c1,0,1.9,0,2.9,0.1c0,0,0.1,0,0.1,0c0.2,0,0.4,0.2,0.4,0.4c0,0.2-0.2,0.4-0.4,0.4C250.1,117.8,249.5,117.8,249,117.8
					C249,117.8,249,117.8,249,117.8z"/>
			</g>
		</g>
		<g>
			<circle cx="298.5" cy="143.1" r="4.1"/>
			<path class="st40" d="M275.3,192.4h17.5c3.2,0,5.7-2.6,5.7-5.7v-39.5"/>
		</g>
		<g>
			<circle cx="192.6" cy="143.1" r="4.1"/>
			<path class="st40" d="M221.2,192.4h-22.9c-3.2,0-5.7-2.6-5.7-5.7v-39.5"/>
		</g>
		<g>
			<circle cx="192.6" cy="295.7" r="4.1"/>
			<path class="st40" d="M221.2,246.4h-22.9c-3.2,0-5.7,2.6-5.7,5.7v39.5"/>
		</g>
		<g>
			<circle cx="304.4" cy="295.7" r="4.1"/>
			<path class="st40" d="M275.8,246.4h22.9c3.2,0,5.7,2.6,5.7,5.7v39.5"/>
		</g>
		<path class="st40" d="M286.9,219.4c0,0.8,0,1.6-0.1,2.4c-0.1,1.1-0.8,2-1.8,2.4l-6.4,2.3l-1.6,0.6l-3.7,1.3
			c-0.8,0.3-1.2,1.3-0.9,2.1l1.7,3.5l0.8,1.8l2.8,6c0.5,1,0.3,2.1-0.4,2.9c-1.1,1.2-2.2,2.3-3.4,3.4c-0.8,0.7-2,0.9-2.9,0.4
			l-5.7-2.7l-2-1l-3.5-1.7c-0.8-0.4-1.8,0-2.1,0.9l-1.3,3.7l-0.8,2.2l-2.1,5.8c-0.4,1-1.3,1.7-2.4,1.8c-0.8,0-1.6,0.1-2.4,0.1
			c-0.8,0-1.6,0-2.4-0.1c-1.1-0.1-2-0.8-2.4-1.8l-2.1-5.8l-0.8-2.3l-1.3-3.7c-0.3-0.8-1.3-1.2-2.1-0.9l-3.5,1.7l-2.1,1l-5.6,2.7
			c-1,0.5-2.1,0.3-2.9-0.4c-1.2-1.1-2.3-2.2-3.4-3.4c-0.7-0.8-0.9-2-0.4-2.9l2.8-5.8l0.9-1.9l1.7-3.5c0.4-0.8,0-1.8-0.9-2.1
			l-3.7-1.3l-1.8-0.6l-6.3-2.2c-1-0.4-1.7-1.3-1.8-2.4c0-0.8-0.1-1.6-0.1-2.4c0-0.8,0-1.6,0.1-2.4c0.1-1.1,0.8-2,1.8-2.4l6.6-2.4
			l1.4-0.5l3.7-1.3c0.8-0.3,1.2-1.3,0.9-2.1l-1.7-3.5l-0.6-1.2l-3.1-6.6c-0.5-1-0.3-2.1,0.4-2.9c1.1-1.2,2.2-2.3,3.4-3.4
			c0.8-0.7,2-0.9,2.9-0.4l6.8,3.2l0.9,0.4l3.5,1.7c0.8,0.4,1.8,0,2.1-0.9l1.3-3.7l0.3-0.9l2.6-7.2c0.4-1,1.3-1.7,2.4-1.8
			c0.8,0,1.6-0.1,2.4-0.1c0.8,0,1.6,0,2.4,0.1c1.1,0.1,2,0.8,2.4,1.8l2.6,7.3l0.3,0.8l1.3,3.7c0.3,0.8,1.3,1.2,2.1,0.9l3.5-1.7
			l0.8-0.4l6.9-3.3c1-0.5,2.1-0.3,2.9,0.4c1.2,1.1,2.3,2.2,3.4,3.4c0.7,0.8,0.9,2,0.4,2.9l-3.2,6.7l-0.5,1.1l-1.7,3.5
			c-0.4,0.8,0,1.8,0.9,2.1l3.7,1.3l1.3,0.5l6.8,2.4c1,0.4,1.7,1.3,1.8,2.4C286.8,217.7,286.9,218.5,286.9,219.4z"/>
		<path d="M248.7,201.2c-10,0-18.1,8.1-18.1,18.1s8.1,18.1,18.1,18.1c10,0,18.1-8.1,18.1-18.1S258.7,201.2,248.7,201.2z
			 M248.7,229.2c-5.4,0-9.8-4.4-9.8-9.8c0-5.4,4.4-9.8,9.8-9.8c5.4,0,9.8,4.4,9.8,9.8C258.5,224.8,254.1,229.2,248.7,229.2z"/>
	</g>
</g>
</svg>
