<?xml version="1.0" encoding="utf-8"?>
<!-- <svg xmlns="http://www.w3.org/2000/svg" viewBox="0 0 1440 320"><path fill="#0099ff" fill-opacity="1" d="M0,256L8.6,213.3C17.1,171,34,85,51,64C68.6,43,86,85,103,122.7C120,160,137,192,154,197.3C171.4,203,189,181,206,160C222.9,139,240,117,257,101.3C274.3,85,291,75,309,90.7C325.7,107,343,149,360,170.7C377.1,192,394,192,411,181.3C428.6,171,446,149,463,133.3C480,117,497,107,514,138.7C531.4,171,549,245,566,282.7C582.9,320,600,320,617,309.3C634.3,299,651,277,669,245.3C685.7,213,703,171,720,176C737.1,181,754,235,771,229.3C788.6,224,806,160,823,133.3C840,107,857,117,874,122.7C891.4,128,909,128,926,138.7C942.9,149,960,171,977,186.7C994.3,203,1011,213,1029,202.7C1045.7,192,1063,160,1080,170.7C1097.1,181,1114,235,1131,234.7C1148.6,235,1166,181,1183,165.3C1200,149,1217,171,1234,197.3C1251.4,224,1269,256,1286,256C1302.9,256,1320,224,1337,224C1354.3,224,1371,256,1389,261.3C1405.7,267,1423,245,1431,234.7L1440,224L1440,0L1431.4,0C1422.9,0,1406,0,1389,0C1371.4,0,1354,0,1337,0C1320,0,1303,0,1286,0C1268.6,0,1251,0,1234,0C1217.1,0,1200,0,1183,0C1165.7,0,1149,0,1131,0C1114.3,0,1097,0,1080,0C1062.9,0,1046,0,1029,0C1011.4,0,994,0,977,0C960,0,943,0,926,0C908.6,0,891,0,874,0C857.1,0,840,0,823,0C805.7,0,789,0,771,0C754.3,0,737,0,720,0C702.9,0,686,0,669,0C651.4,0,634,0,617,0C600,0,583,0,566,0C548.6,0,531,0,514,0C497.1,0,480,0,463,0C445.7,0,429,0,411,0C394.3,0,377,0,360,0C342.9,0,326,0,309,0C291.4,0,274,0,257,0C240,0,223,0,206,0C188.6,0,171,0,154,0C137.1,0,120,0,103,0C85.7,0,69,0,51,0C34.3,0,17,0,9,0L0,0Z"></path></svg> -->
<!-- <svg xmlns="http://www.w3.org/2000/svg" viewBox="0 0 1440 320"><path fill="#0099ff" fill-opacity="1" d="M0,288L8.6,293.3C17.1,299,34,309,51,304C68.6,299,86,277,103,240C120,203,137,149,154,149.3C171.4,149,189,203,206,208C222.9,213,240,171,257,181.3C274.3,192,291,256,309,288C325.7,320,343,320,360,277.3C377.1,235,394,149,411,128C428.6,107,446,149,463,186.7C480,224,497,256,514,266.7C531.4,277,549,267,566,250.7C582.9,235,600,213,617,186.7C634.3,160,651,128,669,122.7C685.7,117,703,139,720,154.7C737.1,171,754,181,771,197.3C788.6,213,806,235,823,208C840,181,857,107,874,106.7C891.4,107,909,181,926,181.3C942.9,181,960,107,977,106.7C994.3,107,1011,181,1029,197.3C1045.7,213,1063,171,1080,160C1097.1,149,1114,171,1131,186.7C1148.6,203,1166,213,1183,192C1200,171,1217,117,1234,117.3C1251.4,117,1269,171,1286,165.3C1302.9,160,1320,96,1337,80C1354.3,64,1371,96,1389,128C1405.7,160,1423,192,1431,208L1440,224L1440,0L1431.4,0C1422.9,0,1406,0,1389,0C1371.4,0,1354,0,1337,0C1320,0,1303,0,1286,0C1268.6,0,1251,0,1234,0C1217.1,0,1200,0,1183,0C1165.7,0,1149,0,1131,0C1114.3,0,1097,0,1080,0C1062.9,0,1046,0,1029,0C1011.4,0,994,0,977,0C960,0,943,0,926,0C908.6,0,891,0,874,0C857.1,0,840,0,823,0C805.7,0,789,0,771,0C754.3,0,737,0,720,0C702.9,0,686,0,669,0C651.4,0,634,0,617,0C600,0,583,0,566,0C548.6,0,531,0,514,0C497.1,0,480,0,463,0C445.7,0,429,0,411,0C394.3,0,377,0,360,0C342.9,0,326,0,309,0C291.4,0,274,0,257,0C240,0,223,0,206,0C188.6,0,171,0,154,0C137.1,0,120,0,103,0C85.7,0,69,0,51,0C34.3,0,17,0,9,0L0,0Z"></path></svg> -->
<!-- <svg xmlns="http://www.w3.org/2000/svg" viewBox="0 0 1440 320"><path fill="#0099ff" fill-opacity="1" d="M0,32L8.6,69.3C17.1,107,34,181,51,176C68.6,171,86,85,103,58.7C120,32,137,64,154,101.3C171.4,139,189,181,206,208C222.9,235,240,245,257,224C274.3,203,291,149,309,138.7C325.7,128,343,160,360,160C377.1,160,394,128,411,128C428.6,128,446,160,463,144C480,128,497,64,514,80C531.4,96,549,192,566,234.7C582.9,277,600,267,617,224C634.3,181,651,107,669,112C685.7,117,703,203,720,229.3C737.1,256,754,224,771,229.3C788.6,235,806,277,823,250.7C840,224,857,128,874,117.3C891.4,107,909,181,926,192C942.9,203,960,149,977,138.7C994.3,128,1011,160,1029,186.7C1045.7,213,1063,235,1080,208C1097.1,181,1114,107,1131,80C1148.6,53,1166,75,1183,85.3C1200,96,1217,96,1234,112C1251.4,128,1269,160,1286,170.7C1302.9,181,1320,171,1337,186.7C1354.3,203,1371,245,1389,234.7C1405.7,224,1423,160,1431,128L1440,96L1440,0L1431.4,0C1422.9,0,1406,0,1389,0C1371.4,0,1354,0,1337,0C1320,0,1303,0,1286,0C1268.6,0,1251,0,1234,0C1217.1,0,1200,0,1183,0C1165.7,0,1149,0,1131,0C1114.3,0,1097,0,1080,0C1062.9,0,1046,0,1029,0C1011.4,0,994,0,977,0C960,0,943,0,926,0C908.6,0,891,0,874,0C857.1,0,840,0,823,0C805.7,0,789,0,771,0C754.3,0,737,0,720,0C702.9,0,686,0,669,0C651.4,0,634,0,617,0C600,0,583,0,566,0C548.6,0,531,0,514,0C497.1,0,480,0,463,0C445.7,0,429,0,411,0C394.3,0,377,0,360,0C342.9,0,326,0,309,0C291.4,0,274,0,257,0C240,0,223,0,206,0C188.6,0,171,0,154,0C137.1,0,120,0,103,0C85.7,0,69,0,51,0C34.3,0,17,0,9,0L0,0Z"></path></svg> -->
<!-- <svg xmlns="http://www.w3.org/2000/svg" viewBox="0 0 1440 320"><path fill="#0099ff" fill-opacity="1" d="M0,288L8.6,256C17.1,224,34,160,51,117.3C68.6,75,86,53,103,58.7C120,64,137,96,154,112C171.4,128,189,128,206,138.7C222.9,149,240,171,257,154.7C274.3,139,291,85,309,101.3C325.7,117,343,203,360,234.7C377.1,267,394,245,411,208C428.6,171,446,117,463,117.3C480,117,497,171,514,160C531.4,149,549,75,566,74.7C582.9,75,600,149,617,165.3C634.3,181,651,139,669,106.7C685.7,75,703,53,720,64C737.1,75,754,117,771,160C788.6,203,806,245,823,240C840,235,857,181,874,181.3C891.4,181,909,235,926,240C942.9,245,960,203,977,186.7C994.3,171,1011,181,1029,181.3C1045.7,181,1063,171,1080,144C1097.1,117,1114,75,1131,64C1148.6,53,1166,75,1183,69.3C1200,64,1217,32,1234,58.7C1251.4,85,1269,171,1286,181.3C1302.9,192,1320,128,1337,106.7C1354.3,85,1371,107,1389,117.3C1405.7,128,1423,128,1431,128L1440,128L1440,0L1431.4,0C1422.9,0,1406,0,1389,0C1371.4,0,1354,0,1337,0C1320,0,1303,0,1286,0C1268.6,0,1251,0,1234,0C1217.1,0,1200,0,1183,0C1165.7,0,1149,0,1131,0C1114.3,0,1097,0,1080,0C1062.9,0,1046,0,1029,0C1011.4,0,994,0,977,0C960,0,943,0,926,0C908.6,0,891,0,874,0C857.1,0,840,0,823,0C805.7,0,789,0,771,0C754.3,0,737,0,720,0C702.9,0,686,0,669,0C651.4,0,634,0,617,0C600,0,583,0,566,0C548.6,0,531,0,514,0C497.1,0,480,0,463,0C445.7,0,429,0,411,0C394.3,0,377,0,360,0C342.9,0,326,0,309,0C291.4,0,274,0,257,0C240,0,223,0,206,0C188.6,0,171,0,154,0C137.1,0,120,0,103,0C85.7,0,69,0,51,0C34.3,0,17,0,9,0L0,0Z"></path></svg> -->
<!-- <svg xmlns="http://www.w3.org/2000/svg" viewBox="0 0 1440 320"><path fill="#0099ff" fill-opacity="1" d="M0,128L8.6,133.3C17.1,139,34,149,51,160C68.6,171,86,181,103,160C120,139,137,85,154,85.3C171.4,85,189,139,206,149.3C222.9,160,240,128,257,144C274.3,160,291,224,309,256C325.7,288,343,288,360,256C377.1,224,394,160,411,117.3C428.6,75,446,53,463,37.3C480,21,497,11,514,53.3C531.4,96,549,192,566,224C582.9,256,600,224,617,208C634.3,192,651,192,669,213.3C685.7,235,703,277,720,282.7C737.1,288,754,256,771,218.7C788.6,181,806,139,823,138.7C840,139,857,181,874,218.7C891.4,256,909,288,926,272C942.9,256,960,192,977,181.3C994.3,171,1011,213,1029,234.7C1045.7,256,1063,256,1080,266.7C1097.1,277,1114,299,1131,304C1148.6,309,1166,299,1183,256C1200,213,1217,139,1234,101.3C1251.4,64,1269,64,1286,96C1302.9,128,1320,192,1337,197.3C1354.3,203,1371,149,1389,117.3C1405.7,85,1423,75,1431,69.3L1440,64L1440,0L1431.4,0C1422.9,0,1406,0,1389,0C1371.4,0,1354,0,1337,0C1320,0,1303,0,1286,0C1268.6,0,1251,0,1234,0C1217.1,0,1200,0,1183,0C1165.7,0,1149,0,1131,0C1114.3,0,1097,0,1080,0C1062.9,0,1046,0,1029,0C1011.4,0,994,0,977,0C960,0,943,0,926,0C908.6,0,891,0,874,0C857.1,0,840,0,823,0C805.7,0,789,0,771,0C754.3,0,737,0,720,0C702.9,0,686,0,669,0C651.4,0,634,0,617,0C600,0,583,0,566,0C548.6,0,531,0,514,0C497.1,0,480,0,463,0C445.7,0,429,0,411,0C394.3,0,377,0,360,0C342.9,0,326,0,309,0C291.4,0,274,0,257,0C240,0,223,0,206,0C188.6,0,171,0,154,0C137.1,0,120,0,103,0C85.7,0,69,0,51,0C34.3,0,17,0,9,0L0,0Z"></path></svg> -->
<svg xmlns="http://www.w3.org/2000/svg" viewBox="0 0 1440 320"><path fill="#0099ff" fill-opacity="1" d="M0,96L13.3,112C26.7,128,53,160,80,144C106.7,128,133,64,160,74.7C186.7,85,213,171,240,218.7C266.7,267,293,277,320,282.7C346.7,288,373,288,400,256C426.7,224,453,160,480,112C506.7,64,533,32,560,53.3C586.7,75,613,149,640,154.7C666.7,160,693,96,720,106.7C746.7,117,773,203,800,234.7C826.7,267,853,245,880,218.7C906.7,192,933,160,960,165.3C986.7,171,1013,213,1040,213.3C1066.7,213,1093,171,1120,165.3C1146.7,160,1173,192,1200,218.7C1226.7,245,1253,267,1280,240C1306.7,213,1333,139,1360,117.3C1386.7,96,1413,128,1427,144L1440,160L1440,0L1426.7,0C1413.3,0,1387,0,1360,0C1333.3,0,1307,0,1280,0C1253.3,0,1227,0,1200,0C1173.3,0,1147,0,1120,0C1093.3,0,1067,0,1040,0C1013.3,0,987,0,960,0C933.3,0,907,0,880,0C853.3,0,827,0,800,0C773.3,0,747,0,720,0C693.3,0,667,0,640,0C613.3,0,587,0,560,0C533.3,0,507,0,480,0C453.3,0,427,0,400,0C373.3,0,347,0,320,0C293.3,0,267,0,240,0C213.3,0,187,0,160,0C133.3,0,107,0,80,0C53.3,0,27,0,13,0L0,0Z"></path></svg>