<?xml version="1.0" encoding="utf-8"?>
<svg xmlns="http://www.w3.org/2000/svg" viewBox="0 0 1440 320"><path fill="#0099ff" fill-opacity="1" d="M0,128L21.8,160C43.6,192,87,256,131,250.7C174.5,245,218,171,262,165.3C305.5,160,349,224,393,250.7C436.4,277,480,267,524,229.3C567.3,192,611,128,655,117.3C698.2,107,742,149,785,144C829.1,139,873,85,916,101.3C960,117,1004,203,1047,202.7C1090.9,203,1135,117,1178,101.3C1221.8,85,1265,139,1309,138.7C1352.7,139,1396,85,1418,58.7L1440,32L1440,0L1418.2,0C1396.4,0,1353,0,1309,0C1265.5,0,1222,0,1178,0C1134.5,0,1091,0,1047,0C1003.6,0,960,0,916,0C872.7,0,829,0,785,0C741.8,0,698,0,655,0C610.9,0,567,0,524,0C480,0,436,0,393,0C349.1,0,305,0,262,0C218.2,0,175,0,131,0C87.3,0,44,0,22,0L0,0Z"></path></svg>