<!-- <svg xmlns="http://www.w3.org/2000/svg" xmlns:xlink="http://www.w3.org/1999/xlink" width="85" height="85" viewBox="0 0 85 85">
  <defs>
    <clipPath id="clip-path">
      <path d="M0,42.5A42.5,42.5,0,1,1,42.5,85,42.5,42.5,0,0,1,0,42.5Z" fill="none"/>
    </clipPath>
  </defs>
  <g id="Icon" clip-path="url(#clip-path)">
    <path id="Card" d="M28.875,22H4.125A4.129,4.129,0,0,1,0,17.875V4.125A4.129,4.129,0,0,1,4.125,0h24.75A4.13,4.13,0,0,1,33,4.125v13.75A4.13,4.13,0,0,1,28.875,22Zm-6.066-9.565a1.435,1.435,0,1,0,0,2.87h5.824a1.435,1.435,0,1,0,0-2.87ZM4.271,6.7a1.437,1.437,0,0,0,0,2.869H28.73a1.437,1.437,0,0,0,0-2.869Z" transform="translate(26 31)" fill="#936dff"/>
  </g>
</svg> -->

<svg version="1.0" xmlns="http://www.w3.org/2000/svg"
 width="1182.000000pt" height="1182.000000pt" viewBox="0 0 800.000000 1500.000000"
 preserveAspectRatio="xMidYMid meet">

<g transform="translate(0.000000,1182.000000) scale(0.07,-0.07)"
fill="#f75a1c" stroke="none">
<path d="M4415 11123 c-377 -30 -635 -77 -935 -170 -1064 -328 -1949 -1088
-2431 -2088 -199 -412 -318 -826 -375 -1300 -26 -209 -26 -679 0 -885 97 -798
387 -1487 880 -2095 109 -133 344 -375 481 -494 992 -860 2343 -1177 3620
-851 510 130 1018 375 1420 684 44 34 86 66 94 70 10 6 110 -88 365 -342 193
-193 364 -356 379 -362 42 -15 83 -12 125 9 45 24 364 344 386 388 18 37 20
80 6 120 -6 15 -168 186 -360 378 l-348 350 80 100 c95 119 262 368 349 520
62 109 163 315 199 404 l18 47 -285 116 -285 116 -36 -82 c-391 -881 -1149
-1567 -2057 -1859 -1178 -379 -2447 -98 -3358 745 -281 260 -544 610 -717 957
-175 348 -280 690 -335 1086 -22 157 -31 541 -16 717 49 578 235 1111 556
1593 141 213 235 325 430 520 195 195 307 289 520 430 404 269 834 440 1309
520 393 66 856 59 1241 -20 603 -123 1148 -403 1621 -832 l111 -101 217 217
217 218 -107 102 c-645 616 -1529 1003 -2449 1071 -128 9 -433 11 -530 3z"/>
<path d="M8201 10410 c-18 -4 -50 -24 -70 -44 l-36 -36 -3 -2108 c-2 -2089 -2
-2107 18 -2140 11 -18 34 -41 52 -52 32 -19 52 -20 488 -20 436 0 456 1 488
20 18 11 41 34 52 52 20 33 20 51 18 2138 -3 2087 -3 2105 -23 2132 -49 64
-36 63 -515 65 -239 1 -450 -2 -469 -7z"/>
<path d="M6130 9258 c-26 -14 -53 -37 -65 -58 -20 -35 -20 -47 -20 -1562 l0
-1527 21 -28 c11 -15 36 -38 54 -50 l33 -23 456 0 c437 0 457 1 489 20 18 11
41 34 52 52 20 33 20 54 20 1558 0 1467 -1 1527 -19 1560 -10 20 -36 44 -61
57 -43 23 -45 23 -479 23 -433 0 -437 0 -481 -22z"/>
<path d="M4079 8137 c-73 -49 -69 19 -69 -1052 0 -915 1 -962 19 -995 10 -19
33 -45 51 -57 l33 -23 456 0 c518 0 505 -2 548 80 l23 43 0 951 c0 916 -1 953
-20 993 -11 25 -33 51 -52 63 -32 19 -49 20 -494 20 l-461 0 -34 -23z"/>
<path d="M8507 3152 l-577 -577 917 -916 c1006 -1002 961 -963 1143 -1023 417
-138 874 76 1026 480 93 249 65 523 -78 746 -28 45 -301 324 -941 966 -496
496 -904 902 -907 902 -3 0 -265 -260 -583 -578z"/>
</g>
</svg>




