<!-- <svg xmlns="http://www.w3.org/2000/svg" width="28" height="28" viewBox="0 0 28 28">
  <path id="Comment" d="M.609,28a.583.583,0,0,1-.3-.084A.648.648,0,0,1,0,27.339l.259-7.846a1.205,1.205,0,0,1,.581-1,1.075,1.075,0,0,1,1.111.011l5.2,3.119a1.226,1.226,0,0,1,.045,2.048L.936,27.9A.585.585,0,0,1,.609,28Zm26.2-.966H8.917a.987.987,0,1,1,0-1.931h17.89a.987.987,0,1,1,0,1.931ZM9.027,19.31A3.418,3.418,0,0,1,7.3,18.839L4.659,17.281a3.654,3.654,0,0,1-1.3-4.9L9.176,1.813A3.489,3.489,0,0,1,12.214,0a3.416,3.416,0,0,1,1.725.472l2.643,1.558a3.655,3.655,0,0,1,1.3,4.9L12.064,17.5A3.488,3.488,0,0,1,9.027,19.31Z" transform="translate(0 0)" fill="#ff5782"/>
</svg> -->


<!-- <?xml version="1.0" standalone="no"?>
<!DOCTYPE svg PUBLIC "-//W3C//DTD SVG 20010904//EN"
 "http://www.w3.org/TR/2001/REC-SVG-20010904/DTD/svg10.dtd"> -->
<svg version="1.0" xmlns="http://www.w3.org/2000/svg"
 width="100" height="100" viewBox="0 0 800.000000 1500.000000"
 preserveAspectRatio="xMidYMid meet">

<g transform="translate(0.000000,1182.000000) scale(0.07,-0.07)"
fill="#389a46" stroke="none">
<path id="Card" d="M9720 11034 c-53 -10 -155 -46 -209 -74 -166 -84 -148 -67 -1688
-1630 -939 -953 -1576 -1579 -2208 -2171 -256 -240 -487 -474 -635 -644 -595
-681 -981 -1359 -1218 -2140 -38 -128 -39 -132 -37 -275 3 -157 14 -206 61
-267 67 -88 190 -97 374 -26 212 82 1324 524 1448 576 70 29 154 70 187 91 82
53 4926 4895 4982 4981 22 33 82 142 133 242 l93 183 -89 192 c-96 208 -167
330 -240 411 -65 73 -328 320 -397 374 -148 115 -290 172 -442 178 -49 2 -101
1 -115 -1z m148 -631 c40 -18 412 -387 443 -438 23 -37 24 -76 3 -118 -9 -18
-872 -889 -1918 -1937 -1047 -1048 -2073 -2078 -2280 -2290 -208 -212 -405
-409 -439 -438 -147 -127 -378 -256 -672 -377 -77 -31 -213 -89 -303 -127 -90
-39 -165 -69 -167 -67 -5 6 116 331 179 479 111 260 251 500 401 685 40 50
338 350 662 668 323 319 1344 1336 2268 2262 1034 1035 1693 1688 1715 1698
45 21 64 21 108 0z"/>
<path d="M2211 9799 c-398 -46 -749 -294 -931 -656 -47 -95 -93 -230 -117
-343 -16 -80 -17 -284 -21 -3210 -2 -2146 0 -3160 8 -3237 27 -289 133 -535
315 -731 174 -187 377 -299 660 -364 l100 -23 3135 -3 c2233 -2 3164 0 3235 8
522 58 901 350 1054 812 12 37 32 109 44 160 l21 93 4 2465 c2 1356 0 2507 -3
2558 -7 88 -8 93 -35 107 -32 17 -30 19 -158 -141 -44 -55 -121 -138 -172
-184 -133 -122 -200 -230 -230 -375 -11 -48 -13 -501 -14 -2195 -1 -1952 -3
-2141 -18 -2205 -42 -177 -107 -290 -215 -371 -100 -75 -214 -110 -413 -124
-181 -13 -5865 -13 -6055 0 -217 15 -355 63 -457 158 -69 64 -105 119 -138
210 -58 162 -55 -39 -55 3317 l0 3090 22 99 c50 225 161 365 340 427 157 56
12 52 2413 58 2053 6 2217 7 2245 23 60 33 585 507 585 527 0 5 -11 20 -25 35
l-24 26 -2513 -1 c-1382 -1 -2546 -5 -2587 -10z"/>
</g>
</svg>