<svg id="svg" version="1.1" xmlns="http://www.w3.org/2000/svg" xmlns:xlink="http://www.w3.org/1999/xlink" width="400" height="399.871835950016" viewBox="0, 0, 400,399.871835950016">
    <g id="svgg" transform="translate(50 ,40) scale(0.7,0.7)">
        <path id="path0" d="M219.244 12.542 C 217.897 13.848,215.991 15.704,215.008 16.667 C 214.026 17.629,211.353 20.216,209.069 22.416 C 202.063 29.163,198.655 32.552,198.161 33.264 C 197.041 34.877,196.685 37.371,197.272 39.483 C 197.833 41.501,197.814 41.527,191.175 48.225 C 185.278 54.173,130.950 108.518,126.639 112.780 C 123.591 115.794,122.919 116.134,121.099 115.582 C 118.962 114.933,116.392 115.491,114.250 117.067 C 113.037 117.960,94.259 136.879,93.556 137.917 C 92.397 139.627,92.091 140.533,92.092 142.249 C 92.093 143.665,92.630 145.833,92.980 145.833 C 93.038 145.833,93.177 146.041,93.289 146.295 C 93.402 146.548,93.776 147.085,94.122 147.488 C 95.155 148.692,170.004 223.500,170.175 223.500 C 170.262 223.500,170.333 223.568,170.333 223.650 C 170.333 223.733,170.764 224.089,171.291 224.442 C 174.354 226.493,177.101 226.496,180.083 224.452 C 180.358 224.263,183.460 221.253,186.977 217.763 C 190.493 214.272,193.455 211.333,193.560 211.230 C 198.239 206.636,201.305 203.306,201.827 202.250 C 202.539 200.811,202.757 197.996,202.268 196.560 C 201.608 194.624,200.965 195.458,210.375 186.046 L 218.750 177.669 220.454 179.448 C 221.392 180.427,222.294 181.382,222.459 181.572 C 223.346 182.592,227.635 187.325,228.072 187.767 C 228.353 188.051,228.774 188.501,229.007 188.767 C 229.903 189.788,232.753 192.937,233.158 193.354 C 233.562 193.770,235.059 195.412,237.235 197.825 C 237.776 198.425,238.503 199.217,238.850 199.583 C 239.196 199.950,239.581 200.362,239.704 200.500 C 239.827 200.637,240.375 201.243,240.922 201.845 C 241.469 202.447,242.517 203.605,243.250 204.418 C 243.983 205.232,244.883 206.209,245.250 206.590 C 245.617 206.971,246.170 207.575,246.480 207.933 C 247.173 208.734,249.349 211.131,250.250 212.088 C 250.973 212.855,251.249 213.157,253.753 215.917 C 255.821 218.197,256.656 219.109,257.083 219.560 C 257.267 219.753,258.092 220.664,258.917 221.585 C 260.601 223.466,261.442 224.383,262.417 225.401 C 262.783 225.784,263.946 227.061,265.000 228.238 C 266.054 229.415,267.179 230.654,267.500 230.992 C 267.821 231.330,268.683 232.271,269.417 233.084 C 271.687 235.599,272.722 236.733,273.161 237.186 C 273.393 237.425,273.774 237.838,274.007 238.102 C 275.489 239.784,278.745 243.356,279.590 244.227 C 279.869 244.515,281.032 245.796,282.174 247.075 C 283.316 248.353,284.475 249.635,284.750 249.923 C 285.025 250.211,285.850 251.112,286.583 251.924 C 288.574 254.130,289.855 255.532,290.328 256.019 C 290.560 256.259,290.973 256.709,291.245 257.019 C 291.517 257.329,292.155 258.037,292.662 258.592 C 293.169 259.147,294.183 260.261,294.917 261.068 C 295.650 261.875,296.512 262.810,296.833 263.147 C 297.154 263.483,298.235 264.676,299.236 265.796 C 300.236 266.917,301.117 267.833,301.194 267.833 C 301.271 267.833,301.333 267.907,301.333 267.997 C 301.333 268.087,301.577 268.412,301.875 268.720 C 302.173 269.028,303.017 269.945,303.750 270.758 C 305.740 272.964,307.022 274.365,307.494 274.852 C 307.727 275.092,308.107 275.504,308.341 275.769 C 308.885 276.387,312.012 279.859,312.242 280.101 C 312.338 280.202,313.129 281.064,314.000 282.016 C 320.301 288.907,322.886 289.686,327.698 286.140 C 329.455 284.845,366.336 247.987,367.706 246.157 C 369.674 243.527,370.204 241.671,369.581 239.583 C 369.282 238.581,368.668 237.333,368.474 237.333 C 368.397 237.333,368.333 237.221,368.333 237.083 C 368.333 236.805,365.231 233.634,362.945 231.575 C 362.136 230.846,361.231 230.025,360.935 229.750 C 360.638 229.475,360.026 228.917,359.573 228.510 C 358.350 227.410,356.063 225.331,355.344 224.667 C 354.809 224.172,352.562 222.119,351.224 220.900 C 351.012 220.708,350.347 220.108,349.744 219.567 C 349.142 219.026,348.296 218.253,347.866 217.850 C 347.436 217.447,346.437 216.536,345.647 215.827 C 344.858 215.118,343.948 214.285,343.626 213.977 C 343.304 213.669,342.417 212.854,341.656 212.167 C 340.894 211.479,339.779 210.463,339.177 209.909 C 338.576 209.355,337.870 208.717,337.610 208.492 C 337.350 208.267,336.856 207.821,336.513 207.500 C 335.645 206.689,334.324 205.484,332.585 203.917 C 331.771 203.183,330.819 202.302,330.469 201.958 C 330.119 201.615,329.792 201.333,329.742 201.333 C 329.691 201.333,329.410 201.083,329.117 200.776 C 328.823 200.469,327.842 199.558,326.935 198.750 C 326.028 197.943,325.041 197.050,324.740 196.766 C 323.447 195.546,322.657 194.821,321.167 193.494 C 319.090 191.642,318.440 191.053,317.589 190.250 C 316.801 189.506,315.974 188.748,313.678 186.667 C 312.819 185.887,311.863 185.006,311.555 184.708 C 311.246 184.410,310.920 184.167,310.830 184.167 C 310.740 184.167,310.667 184.104,310.667 184.027 C 310.667 183.951,309.750 183.069,308.629 182.069 C 307.509 181.069,306.315 179.987,305.976 179.667 C 305.165 178.898,304.242 178.053,302.333 176.333 C 300.597 174.768,299.623 173.880,298.681 173.000 C 297.896 172.266,295.484 170.079,294.521 169.228 C 294.119 168.873,293.425 168.227,292.978 167.792 C 292.531 167.356,292.090 167.000,291.999 167.000 C 291.908 167.000,291.833 166.935,291.833 166.857 C 291.833 166.778,291.215 166.166,290.458 165.499 C 289.053 164.257,286.297 161.748,285.516 161.000 C 285.277 160.771,284.370 159.946,283.501 159.167 C 281.060 156.980,280.494 156.460,279.917 155.875 C 279.623 155.577,279.342 155.333,279.291 155.333 C 279.241 155.333,278.873 155.012,278.475 154.619 C 278.076 154.225,277.079 153.307,276.260 152.577 C 275.440 151.847,274.531 151.025,274.240 150.750 C 273.050 149.626,269.705 146.586,268.102 145.174 C 267.838 144.941,267.313 144.450,266.935 144.083 C 266.558 143.717,265.537 142.779,264.667 142.000 C 262.053 139.658,261.663 139.298,260.455 138.112 L 259.296 136.974 259.773 136.465 C 260.035 136.186,260.908 135.310,261.712 134.520 C 262.516 133.730,265.929 130.358,269.296 127.027 C 276.345 120.052,276.568 119.891,278.224 120.583 C 279.047 120.927,282.068 120.926,282.727 120.582 C 282.990 120.445,283.292 120.333,283.398 120.333 C 283.504 120.333,283.990 120.071,284.477 119.750 C 284.964 119.429,285.386 119.167,285.414 119.167 C 285.566 119.167,299.119 105.691,304.759 99.933 C 308.274 96.344,308.624 93.193,305.933 89.379 C 304.823 87.806,230.364 13.333,229.901 13.333 C 229.855 13.333,229.652 13.161,229.450 12.951 C 229.249 12.741,228.483 12.086,227.750 11.496 C 227.017 10.906,226.392 10.366,226.361 10.295 C 226.331 10.224,225.268 10.167,224.000 10.167 L 221.694 10.167 219.244 12.542 M256.180 61.581 L 288.697 94.079 284.815 97.873 C 282.680 99.959,280.891 101.667,280.841 101.667 C 280.791 101.667,266.142 87.059,248.288 69.205 L 215.826 36.743 217.857 34.705 C 218.973 33.584,219.911 32.667,219.941 32.667 C 219.971 32.667,220.802 31.853,221.789 30.859 C 222.776 29.864,223.601 29.058,223.623 29.067 C 223.645 29.076,238.295 43.707,256.180 61.581 M236.425 81.259 C 251.958 96.802,264.667 109.570,264.667 109.634 C 264.667 109.798,191.446 183.000,191.282 183.000 C 191.057 183.000,134.833 126.709,134.833 126.484 C 134.833 126.318,207.946 53.027,208.133 53.006 C 208.160 53.003,220.891 65.717,236.425 81.259 M151.483 166.653 L 184.139 199.305 183.023 200.361 C 182.410 200.942,180.984 202.279,179.855 203.333 C 178.726 204.387,177.396 205.646,176.899 206.130 C 176.166 206.846,175.943 206.979,175.707 206.842 C 175.547 206.750,160.829 192.081,143.000 174.245 L 110.583 141.815 114.583 137.908 C 116.783 135.759,118.638 134.001,118.705 134.001 C 118.772 134.000,133.522 148.694,151.483 166.653 M250.065 148.821 C 250.513 149.240,251.169 149.865,251.523 150.208 C 251.877 150.552,252.208 150.833,252.258 150.833 C 252.308 150.833,252.514 151.009,252.716 151.223 C 252.918 151.437,253.886 152.333,254.867 153.215 C 255.849 154.097,256.791 154.953,256.962 155.117 C 257.574 155.708,261.497 159.280,263.056 160.667 C 263.416 160.987,263.945 161.480,264.231 161.761 C 264.692 162.215,267.292 164.575,268.811 165.920 C 269.399 166.440,270.293 167.266,271.417 168.327 C 272.031 168.907,274.940 171.523,276.058 172.500 C 276.320 172.729,276.883 173.257,277.309 173.672 C 277.735 174.087,278.796 175.061,279.667 175.835 C 281.489 177.455,282.253 178.149,283.245 179.083 C 283.999 179.794,286.273 181.863,287.478 182.935 C 287.878 183.292,288.483 183.846,288.823 184.167 C 289.162 184.487,290.104 185.350,290.917 186.083 C 291.729 186.817,292.849 187.832,293.405 188.340 C 293.962 188.848,294.632 189.448,294.895 189.673 C 295.157 189.899,295.607 190.314,295.895 190.596 C 296.182 190.878,297.232 191.842,298.230 192.739 C 299.923 194.262,300.435 194.732,302.222 196.397 C 302.604 196.753,303.810 197.840,304.902 198.814 C 305.993 199.787,307.204 200.883,307.591 201.250 C 307.979 201.617,308.956 202.517,309.763 203.250 C 310.570 203.983,311.685 204.999,312.240 205.507 C 312.796 206.015,313.465 206.615,313.728 206.840 C 313.991 207.066,314.441 207.481,314.728 207.762 C 315.015 208.044,316.075 209.016,317.083 209.921 C 319.076 211.710,320.068 212.619,320.942 213.458 C 321.252 213.756,321.533 214.000,321.567 214.000 C 321.600 214.000,321.918 214.282,322.272 214.627 C 322.627 214.972,323.583 215.853,324.398 216.586 C 325.212 217.318,326.159 218.179,326.503 218.500 C 327.470 219.403,328.447 220.292,330.167 221.833 C 331.037 222.612,331.947 223.438,332.191 223.667 C 333.521 224.920,336.450 227.587,338.145 229.087 C 338.717 229.593,339.560 230.372,340.750 231.492 C 341.410 232.114,344.718 235.088,345.477 235.744 C 345.694 235.930,346.219 236.422,346.644 236.837 C 347.069 237.251,348.129 238.223,349.000 238.996 C 349.871 239.769,350.689 240.506,350.818 240.632 C 351.019 240.830,349.000 242.917,336.818 255.103 L 322.583 269.343 322.099 268.797 C 321.597 268.230,318.835 265.220,318.250 264.602 C 318.067 264.409,317.210 263.467,316.347 262.510 C 314.317 260.260,313.729 259.616,312.917 258.759 C 312.550 258.372,311.987 257.758,311.667 257.395 C 310.322 255.874,308.539 253.898,307.917 253.240 C 307.550 252.852,306.650 251.873,305.917 251.065 C 303.638 248.553,302.611 247.433,302.172 246.982 C 301.940 246.743,301.326 246.068,300.808 245.482 C 300.290 244.896,299.690 244.224,299.475 243.989 C 299.260 243.754,298.483 242.897,297.750 
        242.086 C 297.017 241.274,296.117 240.293,295.750 239.906 C 295.383 239.519,294.821 238.909,294.500 238.551 C 293.295 237.206,291.229 234.933,290.667 234.333 C 290.346 233.991,289.483 233.047,288.750 232.235 C 286.912 230.199,285.507 228.665,285.006 228.148 C 284.773 227.908,284.393 227.496,284.159 227.231 C 283.926 226.966,282.992 225.925,282.084 224.917 C 280.509 223.168,279.804 222.398,278.500 221.004 C 278.179 220.661,277.098 219.470,276.097 218.357 C 275.097 217.244,274.215 216.333,274.139 216.333 C 274.063 216.333,274.000 216.260,274.000 216.170 C 274.000 216.080,273.756 215.752,273.458 215.442 C 272.585 214.532,271.662 213.522,270.162 211.833 C 269.389 210.963,268.567 210.054,268.336 209.814 C 267.616 209.066,266.623 207.983,264.913 206.083 C 264.006 205.075,262.961 203.925,262.590 203.528 C 262.220 203.131,261.692 202.566,261.417 202.272 C 261.142 201.977,260.063 200.784,259.020 199.618 C 257.977 198.453,257.058 197.500,256.979 197.500 C 256.899 197.500,256.833 197.426,256.833 197.336 C 256.833 197.246,256.590 196.919,256.292 196.609 C 255.416 195.697,254.494 194.686,252.996 193.000 C 252.223 192.129,251.251 191.069,250.837 190.644 C 250.422 190.219,249.930 189.694,249.744 189.477 C 249.013 188.630,246.086 185.381,245.485 184.750 C 244.506 183.722,243.869 183.027,242.342 181.322 C 240.734 179.527,240.029 178.756,239.083 177.760 C 238.362 177.000,236.272 174.698,235.230 173.516 C 234.875 173.112,234.208 172.389,233.750 171.909 C 233.009 171.133,232.156 170.193,230.117 167.903 L 229.511 167.222 239.198 157.534 C 244.618 152.114,248.966 147.892,249.068 147.952 C 249.168 148.010,249.617 148.401,250.065 148.821 M174.417 233.994 C 171.844 234.420,169.739 236.449,168.950 239.261 C 168.538 240.729,168.522 255.638,168.931 257.023 C 170.842 263.501,179.578 264.526,182.462 258.611 C 183.813 255.840,183.821 240.524,182.473 237.750 C 181.058 234.839,177.979 233.403,174.417 233.994 M232.912 245.481 C 231.061 246.147,230.625 246.530,222.833 254.339 C 215.293 261.897,214.579 262.963,214.884 266.221 C 214.982 267.274,215.088 267.632,215.686 268.935 C 216.985 271.766,220.987 273.574,223.750 272.579 C 224.117 272.446,224.504 272.337,224.610 272.336 C 225.194 272.328,227.399 270.778,228.816 269.380 C 229.677 268.529,230.412 267.833,230.448 267.833 C 230.543 267.833,236.610 261.715,238.462 259.753 C 239.954 258.173,241.333 256.310,241.333 255.876 C 241.333 255.761,241.403 255.667,241.489 255.667 C 241.574 255.667,241.697 255.498,241.762 255.292 C 241.827 255.085,242.217 254.335,242.630 253.624 L 243.379 252.332 242.780 251.457 C 241.117 249.029,240.743 248.516,240.053 247.706 C 238.133 245.457,235.369 244.596,232.912 245.481 M114.583 245.568 C 113.373 245.914,112.384 246.575,111.348 247.732 C 111.111 247.996,110.837 248.296,110.740 248.398 C 109.265 249.945,109.171 253.466,110.535 256.152 C 111.629 258.307,123.054 269.792,125.583 271.279 C 128.339 272.899,128.975 273.039,131.250 272.522 C 134.180 271.855,135.475 270.737,136.731 267.786 C 136.921 267.340,137.000 266.642,137.000 265.401 C 137.000 262.293,136.639 261.804,127.908 253.088 C 124.145 249.331,121.731 247.050,121.232 246.781 C 119.958 246.093,119.351 245.819,118.583 245.588 C 117.623 245.299,115.560 245.288,114.583 245.568 M84.833 286.256 C 84.696 286.284,83.871 286.396,83.000 286.504 C 80.944 286.759,77.997 287.465,76.250 288.120 C 74.274 288.861,70.666 290.697,70.528 291.032 C 70.497 291.106,70.398 291.167,70.308 291.167 C 70.168 291.167,69.082 291.905,68.833 292.170 C 68.787 292.219,68.429 292.508,68.037 292.814 C 66.307 294.160,64.195 296.465,62.821 298.508 C 61.388 300.637,61.201 300.971,60.241 303.125 C 60.109 303.423,59.891 303.910,59.757 304.208 C 58.211 307.650,57.651 311.252,57.543 318.458 L 57.452 324.500 57.021 324.500 C 56.581 324.500,54.896 324.804,52.667 325.284 C 51.475 325.541,49.510 326.134,48.537 326.529 C 48.288 326.631,47.821 326.820,47.500 326.949 C 46.864 327.206,46.722 327.278,44.750 328.337 C 44.017 328.731,43.379 329.098,43.333 329.152 C 43.288 329.206,42.914 329.476,42.503 329.750 C 40.015 331.415,35.000 336.535,35.000 337.411 C 35.000 337.462,34.754 337.859,34.453 338.293 C 30.844 343.507,29.194 353.122,30.837 359.368 C 31.363 361.365,31.894 363.100,32.022 363.242 C 32.102 363.329,32.167 363.517,32.167 363.659 C 32.167 364.033,34.321 368.234,35.127 369.433 C 38.832 374.943,43.346 378.485,49.333 380.580 C 50.394 380.951,51.487 381.232,54.000 381.776 C 55.817 382.170,120.609 382.367,218.583 382.277 L 295.583 382.207 297.333 381.844 C 299.940 381.303,302.999 380.456,303.417 380.159 C 303.508 380.094,303.771 379.985,304.000 379.916 C 304.669 379.716,307.261 378.398,308.361 377.699 C 310.674 376.229,313.466 373.775,315.415 371.500 C 316.544 370.182,319.500 365.033,319.500 364.384 C 319.500 364.299,319.650 363.919,319.833 363.539 C 320.017 363.160,320.167 362.755,320.167 362.639 C 320.167 362.523,320.272 362.125,320.400 361.756 C 322.118 356.806,322.109 350.022,320.377 344.250 C 319.775 342.245,317.489 337.710,316.625 336.806 C 316.508 336.683,316.025 336.096,315.552 335.500 C 314.593 334.293,312.851 332.570,311.583 331.575 C 311.125 331.216,310.675 330.861,310.583 330.786 C 310.120 330.410,306.721 328.333,306.568 328.333 C 306.527 328.333,305.716 327.958,304.766 327.500 C 303.816 327.042,302.932 326.667,302.802 326.667 C 302.673 326.667,302.495 326.599,302.408 326.517 C 302.321 326.435,301.725 326.167,301.083 325.922 C 300.442 325.677,299.767 325.410,299.583 325.329 C 299.400 325.248,298.762 324.987,298.167 324.749 C 294.421 323.253,294.739 323.737,294.600 319.322 C 294.504 316.267,294.074 311.700,293.737 310.167 C 293.606 309.571,293.499 308.940,293.500 308.765 C 293.500 308.280,292.643 305.453,292.079 304.083 C 291.966 303.808,291.719 303.208,291.531 302.750 C 291.342 302.292,290.996 301.579,290.762 301.167 C 290.527 300.754,290.252 300.210,290.151 299.958 C 290.050 299.706,289.900 299.500,289.817 299.500 C 289.734 299.500,289.667 299.424,289.667 299.332 C 289.667 299.147,288.784 297.848,287.858 296.667 C 287.103 295.705,284.598 293.216,283.743 292.577 C 283.380 292.307,283.046 292.044,283.000 291.994 C 282.735 291.705,279.905 289.985,278.917 289.512 C 278.275 289.205,277.545 288.848,277.293 288.718 C 275.861 287.980,271.306 286.803,268.417 286.425 C 266.626 286.190,85.973 286.024,84.833 286.256 M267.917 301.381 C 270.483 302.035,273.058 303.041,273.637 303.615 C 273.758 303.735,273.919 303.833,273.994 303.833 C 274.683 303.833,277.474 307.434,278.192 309.250 C 279.479 312.502,279.531 312.998,279.660 323.500 C 279.757 331.338,279.820 333.056,280.037 333.750 C 280.349 334.749,280.792 335.795,281.013 336.059 C 283.258 338.734,285.047 339.326,290.886 339.331 C 294.055 339.333,294.502 339.370,296.040 339.760 C 309.857 343.263,310.755 361.776,297.346 366.691 C 295.048 367.534,301.978 367.488,176.500 367.493 C 49.043 367.498,57.467 367.560,54.667 366.584 C 53.979 366.345,53.267 366.103,53.083 366.047 C 52.230 365.786,50.008 364.205,48.933 363.095 C 44.737 358.761,43.804 351.917,46.695 346.694 C 48.563 343.320,51.564 340.936,55.398 339.782 L 56.583 339.425 138.917 339.336 C 227.689 339.240,223.409 339.282,224.242 338.485 C 224.329 338.402,224.499 338.333,224.620 338.333 C 224.975 338.333,226.195 337.484,226.936 336.720 C 229.883 333.682,228.953 327.673,225.210 325.571 C 223.290 324.492,230.940 324.593,147.648 324.543 L 72.545 324.497 72.423 320.333 C 72.217 313.265,72.607 310.847,74.481 307.595 C 74.980 306.731,77.597 303.833,77.879 303.833 C 77.936 303.833,78.317 303.608,78.724 303.333 C 79.132 303.058,79.513 302.833,79.572 302.833 C 79.630 302.833,79.879 302.702,80.123 302.542 C 80.947 302.002,83.013 301.366,84.583 301.169 C 87.060 300.858,266.680 301.065,267.917 301.381 M247.500 328.703 C 246.904 328.893,246.379 329.095,246.333 329.150 C 246.287 329.205,246.035 329.361,245.773 329.497 C 243.543 330.648,242.089 334.418,242.765 337.291 C 243.197 339.127,244.842 341.667,245.599 341.667 C 245.728 341.667,245.833 341.724,245.833 341.794 C 245.833 342.214,248.485 343.003,249.865 342.994 C 251.539 342.983,254.082 342.065,254.560 341.299 C 254.663 341.135,254.841 341.000,254.957 341.000 C 255.072 341.000,255.167 340.906,255.167 340.790 C 255.167 340.675,255.301 340.496,255.466 340.393 C 256.258 339.899,257.196 337.335,257.196 335.666 C 257.196 330.636,252.345 327.153,247.500 328.703 " stroke="none" fill="#04b4f4" fill-rule="evenodd">
    </path><path id="path1" d="" stroke="none" fill="#08b4f4" fill-rule="evenodd"></path>
    <path id="path2" d="" stroke="none" fill="#08b4f4" fill-rule="evenodd"></path>
    <path id="path3" d="" stroke="none" fill="#08b4f4" fill-rule="evenodd">

        </path><path id="path4" d="" stroke="none" fill="#08b4f4" fill-rule="evenodd"></path></g></svg>