<?xml version="1.0" standalone="no"?>
<!DOCTYPE svg PUBLIC "-//W3C//DTD SVG 20010904//EN"
 "http://www.w3.org/TR/2001/REC-SVG-20010904/DTD/svg10.dtd">
<svg version="1.0" xmlns="http://www.w3.org/2000/svg"
 width="3121.000000pt" height="3120.000000pt" viewBox="0 500 2200 3000"
 preserveAspectRatio="xMidYMid meet">

<g transform="translate(0.000000,3120.000000) scale(0.07,-0.07)"
fill="#ffffff" stroke="none">
<path d="M16385 30087 c-890 -862 -1228 -1202 -1258 -1262 -61 -123 -75 -267
-42 -414 12 -49 15 -91 11 -125 -16 -121 158 59 -2876 -2977 -2620 -2621
-2822 -2821 -2881 -2849 -73 -34 -112 -37 -214 -15 -203 43 -383 -4 -556 -144
-106 -85 -1485 -1472 -1548 -1556 -106 -143 -161 -300 -147 -418 11 -84 50
-181 111 -274 51 -78 408 -438 2994 -3026 1615 -1616 2972 -2967 3015 -3002
245 -198 470 -220 698 -69 87 58 449 410 1156 1125 498 503 549 562 591 674
41 110 44 260 7 400 -20 74 -20 118 -1 158 8 18 305 322 660 677 l646 645 87
-90 c48 -49 1599 -1748 3447 -3775 4310 -4728 4048 -4442 4149 -4538 159 -153
296 -223 435 -223 122 -1 218 37 366 144 76 55 2957 2924 3074 3062 78 91 146
195 182 275 21 48 24 70 24 170 0 112 -1 117 -36 190 -39 80 -96 162 -175 249
-49 55 -591 549 -5524 5045 -1466 1336 -2716 2478 -2777 2537 l-113 107 637
632 c363 360 654 640 675 651 56 29 117 34 174 15 127 -41 270 -40 388 4 137
52 174 85 934 843 398 397 752 756 788 798 86 103 151 210 176 293 17 55 20
85 15 154 -4 75 -10 95 -51 176 -25 50 -69 123 -97 161 -58 77 -5564 5594
-5769 5779 -69 63 -195 173 -282 245 l-156 131 -169 -1 -168 0 -600 -582z
m3297 -3404 l2548 -2548 -316 -309 -316 -309 -2544 2544 c-1399 1399 -2544
2548 -2544 2552 0 8 611 616 620 617 3 0 1151 -1146 2552 -2547z m-1532 -1546
l2214 -2218 -2877 -2877 -2877 -2877 -2220 2220 -2220 2220 2877 2877 c1583
1583 2880 2877 2884 2876 3 -2 1001 -1001 2219 -2221z m-6642 -6650 l2564
-2564 -333 -312 -333 -312 -2558 2558 -2558 2558 43 41 c23 23 169 166 325
318 156 152 284 276 285 276 1 0 1156 -1154 2565 -2563z m11554 -2128 c2174
-1981 3971 -3619 3993 -3640 l40 -39 -1119 -1119 c-616 -616 -1124 -1117
-1128 -1114 -8 4 -7164 7851 -7249 7948 l-32 37 764 764 c420 420 767 764 771
764 4 0 1786 -1621 3960 -3601z"/>
<path d="M13335 13214 c-231 -36 -402 -195 -462 -430 -16 -62 -18 -127 -18
-674 0 -602 0 -605 23 -685 49 -168 149 -294 284 -359 319 -151 687 6 782 334
24 83 36 313 36 705 0 363 -11 614 -31 700 -42 185 -184 335 -369 389 -56 17
-193 28 -245 20z"/>
<path d="M17945 12329 c-73 -11 -187 -64 -263 -122 -71 -55 -755 -729 -948
-934 -199 -212 -260 -325 -271 -498 -10 -157 43 -290 162 -411 188 -191 448
-214 702 -63 31 19 126 100 212 180 217 203 808 804 864 879 26 34 72 108 103
163 31 56 76 138 101 182 41 72 44 82 31 102 -51 87 -224 318 -278 373 -120
120 -262 171 -415 149z"/>
<path d="M8620 12297 c-167 -57 -292 -181 -351 -348 -34 -96 -32 -236 5 -344
47 -138 100 -208 347 -464 375 -389 697 -701 803 -775 33 -24 113 -71 176
-104 l115 -61 103 10 c245 23 398 119 488 305 80 167 81 324 4 481 -51 103
-164 225 -711 769 -444 441 -494 481 -663 533 -95 29 -227 29 -316 -2z"/>
<path d="M6645 9129 c-425 -6 -474 -11 -700 -59 -246 -53 -560 -184 -760 -317
-544 -361 -881 -918 -981 -1623 -12 -85 -17 -226 -21 -546 l-5 -431 -157 -27
c-302 -53 -488 -110 -699 -211 -243 -117 -426 -247 -618 -439 -347 -348 -555
-764 -631 -1256 -21 -139 -24 -451 -5 -585 95 -675 489 -1299 1035 -1637 258
-161 559 -264 917 -315 119 -17 550 -18 9395 -18 8970 0 9274 1 9390 19 789
121 1416 568 1736 1234 133 279 214 615 226 942 22 615 -208 1195 -636 1602
-258 246 -468 367 -1041 602 -407 166 -420 172 -420 194 0 10 -7 144 -15 298
-32 588 -59 773 -157 1072 -281 856 -996 1404 -1948 1491 -127 12 -13169 21
-13905 10z m13684 -1129 c251 -17 423 -57 588 -135 115 -54 170 -92 257 -174
178 -171 277 -392 327 -731 7 -45 14 -353 18 -765 l7 -690 25 -82 c61 -197
196 -326 394 -377 100 -25 229 -36 450 -36 240 0 361 -15 495 -60 173 -58 288
-128 423 -259 144 -140 242 -304 292 -493 173 -645 -241 -1284 -903 -1393 -88
-14 -912 -15 -9307 -13 l-9210 4 -95 21 c-212 47 -373 120 -513 233 -328 262
-478 767 -350 1174 122 391 413 661 821 763 62 16 522 17 6457 23 5987 5 6396
7 6490 23 187 32 292 82 387 184 88 96 128 208 128 363 0 225 -102 395 -291
489 -155 77 405 70 -6065 71 l-5822 0 -7 194 c-12 316 -1 703 23 811 106 479
499 812 1007 855 140 11 13803 12 13974 0z"/>
<path d="M19033 5825 c-188 -51 -315 -172 -379 -362 -36 -105 -39 -245 -7
-348 72 -232 284 -388 527 -389 158 0 285 53 398 165 116 116 177 278 165 438
-18 234 -187 435 -417 496 -69 18 -218 18 -287 0z"/>
</g>
</svg>
