<!-- <svg xmlns="http://www.w3.org/2000/svg" width="24" height="31.68" viewBox="0 0 24 31.68">
  <path id="Reporting" d="M20,31.68H4a3.984,3.984,0,0,1-4-3.96V3.96A3.984,3.984,0,0,1,4,0H14.893A3.994,3.994,0,0,1,17.72,1.162l5.107,5.055A3.965,3.965,0,0,1,24,9.015v18.7A3.985,3.985,0,0,1,20,31.68ZM8.047,15.731a1.3,1.3,0,0,0-.939.4,1.405,1.405,0,0,0-.069,1.857l2.653,2.735a1.3,1.3,0,0,0,.936.4H10.7a1.319,1.319,0,0,0,.969-.507l5.306-6.838h-.014a1.4,1.4,0,0,0,.232-1.371,1.335,1.335,0,0,0-1.054-.871,1.292,1.292,0,0,0-.187-.014,1.321,1.321,0,0,0-1.061.546l-4.378,5.648L8.91,16.06A1.3,1.3,0,0,0,8.047,15.731Z" fill="#f5c835"/>
</svg> -->


<svg id="svg" version="1.1" xmlns="http://www.w3.org/2000/svg" xmlns:xlink="http://www.w3.org/1999/xlink" width="200" height="200" viewBox="0, -80, 200,400">
<g id="svgg" transform="scale(0.6,0.6)">
<path id="path0" d="M14.128 20.885 L 13.197 21.026 13.282 201.461 L 13.367 381.895 149.662 381.980 L 285.956 382.065 285.956 372.126 L 285.956 362.188 293.147 362.004 C 346.216 360.652,383.098 309.460,366.801 259.775 C 365.149 254.738,365.208 254.001,367.412 252.204 C 369.011 250.901,377.936 243.437,378.467 242.959 C 378.628 242.814,375.616 238.953,371.772 234.380 L 364.784 226.065 359.972 230.039 C 357.326 232.225,354.886 234.229,354.550 234.492 C 353.995 234.926,353.791 234.800,352.357 233.137 C 336.701 214.984,316.826 205.509,292.979 204.830 L 286.296 204.640 286.210 112.895 L 286.125 21.151 284.433 20.926 C 282.630 20.688,15.702 20.647,14.128 20.885 M264.297 125.127 C 264.297 202.984,264.264 207.680,263.705 208.790 C 263.198 209.798,262.384 210.336,258.037 212.535 C 233.487 224.958,219.703 242.957,214.377 269.543 C 213.766 272.594,213.292 274.150,212.830 274.619 C 212.170 275.289,211.715 275.296,170.126 275.296 L 128.088 275.296 128.088 286.125 L 128.088 296.954 170.728 297.043 L 213.367 297.132 215.347 302.965 C 224.426 329.709,235.756 343.496,257.466 354.216 C 263.430 357.161,264.559 358.035,264.134 359.374 L 263.914 360.068 149.554 360.068 L 35.195 360.068 35.195 201.354 L 35.195 42.640 149.746 42.640 L 264.298 42.640 264.297 125.127 M81.049 99.607 C 74.484 101.792,71.481 107.670,73.785 113.827 C 77.109 122.712,89.400 123.105,93.629 114.461 C 97.444 106.664,89.177 96.903,81.049 99.607 M127.919 111.168 L 127.919 121.827 175.973 121.827 L 224.027 121.827 224.027 111.168 L 224.027 100.508 175.973 100.508 L 127.919 100.508 127.919 111.168 M79.357 159.679 C 71.085 163.606,70.876 174.877,78.998 179.019 C 87.831 183.523,97.744 174.334,93.664 165.423 C 90.995 159.594,84.787 157.101,79.357 159.679 M127.919 169.374 L 127.919 180.034 175.973 180.034 L 224.027 180.034 224.027 169.374 L 224.027 158.714 175.973 158.714 L 127.919 158.714 127.919 169.374 M127.919 227.920 L 127.919 238.581 176.058 238.495 L 224.196 238.409 224.286 227.834 L 224.375 217.259 176.147 217.259 L 127.919 217.259 127.919 227.920 M79.321 219.252 C 74.972 221.310,72.915 224.643,73.167 229.222 C 73.704 238.952,84.431 243.244,91.373 236.506 C 99.801 228.328,89.950 214.224,79.321 219.252 M295.966 226.750 C 309.368 227.838,321.084 232.907,330.452 241.670 C 333.392 244.420,337.229 249.042,336.849 249.375 C 336.683 249.520,332.284 253.212,327.073 257.578 C 303.180 277.596,293.004 285.992,292.751 285.893 C 292.601 285.835,285.449 280.152,276.858 273.266 C 268.266 266.379,261.094 260.745,260.919 260.745 C 260.743 260.745,257.608 264.455,253.951 268.990 L 247.301 277.235 248.101 278.000 C 249.034 278.894,291.935 313.291,292.753 313.802 C 293.205 314.085,298.165 310.091,319.961 291.894 C 339.394 275.671,346.692 269.763,346.895 270.091 C 348.650 272.931,348.977 288.909,347.416 295.574 C 339.652 328.731,306.876 347.812,274.788 337.856 C 241.666 327.579,225.345 289.973,240.440 258.714 C 249.133 240.714,266.760 228.525,286.633 226.773 C 291.278 226.363,291.206 226.363,295.966 226.750 M80.977 277.987 C 72.825 280.534,70.381 289.650,76.167 295.927 C 83.278 303.642,96.846 296.374,94.261 286.234 C 92.679 280.029,86.573 276.238,80.977 277.987 " stroke="none" fill="#fcb619" fill-rule="evenodd">
</path>
<path id="path1" d="" stroke="none" fill="#fcb619" fill-rule="evenodd">
</path><path id="path2" d="" stroke="none" fill="#fcb619" fill-rule="evenodd">
</path><path id="path3" d="" stroke="none" fill="#fcb619" fill-rule="evenodd">
</path><path id="path4" d="" stroke="none" fill="#fcb619" fill-rule="evenodd">
</path></g></svg>
