<!-- <svg xmlns="http://www.w3.org/2000/svg" width="29" height="25.375" viewBox="0 0 29 25.375">
  <path id="Massage" d="M5.389,25.375a.846.846,0,0,1-.845-.834v-3.4a.6.6,0,0,0-.6-.6H3.625A3.629,3.629,0,0,1,0,16.916V3.625A3.629,3.629,0,0,1,3.625,0H25.375A3.629,3.629,0,0,1,29,3.625V16.9a3.629,3.629,0,0,1-3.625,3.625h-13.8a2.4,2.4,0,0,0-1.7.713L5.981,25.133A.843.843,0,0,1,5.389,25.375ZM7.25,10.754a1.208,1.208,0,1,0,0,2.417h8.458a1.208,1.208,0,0,0,0-2.417Zm0-4.833a1.208,1.208,0,1,0,0,2.416H20.542a1.208,1.208,0,1,0,0-2.416Z" transform="translate(0 0)" fill="#02e7e8"/>
</svg> -->

<svg id="svg" version="1.1" xmlns="http://www.w3.org/2000/svg" xmlns:xlink="http://www.w3.org/1999/xlink" width="400" height="400" viewBox="0, -80, 250,400">
<g id="svgg" transform="scale(0.6,0.6)">
<path id="path0" d="M304.399 1.369 C 264.451 7.547,248.318 56.453,276.836 84.928 C 283.038 91.120,295.539 98.087,300.533 98.134 C 301.066 98.139,301.166 136.136,300.648 141.995 L 300.465 144.057 195.029 184.127 C 137.039 206.165,89.460 224.247,89.297 224.309 C 88.952 224.441,88.900 204.276,89.222 195.367 L 89.443 189.271 91.845 188.511 C 126.188 177.641,136.847 132.728,111.164 107.107 C 89.520 85.513,52.926 88.664,35.962 113.582 C 16.200 142.608,32.000 183.254,65.614 189.867 L 67.682 190.274 67.681 204.697 C 67.681 212.630,67.581 222.169,67.461 225.896 L 67.241 232.671 58.760 235.879 C 48.882 239.615,47.712 240.342,46.003 243.814 C 42.504 250.922,47.072 258.714,54.992 259.147 L 57.699 259.295 121.978 234.872 C 157.332 221.439,186.363 210.384,186.492 210.304 C 186.621 210.224,185.841 212.480,184.758 215.316 C 183.676 218.153,172.386 247.844,159.669 281.297 L 136.548 342.121 118.883 342.126 C 107.351 342.130,100.595 342.261,99.424 342.505 C 93.675 343.700,88.962 348.169,87.490 353.819 C 86.728 356.745,86.728 381.665,87.490 384.591 C 88.934 390.134,93.761 394.709,99.424 395.900 C 101.811 396.402,317.133 396.441,319.835 395.939 C 325.869 394.821,331.022 389.804,332.279 383.824 C 332.792 381.389,332.792 357.020,332.279 354.585 C 331.046 348.720,326.069 343.743,320.203 342.509 C 319.019 342.260,312.507 342.132,301.021 342.132 L 283.633 342.132 283.406 341.418 C 283.281 341.025,271.399 307.638,257.000 267.225 C 242.602 226.813,230.929 193.649,231.062 193.529 C 231.194 193.408,258.866 182.844,292.555 170.053 C 359.426 144.663,355.144 146.356,356.891 144.609 C 362.023 139.477,360.532 130.487,354.031 127.355 C 350.012 125.418,348.630 125.681,334.567 131.061 C 327.894 133.614,322.374 135.702,322.300 135.702 C 322.101 135.702,322.138 125.702,322.390 111.081 L 322.614 98.135 323.997 97.787 C 353.518 90.355,369.132 56.993,356.132 29.128 C 347.165 9.910,325.241 -1.854,304.399 1.369 M315.928 22.691 C 337.841 26.571,346.926 52.579,332.018 68.753 C 316.813 85.250,289.787 78.128,284.555 56.247 C 280.103 37.625,297.171 19.369,315.928 22.691 M80.733 114.400 C 101.898 118.147,111.241 143.053,97.644 159.478 C 81.177 179.370,48.665 167.631,48.665 141.794 C 48.665 124.780,64.236 111.478,80.733 114.400 M235.240 270.142 L 257.789 333.503 210.396 333.588 C 184.330 333.635,162.959 333.630,162.905 333.576 C 162.850 333.522,173.579 305.160,186.745 270.550 C 211.245 206.148,210.996 206.764,212.521 206.780 C 212.614 206.781,222.838 235.294,235.240 270.142 M311.337 369.205 L 311.337 374.958 209.814 374.958 L 108.291 374.958 108.291 369.205 L 108.291 363.452 209.814 363.452 L 311.337 363.452 311.337 369.205 " 
stroke="none" fill="#00b1f7" fill-rule="evenodd"></path>
<path id="path1" d="" stroke="none" fill="#00b1f7" fill-rule="evenodd"></path>
<path id="path2" d="" stroke="none" fill="#00b1f7" fill-rule="evenodd"></path>
<path id="path3" d="" stroke="none" fill="#00b1f7" fill-rule="evenodd"></path>
<path id="path4" d="" stroke="none" fill="#00b1f7" fill-rule="evenodd"></path></g></svg>
