<svg id="svg" version="1.1" xmlns="http://www.w3.org/2000/svg" xmlns:xlink="http://www.w3.org/1999/xlink" width="400" height="399.871835950016" viewBox="10, -50, 400,500">
<g id="svgg" >
<path id="path0" d="M212.262 2.249 C 211.040 2.865,210.070 3.763,207.494 6.667 C 205.914 8.447,205.003 9.447,204.208 10.275 C 203.910 10.586,203.667 10.867,203.667 10.900 C 203.667 10.933,203.384 11.251,203.039 11.605 C 202.694 11.960,201.813 12.918,201.081 13.733 C 200.349 14.549,199.506 15.469,199.208 15.778 C 198.910 16.087,198.667 16.413,198.667 16.503 C 198.667 16.593,198.601 16.667,198.520 16.667 C 198.439 16.667,197.699 17.435,196.875 18.375 C 196.052 19.315,195.086 20.394,194.730 20.773 C 194.375 21.152,193.930 21.640,193.742 21.856 C 193.380 22.274,191.087 24.869,190.249 25.810 C 189.214 26.971,189.059 27.152,188.083 28.335 C 187.533 29.002,186.735 29.931,186.310 30.399 C 185.884 30.867,185.218 31.662,184.829 32.167 C 184.440 32.671,184.038 33.158,183.936 33.250 C 183.783 33.387,182.217 35.305,181.583 36.132 C 181.492 36.252,181.298 36.477,181.154 36.633 C 180.533 37.303,175.833 43.516,175.833 43.667 C 175.833 43.759,175.765 43.833,175.681 43.833 C 175.597 43.833,175.298 44.190,175.016 44.625 C 174.735 45.060,173.865 46.317,173.083 47.417 C 172.301 48.517,171.610 49.529,171.548 49.667 C 171.486 49.804,171.343 50.010,171.230 50.125 C 171.117 50.239,170.741 50.801,170.395 51.375 C 170.049 51.948,169.518 52.763,169.216 53.187 C 168.914 53.610,168.667 54.007,168.667 54.069 C 168.667 54.130,168.589 54.271,168.494 54.382 C 168.251 54.665,167.000 56.635,167.000 56.734 C 167.000 56.780,166.783 57.139,166.517 57.533 C 166.251 57.927,165.853 58.587,165.632 59.000 C 165.411 59.413,165.025 60.073,164.774 60.467 C 164.523 60.862,164.011 61.762,163.637 62.467 C 163.262 63.173,162.669 64.275,162.318 64.917 C 161.187 66.984,157.000 75.506,157.000 75.739 C 157.000 75.791,156.781 76.301,156.514 76.875 C 155.986 78.005,155.297 79.622,154.809 80.875 C 154.639 81.310,154.344 82.060,154.154 82.542 C 153.964 83.023,153.745 83.604,153.667 83.833 C 153.589 84.063,153.364 84.662,153.167 85.167 C 152.698 86.370,152.241 87.665,151.814 89.000 C 151.623 89.596,151.362 90.346,151.234 90.667 C 151.026 91.186,150.581 92.649,149.484 96.417 C 146.895 105.316,144.789 116.944,144.156 125.833 C 144.062 127.162,143.914 129.112,143.828 130.167 C 143.627 132.640,143.627 145.481,143.829 148.083 C 143.915 149.183,144.062 151.208,144.157 152.583 C 144.252 153.958,144.444 156.058,144.584 157.250 C 144.723 158.442,144.912 160.054,145.004 160.833 C 145.182 162.350,145.030 163.308,144.420 164.500 C 144.146 165.036,139.998 170.535,139.580 170.917 C 139.480 171.008,139.181 171.383,138.916 171.750 C 138.651 172.117,138.389 172.454,138.334 172.500 C 138.279 172.546,137.714 173.258,137.078 174.083 C 135.543 176.074,134.552 177.325,134.106 177.833 C 133.904 178.063,133.217 178.925,132.579 179.750 C 131.940 180.574,131.305 181.366,131.167 181.509 C 131.029 181.652,130.167 182.731,129.250 183.908 C 128.333 185.085,127.491 186.142,127.379 186.258 C 127.266 186.374,126.717 187.044,126.159 187.746 C 125.600 188.449,125.005 189.187,124.836 189.387 C 124.667 189.587,124.072 190.313,123.513 191.000 C 122.954 191.688,122.411 192.353,122.306 192.479 C 121.166 193.845,120.593 196.465,120.843 199.167 C 121.074 201.658,121.755 208.165,122.318 213.250 C 122.500 214.900,122.768 217.412,122.912 218.833 C 123.462 224.251,123.697 226.510,124.006 229.333 C 124.181 230.938,124.441 233.412,124.584 234.833 C 124.939 238.371,125.283 241.691,125.663 245.250 C 125.969 248.116,126.186 250.227,126.757 255.875 C 126.898 257.273,127.157 259.729,127.333 261.333 C 127.509 262.938,127.766 265.375,127.905 266.750 C 128.043 268.125,128.274 270.412,128.417 271.833 C 128.560 273.254,128.825 275.617,129.006 277.083 C 129.187 278.550,129.334 280.050,129.334 280.417 C 129.333 280.783,129.441 281.946,129.574 283.000 C 129.706 284.054,129.929 286.042,130.069 287.417 C 130.601 292.635,130.712 293.667,130.743 293.667 C 130.915 293.667,132.454 293.088,132.575 292.978 C 132.662 292.898,132.832 292.833,132.952 292.833 C 133.072 292.833,133.488 292.694,133.877 292.523 C 134.265 292.352,134.883 292.098,135.250 291.958 C 136.098 291.635,137.138 291.240,138.042 290.899 C 138.815 290.607,140.115 290.081,140.942 289.726 C 141.231 289.601,141.573 289.500,141.702 289.500 C 141.831 289.500,142.082 289.390,142.260 289.255 C 142.438 289.121,142.697 289.008,142.836 289.005 C 142.975 289.002,143.368 288.850,143.710 288.667 C 144.052 288.483,144.415 288.333,144.516 288.333 C 144.617 288.333,144.936 288.230,145.225 288.103 C 145.514 287.976,146.012 287.778,146.333 287.663 C 146.654 287.547,147.367 287.268,147.917 287.042 C 148.862 286.654,149.344 286.467,150.917 285.880 C 151.632 285.613,152.922 285.092,153.775 284.726 C 154.064 284.601,154.353 284.500,154.417 284.500 C 154.481 284.500,154.769 284.399,155.058 284.274 C 155.911 283.908,157.202 283.387,157.917 283.120 C 158.947 282.735,160.010 282.327,160.833 282.000 C 161.246 281.836,161.883 281.588,162.250 281.448 C 164.211 280.699,166.145 279.939,166.609 279.733 C 166.897 279.605,167.186 279.500,167.250 279.500 C 167.314 279.500,167.640 279.381,167.975 279.236 C 169.462 278.591,169.682 278.500,169.756 278.500 C 169.798 278.500,169.834 279.194,169.835 280.042 C 169.837 281.586,170.287 284.594,170.727 286.000 C 171.224 287.587,172.666 290.508,173.018 290.639 C 173.100 290.669,173.167 290.774,173.167 290.872 C 173.167 291.884,177.077 295.231,179.667 296.434 C 183.397 298.167,183.103 298.153,215.333 298.157 C 245.339 298.161,245.794 298.143,249.330 296.803 C 250.452 296.378,253.000 294.894,253.000 294.665 C 253.000 294.574,253.081 294.500,253.181 294.500 C 253.406 294.500,255.597 292.318,256.277 291.417 C 258.290 288.751,259.367 285.671,259.919 281.005 C 260.234 278.345,260.074 278.598,261.177 279.016 C 261.676 279.204,262.271 279.422,262.500 279.500 C 262.729 279.578,263.310 279.797,263.792 279.988 C 264.273 280.178,265.060 280.489,265.542 280.679 C 266.023 280.869,266.604 281.085,266.833 281.159 C 267.270 281.300,267.782 281.509,268.957 282.024 C 269.345 282.194,269.772 282.333,269.905 282.333 C 270.038 282.333,270.188 282.400,270.239 282.482 C 270.289 282.563,270.537 282.681,270.790 282.744 C 271.043 282.807,271.475 282.955,271.750 283.072 C 272.646 283.453,273.903 283.959,274.583 284.213 C 276.156 284.801,276.638 284.987,277.583 285.376 C 278.133 285.601,278.846 285.881,279.167 285.996 C 279.487 286.111,279.986 286.309,280.275 286.436 C 280.564 286.563,280.867 286.667,280.948 286.667 C 281.030 286.667,281.390 286.817,281.750 287.000 C 282.110 287.183,282.519 287.336,282.660 287.339 C 282.801 287.342,283.062 287.454,283.240 287.589 C 283.418 287.723,283.669 287.833,283.798 287.833 C 283.927 287.833,284.269 287.935,284.558 288.059 C 285.799 288.592,287.419 289.233,288.833 289.751 C 289.154 289.869,289.867 290.150,290.417 290.376 C 290.967 290.601,291.679 290.881,292.000 290.996 C 292.321 291.111,292.820 291.309,293.109 291.436 C 293.397 291.563,293.686 291.667,293.750 291.667 C 293.859 291.667,294.219 291.814,295.667 292.451 C 295.987 292.592,296.438 292.768,296.667 292.841 C 296.896 292.915,297.491 293.129,297.989 293.318 C 299.099 293.738,298.924 294.085,299.331 290.660 C 299.522 289.060,299.789 286.813,299.926 285.667 C 300.062 284.521,300.171 283.358,300.167 283.083 C 300.163 282.808,300.271 281.646,300.409 280.500 C 300.546 279.354,300.777 277.217,300.923 275.750 C 301.068 274.283,301.328 271.808,301.501 270.250 C 301.673 268.692,301.932 266.217,302.076 264.750 C 302.648 258.906,302.860 256.792,303.167 253.917 C 303.522 250.589,303.853 247.308,304.252 243.167 C 304.398 241.654,304.660 239.104,304.834 237.500 C 305.008 235.896,305.270 233.383,305.415 231.917 C 305.561 230.450,305.792 228.125,305.928 226.750 C 306.065 225.375,306.322 222.938,306.499 221.333 C 306.676 219.729,306.940 217.217,307.086 215.750 C 307.232 214.283,307.430 212.446,307.527 211.667 C 307.624 210.887,307.762 209.537,307.833 208.667 C 307.904 207.796,308.085 206.071,308.236 204.833 C 308.901 199.379,309.007 198.363,309.004 197.489 C 308.996 195.567,308.028 193.104,306.637 191.466 C 306.302 191.072,305.641 190.262,305.167 189.667 C 304.693 189.071,304.237 188.558,304.153 188.528 C 304.069 188.497,304.000 188.366,304.000 188.236 C 304.000 188.106,303.939 188.000,303.864 188.000 C 303.790 188.000,303.360 187.512,302.910 186.917 C 302.460 186.321,302.034 185.833,301.963 185.833 C 301.892 185.833,301.833 185.725,301.833 185.592 C 301.833 185.459,301.737 185.290,301.620 185.217 C 301.502 185.143,300.590 184.033,299.593 182.750 C 298.596 181.467,297.698 180.342,297.596 180.250 C 297.495 180.158,297.153 179.746,296.837 179.333 C 296.266 178.588,293.908 175.601,293.586 175.214 C 293.189 174.738,292.978 174.469,291.264 172.250 C 290.274 170.967,289.359 169.833,289.231 169.732 C 289.104 169.630,289.000 169.461,289.000 169.357 C 289.000 169.252,288.944 169.165,288.875 169.163 C 288.806 169.161,288.487 168.788,288.167 168.333 C 287.846 167.879,287.527 167.506,287.458 167.504 C 287.390 167.502,287.333 167.394,287.333 167.264 C 287.333 167.134,287.267 167.003,287.185 166.972 C 286.988 166.899,285.667 165.215,285.667 165.038 C 285.667 164.962,285.581 164.814,285.476 164.709 C 284.684 163.917,284.439 160.814,284.905 157.463 C 286.765 144.060,286.050 122.916,283.256 108.750 C 282.928 107.089,282.364 104.434,282.069 103.167 C 281.930 102.571,281.706 101.596,281.570 101.000 C 281.435 100.404,281.180 99.429,281.004 98.833 C 280.829 98.237,280.560 97.263,280.407 96.667 C 280.023 95.173,279.194 92.415,278.753 91.167 C 278.212 89.635,278.128 89.383,278.002 88.917 C 277.928 88.642,277.666 87.892,277.421 87.250 C 277.175 86.608,276.898 85.821,276.805 85.500 C 276.712 85.179,276.568 84.845,276.485 84.758 C 276.401 84.671,276.333 84.502,276.333 84.382 C 276.333 84.261,276.194 83.845,276.023 83.457 C 275.852 83.068,275.583 82.412,275.424 82.000 C 275.266 81.587,275.038 81.025,274.918 80.750 C 274.799 80.475,274.384 79.500,273.996 78.583 C 272.838 75.843,269.194 68.338,267.887 66.000 C 267.656 65.587,267.167 64.688,266.799 64.000 C 266.431 63.313,265.953 62.450,265.736 62.083 C 265.519 61.717,265.264 61.267,265.169 61.083 C 265.074 60.900,264.836 60.487,264.640 60.167 C 264.445 59.846,264.058 59.171,263.782 58.667 C 263.505 58.163,263.235 57.712,263.181 57.667 C 263.127 57.621,262.978 57.396,262.849 57.167 C 262.720 56.938,262.533 56.604,262.432 56.425 C 262.332 56.246,262.192 56.021,262.122 55.925 C 261.868 55.579,260.667 53.654,260.667 53.594 C 260.667 53.560,260.179 52.808,259.583 51.923 C 258.987 51.038,258.500 50.243,258.500 50.157 C 258.500 50.071,258.444 50.000,258.375 50.000 C 258.306 50.000,258.041 49.643,257.785 49.208 C 257.530 48.773,256.762 47.629,256.080 46.667 C 255.397 45.704,254.600 44.560,254.308 44.125 C 254.016 43.690,253.715 43.333,253.639 43.333 C 253.562 43.333,253.500 43.264,253.500 43.179 C 253.500 42.953,252.127 41.000,251.968 41.000 C 251.894 41.000,251.833 40.894,251.833 40.764 C 251.833 40.634,251.774 40.503,251.702 40.472 C 251.630 40.442,251.388 40.154,251.165 39.833 C 250.679 39.136,246.314 33.453,246.173 33.333 C 246.119 33.287,245.816 32.912,245.500 32.500 C 245.184 32.087,244.886 31.712,244.837 31.667 C 244.789 31.621,244.302 31.021,243.755 30.333 C 243.208 29.646,242.533 28.816,242.255 28.488 C 241.523 27.626,241.042 27.053,240.023 25.833 C 239.525 25.238,238.960 24.592,238.767 24.398 C 238.574 24.205,238.079 23.645,237.667 23.153 C 237.254 22.662,236.582 21.883,236.174 21.422 C 235.765 20.961,235.277 20.405,235.090 20.187 C 234.903 19.969,234.525 19.552,234.250 19.260 C 233.975 18.969,233.157 18.060,232.432 17.240 C 231.707 16.421,230.788 15.433,230.390 15.046 C 229.992 14.659,229.667 14.303,229.667 14.255 C 229.667 14.206,229.273 13.768,228.792 13.280 C 228.310 12.793,227.248 11.686,226.431 10.822 C 223.041 7.234,218.816 3.008,218.382 2.771 C 215.861 1.398,214.228 1.259,212.262 2.249 M215.723 17.278 C 216.013 17.614,216.592 18.233,217.011 18.653 C 217.429 19.073,218.583 20.317,219.574 21.417 C 220.566 22.517,221.630 23.657,221.938 23.950 C 222.247 24.243,222.500 24.536,222.500 24.601 C 222.500 24.665,222.781 24.993,223.125 25.328 C 223.469 25.663,223.903 26.120,224.091 26.344 C 224.279 26.567,225.063 27.462,225.833 28.333 C 226.604 29.204,227.388 30.096,227.576 30.316 C 227.763 30.535,228.034 30.835,228.178 30.982 C 228.322 31.129,228.887 31.775,229.433 32.417 C 229.979 33.058,230.587 33.771,230.784 34.000 C 230.981 34.229,231.605 34.979,232.171 35.667 C 232.737 36.354,233.401 37.142,233.646 37.417 C 233.891 37.692,234.497 38.442,234.992 39.083 C 235.487 39.725,235.978 40.325,236.083 40.417 C 236.334 40.637,242.159 48.265,243.333 49.913 C 243.838 50.620,244.344 51.299,244.458 51.421 C 244.573 51.543,244.667 51.694,244.667 51.756 C 244.667 51.818,244.910 52.176,245.208 52.551 C 245.506 52.927,245.825 53.362,245.917 53.518 C 246.057 53.758,247.690 56.219,250.690 60.714 C 251.044 61.244,251.333 61.718,251.333 61.769 C 251.333 61.819,251.586 62.248,251.894 62.722 C 252.637 63.862,253.802 65.824,254.539 67.173 C 254.866 67.772,255.353 68.635,255.621 69.090 C 256.360 70.344,257.602 72.682,258.759 75.000 C 260.005 77.493,260.972 79.553,262.045 82.000 C 262.186 82.321,262.450 82.921,262.633 83.333 C 262.926 83.995,264.297 87.392,264.919 89.000 C 265.425 90.306,266.200 92.481,266.522 93.500 C 266.711 94.096,266.964 94.846,267.084 95.167 C 267.532 96.368,268.652 100.195,269.326 102.833 C 269.990 105.433,270.147 106.075,270.422 107.333 C 270.572 108.021,270.840 109.183,271.017 109.917 C 271.193 110.650,271.337 111.422,271.336 111.632 C 271.334 111.843,271.439 112.480,271.569 113.049 C 271.936 114.665,272.780 120.839,273.167 124.750 C 273.736 130.492,273.781 144.734,273.249 151.167 C 272.950 154.786,272.413 159.991,272.072 162.583 C 271.285 168.550,271.329 168.255,269.905 177.000 C 269.763 177.871,269.507 179.296,269.336 180.167 C 269.166 181.037,268.902 182.425,268.750 183.250 C 268.336 185.501,267.500 189.722,267.083 191.667 C 266.955 192.262,266.725 193.350,266.572 194.083 C 266.419 194.817,266.146 196.054,265.966 196.833 C 265.530 198.716,265.242 199.989,264.911 201.500 C 264.760 202.188,264.533 203.162,264.405 203.667 C 264.189 204.520,263.832 206.039,263.229 208.667 C 263.092 209.262,262.880 210.125,262.757 210.583 C 262.635 211.042,262.260 212.542,261.924 213.917 C 261.188 216.935,260.908 218.052,260.500 219.583 C 260.329 220.225,260.078 221.200,259.941 221.750 C 259.294 224.349,259.137 224.952,258.245 228.250 C 258.121 228.708,257.898 229.571,257.749 230.167 C 257.600 230.762,257.372 231.627,257.242 232.089 C 256.811 233.618,255.968 236.906,255.819 237.636 C 255.739 238.032,255.638 238.412,255.595 238.481 C 255.503 238.630,254.844 241.006,254.665 241.833 C 254.596 242.154,254.414 242.867,254.261 243.417 C 253.760 245.216,253.142 247.558,252.808 248.917 C 252.628 249.650,252.338 250.737,252.165 251.333 C 251.991 251.929,251.739 252.867,251.604 253.417 C 250.105 259.523,249.449 261.371,248.460 262.271 C 247.242 263.380,249.265 263.316,214.500 263.344 L 183.083 263.369 182.250 262.995 C 180.565 262.238,179.942 261.021,178.929 256.500 C 178.645 255.233,178.463 254.482,177.862 252.083 C 177.517 250.709,177.232 249.500,176.741 247.333 C 176.426 245.945,175.940 244.028,175.574 242.735 C 175.441 242.269,175.333 241.751,175.333 241.583 C 175.333 241.416,175.224 240.898,175.091 240.431 C 174.733 239.176,174.234 237.189,173.665 234.750 C 173.387 233.558,173.016 232.058,172.840 231.417 C 172.664 230.775,172.410 229.762,172.275 229.167 C 171.874 227.403,171.492 225.831,171.141 224.500 C 170.658 222.673,170.386 221.573,170.071 220.167 C 169.765 218.800,169.283 216.895,168.907 215.569 C 168.775 215.102,168.667 214.584,168.667 214.417 C 168.667 214.249,168.558 213.731,168.426 213.265 C 168.062 211.984,167.608 210.130,166.740 206.375 C 166.597 205.756,166.341 204.725,166.172 204.083 C 165.723 202.386,165.473 201.339,165.333 200.583 C 165.188 199.794,164.908 198.666,164.479 197.141 C 164.307 196.531,164.167 195.900,164.167 195.739 C 164.167 195.578,164.059 195.064,163.928 194.598 C 163.796 194.132,163.561 193.150,163.406 192.417 C 163.251 191.683,162.989 190.558,162.825 189.917 C 162.661 189.275,162.401 188.150,162.248 187.417 C 162.095 186.683,161.871 185.671,161.751 185.167 C 161.388 183.645,160.605 180.076,160.104 177.667 C 159.962 176.979,159.699 175.742,159.522 174.917 C 158.880 171.936,157.800 165.236,157.265 160.917 C 155.144 143.796,155.546 126.809,158.434 111.500 C 159.098 107.977,159.200 107.516,160.107 103.917 C 160.245 103.367,160.470 102.467,160.605 101.917 C 160.741 101.367,160.993 100.429,161.166 99.833 C 161.339 99.237,161.607 98.300,161.761 97.750 C 161.916 97.200,162.119 96.563,162.212 96.333 C 162.304 96.104,162.440 95.654,162.514 95.333 C 162.587 95.013,162.957 93.888,163.335 92.833 C 163.713 91.779,164.062 90.767,164.111 90.583 C 164.160 90.400,164.343 89.932,164.517 89.543 C 164.691 89.155,164.833 88.764,164.833 88.674 C 164.833 88.585,164.939 88.265,165.069 87.964 C 165.199 87.663,165.465 87.004,165.661 86.500 C 165.857 85.996,166.085 85.433,166.167 85.250 C 166.249 85.067,166.630 84.167,167.013 83.250 C 168.390 79.955,171.843 72.927,173.646 69.750 C 174.167 68.833,174.778 67.746,175.005 67.333 C 175.231 66.921,175.459 66.546,175.511 66.500 C 175.563 66.454,175.847 66.004,176.141 65.500 C 176.827 64.328,176.968 64.103,177.625 63.135 C 177.923 62.696,178.167 62.299,178.167 62.253 C 178.167 62.207,178.879 61.114,179.750 59.825 C 180.621 58.535,181.333 57.409,181.333 57.323 C 181.333 57.237,181.396 57.167,181.472 57.167 C 181.588 57.167,182.166 56.381,182.917 55.204 C 183.008 55.061,183.174 54.825,183.284 54.680 C 183.394 54.535,183.935 53.817,184.485 53.083 C 185.036 52.350,185.565 51.659,185.660 51.549 C 185.755 51.438,185.833 51.269,185.833 51.174 C 185.833 51.078,185.897 51.000,185.974 51.000 C 186.051 51.000,186.370 50.625,186.682 50.167 C 186.995 49.709,187.306 49.334,187.375 49.334 C 187.444 49.333,187.500 49.229,187.500 49.101 C 187.500 48.973,187.612 48.826,187.750 48.773 C 187.887 48.720,188.000 48.562,188.000 48.422 C 188.000 48.282,188.061 48.167,188.135 48.167 C 188.209 48.167,188.490 47.864,188.760 47.495 C 189.029 47.125,189.390 46.656,189.560 46.453 C 189.731 46.250,190.214 45.633,190.633 45.083 C 191.053 44.533,191.563 43.911,191.766 43.701 C 191.970 43.491,192.533 42.797,193.017 42.159 C 193.502 41.522,193.959 41.000,194.033 41.000 C 194.106 41.000,194.167 40.915,194.167 40.810 C 194.167 40.706,194.267 40.537,194.391 40.435 C 194.514 40.333,195.170 39.575,195.848 38.750 C 196.527 37.925,197.128 37.212,197.183 37.167 C 197.239 37.121,197.639 36.645,198.073 36.110 C 199.042 34.914,199.508 34.358,199.833 34.007 C 199.971 33.859,200.643 33.065,201.327 32.244 C 202.011 31.422,202.686 30.630,202.827 30.483 C 203.186 30.109,203.792 29.399,204.663 28.332 C 205.361 27.477,205.903 26.842,206.500 26.179 C 206.753 25.898,208.140 24.256,208.750 23.515 C 208.933 23.292,209.215 22.972,209.375 22.805 C 209.535 22.637,209.667 22.431,209.667 22.347 C 209.667 22.263,209.733 22.169,209.815 22.139 C 209.896 22.108,210.241 21.746,210.582 21.333 C 212.026 19.583,212.467 19.081,213.382 18.150 C 213.913 17.609,214.411 17.167,214.489 17.167 C 214.567 17.167,214.674 17.054,214.727 16.917 C 214.879 16.520,215.155 16.621,215.723 17.278 M209.667 95.158 C 206.199 95.629,202.898 96.473,199.833 97.670 C 199.329 97.867,198.767 98.073,198.585 98.127 C 198.111 98.269,193.800 100.481,193.500 100.737 C 193.362 100.854,193.137 100.999,193.000 101.060 C 192.862 101.121,192.553 101.301,192.312 101.460 C 192.071 101.620,191.640 101.897,191.354 102.078 C 191.068 102.258,190.833 102.464,190.833 102.536 C 190.833 102.608,190.727 102.667,190.597 102.667 C 190.467 102.667,190.336 102.723,190.306 102.792 C 190.275 102.860,189.977 103.104,189.643 103.334 C 188.569 104.072,187.294 105.205,185.331 107.166 C 182.343 110.150,
182.181 110.345,179.615 114.035 C 178.922 115.030,177.000 118.269,177.000 118.440 C 177.000 118.484,176.729 119.097,176.398 119.802 C 176.068 120.507,175.735 121.233,175.659 121.417 C 175.583 121.600,175.367 122.116,175.177 122.563 C 174.988 123.010,174.833 123.469,174.833 123.582 C 174.833 123.696,174.693 124.155,174.523 124.603 C 173.927 126.163,173.517 127.801,172.797 131.500 C 172.236 134.379,172.243 142.810,172.809 145.667 C 173.553 149.427,174.006 151.270,174.512 152.587 C 174.689 153.047,174.833 153.548,174.833 153.702 C 174.833 153.855,174.900 154.022,174.982 154.072 C 175.063 154.122,175.181 154.370,175.244 154.623 C 175.386 155.190,175.718 155.978,176.775 158.245 C 178.121 161.135,180.795 165.161,183.102 167.772 C 183.872 168.643,184.570 169.345,187.400 172.090 C 187.877 172.553,190.416 174.504,191.315 175.099 C 202.467 182.477,215.676 184.291,228.167 180.158 C 230.578 179.361,233.894 177.898,235.417 176.960 C 235.600 176.847,236.237 176.461,236.833 176.102 C 237.429 175.743,237.942 175.386,237.972 175.308 C 238.003 175.230,238.093 175.167,238.172 175.167 C 238.343 175.167,239.794 174.222,240.200 173.846 C 240.356 173.701,240.582 173.508,240.702 173.417 C 242.988 171.670,246.256 168.394,248.213 165.889 C 249.012 164.865,249.667 163.953,249.667 163.861 C 249.667 163.769,249.723 163.669,249.792 163.639 C 250.094 163.506,251.767 160.670,252.872 158.417 C 254.100 155.915,254.229 155.603,255.324 152.500 C 255.732 151.344,256.260 149.329,256.568 147.750 C 257.340 143.796,257.417 142.979,257.417 138.667 C 257.417 133.388,257.036 130.551,255.696 125.833 C 255.471 125.043,254.917 123.469,254.388 122.125 C 253.470 119.787,251.301 115.493,250.972 115.361 C 250.896 115.331,250.833 115.231,250.833 115.140 C 250.833 114.823,248.151 111.105,246.838 109.601 C 245.880 108.504,242.829 105.522,241.827 104.703 C 241.235 104.219,240.575 103.675,240.361 103.495 C 240.147 103.314,239.937 103.167,239.895 103.167 C 239.854 103.167,239.729 103.093,239.618 103.003 C 238.670 102.229,238.345 102.000,238.198 102.000 C 238.104 102.000,238.003 101.940,237.972 101.866 C 237.925 101.753,236.645 100.931,235.417 100.225 C 234.427 99.655,231.325 98.167,231.129 98.167 C 231.003 98.167,230.829 98.097,230.742 98.012 C 230.322 97.601,226.289 96.349,223.250 95.686 C 219.384 94.844,213.624 94.620,209.667 95.158 M218.917 107.420 C 223.526 108.191,227.421 109.594,230.300 111.521 C 230.694 111.784,231.055 112.000,231.103 112.000 C 231.230 112.000,232.407 112.896,232.472 113.042 C 232.503 113.110,232.634 113.167,232.764 113.167 C 232.894 113.167,233.000 113.229,233.000 113.305 C 233.000 113.381,233.322 113.675,233.715 113.957 C 235.820 115.469,239.464 119.742,240.928 122.417 C 241.825 124.055,243.000 126.516,243.000 126.757 C 243.000 126.817,243.103 127.103,243.229 127.391 C 245.660 132.977,245.836 142.279,243.631 148.667 C 243.362 149.446,243.074 150.308,242.990 150.583 C 242.480 152.263,240.048 156.408,238.227 158.701 C 237.004 160.241,233.566 163.667,233.244 163.667 C 233.204 163.667,233.038 163.777,232.877 163.911 C 229.300 166.886,223.701 169.166,218.250 169.866 C 213.972 170.416,208.296 169.749,205.037 168.314 C 204.645 168.141,204.249 168.000,204.157 168.000 C 203.950 168.000,200.433 166.264,199.750 165.825 C 199.475 165.648,199.137 165.453,199.000 165.390 C 198.783 165.292,198.248 164.901,197.549 164.331 C 197.438 164.241,197.269 164.167,197.174 164.167 C 197.078 164.167,197.000 164.089,197.000 163.995 C 197.000 163.900,196.884 163.778,196.743 163.724 C 195.359 163.193,190.348 157.582,188.801 154.830 C 188.569 154.419,188.232 153.821,188.051 153.500 C 184.336 146.930,183.441 138.374,185.617 130.250 C 185.973 128.921,186.444 127.473,186.739 126.798 C 188.024 123.863,188.380 123.149,189.174 121.917 C 189.351 121.642,189.548 121.304,189.611 121.167 C 189.674 121.029,189.975 120.609,190.279 120.233 C 190.584 119.857,190.833 119.500,190.833 119.441 C 190.833 119.382,190.965 119.197,191.125 119.030 C 191.285 118.863,191.640 118.432,191.912 118.072 C 193.142 116.445,196.763 113.158,198.417 112.167 C 198.783 111.947,199.121 111.726,199.167 111.675 C 199.533 111.270,204.333 108.949,205.417 108.654 C 205.692 108.579,206.442 108.365,207.083 108.179 C 208.088 107.888,211.107 107.339,213.000 107.103 C 214.001 106.978,217.348 107.158,218.917 107.420 M147.500 181.492 C 147.500 181.661,147.639 182.275,147.809 182.857 C 147.978 183.440,148.238 184.442,148.386 185.083 C 148.996 187.727,149.372 189.296,149.585 190.083 C 149.921 191.319,150.274 192.734,150.669 194.417 C 150.862 195.242,151.119 196.254,151.238 196.667 C 151.358 197.079,151.582 197.979,151.737 198.667 C 152.033 199.984,152.244 200.852,152.828 203.167 C 153.173 204.532,153.357 205.270,153.889 207.417 C 154.026 207.967,154.288 209.017,154.472 209.750 C 154.655 210.483,154.928 211.608,155.078 212.250 C 155.499 214.056,155.824 215.317,156.177 216.512 C 156.354 217.114,156.500 217.745,156.500 217.914 C 156.500 218.083,156.608 218.602,156.739 219.069 C 156.871 219.535,157.100 220.404,157.249 221.000 C 157.398 221.596,157.665 222.576,157.843 223.178 C 158.021 223.781,158.167 224.412,158.167 224.581 C 158.167 224.749,158.276 225.269,158.409 225.735 C 158.679 226.678,159.630 230.425,159.830 231.333 C 159.901 231.654,160.051 232.292,160.162 232.750 C 160.705 234.974,160.840 235.518,161.172 236.833 C 161.369 237.612,161.634 238.662,161.761 239.167 C 161.888 239.671,162.150 240.758,162.342 241.583 C 162.535 242.408,162.794 243.458,162.919 243.917 C 163.325 245.414,163.648 246.710,164.249 249.250 C 164.574 250.625,164.951 252.181,165.087 252.708 C 165.222 253.235,165.441 254.098,165.573 254.625 C 165.946 256.120,166.497 258.319,166.773 259.417 C 166.912 259.967,167.125 260.829,167.248 261.333 C 167.370 261.837,167.623 262.850,167.809 263.583 C 168.400 265.915,168.397 265.814,167.879 266.025 C 167.625 266.129,167.180 266.315,166.891 266.440 C 166.603 266.565,166.317 266.667,166.257 266.667 C 166.197 266.667,165.834 266.803,165.449 266.971 C 164.703 267.295,163.771 267.668,162.625 268.101 C 162.235 268.248,161.579 268.503,161.167 268.667 C 160.754 268.830,160.079 269.092,159.667 269.248 C 159.254 269.403,158.692 269.631,158.417 269.753 C 158.142 269.875,157.636 270.061,157.294 270.166 C 156.952 270.272,156.628 270.427,156.576 270.512 C 156.523 270.597,156.365 270.667,156.224 270.667 C 156.083 270.667,155.731 270.770,155.442 270.897 C 155.153 271.024,154.654 271.222,154.333 271.337 C 154.012 271.453,153.300 271.732,152.750 271.958 C 152.200 272.184,151.487 272.467,151.167 272.588 C 150.307 272.911,147.469 274.015,147.083 274.176 C 146.900 274.253,146.337 274.476,145.833 274.672 C 145.329 274.868,144.654 275.144,144.333 275.285 C 144.012 275.426,143.563 275.601,143.333 275.675 C 143.104 275.748,142.533 275.954,142.064 276.132 L 141.210 276.455 141.026 274.769 C 140.925 273.842,140.724 271.921,140.580 270.500 C 140.435 269.079,140.210 266.904,140.079 265.667 C 139.948 264.429,139.722 262.254,139.577 260.833 C 139.432 259.412,139.172 257.012,138.999 255.500 C 138.826 253.987,138.565 251.550,138.419 250.083 C 137.981 245.691,137.701 243.050,137.404 240.500 C 137.249 239.171,137.064 237.371,136.994 236.500 C 136.924 235.629,136.787 234.242,136.689 233.417 C 136.592 232.592,136.395 230.754,136.252 229.333 C 135.948 226.315,135.431 221.625,135.076 218.667 C 134.938 217.521,134.829 216.358,134.833 216.083 C 134.837 215.808,134.729 214.646,134.592 213.500 C 134.456 212.354,134.189 210.067,134.000 208.417 C 133.811 206.767,133.544 204.479,133.408 203.333 C 132.992 199.848,133.376 198.046,134.865 196.498 C 135.085 196.270,135.668 195.558,136.162 194.917 C 136.656 194.275,137.183 193.637,137.333 193.500 C 137.483 193.362,138.010 192.725,138.503 192.083 C 139.592 190.670,139.680 190.560,140.013 190.200 C 140.158 190.044,141.050 188.904,141.996 187.667 C 142.942 186.429,143.817 185.333,143.941 185.232 C 144.065 185.130,144.167 184.961,144.167 184.857 C 144.167 184.752,144.223 184.666,144.292 184.666 C 144.360 184.665,145.051 183.846,145.827 182.844 C 147.185 181.090,147.500 180.835,147.500 181.492 M283.293 182.053 C 283.727 182.632,284.529 183.700,285.073 184.428 C 285.617 185.155,286.106 185.787,286.160 185.833 C 286.213 185.879,286.661 186.442,287.155 187.083 C 287.649 187.725,288.156 188.362,288.282 188.500 C 288.407 188.637,288.664 188.938,288.852 189.167 C 289.040 189.396,289.870 190.315,290.698 191.208 C 295.404 196.294,296.740 200.306,295.937 206.947 C 295.604 209.706,295.269 212.589,294.914 215.750 C 294.769 217.033,294.507 219.283,294.330 220.750 C 293.990 223.568,293.678 226.419,293.244 230.667 C 293.099 232.088,292.839 234.525,292.666 236.083 C 292.368 238.772,292.165 240.765,291.577 246.792 C 291.436 248.235,291.176 250.767,290.999 252.417 C 290.822 254.067,290.559 256.654,290.415 258.167 C 289.699 265.689,288.981 272.439,288.547 275.718 C 288.456 276.405,287.916 276.471,287.088 275.895 C 286.907 275.770,286.659 275.667,286.537 275.667 C 286.415 275.667,286.000 275.530,285.616 275.363 C 284.869 275.038,283.937 274.665,282.792 274.232 C 282.402 274.085,281.746 273.829,281.333 273.664 C 280.921 273.499,280.171 273.203,279.667 273.006 C 279.162 272.810,278.600 272.586,278.417 272.510 C 278.031 272.349,275.193 271.245,274.333 270.921 C 274.012 270.800,273.300 270.517,272.750 270.291 C 272.200 270.065,271.487 269.786,271.167 269.671 C 270.846 269.555,270.347 269.357,270.058 269.230 C 269.769 269.104,269.417 269.000,269.276 269.000 C 269.135 269.000,268.977 268.930,268.924 268.845 C 268.872 268.761,268.548 268.605,268.206 268.500 C 267.864 268.394,267.358 268.208,267.083 268.086 C 266.808 267.964,266.283 267.751,265.917 267.612 C 265.017 267.272,262.172 266.176,261.721 265.996 C 261.372 265.857,261.367 265.821,261.585 265.051 C 261.710 264.610,261.925 263.800,262.062 263.250 C 262.200 262.700,262.462 261.650,262.647 260.917 C 262.831 260.183,263.103 259.058,263.252 258.417 C 263.603 256.906,263.946 255.535,264.338 254.083 C 264.511 253.442,264.773 252.392,264.921 251.750 C 265.192 250.572,265.355 249.908,266.005 247.333 C 266.590 245.017,266.800 244.150,267.096 242.833 C 267.251 242.146,267.509 241.133,267.669 240.583 C 267.830 240.033,268.200 238.533,268.492 237.250 C 268.784 235.967,269.162 234.392,269.333 233.750 C 269.685 232.429,270.087 230.848,270.414 229.500 C 270.537 228.996,270.798 227.946,270.995 227.167 C 271.628 224.659,271.805 223.939,272.083 222.750 C 272.232 222.108,272.506 220.983,272.692 220.250 C 272.878 219.517,273.130 218.504,273.252 218.000 C 273.375 217.496,273.589 216.633,273.728 216.083 C 273.867 215.533,274.141 214.446,274.337 213.667 C 274.533 212.887,274.800 211.868,274.930 211.402 C 275.060 210.936,275.167 210.417,275.167 210.250 C 275.167 210.083,275.274 209.564,275.404 209.098 C 275.956 207.125,276.336 205.678,276.588 204.583 C 276.859 203.405,277.022 202.741,277.672 200.167 C 278.244 197.900,278.466 196.993,278.752 195.750 C 278.900 195.108,279.161 194.058,279.332 193.417 C 279.733 191.915,280.076 190.544,280.415 189.083 C 280.564 188.442,280.836 187.317,281.020 186.583 C 281.204 185.850,281.467 184.800,281.605 184.250 C 281.743 183.700,281.963 182.868,282.094 182.402 C 282.226 181.936,282.333 181.429,282.333 181.277 C 282.333 180.838,282.452 180.934,283.293 182.053 M247.583 277.494 C 247.929 282.792,246.680 285.139,243.183 285.763 C 241.785 286.012,204.790 286.079,192.167 285.856 C 185.752 285.742,185.750 285.742,185.000 285.329 C 182.800 284.119,182.250 282.801,182.060 278.292 L 181.950 275.667 214.707 275.667 L 247.464 275.667 247.583 277.494 M184.000 308.340 C 182.166 308.550,180.757 309.600,179.822 311.451 L 179.250 312.583 179.206 340.791 C 179.158 372.198,179.069 369.434,180.204 371.815 C 182.485 376.601,189.642 375.448,190.957 370.083 C 191.311 368.643,191.270 314.687,190.914 312.991 C 190.686 311.902,190.060 310.500,189.802 310.500 C 189.728 310.500,189.667 310.421,189.667 310.324 C 189.667 309.182,186.457 308.059,184.000 308.340 M213.487 308.327 C 211.346 308.711,209.633 310.457,209.065 312.833 C 208.740 314.192,208.740 391.978,209.065 393.337 C 210.504 399.349,217.981 399.891,220.511 394.167 L 220.917 393.250 220.961 354.001 C 220.988 330.892,220.943 314.300,220.854 313.651 C 220.329 309.867,217.261 307.650,213.487 308.327 M243.417 308.327 C 241.270 308.621,239.641 310.144,238.863 312.583 L 238.491 313.750 238.537 341.667 C 238.588 372.367,238.509 369.994,239.540 371.917 C 241.592 375.744,248.017 375.656,249.804 371.776 C 250.821 369.569,250.750 371.861,250.750 341.333 L 250.750 313.583 250.378 312.452 C 249.347 309.310,246.887 307.853,243.417 308.327 " stroke="none" fill="#ffffff" fill-rule="evenodd"></path>
<path id="path1" d="" stroke="none" fill="#ffffff" fill-rule="evenodd">
</path><path id="path2" d="" stroke="none" fill="#ffffff" fill-rule="evenodd"></path><path id="path3" d="" stroke="none" fill="#ffffff" fill-rule="evenodd">
</path><path id="path4" d="" stroke="none" fill="#ffffff" fill-rule="evenodd"></path></g></svg>