<?xml version="1.0" standalone="no"?>
<!DOCTYPE svg PUBLIC "-//W3C//DTD SVG 20010904//EN"
 "http://www.w3.org/TR/2001/REC-SVG-20010904/DTD/svg10.dtd">
<svg version="1.0" xmlns="http://www.w3.org/2000/svg"
 width="3121.000000pt" height="3120.000000pt" viewBox="0 500 2200 3000"
 preserveAspectRatio="xMidYMid meet">

<g transform="translate(0.000000,3120.000000) scale(0.07,-0.07)"
fill="#ffffff" stroke="none">
<path d="M3705 26003 c-367 -30 -624 -120 -854 -302 -224 -176 -375 -446 -443
-794 l-22 -112 -7 -3830 c-10 -6158 -10 -11144 1 -11296 27 -381 143 -666 362
-896 222 -231 501 -362 858 -403 68 -8 3574 -10 12075 -8 l11980 3 107 23
c284 60 499 168 681 341 189 179 314 413 380 710 l21 96 4 7550 c2 5433 0
7581 -8 7660 -47 473 -241 828 -565 1033 -154 98 -359 170 -597 210 -97 16
-832 17 -12018 18 -6553 0 -11933 -1 -11955 -3z m12041 -374 c68 -26 131 -79
155 -134 43 -95 11 -231 -69 -286 -80 -57 -220 -76 -290 -40 -84 43 -182 183
-182 261 1 79 75 172 164 204 62 22 155 20 222 -5z m12069 -862 c91 -41 113
-86 125 -252 12 -160 12 -14650 0 -14814 -14 -199 -55 -249 -220 -271 -109
-14 -24098 -14 -24210 1 -160 20 -203 67 -220 244 -13 136 -13 14734 0 14869
15 154 47 202 152 230 46 13 1700 14 12193 13 11661 -2 12142 -3 12180 -20z"/>
<path d="M15715 23156 c-65 -21 -99 -42 -144 -91 -78 -85 -131 -233 -175 -494
-34 -195 -85 -295 -176 -341 -71 -36 -305 -109 -390 -121 -74 -10 -92 -10
-142 4 -106 32 -214 137 -429 419 -107 140 -155 183 -228 205 -66 19 -126 10
-272 -37 -167 -55 -259 -122 -311 -228 -30 -61 -33 -76 -36 -177 -3 -91 2
-136 26 -261 17 -82 43 -179 58 -215 23 -52 28 -79 29 -144 0 -55 -5 -89 -17
-110 -25 -47 -95 -111 -193 -177 -49 -33 -126 -96 -170 -139 -89 -87 -112 -99
-190 -99 -49 0 -75 11 -290 119 -271 138 -370 175 -465 175 -139 -1 -231 -86
-420 -389 -108 -173 -113 -143 57 -347 202 -242 299 -378 319 -446 49 -166
-42 -448 -191 -598 -107 -107 -200 -144 -368 -144 -54 0 -133 7 -175 16 -54
11 -109 15 -182 12 -172 -8 -228 -47 -306 -213 -45 -95 -74 -206 -74 -277 0
-105 52 -228 131 -309 65 -67 142 -113 288 -173 197 -80 290 -154 345 -270 35
-75 46 -142 46 -279 -1 -202 -34 -334 -103 -405 -40 -42 -96 -71 -214 -111
-155 -51 -354 -162 -415 -229 -60 -66 -72 -113 -65 -260 8 -192 46 -291 146
-386 55 -51 119 -84 216 -113 50 -14 103 -17 320 -18 246 0 262 -1 300 -22
117 -62 286 -324 322 -498 20 -100 8 -181 -43 -284 -31 -62 -59 -97 -163 -201
-131 -129 -191 -208 -223 -292 -28 -76 -24 -128 21 -223 76 -162 171 -272 281
-324 49 -23 67 -26 165 -26 87 0 125 5 185 23 83 26 265 113 350 167 61 40
107 55 163 55 109 0 315 -116 453 -255 97 -98 136 -178 142 -294 6 -102 -7
-162 -64 -306 -73 -188 -76 -303 -11 -431 31 -61 47 -76 173 -158 214 -139
330 -173 431 -125 63 29 184 153 298 302 226 298 249 320 353 332 115 13 271
-19 392 -80 78 -40 197 -162 243 -252 51 -99 62 -133 107 -328 49 -220 70
-275 121 -319 53 -45 98 -55 301 -67 196 -12 283 -3 366 37 98 48 135 124 168
345 26 177 65 343 95 406 34 71 88 117 177 152 173 66 249 84 367 85 97 1 116
-2 159 -23 74 -36 183 -146 332 -331 72 -91 151 -184 175 -207 80 -77 148 -89
296 -53 123 29 207 74 284 150 101 100 139 197 139 358 0 111 -34 281 -79 394
-40 99 -41 170 -5 248 30 65 214 253 309 315 209 137 378 126 615 -40 93 -65
155 -97 244 -124 136 -42 204 -24 333 89 106 92 182 179 221 253 22 44 27 65
27 133 0 75 -3 86 -42 165 -48 95 -128 204 -267 364 -159 181 -175 245 -111
426 87 245 153 347 257 398 98 48 148 54 438 56 297 2 307 4 411 81 63 46 87
89 143 254 92 273 78 377 -65 484 -76 57 -369 205 -469 236 -167 53 -223 177
-224 500 -1 152 11 215 57 303 56 108 156 172 339 221 109 29 170 57 274 127
125 84 154 139 154 292 -1 155 -51 295 -140 385 -132 134 -291 175 -630 165
-264 -8 -284 0 -386 153 -68 103 -134 250 -175 390 -37 128 -34 138 52 244 33
41 88 111 121 155 34 44 98 119 143 166 101 105 130 168 122 265 -9 114 -122
303 -254 425 -158 146 -302 146 -528 -1 -138 -89 -217 -127 -303 -145 -85 -18
-146 -19 -204 -1 -58 17 -250 150 -342 236 -93 87 -116 137 -116 252 0 99 10
159 74 424 65 268 61 318 -27 411 -199 211 -466 255 -684 114 -101 -65 -238
-216 -298 -329 -42 -77 -110 -137 -181 -158 -48 -14 -82 -16 -179 -11 -361 19
-547 132 -609 372 -8 33 -20 112 -26 175 -22 230 -79 365 -184 430 -75 46
-405 76 -501 46z m649 -2165 c966 -150 1804 -759 2245 -1630 359 -709 418
-1514 166 -2276 -150 -456 -387 -838 -735 -1185 -264 -264 -555 -465 -887
-614 -1072 -481 -2321 -297 -3218 475 -439 378 -768 890 -925 1439 -76 265
-105 486 -104 795 1 255 14 391 60 620 251 1245 1256 2200 2499 2375 201 28
195 28 490 25 217 -2 297 -7 409 -24z"/>
<path d="M8000 11969 c-398 -58 -604 -517 -395 -875 68 -116 208 -219 355
-261 63 -17 323 -18 7660 -18 7346 0 7597 1 7655 18 310 95 485 384 420 692
-46 216 -189 361 -422 428 l-78 22 -7570 1 c-4164 1 -7595 -2 -7625 -7z
m15260 -155 c142 -55 212 -113 263 -222 31 -65 32 -72 32 -197 0 -122 -2 -134
-29 -192 -18 -39 -48 -81 -80 -111 -56 -54 -89 -73 -175 -105 -56 -20 -68 -21
-2071 -29 -1108 -4 -4519 -7 -7580 -5 -5306 2 -5568 3 -5624 20 -182 54 -298
181 -327 354 -39 236 125 462 361 502 33 5 3110 8 7615 7 l7560 -1 55 -21z"/>
<path d="M8020 11724 c-30 -8 -80 -31 -110 -52 -44 -30 -62 -51 -90 -106 -33
-66 -35 -74 -35 -175 0 -96 3 -111 27 -156 42 -79 106 -131 206 -164 l62 -21
5587 2 5588 3 56 23 c73 29 143 91 177 156 25 47 27 60 27 161 -1 91 -4 118
-22 157 -31 67 -99 131 -169 159 l-59 24 -5595 2 c-4870 1 -5602 0 -5650 -13z"/>
<path d="M170 7666 c0 -310 138 -646 362 -882 223 -235 559 -394 918 -433 80
-9 3506 -11 14255 -9 13326 3 14155 5 14232 21 428 89 780 354 972 729 90 178
130 345 131 546 l0 122 -5932 0 c-6318 0 -6016 2 -6068 -45 -11 -10 -30 -39
-43 -64 -47 -96 -149 -176 -277 -216 -90 -29 -885 -36 -3525 -32 -2539 5
-2492 4 -2662 53 -119 34 -156 56 -250 146 -94 89 -171 131 -273 147 -44 8
-1938 11 -5952 11 l-5888 0 0 -94z"/>
</g>
</svg>
