<svg id="Layer_4" data-name="Layer 4" xmlns="http://www.w3.org/2000/svg" viewBox="0 0 32.12 20.28"><defs><style>.cls-1{fill:#fff;}.cls-2{fill:#231f20;}</style></defs><path d="M16.15,12.52c0,.25-.11.49-.17.73l-.51,2.12a.34.34,0,0,1-.38.31c-.51,0-.51,0-.66-.5-.34-1.1-.67-2.2-1-3.3-.1-.33-.08-.36.27-.36h.15c.22,0,.32.08.37.29l.69,2.72c0,.08,0,.15.08.28,0-.09.07-.13.08-.17l.66-2.79c.07-.3.1-.33.41-.33h.13c.33,0,.35,0,.43.35l.66,2.82a1.28,1.28,0,0,0,.07.16c0-.1.06-.16.07-.22l.72-2.78c.08-.31.11-.33.43-.33h.15c.27,0,.3,0,.22.29-.37,1.2-.75,2.39-1.12,3.59a.34.34,0,0,1-.39.28c-.52,0-.52,0-.63-.5-.2-.85-.41-1.7-.61-2.54a.61.61,0,0,0-.05-.12Z" transform="translate(0.05 -2.24)"/><path d="M12.17,15.16l-.14.12a1.7,1.7,0,0,1-1.68.44,1.05,1.05,0,0,1-.82-.88A1.26,1.26,0,0,1,10,13.56a1.53,1.53,0,0,1,1-.32,6.23,6.23,0,0,1,1,.09c.16,0,.2,0,.21-.17,0-.89-.32-1.22-1.21-1.11a5.54,5.54,0,0,0-.89.23c-.22.07-.24.05-.26-.18a.4.4,0,0,1,.29-.46,3.16,3.16,0,0,1,1.72-.18,1.16,1.16,0,0,1,1.06,1.12,10.48,10.48,0,0,1,0,1.25,2.73,2.73,0,0,0,.22,1.41.21.21,0,0,1,0,.19,1.19,1.19,0,0,1-.36.24.3.3,0,0,1-.23-.08A4,4,0,0,1,12.17,15.16Zm-.93-1.42a3.91,3.91,0,0,0-.57.14.67.67,0,0,0-.35.78.6.6,0,0,0,.53.52,1.09,1.09,0,0,0,1.3-1.11c0-.14,0-.22-.19-.24Z" transform="translate(0.05 -2.24)"/><path d="M20.79,15.85c-.37-.09-.74-.16-1.1-.27a.43.43,0,0,1-.27-.58c0-.13.13-.1.22-.07a3.51,3.51,0,0,0,.75.21,3,3,0,0,0,.89,0,.51.51,0,0,0,.45-.51.5.5,0,0,0-.38-.51c-.29-.11-.6-.2-.9-.3a1.45,1.45,0,0,1-.83-.58,1.12,1.12,0,0,1,.54-1.63,2.35,2.35,0,0,1,1.89,0,.41.41,0,0,1,.19.55c0,.05-.15.06-.23,0-.35,0-.7-.14-1.05-.18a1,1,0,0,0-.44.1.47.47,0,0,0-.07.85,3,3,0,0,0,.61.26c.25.09.51.16.75.26A1.12,1.12,0,0,1,22,15.43,2.37,2.37,0,0,1,20.79,15.85Z" transform="translate(0.05 -2.24)"/><path class="cls-1" d="M11.24,13.74l.72.09c.15,0,.19.1.19.24a1.09,1.09,0,0,1-1.3,1.11.6.6,0,0,1-.53-.52.67.67,0,0,1,.35-.78A3.91,3.91,0,0,1,11.24,13.74Z" transform="translate(0.05 -2.24)"/><path class="cls-2" d="M4.49,22.4l10.58-.13c1.76,0,3.53-.09,5.29-.13L25.63,22h-.1a8.66,8.66,0,0,0,4.64-3.28,7.3,7.3,0,0,0,.89-5.4A10.11,10.11,0,0,0,30.68,12,5.32,5.32,0,0,0,30,10.82,5.17,5.17,0,0,0,28,9.13a8.61,8.61,0,0,0-2.69-.77,12.41,12.41,0,0,0-2.85-.08l-.67.06-.25-.62A7.75,7.75,0,0,0,17.73,3.8,7.91,7.91,0,0,0,15,3.1a11.4,11.4,0,0,0-2.91.1A8.61,8.61,0,0,0,7,5.78a9,9,0,0,0-2.2,5.39v.25l-.23.05A5.87,5.87,0,0,0,1.4,13.34,5.71,5.71,0,0,0,.48,15a6.56,6.56,0,0,0-.33,1.87,5.67,5.67,0,0,0,.21,1.88,4.78,4.78,0,0,0,.93,1.64A6.92,6.92,0,0,0,4.49,22.4Zm0,.1a7.1,7.1,0,0,1-3.3-2,4.87,4.87,0,0,1-1-1.69A5.56,5.56,0,0,1,0,16.83,6.71,6.71,0,0,1,.27,14.9a6,6,0,0,1,.93-1.72,6.25,6.25,0,0,1,3.27-2.07l0,.07A9.44,9.44,0,0,1,6.56,5.42,9.18,9.18,0,0,1,12,2.48,10,10,0,0,1,18.09,3a8.62,8.62,0,0,1,4.3,4.38l-.11-.06a11.22,11.22,0,0,1,6.1,1,6.48,6.48,0,0,1,3.55,4.87,7.88,7.88,0,0,1-1.17,6,9.32,9.32,0,0,1-5.11,3.39h0Z" transform="translate(0.05 -2.24)"/><path class="cls-2" d="M9.06,17.07a34.45,34.45,0,0,0,6.36,1.34,14.79,14.79,0,0,0,3.12,0,29.72,29.72,0,0,0,3.26-.56h0a.07.07,0,0,1,.06,0,.05.05,0,0,1,0,.05,11.39,11.39,0,0,1-3.14,1.25,10.66,10.66,0,0,1-3.38.23,14,14,0,0,1-3.3-.75,14.21,14.21,0,0,1-3-1.51.05.05,0,0,1,0-.07.07.07,0,0,1,.06,0Z" transform="translate(0.05 -2.24)"/><path class="cls-2" d="M20.61,17.06a2.87,2.87,0,0,1,1.11-.67,3.41,3.41,0,0,1,.55-.14,2.45,2.45,0,0,1,.27,0h.23a1.4,1.4,0,0,1,.49.15,1.21,1.21,0,0,1,.57.82,1.09,1.09,0,0,1-.11.75,3.54,3.54,0,0,1-.33.46,2.8,2.8,0,0,1-1,.8l0,0a0,0,0,0,1-.06,0v0l.37-1c.08-.34.38-.76.1-.89-.09-.06-.32,0-.49,0h-.55l-1.11,0a0,0,0,0,1,0-.05,0,0,0,0,1,0,0Z" transform="translate(0.05 -2.24)"/><path class="cls-2" d="M6,21a3.5,3.5,0,0,1-2.52-.16,4.23,4.23,0,0,1-2-1.82A5,5,0,0,1,1,16.43,8.34,8.34,0,0,1,1.2,15.2a7.64,7.64,0,0,1,.55-1.11v0a.06.06,0,0,1,.07,0s0,0,0,0l-.12,1.13c0,.37,0,.75,0,1.13a5.91,5.91,0,0,0,.61,2.15A4.63,4.63,0,0,0,6,20.87a.07.07,0,0,1,0,.06s0,0,0,0Z" transform="translate(0.05 -2.24)"/></svg>