<svg id="Layer_2" data-name="Layer 2" xmlns="http://www.w3.org/2000/svg" viewBox="0 0 32 26"><defs><style>.cls-1,.cls-10,.cls-11,.cls-12,.cls-13,.cls-14,.cls-15,.cls-17,.cls-18,.cls-19,.cls-2,.cls-20,.cls-3,.cls-4,.cls-5,.cls-6,.cls-7,.cls-8,.cls-9{fill:#231f20;}.cls-10,.cls-11,.cls-12,.cls-13,.cls-14,.cls-15,.cls-16,.cls-17,.cls-18,.cls-19,.cls-2,.cls-20,.cls-3,.cls-4,.cls-5,.cls-6,.cls-7,.cls-8,.cls-9{isolation:isolate;}.cls-2{font-size:1.92px;}.cls-10,.cls-11,.cls-12,.cls-13,.cls-14,.cls-15,.cls-17,.cls-18,.cls-19,.cls-2,.cls-20,.cls-3,.cls-4,.cls-5,.cls-6,.cls-7,.cls-8,.cls-9{font-family:DMSans-Bold, DM Sans;font-weight:700;}.cls-3{font-size:1.92px;}.cls-4{font-size:1.92px;}.cls-5{font-size:1.92px;}.cls-6{font-size:1.91px;}.cls-7{font-size:1.92px;}.cls-8{font-size:1.92px;}.cls-9{font-size:1.91px;}.cls-10{font-size:1.91px;}.cls-11{font-size:1.91px;}.cls-12{font-size:1.91px;}.cls-13{font-size:1.91px;}.cls-14{font-size:1.91px;}.cls-15{font-size:1.93px;}.cls-17,.cls-18,.cls-19,.cls-20{font-size:1.93px;}.cls-18{letter-spacing:-0.05em;}.cls-19{letter-spacing:-0.08em;}.cls-20{letter-spacing:-0.04em;}.cls-21,.cls-22{fill:#fff;}.cls-22,.cls-23{stroke:#231f20;stroke-miterlimit:10;stroke-width:0.25px;}.cls-23{fill:none;stroke-linecap:round;}</style></defs><path class="cls-1" d="M7.34,7.92a10.92,10.92,0,0,1,1.44-2A10.09,10.09,0,0,1,10.7,4.27a9.36,9.36,0,0,1,4.74-1.6,13.18,13.18,0,0,1,4.93.87,9.68,9.68,0,0,1,2.17,1.28,18.28,18.28,0,0,1,1.79,1.73h0a12,12,0,0,0-4-2.87,12.75,12.75,0,0,0-4.86-.78,9.3,9.3,0,0,0-4.66,1.49A11.21,11.21,0,0,0,7.36,7.93h0Z"/><path class="cls-1" d="M24.94,7.24A8.84,8.84,0,0,1,26.49,10a10,10,0,0,1,0,6.26A9,9,0,0,1,25,19h0a10.43,10.43,0,0,0-.09-11.76h0Z"/><path class="cls-1" d="M7.51,18.25A8.37,8.37,0,0,1,6.37,16a10.52,10.52,0,0,1-.46-2.49A9.63,9.63,0,0,1,6.15,11a8.54,8.54,0,0,1,.93-2.33h0a10.47,10.47,0,0,0,.43,9.54h0Z"/><path class="cls-1" d="M8.89,25.63H7.82c-.34,0-.75.06-1-.23a1.52,1.52,0,0,1-.25-1V21.19a9.91,9.91,0,0,1,0-1.09,1,1,0,0,1,.87-.73h1A1.28,1.28,0,0,1,9.86,20.5a1.5,1.5,0,0,1,0,.3V24a4.73,4.73,0,0,1-.07,1.06A.9.9,0,0,1,8.89,25.63Zm0,0a.86.86,0,0,0,.81-.57A4.19,4.19,0,0,0,9.75,24V20.79a1.08,1.08,0,0,0-1-1.2,1.22,1.22,0,0,0-.27,0H7.46a.69.69,0,0,0-.66.54,8.34,8.34,0,0,0,0,1v3.21c0,.35-.08.74.2,1a1.34,1.34,0,0,0,1,.23Z"/><path class="cls-1" d="M9.84,21.28a1.53,1.53,0,0,1,.91-.85A5,5,0,0,1,12,20.08h0a5.49,5.49,0,0,1,1.14-.16,2.91,2.91,0,0,1,.59,0l.56.13,2.2.57c.73.21,1.46.35,2.2.6l.28.11a.5.5,0,0,1,.27.28.44.44,0,0,1-.06.4.7.7,0,0,1-.29.19l-1.06.48h0a6.67,6.67,0,0,1-1.86.51,4.18,4.18,0,0,1-1,0,1.32,1.32,0,0,1-.51-.16.52.52,0,0,1-.26-.59.55.55,0,0,1,.47-.43,1.46,1.46,0,0,1,.55.07,4.75,4.75,0,0,1,.89.4,15.24,15.24,0,0,1,1.59,1.07h-.21a52.16,52.16,0,0,1,5.89-2.44,2.53,2.53,0,0,1,1.69-.17.71.71,0,0,1,.34.4,1,1,0,0,1,.06.49c0,.36-.39.6-.57.7a16.63,16.63,0,0,1-2.79,1.57c-1,.45-1.94.87-2.93,1.27-.5.19-1,.4-1.49.57A8,8,0,0,1,16,25.73c-2.09-.42-4.14-.95-6.19-1.48h0c2.06.5,4.12,1,6.2,1.37a8.32,8.32,0,0,0,1.57.19c.49-.17,1-.39,1.47-.58,1-.41,1.95-.83,2.91-1.29a15.84,15.84,0,0,0,2.75-1.56c.23-.14.46-.3.49-.57a.73.73,0,0,0-.29-.67,2.45,2.45,0,0,0-1.53.2,62.32,62.32,0,0,0-5.86,2.43h0A13.57,13.57,0,0,0,16,22.68a4.65,4.65,0,0,0-.85-.39c-.27-.11-.69-.13-.75.21s.32.48.6.51a4.92,4.92,0,0,0,.94,0,6.38,6.38,0,0,0,1.81-.48h0l1-.47a.31.31,0,0,0,.28-.34s0,0,0,0c-.06-.18-.28-.21-.44-.29-.72-.24-1.46-.4-2.19-.61l-2.19-.59L13.66,20a2.62,2.62,0,0,0-.56,0,5.27,5.27,0,0,0-1.12.13h0a4.55,4.55,0,0,0-1.2.33,1.46,1.46,0,0,0-.9.8h0Z"/><path class="cls-1" d="M21.32,12.8a5.23,5.23,0,0,1-5.09,4.93,5.14,5.14,0,0,1-5.15-4.93,4.91,4.91,0,0,1,1.55-3.54,5.26,5.26,0,0,1,3.6-1.46A5.25,5.25,0,0,1,21.32,12.8Zm0,0a5.11,5.11,0,0,0-5.08-4.75A5,5,0,0,0,11.3,12.8a5,5,0,0,0,4.94,4.8,5.11,5.11,0,0,0,5.06-4.8Z"/><text class="cls-2" transform="matrix(0.64, -0.77, 0.77, 0.64, 11.03, 9.99)">M</text><text class="cls-3" transform="matrix(0.82, -0.58, 0.59, 0.81, 12.06, 8.77)">O</text><text class="cls-4" transform="matrix(0.93, -0.38, 0.39, 0.92, 13.22, 7.94)">N</text><text class="cls-5" transform="matrix(0.99, -0.2, 0.2, 0.98, 14.45, 7.43)">E</text><text class="cls-5" transform="matrix(1.01, -0.02, 0.02, 1, 15.45, 7.22)">Y</text><text class="cls-4" transform="matrix(0.98, 0.24, -0.24, 0.97, 17.04, 7.24)">B</text><text class="cls-6" transform="matrix(0.92, 0.43, -0.42, 0.91, 18.13, 7.5)">A</text><text class="cls-7" transform="matrix(0.8, 0.6, -0.6, 0.8, 19.23, 7.99)">C</text><text class="cls-8" transform="matrix(0.66, 0.76, -0.76, 0.65, 20.3, 8.79)">K</text><text class="cls-9" transform="translate(10.74 17.27) rotate(46.22)">G</text><text class="cls-10" transform="matrix(0.86, 0.53, -0.53, 0.85, 12.01, 18.52)">U</text><text class="cls-11" transform="matrix(0.95, 0.32, -0.33, 0.94, 13.3, 19.29)">A</text><text class="cls-12" transform="matrix(1, 0.11, -0.11, 0.99, 14.86, 19.78)">R</text><text class="cls-9" transform="matrix(0.99, -0.12, 0.12, 0.99, 16.3, 19.92)">A</text><text class="cls-13" transform="matrix(0.95, -0.35, 0.35, 0.94, 17.93, 19.7)">N</text><text class="cls-14" transform="matrix(0.83, -0.55, 0.55, 0.83, 19.44, 19.09)">T</text><text class="cls-15" transform="matrix(0.71, -0.7, 0.71, 0.71, 20.57, 18.33)">E</text><text class="cls-2" transform="matrix(0.56, -0.82, 0.83, 0.56, 21.52, 17.37)">E</text><g class="cls-16"><text class="cls-17" transform="matrix(1, -0.08, 0.08, 1, 13.11, 13.8)">7 </text><text class="cls-18" transform="matrix(1, -0.08, 0.08, 1, 14.59, 13.68)">D</text><text class="cls-19" transform="matrix(1, -0.08, 0.08, 1, 15.86, 13.58)">A</text><text class="cls-20" transform="matrix(1, -0.08, 0.08, 1, 17.05, 13.48)">Y</text><text class="cls-17" transform="matrix(1, -0.08, 0.08, 1, 18.17, 13.39)">S</text></g><path class="cls-1" d="M17.35.2a3.32,3.32,0,0,0-2.53.11,3.3,3.3,0,0,0-1.17,2.23A3.74,3.74,0,0,0,15,4.66a3.46,3.46,0,0,0,2.53-.11A3.47,3.47,0,0,0,18.7,2.32,3.88,3.88,0,0,0,17.35.2Z"/><path class="cls-21" d="M17.34.21c-1.17-.39-2.77-.14-3.21,1.14a3.34,3.34,0,0,0-.31.87,1.32,1.32,0,0,0,.18.85,3.42,3.42,0,0,0,1.11,1.39,3.24,3.24,0,0,0,1.77.14,1.3,1.3,0,0,0,.79-.35,3.31,3.31,0,0,0,.55-.74,1.8,1.8,0,0,0,.25-1.76A3.84,3.84,0,0,0,17.34.21Zm0,0a3.92,3.92,0,0,1,1.18,1.52,1.88,1.88,0,0,1-.2,1.86,3.67,3.67,0,0,1-.55.8,1.52,1.52,0,0,1-.87.42A3.42,3.42,0,0,1,15,4.68a3.63,3.63,0,0,1-1.17-1.54,1.51,1.51,0,0,1-.17-1A3.35,3.35,0,0,1,14,1.28,2,2,0,0,1,15.44.07a3.23,3.23,0,0,1,1.92.12Z"/><path class="cls-22" d="M15.31,2.3l.44.39a.08.08,0,0,0,.11,0L17,1.51a.08.08,0,0,1,.11,0l.33.34a.08.08,0,0,1,0,.11L15.92,3.54a.08.08,0,0,1-.11,0l-.93-.85a.08.08,0,0,1,0-.11h0l.32-.27a.07.07,0,0,1,.1,0Z"/><line class="cls-23" x1="8.48" y1="21.51" x2="9.69" y2="20.84"/><line class="cls-23" x1="8.66" y1="20.84" x2="9.69" y2="20.27"/><line class="cls-23" x1="8.38" y1="22.01" x2="9.69" y2="21.29"/><line class="cls-23" x1="8.67" y1="22.32" x2="9.69" y2="21.76"/><line class="cls-23" x1="8.48" y1="22.92" x2="9.72" y2="22.23"/><line class="cls-23" x1="8.71" y1="23.25" x2="9.66" y2="22.77"/><line class="cls-23" x1="8.71" y1="24.27" x2="9.66" y2="23.79"/><line class="cls-23" x1="8.71" y1="24.74" x2="9.66" y2="24.27"/><line class="cls-23" x1="8.33" y1="24.07" x2="9.74" y2="23.28"/><path class="cls-23" d="M18.24,25.29a68.09,68.09,0,0,0,6.52-3.23"/><path class="cls-1" d="M20.29,5a7.56,7.56,0,0,1,5.43,5.94h0a8.66,8.66,0,0,0-2-3.57A9.4,9.4,0,0,0,20.28,5h0Z"/></svg>