<?xml version="1.0" encoding="utf-8"?>
<!-- Generator: Adobe Illustrator 24.3.0, SVG Export Plug-In . SVG Version: 6.00 Build 0)  -->
<svg version="1.1" id="Layer_2_1_" xmlns="http://www.w3.org/2000/svg" xmlns:xlink="http://www.w3.org/1999/xlink" x="0px" y="0px"
	 viewBox="0 0 32 26" style="enable-background:new 0 0 32 26;" xml:space="preserve">
<style type="text/css">
	.st0{fill:#231F20;}
	.st1{font-family:'DMSans-Bold';}
	.st2{font-size:1.91px;}
	.st3{font-size:1.9132px;}
	.st4{font-size:1.9028px;}
	.st5{font-size:1.9025px;}
	.st6{font-size:1.9047px;}
	.st7{font-size:1.9158px;}
	.st8{font-size:1.9018px;}
	.st9{font-size:1.9379px;}
	.st10{font-size:1.9224px;}
	.st11{font-size:1.9362px;}
	.st12{fill:#FFFFFF;}
	.st13{fill:#FFFFFF;stroke:#231F20;stroke-width:0.25;stroke-miterlimit:10;}
	.st14{fill:none;stroke:#231F20;stroke-width:0.25;stroke-linecap:round;stroke-miterlimit:10;}
</style>
<path class="st0" d="M7.3,7.9c0.4-0.7,0.9-1.4,1.4-2c0.6-0.6,1.2-1.2,1.9-1.7c1.4-1,3-1.5,4.7-1.6c1.7,0,3.4,0.3,4.9,0.9
	c0.8,0.3,1.5,0.8,2.2,1.3c0.6,0.5,1.2,1.1,1.8,1.7l0,0c-1.1-1.2-2.5-2.2-4-2.9c-1.6-0.6-3.2-0.8-4.9-0.8c-1.7,0.1-3.3,0.6-4.7,1.5
	C9.4,5.3,8.2,6.5,7.3,7.9L7.3,7.9L7.3,7.9z"/>
<path class="st0" d="M24.9,7.2c0.7,0.8,1.2,1.8,1.5,2.8c0.7,2,0.7,4.2,0,6.3c-0.3,1-0.8,1.9-1.5,2.7l0,0
	C27.4,15.4,27.4,10.8,24.9,7.2L24.9,7.2L24.9,7.2z"/>
<path class="st0" d="M7.5,18.2C7,17.6,6.6,16.8,6.4,16c-0.3-0.8-0.4-1.6-0.5-2.5c0-0.8,0.1-1.7,0.2-2.5c0.2-0.8,0.5-1.6,0.9-2.3l0,0
	C5.7,11.7,5.8,15.3,7.5,18.2L7.5,18.2L7.5,18.2z"/>
<path class="st0" d="M8.9,25.6H7.8c-0.3,0-0.8,0.1-1-0.2c-0.2-0.3-0.3-0.6-0.2-1v-3.2c0-0.4,0-0.7,0-1.1c0.1-0.4,0.5-0.7,0.9-0.7h1
	c0.7-0.1,1.3,0.4,1.4,1.1c0,0,0,0,0,0c0,0.1,0,0.2,0,0.3V24c0,0.4,0,0.7-0.1,1.1C9.6,25.4,9.3,25.7,8.9,25.6z M8.9,25.6
	c0.4,0,0.7-0.2,0.8-0.6c0.1-0.3,0.1-0.7,0-1.1v-3.2c0.1-0.6-0.4-1.1-1-1.2c0,0,0,0,0,0c-0.1,0-0.2,0-0.3,0h-1
	c-0.3,0-0.6,0.2-0.7,0.5c0,0.3,0,0.7,0,1v3.2c0,0.4-0.1,0.7,0.2,1c0.3,0.2,0.6,0.3,1,0.2L8.9,25.6z"/>
<path class="st0" d="M9.8,21.3c0.2-0.4,0.5-0.7,0.9-0.9c0.4-0.2,0.8-0.3,1.2-0.4l0,0c0.4-0.1,0.8-0.1,1.1-0.2c0.2,0,0.4,0,0.6,0
	l0.6,0.1l2.2,0.6c0.7,0.2,1.5,0.4,2.2,0.6l0.3,0.1c0.1,0.1,0.2,0.2,0.3,0.3c0,0.1,0,0.3-0.1,0.4c-0.1,0.1-0.2,0.2-0.3,0.2l-1.1,0.5
	l0,0c-0.6,0.3-1.2,0.4-1.9,0.5c-0.3,0-0.7,0-1,0c-0.2,0-0.4-0.1-0.5-0.2c-0.2-0.1-0.3-0.4-0.3-0.6c0-0.2,0.2-0.4,0.5-0.4
	c0.2,0,0.4,0,0.6,0.1c0.3,0.1,0.6,0.2,0.9,0.4c0.6,0.3,1.1,0.7,1.6,1.1h-0.2c1.9-0.9,3.9-1.7,5.9-2.4c0.5-0.2,1.1-0.3,1.7-0.2
	c0.2,0.1,0.3,0.2,0.3,0.4c0.1,0.2,0.1,0.3,0.1,0.5c0,0.4-0.4,0.6-0.6,0.7c-0.9,0.6-1.8,1.1-2.8,1.6c-1,0.5-1.9,0.9-2.9,1.3
	c-0.5,0.2-1,0.4-1.5,0.6c-0.6,0-1.1-0.1-1.7-0.2c-2.1-0.4-4.1-1-6.2-1.5l0,0c2.1,0.5,4.1,1,6.2,1.4c0.5,0.1,1,0.2,1.6,0.2
	c0.5-0.2,1-0.4,1.5-0.6c1-0.4,2-0.8,2.9-1.3c1-0.4,1.9-0.9,2.8-1.6c0.2-0.1,0.5-0.3,0.5-0.6c0-0.3-0.1-0.5-0.3-0.7
	c-0.5-0.1-1.1,0-1.5,0.2c-2,0.7-3.9,1.5-5.9,2.4l0,0c-0.5-0.4-1-0.8-1.5-1.1c-0.3-0.2-0.6-0.3-0.9-0.4c-0.3-0.1-0.7-0.1-0.8,0.2
	S14.7,23,15,23c0.3,0,0.6,0,0.9,0c0.6-0.1,1.2-0.2,1.8-0.5l0,0l1-0.5c0.2,0,0.3-0.2,0.3-0.3c0,0,0,0,0,0l0,0
	c-0.1-0.2-0.3-0.2-0.4-0.3c-0.7-0.2-1.5-0.4-2.2-0.6l-2.2-0.6L13.7,20c-0.2,0-0.4,0-0.6,0c-0.4,0-0.8,0-1.1,0.1l0,0
	c-0.4,0.1-0.8,0.2-1.2,0.3C10.4,20.6,10.1,20.9,9.8,21.3L9.8,21.3L9.8,21.3z"/>
<path class="st0" d="M21.3,12.8c-0.2,2.7-2.4,4.9-5.1,4.9c-2.8,0-5-2.2-5.1-4.9c0-1.3,0.6-2.6,1.6-3.5c1-0.9,2.3-1.5,3.6-1.5
	C19,7.9,21.2,10.1,21.3,12.8z M21.3,12.8c-0.2-2.7-2.4-4.7-5.1-4.8c-2.6,0-4.8,2.1-4.9,4.8c0.1,2.7,2.3,4.8,4.9,4.8
	C18.9,17.6,21.1,15.5,21.3,12.8L21.3,12.8z"/>
<text transform="matrix(0.6919 0.722 -0.722 0.6919 10.7396 17.27)" class="st0 st1 st2">G</text>
<text transform="matrix(0.8585 0.5291 -0.5291 0.8486 12.0098 18.5206)" class="st0 st1 st3">U</text>
<text transform="matrix(0.9536 0.3212 -0.3312 0.9435 13.2995 19.29)" class="st0 st1 st4">A</text>
<text transform="matrix(1.0039 0.1104 -0.1104 0.9939 14.8593 19.7795)" class="st0 st1 st5">R</text>
<text transform="matrix(0.9927 -0.1203 0.1203 0.9927 16.2997 19.9201)" class="st0 st1 st6">A</text>
<text transform="matrix(0.9471 -0.3489 0.3489 0.9371 17.9299 19.6998)" class="st0 st1 st7">N</text>
<text transform="matrix(0.8336 -0.5524 0.5524 0.8336 19.44 19.0904)" class="st0 st1 st8">T</text>
<text transform="matrix(0.7071 -0.6971 0.7071 0.7071 20.5705 18.3298)" class="st0 st1 st9">E</text>
<text transform="matrix(0.5593 -0.819 0.829 0.5593 21.5203 17.3704)" class="st0 st1 st10">E</text>
<g>
	<text transform="matrix(1 -9.433802e-03 9.433802e-03 1 12.8536 13.4873)" class="st0 st1 st11">7</text>
	<text transform="matrix(1 -9.433802e-03 9.433802e-03 1 14.3384 13.4714)" class="st0 st1 st11">D</text>
	<text transform="matrix(1 -9.433802e-03 9.433802e-03 1 15.6123 13.4613)" class="st0 st1 st11">A</text>
	<text transform="matrix(1 -9.433802e-03 9.433802e-03 1 16.8061 13.4452)" class="st0 st1 st11">Y</text>
	<text transform="matrix(1 -9.433802e-03 9.433802e-03 1 17.93 13.4336)" class="st0 st1 st11">S</text>
</g>
<path class="st0" d="M17.4,0.2c-0.8-0.3-1.7-0.3-2.5,0.1c-0.7,0.6-1.1,1.4-1.2,2.2c0.2,0.8,0.7,1.6,1.3,2.1c0.8,0.3,1.7,0.2,2.5-0.1
	c0.7-0.6,1.1-1.4,1.2-2.2C18.5,1.5,18,0.7,17.4,0.2z"/>
<path class="st12" d="M17.3,0.2c-1.2-0.4-2.8-0.1-3.2,1.1c-0.1,0.3-0.2,0.6-0.3,0.9c0,0.3,0,0.6,0.2,0.9c0.2,0.6,0.6,1,1.1,1.4
	c0.6,0.2,1.2,0.3,1.8,0.1c0.3,0,0.6-0.1,0.8-0.3c0.2-0.2,0.4-0.5,0.5-0.7c0.4-0.5,0.5-1.2,0.2-1.8C18.2,1.1,17.8,0.6,17.3,0.2z
	 M17.3,0.2c0.5,0.4,0.9,0.9,1.2,1.5c0.3,0.6,0.2,1.3-0.2,1.9c-0.1,0.3-0.3,0.6-0.5,0.8c-0.2,0.2-0.5,0.4-0.9,0.4
	c-0.6,0.1-1.3,0.1-1.9-0.1c-0.5-0.4-0.9-0.9-1.2-1.5c-0.2-0.3-0.2-0.7-0.2-1c0.1-0.3,0.2-0.6,0.3-0.9c0.2-0.6,0.8-1.1,1.4-1.2
	C16.1-0.1,16.7,0,17.3,0.2L17.3,0.2z"/>
<path class="st13" d="M15.3,2.3l0.4,0.4c0,0,0.1,0,0.1,0L17,1.5c0,0,0.1,0,0.1,0l0.3,0.3c0,0,0,0.1,0,0.1l-1.5,1.6c0,0-0.1,0-0.1,0
	l-0.9-0.8c0,0,0-0.1,0-0.1l0,0l0.3-0.3C15.2,2.3,15.3,2.3,15.3,2.3C15.3,2.3,15.3,2.3,15.3,2.3L15.3,2.3z"/>
<line class="st14" x1="8.5" y1="21.5" x2="9.7" y2="20.8"/>
<line class="st14" x1="8.7" y1="20.8" x2="9.7" y2="20.3"/>
<line class="st14" x1="8.4" y1="22" x2="9.7" y2="21.3"/>
<line class="st14" x1="8.7" y1="22.3" x2="9.7" y2="21.8"/>
<line class="st14" x1="8.5" y1="22.9" x2="9.7" y2="22.2"/>
<line class="st14" x1="8.7" y1="23.2" x2="9.7" y2="22.8"/>
<line class="st14" x1="8.7" y1="24.3" x2="9.7" y2="23.8"/>
<line class="st14" x1="8.7" y1="24.7" x2="9.7" y2="24.3"/>
<line class="st14" x1="8.3" y1="24.1" x2="9.7" y2="23.3"/>
<path class="st14" d="M18.2,25.3c2.2-1,4.4-2,6.5-3.2"/>
<path class="st0" d="M20.3,5c2.8,0.8,4.9,3.1,5.4,5.9l0,0c-0.4-1.3-1.1-2.6-2-3.6C22.8,6.3,21.6,5.5,20.3,5L20.3,5L20.3,5z"/>
<g>
	<text transform="matrix(1 0 0 1 13.637 6.8705)" class="st0 st1 st2">ROI in</text>
</g>
</svg>
