<svg id="Layer_1" data-name="Layer 1" xmlns="http://www.w3.org/2000/svg" viewBox="0 0 18.19 26.05"><defs><style>.cls-1{fill:#231f20;}.cls-2,.cls-3{fill:none;stroke:#231f20;stroke-linecap:round;stroke-width:0.25px;}.cls-2{stroke-miterlimit:10;}.cls-3{stroke-linejoin:round;}</style></defs><path class="cls-1" d="M16.9,0a7.17,7.17,0,0,1,1.61,2.32,7.43,7.43,0,0,1,.61,2.78l0,5.64v.2h-.21c-1.37,0-2.75,0-4.13,0h-.2v-.2l0-2.82c0-.94,0-1.87,0-2.83A7.48,7.48,0,0,1,16.9,0Zm0,0a6.9,6.9,0,0,0-1.52,2.34,8.84,8.84,0,0,0-.59,2.74c0,1.88,0,3.76,0,5.64l0,0h4.13l0,0L19,5.1A7.56,7.56,0,0,0,16.9,0Z" transform="translate(-7.71 0.01)"/><path class="cls-1" d="M14.63,7.82l-.69.83a2.44,2.44,0,0,0-.53,1.21l-.32,2.35,1.54-1.45" transform="translate(-7.71 0.01)"/><path class="cls-1" d="M19,7.8l.7.85a2.24,2.24,0,0,1,.52,1.19l.35,2.35L19,10.74" transform="translate(-7.71 0.01)"/><path class="cls-1" d="M15.61,10.74a12.22,12.22,0,0,1-.27,1.34l-.15-.22a24.87,24.87,0,0,1,3.23,0l-.16.22c-.12-.44-.22-.89-.3-1.34a0,0,0,0,1,0,0h0L18.44,12l0,0H15.19l0,0,.42-1.29h0S15.61,10.73,15.61,10.74Z" transform="translate(-7.71 0.01)"/><path class="cls-2" d="M16.8,12.66c-.05,1.1,0,2.44,0,3.26" transform="translate(-7.71 0.01)"/><path class="cls-2" d="M16,12.66a7.29,7.29,0,0,0,0,2.09" transform="translate(-7.71 0.01)"/><path class="cls-2" d="M17.63,12.66c.08-.35.29.27,0,2.09" transform="translate(-7.71 0.01)"/><line class="cls-2" x1="7.34" y1="3.79" x2="9.43" y2="3.79"/><circle class="cls-2" cx="8.73" cy="5.51" r="0.72"/><circle class="cls-2" cx="7.9" cy="10.03" r="0.17"/><path class="cls-1" d="M10.07,16.09l1.47.31h0a1,1,0,0,1,.16.87,4,4,0,0,1-.22.89,15.56,15.56,0,0,1-.75,1.66A11.51,11.51,0,0,0,10,21.48a3,3,0,0,0-.12.43l0,.21,0,.13a.28.28,0,0,1-.14.16.71.71,0,0,1-.53-.05l-.43-.16a6.1,6.1,0,0,1-.87-.37.48.48,0,0,1-.13-.53l.16-.43.64-1.7.63-1.71.31-.86a1.72,1.72,0,0,1,.18-.42A.35.35,0,0,1,10.07,16.09Zm0,0a.36.36,0,0,0-.41.1,1.52,1.52,0,0,0-.16.42l-.3.86L8.64,19.2l-.56,1.73-.14.44a.27.27,0,0,0,.08.3,6.48,6.48,0,0,0,.8.3c.28.08.62.27.78.21h0l0-.1,0-.23c0-.15.08-.3.13-.44a9,9,0,0,1,.77-1.67,16.32,16.32,0,0,0,.83-1.61,4.33,4.33,0,0,0,.25-.87,1,1,0,0,0-.12-.84h0Z" transform="translate(-7.71 0.01)"/><path class="cls-2" d="M9.88,22a2.72,2.72,0,0,1,1.33.73" transform="translate(-7.71 0.01)"/><path class="cls-1" d="M15.15,17.32l-.62,1.57a3.29,3.29,0,0,0-.19.81c0,.26,0,.56.25.63.49.14,1-.3,1.29-.71a2,2,0,0,1,1.43-1h0l1.58.14H19l0,.05,2.17,2.86,0,0a2,2,0,0,0,1.16.42,1.48,1.48,0,0,0,.6-.09,2.37,2.37,0,0,0,.52-.35l.16-.12.12.15.45.56-.26-.06,1.11-.6.56-.3.06,0h0a1.94,1.94,0,0,0-.1-.19l-1.12-2.26L23.3,16.53l-.13-.28a0,0,0,0,0-.06,0l-.46.35-1,.76,0,0h-.07l-1.84-.19h-.05a4.67,4.67,0,0,0-2.23-.32,8.55,8.55,0,0,0-2.23.54h0a13.35,13.35,0,0,1-1.79.13,5.43,5.43,0,0,1-.9-.05c-.27-.05-.67-.12-.71-.47a0,0,0,0,1,0,0h0c.05.31.43.38.7.42a5.26,5.26,0,0,0,.89,0,17.85,17.85,0,0,0,1.78-.17h0a7.82,7.82,0,0,1,2.27-.58,4.57,4.57,0,0,1,2.31.31h0l1.85.16h0l1-.78c.17-.12.32-.26.51-.38a.26.26,0,0,1,.3.11l.15.28,1.14,2.25,1.15,2.26a1,1,0,0,1,.12.3.28.28,0,0,1-.2.25l-.55.3-1.12.6h0l0,0-.44-.56h0a2.42,2.42,0,0,1-.58.38,1.64,1.64,0,0,1-.69.11A2.23,2.23,0,0,1,21,21.82h0l-2.14-2.88h0l-1.57-.15h0a1.8,1.8,0,0,0-1.34.91c-.34.42-.85.9-1.44.72-.31-.11-.33-.48-.3-.74a3.67,3.67,0,0,1,.22-.82l.66-1.57h0S15.15,17.31,15.15,17.32Z" transform="translate(-7.71 0.01)"/><path class="cls-1" d="M18,21.29c.53.37,1,.75,1.54,1.16s1,.82,1.45,1.23a.89.89,0,0,0,.69.34.81.81,0,0,0,.62-.34.86.86,0,0,0-.2-.74,5.19,5.19,0,0,0-.58-.75v0s0,0,0,0a4.31,4.31,0,0,1,.66.69,1,1,0,0,1,.28.89,1,1,0,0,1-1.65.12L18,21.31h0Z" transform="translate(-7.71 0.01)"/><path class="cls-1" d="M16.46,22.09c.56.35,1.1.73,1.63,1.12s1,.8,1.55,1.21a4.3,4.3,0,0,0,.71.54A.53.53,0,0,0,21,24.7c.44-.48-.37-.93-.75-1.42,0,0,0,0,0,0h0l.75.63a.77.77,0,0,1,.26.42.73.73,0,0,1-.11.48.74.74,0,0,1-.85.38,3.06,3.06,0,0,1-.8-.57l-3-2.5s0,0,0,0Z" transform="translate(-7.71 0.01)"/><path class="cls-1" d="M16.26,23.89c.55.31,1.09.66,1.61,1l.74.54a.53.53,0,0,0,.61-.06h0a.5.5,0,0,0,.18-.36.6.6,0,0,0-.18-.41h0a13.39,13.39,0,0,1-1.13-1.13s0,0,0,0h0l1.24,1h0a.77.77,0,0,1,.26.54.71.71,0,0,1-.25.54h0a.73.73,0,0,1-.9.11l-.76-.58-1.49-1.17v0Z" transform="translate(-7.71 0.01)"/><path class="cls-1" d="M16,25.47a6.34,6.34,0,0,0,.61.21,1.82,1.82,0,0,0,.56.09,2.48,2.48,0,0,0,1.15-.28h0s0,0,0,0a1.6,1.6,0,0,1-1.17.51A1.92,1.92,0,0,1,16,25.49s0,0,0,0Z" transform="translate(-7.71 0.01)"/><path class="cls-1" d="M11.35,23.63a.61.61,0,0,1-.27-.56,1.39,1.39,0,0,1,.27-.59,1.31,1.31,0,0,1,.42-.54.71.71,0,0,1,.73,0,.73.73,0,0,1,.29.67,1.34,1.34,0,0,1-.36.58c-.14.16-.25.37-.46.46A.6.6,0,0,1,11.35,23.63Zm0,0a.59.59,0,0,0,.6,0c.19-.1.26-.32.38-.5s.25-.36.25-.53a.51.51,0,0,0-.22-.45.5.5,0,0,0-.49-.05c-.17.06-.28.26-.42.42s-.3.32-.33.53A.57.57,0,0,0,11.35,23.63Z" transform="translate(-7.71 0.01)"/><path class="cls-1" d="M12.72,24.6l-.35-.23a.41.41,0,0,1-.25-.33.66.66,0,0,1,.17-.39l.22-.36.44-.71a1.9,1.9,0,0,1,.27-.37.45.45,0,0,1,.53,0l.34.25a.5.5,0,0,1,.27.42.38.38,0,0,1-.08.25l-.13.17-.26.33-.51.66a2.1,2.1,0,0,1-.26.33A.33.33,0,0,1,12.72,24.6Zm0,0a.33.33,0,0,0,.39,0,2.93,2.93,0,0,0,.24-.34l.44-.71.22-.36c.08-.13.16-.23.14-.32s-.33-.29-.54-.46a.2.2,0,0,0-.25,0,2.22,2.22,0,0,0-.24.3l-.51.66-.26.33c-.08.12-.2.21-.19.35a.39.39,0,0,0,.22.32Z" transform="translate(-7.71 0.01)"/><path class="cls-1" d="M13.63,25.11a.73.73,0,0,1-.29-.79,6.06,6.06,0,0,1,.45-.78,4.15,4.15,0,0,1,.51-.75.8.8,0,0,1,1.27.88,4,4,0,0,1-.52.75,5.43,5.43,0,0,1-.58.69A.72.72,0,0,1,13.63,25.11Zm0,0a.71.71,0,0,0,.82,0,4.05,4.05,0,0,0,.49-.73,5.37,5.37,0,0,0,.43-.74.61.61,0,0,0-.94-.65,4.78,4.78,0,0,0-.54.66,4.23,4.23,0,0,0-.51.71A.69.69,0,0,0,13.63,25.11Z" transform="translate(-7.71 0.01)"/><path class="cls-1" d="M15.13,26l-.34-.22a.45.45,0,0,1-.25-.32.53.53,0,0,1,.14-.38l.21-.35.43-.69a1.77,1.77,0,0,1,.26-.36.47.47,0,0,1,.52,0l.33.24a.53.53,0,0,1,.28.39.56.56,0,0,1-.18.43l-.25.32-.5.64a2.6,2.6,0,0,1-.26.32A.35.35,0,0,1,15.13,26Zm0,0a.33.33,0,0,0,.38,0,1.57,1.57,0,0,0,.24-.32l.42-.69.21-.35c.08-.13.14-.21.12-.3s-.34-.29-.54-.45a.21.21,0,0,0-.24,0,2.09,2.09,0,0,0-.23.29l-.5.64-.25.32c-.08.11-.18.2-.16.34a.38.38,0,0,0,.22.3Z" transform="translate(-7.71 0.01)"/><path class="cls-1" d="M23.53,21.8a7.12,7.12,0,0,1-1.06-1.72,4.09,4.09,0,0,1-.37-1.95,4.06,4.06,0,0,0,.48,1.9,7.57,7.57,0,0,0,1.13,1.6h0a.12.12,0,1,1-.18.17Z" transform="translate(-7.71 0.01)"/><line class="cls-2" x1="8.32" y1="10.86" x2="8.03" y2="11.44"/><line class="cls-2" x1="8.76" y1="10.88" x2="8.47" y2="11.46"/><line class="cls-2" x1="9.19" y1="10.85" x2="8.76" y2="11.65"/><line class="cls-2" x1="9.63" y1="10.85" x2="9.34" y2="11.43"/><line class="cls-2" x1="10.07" y1="10.86" x2="9.68" y2="11.59"/><path class="cls-2" d="M15.81,3.2a4.1,4.1,0,0,1,.73-1.81" transform="translate(-7.71 0.01)"/><line class="cls-2" x1="11.19" y1="4.17" x2="10.48" y2="4.92"/><line class="cls-2" x1="11.19" y1="4.96" x2="10.4" y2="5.85"/><line class="cls-2" x1="11.19" y1="5.76" x2="10.31" y2="6.7"/><line class="cls-2" x1="11.19" y1="6.55" x2="10.02" y2="7.82"/><line class="cls-2" x1="11.19" y1="7.35" x2="10.48" y2="8.1"/><line class="cls-2" x1="11.19" y1="8.14" x2="10.48" y2="8.9"/><line class="cls-2" x1="11.19" y1="9.63" x2="10.48" y2="10.39"/><line class="cls-2" x1="11.19" y1="8.93" x2="9.83" y2="10.43"/><path class="cls-2" d="M16.06,5.67s0-.54.48-.54" transform="translate(-7.71 0.01)"/><polyline class="cls-3" points="7.53 9.21 8.31 8.85 7.75 9.44 8.16 9.44 8.39 9.22"/><line class="cls-2" x1="2.3" y1="18.32" x2="2.93" y2="19.73"/><line class="cls-2" x1="2.06" y1="18.8" x2="2.69" y2="20.21"/><line class="cls-2" x1="1.78" y1="19.1" x2="2.5" y2="20.68"/><line class="cls-2" x1="1.74" y1="19.75" x2="2.38" y2="21.16"/><line class="cls-2" x1="2.69" y1="18.43" x2="3.16" y2="19.37"/><line class="cls-2" x1="3.01" y1="18.14" x2="3.33" y2="18.9"/><line class="cls-2" x1="1.36" y1="20.7" x2="1.99" y2="22.11"/><line class="cls-2" x1="1.57" y1="20.25" x2="2.2" y2="21.66"/><line class="cls-2" x1="15.64" y1="16.7" x2="15.42" y2="17.75"/><line class="cls-2" x1="15.86" y1="17.02" x2="15.64" y2="18.07"/><line class="cls-2" x1="16.13" y1="17.62" x2="15.91" y2="18.67"/><line class="cls-2" x1="16.38" y1="18.07" x2="16.16" y2="19.12"/><line class="cls-2" x1="16.6" y1="18.43" x2="16.38" y2="19.48"/><line class="cls-2" x1="16.86" y1="18.9" x2="16.64" y2="19.95"/><line class="cls-2" x1="17.18" y1="19.37" x2="16.97" y2="20.42"/><line class="cls-2" x1="17.4" y1="20.02" x2="17.18" y2="21.07"/><path class="cls-1" d="M16.25,19.74a.83.83,0,0,1,.35-.57,1,1,0,0,1,.33-.14.61.61,0,0,1,.35.06,1.77,1.77,0,0,0-.53.28C16.58,19.47,16.45,19.61,16.25,19.74Z" transform="translate(-7.71 0.01)"/><path class="cls-2" d="M11.83,17.66s.12.55,2.59.18" transform="translate(-7.71 0.01)"/></svg>