<?xml version="1.0" encoding="UTF-8"?>
<svg xmlns="http://www.w3.org/2000/svg" xmlns:xlink="http://www.w3.org/1999/xlink" width="417px" height="417px" viewBox="0 0 417 417" version="1.1">
<g id="surface1">
<path style=" stroke:none;fill-rule:nonzero;fill:rgb(13.72549%,12.156863%,12.54902%);fill-opacity:1;" d="M 210.679688 1.941406 C 226.386719 12.398438 238.929688 24.914062 247.585938 38.761719 C 256.3125 52.707031 261.058594 67.6875 261.570312 82.882812 L 261.570312 175.566406 L 256.757812 175.566406 C 225.351562 175.566406 193.714844 175.566406 162.078125 175.566406 L 157.492188 175.566406 L 157.492188 127.636719 C 157.492188 112.71875 157.492188 97.957031 157.492188 82.722656 C 159.460938 52.046875 178.527344 23.09375 210.679688 1.941406 Z M 210.679688 1.941406 C 195.53125 12.546875 183.671875 25.183594 175.832031 39.078125 C 168.011719 52.984375 163.445312 67.664062 162.308594 82.5625 C 162.308594 112.402344 162.308594 142.238281 162.308594 172.078125 L 256.984375 172.078125 L 258.820312 82.882812 C 258.066406 52.667969 240.875 23.761719 210.679688 1.941406 Z M 210.679688 1.941406 "/>
<path style=" stroke:none;fill-rule:nonzero;fill:rgb(13.72549%,12.156863%,12.54902%);fill-opacity:1;" d="M 158.640625 126.050781 L 142.820312 139.222656 C 136.296875 144.730469 132.09375 151.375 130.671875 158.425781 L 123.335938 195.722656 L 158.640625 172.710938 "/>
<path style=" stroke:none;fill-rule:nonzero;fill:rgb(13.72549%,12.156863%,12.54902%);fill-opacity:1;" d="M 258.820312 125.734375 L 274.867188 139.222656 C 281.445312 144.566406 285.59375 151.136719 286.789062 158.109375 L 294.8125 195.40625 L 258.820312 172.394531 "/>
<path style=" stroke:none;fill-rule:nonzero;fill:rgb(13.72549%,12.156863%,12.54902%);fill-opacity:1;" d="M 181.105469 172.394531 C 179.617188 179.558594 177.550781 186.65625 174.914062 193.660156 L 171.476562 190.167969 C 196.132812 189.058594 220.867188 189.058594 245.523438 190.167969 L 241.855469 193.660156 C 239.105469 186.675781 236.8125 179.535156 234.976562 172.394531 L 245.980469 192.390625 L 171.476562 192.390625 L 181.105469 171.917969 C 181.105469 171.917969 181.105469 172.234375 181.105469 172.394531 Z M 181.105469 172.394531 "/>
<path style="fill:none;stroke-width:0.25;stroke-linecap:round;stroke-linejoin:miter;stroke:rgb(13.72549%,12.156863%,12.54902%);stroke-opacity:1;stroke-miterlimit:10;" d="M 16.800059 12.660086 C 16.749962 13.760023 16.800059 15.099933 16.800059 15.920025 " transform="matrix(22.924684,0,0,15.870935,-176.749313,1.939781)"/>
<path style="fill:none;stroke-width:0.25;stroke-linecap:round;stroke-linejoin:miter;stroke:rgb(13.72549%,12.156863%,12.54902%);stroke-opacity:1;stroke-miterlimit:10;" d="M 16.000054 12.660086 C 15.899692 13.352931 15.899692 14.056851 16.000054 14.749942 " transform="matrix(22.924684,0,0,15.870935,-176.749313,1.939781)"/>
<path style="fill:none;stroke-width:0.25;stroke-linecap:round;stroke-linejoin:miter;stroke:rgb(13.72549%,12.156863%,12.54902%);stroke-opacity:1;stroke-miterlimit:10;" d="M 17.630052 12.660086 C 17.709967 12.310095 17.920064 12.930087 17.630052 14.749942 " transform="matrix(22.924684,0,0,15.870935,-176.749313,1.939781)"/>
<path style="fill:none;stroke-width:0.25;stroke-linecap:round;stroke-linejoin:miter;stroke:rgb(13.72549%,12.156863%,12.54902%);stroke-opacity:1;stroke-miterlimit:10;" d="M 7.339932 3.790106 L 9.429996 3.790106 " transform="matrix(22.924684,0,0,15.870935,0,1.781072)"/>
<path style="fill:none;stroke-width:0.25;stroke-linecap:round;stroke-linejoin:miter;stroke:rgb(13.72549%,12.156863%,12.54902%);stroke-opacity:1;stroke-miterlimit:10;" d="M 9.449933 5.510034 C 9.449933 5.907528 9.127716 6.229953 8.730014 6.229953 C 8.332312 6.229953 8.009925 5.907528 8.009925 5.510034 C 8.009925 5.112295 8.332312 4.790116 8.730014 4.790116 C 9.127716 4.790116 9.449933 5.112295 9.449933 5.510034 Z M 9.449933 5.510034 " transform="matrix(22.924684,0,0,15.870935,0,1.781072)"/>
<path style="fill:none;stroke-width:0.25;stroke-linecap:round;stroke-linejoin:miter;stroke:rgb(13.72549%,12.156863%,12.54902%);stroke-opacity:1;stroke-miterlimit:10;" d="M 8.070074 10.029893 C 8.070074 10.123913 7.993908 10.199966 7.90002 10.199966 C 7.806133 10.199966 7.729966 10.123913 7.729966 10.029893 C 7.729966 9.936119 7.806133 9.860066 7.90002 9.860066 C 7.993908 9.860066 8.070074 9.936119 8.070074 10.029893 Z M 8.070074 10.029893 " transform="matrix(22.924684,0,0,15.870935,0,1.781072)"/>
<path style=" stroke:none;fill-rule:nonzero;fill:rgb(13.72549%,12.156863%,12.54902%);fill-opacity:1;" d="M 54.101562 257.304688 L 87.800781 262.222656 C 92.058594 266.179688 93.414062 271.285156 91.46875 276.03125 C 90.574219 280.859375 88.882812 285.597656 86.425781 290.15625 C 81.441406 299.164062 75.703125 307.960938 69.234375 316.5 C 62.660156 324.964844 57.066406 333.773438 52.496094 342.847656 C 51.335938 345.070312 50.417969 347.351562 49.746094 349.671875 L 49.746094 355.066406 C 49.199219 356.171875 48.046875 357.085938 46.535156 357.609375 C 42.492188 358.445312 38.136719 358.160156 34.386719 356.8125 L 24.53125 354.273438 C 17.671875 352.675781 11.003906 350.714844 4.585938 348.402344 C 1.160156 346.300781 -0.0234375 342.949219 1.605469 339.992188 L 5.273438 333.167969 L 19.945312 306.1875 L 34.386719 279.046875 L 41.492188 265.398438 C 42.433594 263.058594 43.824219 260.816406 45.621094 258.730469 C 47.792969 257.140625 51.117188 256.578125 54.101562 257.304688 Z M 54.101562 257.304688 C 50.804688 256.371094 47.011719 257.011719 44.703125 258.890625 C 43.011719 260.972656 41.773438 263.21875 41.035156 265.554688 L 34.15625 279.203125 L 21.320312 306.660156 L 8.480469 334.117188 L 5.273438 341.101562 C 4.371094 342.796875 5.105469 344.703125 7.105469 345.863281 C 13.0625 347.726562 19.1875 349.316406 25.445312 350.625 C 31.867188 351.894531 39.660156 354.910156 43.328125 353.957031 L 43.328125 348.71875 C 43.328125 346.339844 45.160156 343.957031 46.308594 341.738281 C 50.871094 332.507812 56.785156 323.625 63.960938 315.230469 C 70.980469 306.964844 77.332031 298.433594 82.988281 289.679688 C 85.589844 285.230469 87.511719 280.601562 88.71875 275.871094 C 90.707031 271.367188 89.699219 266.480469 85.96875 262.539062 Z M 54.101562 257.304688 "/>
<path style="fill:none;stroke-width:0.25;stroke-linecap:round;stroke-linejoin:miter;stroke:rgb(13.72549%,12.156863%,12.54902%);stroke-opacity:1;stroke-miterlimit:10;" d="M 9.879979 22.000076 C 10.383667 22.11231 10.844926 22.365327 11.210082 22.730086 " transform="matrix(22.924684,0,0,15.870935,-176.749313,1.939781)"/>
<path style=" stroke:none;fill-rule:nonzero;fill:rgb(13.72549%,12.156863%,12.54902%);fill-opacity:1;" d="M 170.558594 276.824219 L 156.347656 301.742188 C 154.113281 305.882812 152.652344 310.203125 151.992188 314.597656 C 151.992188 318.722656 151.992188 323.484375 157.722656 324.597656 C 168.953125 326.816406 180.648438 319.835938 187.292969 313.328125 C 194.136719 304.84375 206.214844 298.992188 220.078125 297.457031 L 256.296875 299.679688 L 258.820312 299.679688 L 258.820312 300.472656 L 308.566406 345.863281 C 316.195312 349.96875 325.5 352.300781 335.160156 352.527344 C 339.835938 352.714844 344.519531 352.230469 348.914062 351.101562 C 353.226562 349.621094 357.234375 347.753906 360.835938 345.546875 L 364.503906 343.640625 L 367.253906 346.023438 L 377.570312 354.910156 L 371.609375 353.957031 L 397.054688 344.433594 L 409.894531 339.671875 L 411.269531 339.671875 C 410.585938 338.640625 409.820312 337.632812 408.976562 336.65625 L 383.300781 300.789062 L 357.394531 264.285156 L 354.414062 259.84375 L 353.039062 259.84375 L 342.496094 265.398438 L 319.570312 277.460938 L 317.964844 277.460938 L 275.785156 274.445312 L 274.636719 274.445312 C 258.449219 269.886719 240.898438 268.144531 223.515625 269.363281 C 205.996094 270.617188 188.800781 273.5 172.394531 277.933594 C 158.796875 279.257812 145.089844 279.949219 131.359375 280 C 124.460938 280.128906 117.558594 279.863281 110.726562 279.203125 C 104.535156 278.410156 95.367188 277.300781 94.449219 271.746094 C 95.597656 276.664062 104.308594 277.777344 110.496094 278.410156 C 117.285156 278.808594 124.109375 278.808594 130.898438 278.410156 C 144.558594 277.984375 158.175781 277.085938 171.707031 275.714844 C 188.285156 270.851562 205.828125 267.75 223.746094 266.507812 C 241.714844 264.953125 259.960938 266.648438 276.699219 271.429688 L 319.113281 273.96875 L 342.035156 261.589844 C 345.933594 259.683594 349.371094 257.460938 353.726562 255.558594 C 356.328125 254.980469 359.160156 255.699219 360.605469 257.304688 L 364.042969 261.746094 L 390.179688 297.457031 L 416.542969 333.324219 C 417.824219 334.796875 418.753906 336.40625 419.292969 338.085938 C 419.113281 339.941406 417.285156 341.527344 414.707031 342.054688 L 402.097656 346.816406 L 376.421875 356.335938 L 366.335938 347.449219 C 362.34375 349.890625 357.867188 351.921875 353.039062 353.480469 C 348.011719 354.84375 342.613281 355.4375 337.222656 355.226562 C 325.535156 355.546875 314.046875 353.082031 304.667969 348.242188 L 255.609375 302.535156 L 219.617188 300.15625 C 206.652344 301.328125 195.253906 306.683594 188.898438 314.597656 C 181.105469 321.261719 169.414062 328.882812 155.886719 326.023438 C 148.78125 324.277344 148.324219 318.40625 149.011719 314.28125 C 149.957031 309.820312 151.652344 305.453125 154.054688 301.265625 L 169.183594 276.347656 C 169.183594 276.347656 170.558594 276.664062 170.558594 276.824219 Z M 170.558594 276.824219 "/>
<path style=" stroke:none;fill-rule:nonzero;fill:rgb(13.72549%,12.156863%,12.54902%);fill-opacity:1;" d="M 235.894531 339.832031 C 248.046875 345.703125 258.820312 351.734375 271.199219 358.242188 C 283.578125 364.75 294.125 371.257812 304.441406 377.761719 C 308.257812 381.128906 314.078125 383.113281 320.257812 383.160156 C 325.9375 382.964844 331.175781 380.972656 334.472656 377.761719 C 335.6875 373.566406 333.988281 369.21875 329.886719 366.019531 C 325.988281 361.777344 321.539062 357.792969 316.589844 354.117188 C 322.203125 357.367188 327.277344 361.039062 331.71875 365.066406 C 337.097656 368.753906 339.496094 374.039062 338.140625 379.191406 C 334.339844 383.742188 327.527344 386.695312 319.953125 387.078125 C 312.378906 387.460938 305.023438 385.21875 300.3125 381.097656 L 235.894531 340.148438 Z M 235.894531 339.832031 "/>
<path style=" stroke:none;fill-rule:nonzero;fill:rgb(13.72549%,12.156863%,12.54902%);fill-opacity:1;" d="M 200.589844 352.527344 C 213.429688 358.082031 225.808594 364.113281 237.957031 370.304688 C 250.109375 376.492188 260.882812 383 273.492188 389.507812 C 278.472656 392.746094 283.929688 395.621094 289.769531 398.078125 C 295.527344 399.492188 301.90625 397.726562 304.667969 393.953125 C 314.757812 386.332031 296.1875 379.191406 287.476562 371.414062 L 304.667969 381.414062 C 307.660156 383.121094 309.753906 385.464844 310.628906 388.078125 C 311.089844 390.746094 310.199219 393.4375 308.109375 395.699219 C 304.480469 400.640625 296.359375 403.152344 288.621094 401.730469 C 281.84375 399.417969 275.652344 396.363281 270.28125 392.683594 L 201.507812 353.003906 Z M 200.589844 352.527344 "/>
<path style=" stroke:none;fill-rule:nonzero;fill:rgb(13.72549%,12.156863%,12.54902%);fill-opacity:1;" d="M 196.007812 381.097656 C 208.613281 386.015625 220.992188 391.570312 232.914062 396.96875 L 249.878906 405.539062 C 254.359375 407.308594 259.964844 406.925781 263.863281 404.585938 C 266.335938 403.164062 267.832031 401.09375 267.988281 398.871094 C 267.878906 396.414062 266.398438 394.082031 263.863281 392.363281 C 254.71875 386.75 246.070312 380.761719 237.957031 374.429688 L 266.386719 390.300781 C 269.960938 392.484375 272.113281 395.574219 272.34375 398.871094 C 272.339844 402.171875 270.246094 405.304688 266.613281 407.441406 C 261.15625 411.269531 252.609375 411.992188 245.980469 409.1875 L 228.558594 399.984375 L 194.402344 381.414062 Z M 196.007812 381.097656 "/>
<path style=" stroke:none;fill-rule:nonzero;fill:rgb(13.72549%,12.156863%,12.54902%);fill-opacity:1;" d="M 190.046875 406.171875 C 194.621094 407.445312 199.289062 408.558594 204.03125 409.503906 C 208.175781 410.441406 212.507812 410.925781 216.867188 410.933594 C 226.042969 410.945312 235.089844 409.421875 243.230469 406.488281 C 236.300781 411.648438 226.585938 414.578125 216.410156 414.585938 C 206.558594 414.011719 197.269531 411.160156 190.046875 406.488281 Z M 190.046875 406.171875 "/>
<path style=" stroke:none;fill-rule:nonzero;fill:rgb(13.72549%,12.156863%,12.54902%);fill-opacity:1;" d="M 83.445312 376.96875 C 79.191406 375.011719 76.820312 371.605469 77.257812 368.082031 C 78.222656 364.667969 80.34375 361.457031 83.445312 358.71875 C 85.503906 355.320312 88.824219 352.363281 93.074219 350.148438 C 98.226562 348.011719 104.65625 348.011719 109.808594 350.148438 C 114.609375 352.617188 117.144531 356.667969 116.457031 360.78125 C 114.902344 364.292969 112.058594 367.464844 108.203125 369.988281 C 104.996094 372.527344 102.472656 375.859375 97.660156 377.289062 C 93.203125 379.015625 87.730469 378.894531 83.445312 376.96875 Z M 83.445312 376.96875 C 87.6875 378.703125 92.957031 378.703125 97.199219 376.96875 C 101.554688 375.382812 103.160156 371.890625 105.910156 369.035156 C 108.664062 366.179688 111.644531 363.320312 111.644531 360.621094 C 111.882812 357.796875 109.96875 355.085938 106.601562 353.480469 C 103.316406 351.871094 99.050781 351.566406 95.367188 352.6875 C 91.46875 353.640625 88.949219 356.8125 85.738281 359.351562 C 82.527344 361.894531 78.859375 364.433594 78.171875 367.765625 C 77.132812 371.285156 79.203125 374.898438 83.445312 376.96875 Z M 83.445312 376.96875 "/>
<path style=" stroke:none;fill-rule:nonzero;fill:rgb(13.72549%,12.156863%,12.54902%);fill-opacity:1;" d="M 114.851562 392.363281 L 106.828125 388.714844 C 103.691406 387.8125 101.5 385.8125 101.097656 383.476562 C 101.375 381.171875 102.746094 378.996094 104.996094 377.289062 L 110.039062 371.574219 L 120.125 360.304688 C 121.839844 358.183594 123.917969 356.210938 126.316406 354.433594 C 129.933594 352.605469 134.84375 352.605469 138.464844 354.433594 L 146.257812 358.402344 C 149.890625 359.699219 152.25 362.238281 152.449219 365.066406 C 152.539062 366.5 151.886719 367.90625 150.613281 369.035156 L 147.636719 371.734375 L 141.675781 376.96875 L 129.984375 387.445312 C 128.253906 389.324219 126.257812 391.078125 124.023438 392.683594 C 121.210938 394.019531 117.457031 393.890625 114.851562 392.363281 Z M 114.851562 392.363281 C 117.515625 393.714844 121.132812 393.714844 123.792969 392.363281 C 125.808594 390.660156 127.648438 388.855469 129.296875 386.96875 L 139.382812 375.699219 L 144.425781 369.988281 C 146.257812 367.921875 148.09375 366.335938 147.636719 364.90625 C 147.175781 363.480469 140.070312 360.304688 135.253906 357.609375 C 133.582031 356.679688 131.199219 356.679688 129.523438 357.609375 C 127.496094 359.082031 125.65625 360.675781 124.023438 362.367188 L 112.332031 372.84375 L 106.371094 378.082031 C 104.535156 379.984375 101.785156 381.414062 102.015625 383.636719 C 102.273438 385.828125 104.191406 387.761719 107.058594 388.714844 Z M 114.851562 392.363281 "/>
<path style=" stroke:none;fill-rule:nonzero;fill:rgb(13.72549%,12.156863%,12.54902%);fill-opacity:1;" d="M 135.714844 400.457031 C 129.890625 397.671875 127.230469 392.652344 129.066406 387.921875 C 132.054688 383.625 135.503906 379.484375 139.382812 375.542969 C 142.640625 371.289062 146.558594 367.296875 151.074219 363.636719 C 157.40625 359.929688 166.546875 359.625 173.363281 362.894531 C 180.179688 366.167969 182.980469 372.199219 180.1875 377.605469 C 176.882812 381.875 172.882812 385.867188 168.265625 389.507812 C 164.28125 393.40625 159.832031 397.070312 154.972656 400.457031 C 149.21875 403.320312 141.46875 403.320312 135.714844 400.457031 Z M 135.714844 400.457031 C 141.347656 403.21875 148.878906 403.21875 154.511719 400.457031 C 158.851562 396.890625 162.621094 393.007812 165.746094 388.875 C 169.476562 385.144531 172.773438 381.21875 175.601562 377.128906 C 177.03125 373.210938 174.796875 369.09375 170 366.792969 C 165.199219 364.496094 158.84375 364.503906 154.054688 366.8125 C 149.484375 370.042969 145.34375 373.546875 141.675781 377.289062 C 137.226562 380.753906 133.308594 384.53125 129.984375 388.554688 C 128.09375 392.964844 130.382812 397.71875 135.714844 400.457031 Z M 135.714844 400.457031 "/>
<path style=" stroke:none;fill-rule:nonzero;fill:rgb(13.72549%,12.156863%,12.54902%);fill-opacity:1;" d="M 170.101562 414.585938 L 162.308594 411.09375 C 159.339844 410.125 157.210938 408.242188 156.574219 406.015625 C 156.449219 403.789062 157.605469 401.621094 159.785156 399.984375 L 164.597656 394.429688 L 174.457031 383.476562 C 176.089844 381.40625 178.09375 379.488281 180.417969 377.761719 C 184.027344 376.101562 188.726562 376.101562 192.339844 377.761719 L 199.902344 381.574219 C 203.347656 382.808594 205.730469 385.109375 206.320312 387.761719 C 206.445312 390.34375 204.9375 392.835938 202.195312 394.585938 L 196.464844 399.664062 L 185.003906 409.824219 C 183.210938 411.621094 181.21875 413.320312 179.042969 414.902344 C 176.246094 416.0625 172.710938 415.9375 170.101562 414.585938 Z M 170.101562 414.585938 C 172.714844 415.859375 176.199219 415.859375 178.8125 414.585938 C 180.953125 413.058594 182.800781 411.355469 184.316406 409.503906 L 193.941406 398.554688 L 198.757812 393 C 200.589844 390.9375 201.964844 389.667969 201.507812 388.238281 C 201.050781 386.808594 193.714844 383.636719 189.128906 381.097656 C 187.476562 380.300781 185.28125 380.300781 183.625 381.097656 C 181.675781 382.519531 179.910156 384.058594 178.355469 385.699219 L 166.890625 395.855469 L 161.160156 400.933594 C 159.328125 402.679688 157.035156 404.109375 157.492188 406.332031 C 157.859375 408.417969 159.769531 410.222656 162.535156 411.09375 Z M 170.101562 414.585938 "/>
<path style=" stroke:none;fill-rule:nonzero;fill:rgb(13.72549%,12.156863%,12.54902%);fill-opacity:1;" d="M 362.667969 347.925781 C 352.734375 339.671875 344.554688 330.480469 338.367188 320.628906 C 331.914062 310.949219 329 300.320312 329.886719 289.679688 C 329.941406 300.203125 333.71875 310.554688 340.890625 319.835938 C 347.898438 329.039062 356.609375 337.574219 366.796875 345.226562 C 367.871094 346.015625 367.820312 347.261719 366.679688 348.003906 C 365.539062 348.75 363.746094 348.714844 362.667969 347.925781 Z M 362.667969 347.925781 "/>
<path style="fill:none;stroke-width:0.25;stroke-linecap:round;stroke-linejoin:miter;stroke:rgb(13.72549%,12.156863%,12.54902%);stroke-opacity:1;stroke-miterlimit:10;" d="M 8.320044 10.860076 L 8.030032 11.439948 " transform="matrix(22.924684,0,0,15.870935,0,1.781072)"/>
<path style="fill:none;stroke-width:0.25;stroke-linecap:round;stroke-linejoin:miter;stroke:rgb(13.72549%,12.156863%,12.54902%);stroke-opacity:1;stroke-miterlimit:10;" d="M 8.760004 10.880012 L 8.469991 11.459885 " transform="matrix(22.924684,0,0,15.870935,0,1.781072)"/>
<path style="fill:none;stroke-width:0.25;stroke-linecap:round;stroke-linejoin:miter;stroke:rgb(13.72549%,12.156863%,12.54902%);stroke-opacity:1;stroke-miterlimit:10;" d="M 9.19008 10.849984 L 8.760004 11.649894 " transform="matrix(22.924684,0,0,15.870935,0,1.781072)"/>
<path style="fill:none;stroke-width:0.25;stroke-linecap:round;stroke-linejoin:miter;stroke:rgb(13.72549%,12.156863%,12.54902%);stroke-opacity:1;stroke-miterlimit:10;" d="M 9.63004 10.849984 L 9.340028 11.430103 " transform="matrix(22.924684,0,0,15.870935,0,1.781072)"/>
<path style="fill:none;stroke-width:0.25;stroke-linecap:round;stroke-linejoin:miter;stroke:rgb(13.72549%,12.156863%,12.54902%);stroke-opacity:1;stroke-miterlimit:10;" d="M 10.07 10.860076 L 9.679966 11.590085 " transform="matrix(22.924684,0,0,15.870935,0,1.781072)"/>
<path style="fill:none;stroke-width:0.25;stroke-linecap:round;stroke-linejoin:miter;stroke:rgb(13.72549%,12.156863%,12.54902%);stroke-opacity:1;stroke-miterlimit:10;" d="M 15.810064 3.199987 C 15.904122 2.546768 16.154603 1.925792 16.540036 1.389976 " transform="matrix(22.924684,0,0,15.870935,-176.749313,1.939781)"/>
<path style="fill:none;stroke-width:0.25;stroke-linecap:round;stroke-linejoin:miter;stroke:rgb(13.72549%,12.156863%,12.54902%);stroke-opacity:1;stroke-miterlimit:10;" d="M 11.190006 4.169878 L 10.47997 4.92007 " transform="matrix(22.924684,0,0,15.870935,0,1.781072)"/>
<path style="fill:none;stroke-width:0.25;stroke-linecap:round;stroke-linejoin:miter;stroke:rgb(13.72549%,12.156863%,12.54902%);stroke-opacity:1;stroke-miterlimit:10;" d="M 11.190006 4.959943 L 10.400055 5.849934 " transform="matrix(22.924684,0,0,15.870935,0,1.781072)"/>
<path style="fill:none;stroke-width:0.25;stroke-linecap:round;stroke-linejoin:miter;stroke:rgb(13.72549%,12.156863%,12.54902%);stroke-opacity:1;stroke-miterlimit:10;" d="M 11.190006 5.760098 L 10.309916 6.700054 " transform="matrix(22.924684,0,0,15.870935,0,1.781072)"/>
<path style="fill:none;stroke-width:0.25;stroke-linecap:round;stroke-linejoin:miter;stroke:rgb(13.72549%,12.156863%,12.54902%);stroke-opacity:1;stroke-miterlimit:10;" d="M 11.190006 6.549917 L 10.020074 7.819927 " transform="matrix(22.924684,0,0,15.870935,0,1.781072)"/>
<path style="fill:none;stroke-width:0.25;stroke-linecap:round;stroke-linejoin:miter;stroke:rgb(13.72549%,12.156863%,12.54902%);stroke-opacity:1;stroke-miterlimit:10;" d="M 11.190006 7.350072 L 10.47997 8.100018 " transform="matrix(22.924684,0,0,15.870935,0,1.781072)"/>
<path style="fill:none;stroke-width:0.25;stroke-linecap:round;stroke-linejoin:miter;stroke:rgb(13.72549%,12.156863%,12.54902%);stroke-opacity:1;stroke-miterlimit:10;" d="M 11.190006 8.139891 L 10.47997 8.899928 " transform="matrix(22.924684,0,0,15.870935,0,1.781072)"/>
<path style="fill:none;stroke-width:0.25;stroke-linecap:round;stroke-linejoin:miter;stroke:rgb(13.72549%,12.156863%,12.54902%);stroke-opacity:1;stroke-miterlimit:10;" d="M 11.190006 9.629938 L 10.47997 10.389975 " transform="matrix(22.924684,0,0,15.870935,0,1.781072)"/>
<path style="fill:none;stroke-width:0.25;stroke-linecap:round;stroke-linejoin:miter;stroke:rgb(13.72549%,12.156863%,12.54902%);stroke-opacity:1;stroke-miterlimit:10;" d="M 11.190006 8.929955 L 9.830084 10.430093 " transform="matrix(22.924684,0,0,15.870935,0,1.781072)"/>
<path style="fill:none;stroke-width:0.25;stroke-linecap:round;stroke-linejoin:miter;stroke:rgb(13.72549%,12.156863%,12.54902%);stroke-opacity:1;stroke-miterlimit:10;" d="M 16.060033 5.670107 C 16.060033 5.670107 16.060033 5.130107 16.540036 5.130107 " transform="matrix(22.924684,0,0,15.870935,-176.749313,1.939781)"/>
<path style="fill:none;stroke-width:0.25;stroke-linecap:round;stroke-linejoin:round;stroke:rgb(13.72549%,12.156863%,12.54902%);stroke-opacity:1;stroke-miterlimit:4;" d="M 7.529923 9.210047 L 8.309991 8.849964 L 7.750073 9.439928 L 8.160043 9.439928 L 8.390076 9.219892 " transform="matrix(22.924684,0,0,15.870935,0,1.781072)"/>
<path style="fill:none;stroke-width:0.25;stroke-linecap:round;stroke-linejoin:miter;stroke:rgb(13.72549%,12.156863%,12.54902%);stroke-opacity:1;stroke-miterlimit:10;" d="M 2.299991 18.319909 L 2.929941 19.729965 " transform="matrix(22.924684,0,0,15.870935,0,1.781072)"/>
<path style="fill:none;stroke-width:0.25;stroke-linecap:round;stroke-linejoin:miter;stroke:rgb(13.72549%,12.156863%,12.54902%);stroke-opacity:1;stroke-miterlimit:10;" d="M 2.060075 18.800101 L 2.690025 20.209911 " transform="matrix(22.924684,0,0,15.870935,0,1.781072)"/>
<path style="fill:none;stroke-width:0.25;stroke-linecap:round;stroke-linejoin:miter;stroke:rgb(13.72549%,12.156863%,12.54902%);stroke-opacity:1;stroke-miterlimit:10;" d="M 1.779945 19.099882 L 2.500034 20.680011 " transform="matrix(22.924684,0,0,15.870935,0,1.781072)"/>
<path style="fill:none;stroke-width:0.25;stroke-linecap:round;stroke-linejoin:miter;stroke:rgb(13.72549%,12.156863%,12.54902%);stroke-opacity:1;stroke-miterlimit:10;" d="M 1.740073 19.749901 L 2.380076 21.159957 " transform="matrix(22.924684,0,0,15.870935,0,1.781072)"/>
<path style="fill:none;stroke-width:0.25;stroke-linecap:round;stroke-linejoin:miter;stroke:rgb(13.72549%,12.156863%,12.54902%);stroke-opacity:1;stroke-miterlimit:10;" d="M 2.690025 18.429927 L 3.159974 19.369883 " transform="matrix(22.924684,0,0,15.870935,0,1.781072)"/>
<path style="fill:none;stroke-width:0.25;stroke-linecap:round;stroke-linejoin:miter;stroke:rgb(13.72549%,12.156863%,12.54902%);stroke-opacity:1;stroke-miterlimit:10;" d="M 3.010027 18.139991 L 3.330028 18.900028 " transform="matrix(22.924684,0,0,15.870935,0,1.781072)"/>
<path style="fill:none;stroke-width:0.25;stroke-linecap:round;stroke-linejoin:miter;stroke:rgb(13.72549%,12.156863%,12.54902%);stroke-opacity:1;stroke-miterlimit:10;" d="M 1.359922 20.699948 L 1.990042 22.110003 " transform="matrix(22.924684,0,0,15.870935,0,1.781072)"/>
<path style="fill:none;stroke-width:0.25;stroke-linecap:round;stroke-linejoin:miter;stroke:rgb(13.72549%,12.156863%,12.54902%);stroke-opacity:1;stroke-miterlimit:10;" d="M 1.570019 20.250029 L 2.199969 21.660085 " transform="matrix(22.924684,0,0,15.870935,0,1.781072)"/>
<path style="fill:none;stroke-width:0.25;stroke-linecap:round;stroke-linejoin:miter;stroke:rgb(13.72549%,12.156863%,12.54902%);stroke-opacity:1;stroke-miterlimit:10;" d="M 15.64004 16.699908 L 15.42006 17.749881 " transform="matrix(22.924684,0,0,15.870935,0,1.781072)"/>
<path style="fill:none;stroke-width:0.25;stroke-linecap:round;stroke-linejoin:miter;stroke:rgb(13.72549%,12.156863%,12.54902%);stroke-opacity:1;stroke-miterlimit:10;" d="M 15.86002 17.020117 L 15.64004 18.070091 " transform="matrix(22.924684,0,0,15.870935,0,1.781072)"/>
<path style="fill:none;stroke-width:0.25;stroke-linecap:round;stroke-linejoin:miter;stroke:rgb(13.72549%,12.156863%,12.54902%);stroke-opacity:1;stroke-miterlimit:10;" d="M 16.129925 17.619927 L 15.909945 18.6699 " transform="matrix(22.924684,0,0,15.870935,0,1.781072)"/>
<path style="fill:none;stroke-width:0.25;stroke-linecap:round;stroke-linejoin:miter;stroke:rgb(13.72549%,12.156863%,12.54902%);stroke-opacity:1;stroke-miterlimit:10;" d="M 16.380065 18.070091 L 16.160085 19.120065 " transform="matrix(22.924684,0,0,15.870935,0,1.781072)"/>
<path style="fill:none;stroke-width:0.25;stroke-linecap:round;stroke-linejoin:miter;stroke:rgb(13.72549%,12.156863%,12.54902%);stroke-opacity:1;stroke-miterlimit:10;" d="M 16.600045 18.429927 L 16.380065 19.479901 " transform="matrix(22.924684,0,0,15.870935,0,1.781072)"/>
<path style="fill:none;stroke-width:0.25;stroke-linecap:round;stroke-linejoin:miter;stroke:rgb(13.72549%,12.156863%,12.54902%);stroke-opacity:1;stroke-miterlimit:10;" d="M 16.860068 18.900028 L 16.639917 19.950002 " transform="matrix(22.924684,0,0,15.870935,0,1.781072)"/>
<path style="fill:none;stroke-width:0.25;stroke-linecap:round;stroke-linejoin:miter;stroke:rgb(13.72549%,12.156863%,12.54902%);stroke-opacity:1;stroke-miterlimit:10;" d="M 17.180069 19.369883 L 16.969972 20.420102 " transform="matrix(22.924684,0,0,15.870935,0,1.781072)"/>
<path style="fill:none;stroke-width:0.25;stroke-linecap:round;stroke-linejoin:miter;stroke:rgb(13.72549%,12.156863%,12.54902%);stroke-opacity:1;stroke-miterlimit:10;" d="M 17.400049 20.019901 L 17.180069 21.070121 " transform="matrix(22.924684,0,0,15.870935,0,1.781072)"/>
<path style=" stroke:none;fill-rule:nonzero;fill:rgb(13.72549%,12.156863%,12.54902%);fill-opacity:1;" d="M 195.777344 315.230469 C 196.5 311.570312 199.410156 308.289062 203.800781 306.1875 C 206.109375 305.136719 208.671875 304.382812 211.367188 303.964844 C 214.117188 303.722656 216.910156 304.054688 219.390625 304.914062 C 215.003906 305.910156 210.894531 307.410156 207.238281 309.359375 C 203.34375 310.945312 200.363281 313.167969 195.777344 315.230469 Z M 195.777344 315.230469 "/>
<path style="fill:none;stroke-width:0.25;stroke-linecap:round;stroke-linejoin:miter;stroke:rgb(13.72549%,12.156863%,12.54902%);stroke-opacity:1;stroke-miterlimit:10;" d="M 11.829979 17.65989 C 11.829979 17.65989 11.949937 18.209982 14.419982 17.840054 " transform="matrix(22.924684,0,0,15.870935,-176.749313,1.939781)"/>
</g>
</svg>
