<?xml version="1.0" encoding="utf-8"?>
<!-- Generator: Adobe Illustrator 23.0.1, SVG Export Plug-In . SVG Version: 6.00 Build 0)  -->
<svg version="1.1" id="Ebene_1" xmlns="http://www.w3.org/2000/svg" xmlns:xlink="http://www.w3.org/1999/xlink" x="0px" y="0px"
	 viewBox="0 0 466.87 172.12" style="enable-background:new 0 0 466.87 172.12;" xml:space="preserve">
<style type="text/css">
	.st0{fill:#002D73;}
	.st1{fill:#E3312A;}
	.st2{fill:#FFFFFF;}
</style>
<g>
	<g>
		<g>
			<path class="st0" d="M332.29,64.36c0-1.66,0.98-2.51,2.6-2.5h5.84c5.37-0.01,9.75,2.39,9.75,7.98c0.04,5.59-4.38,8.05-9.75,8.02
				l-8.44-0.01V64.36 M308.23,107.9h24.08l-0.03-23.25l7.35,0.02l13.5,23.22h24.64l-16.68-24.32c7.37-1.71,12.87-6.04,12.56-14.02
				c-0.25-6.65-4.81-12.2-15.37-14.14c-3.34-0.6-6.47-0.72-11-0.79h-31.43c-4.79,0.07-7.63,2.75-7.63,7.65L308.23,107.9
				 M302.36,62.09v-7.44h-41.7c-4.79,0-7.6,2.71-7.6,7.58v45.64l49.55,0.01v-7.37h-25.44V84.54h24.62v-7.4h-24.62V64.58
				c0-1.66,0.98-2.53,2.6-2.5L302.36,62.09 M247.59,54.66h-24.76c-5.74,0-9.88,0.09-14.06,1.4c-5.92,1.85-9.63,5.87-9.95,10.96
				c-0.35,6.38,4.19,11.34,12.84,15.72c2.17,1.11,4.6,2.48,6.82,3.69c4.77,2.59,8,4.89,7.91,8.35c-0.14,4.74-4.69,5.63-10.2,5.65
				h-17.62v7.46c0,0,16.95,0.01,26.28,0c22.49-0.02,24.42-9.46,24.44-14.75c0.06-5.58-1.9-10.36-12.55-16.09
				c-4.87-2.62-8.81-4.91-11.86-6.79c-2.74-1.7-3.5-3.61-2.87-5.46c0.64-1.88,2.65-2.75,6.23-2.75h19.33v-7.39 M196.27,54.66h-24.75
				c-5.72,0-9.91,0.06-14.06,1.38c-5.91,1.84-9.66,5.87-9.97,10.95c-0.34,6.41,4.19,11.36,12.87,15.74
				c2.16,1.11,4.56,2.46,6.81,3.69c4.79,2.57,8,4.89,7.91,8.35c-0.17,4.73-4.69,5.64-10.19,5.65h-17.47v7.45c0,0,16.78,0.02,26.12,0
				c22.5-0.02,24.41-9.46,24.47-14.75c0.06-5.56-1.91-10.35-12.56-16.08c-4.88-2.62-8.85-4.92-11.88-6.8
				c-2.72-1.69-3.5-3.6-2.87-5.45c0.62-1.88,2.65-2.75,6.25-2.75h19.31v-7.38 M67.25,107.88h19.93V54.65h-20.9
				c-2.12,0-3.48,0.71-4.47,3.15L48.87,87.77L35.93,57.74c-0.96-2.27-2.03-3.09-5.56-3.09H6.95v53.23H19.2V67.85l16.93,40.03h14.35
				l16.77-40.04V107.88 M121.49,62.09c-1.63-0.03-2.59,0.84-2.59,2.47v12.59h24.62v7.4H118.9v15.96h25.44v7.38H94.75V62.23
				c0-4.86,2.85-7.57,7.62-7.57h41.74v7.44L121.49,62.09L121.49,62.09z"/>
			<path class="st1" d="M422.52,77.99l-31.47-23.31h62.96L422.52,77.99 M419.55,12.66v36.02h-28.52L419.55,12.66 M425.52,12.66
				l28.52,36.02h-28.52L425.52,12.66 M422.55,5.85c-21.8,0-39.46,17.69-39.46,39.46c0,21.8,17.66,39.48,39.46,39.48
				c21.78,0,39.47-17.68,39.47-39.48C462.02,23.54,444.33,5.85,422.55,5.85z"/>
			<path class="st2" d="M422.52,77.99l-31.47-23.31h62.96L422.52,77.99 M419.55,12.66v36.02h-28.52L419.55,12.66 M425.52,12.66
				l28.52,36.02h-28.52L425.52,12.66"/>
		</g>
	</g>
	<g>
		<path class="st0" d="M130.82,150.85l3.5,0.88c-0.73,2.85-2.04,5.03-3.94,6.53c-1.9,1.5-4.21,2.25-6.95,2.25
			c-2.84,0-5.14-0.57-6.91-1.73c-1.78-1.15-3.13-2.82-4.05-5c-0.93-2.18-1.39-4.53-1.39-7.03c0-2.73,0.52-5.11,1.57-7.15
			c1.04-2.03,2.53-3.58,4.47-4.63c1.93-1.05,4.06-1.58,6.38-1.58c2.63,0,4.85,0.67,6.64,2.01c1.8,1.34,3.05,3.22,3.75,5.65
			l-3.44,0.8c-0.61-1.9-1.5-3.29-2.66-4.16s-2.62-1.31-4.38-1.31c-2.03,0-3.72,0.49-5.08,1.45c-1.36,0.96-2.31,2.26-2.86,3.88
			s-0.83,3.3-0.83,5.02c0,2.22,0.33,4.17,0.98,5.82c0.65,1.66,1.67,2.9,3.04,3.72c1.38,0.82,2.86,1.23,4.47,1.23
			c1.95,0,3.6-0.56,4.95-1.68C129.43,154.71,130.34,153.05,130.82,150.85z"/>
		<path class="st0" d="M150.72,160.06v-2.76c-1.47,2.13-3.46,3.2-5.99,3.2c-1.11,0-2.15-0.21-3.12-0.65
			c-0.96-0.43-1.68-0.97-2.15-1.62s-0.8-1.45-0.99-2.4c-0.13-0.63-0.2-1.64-0.2-3.02V141h3.25v10.59c0,1.69,0.06,2.83,0.19,3.42
			c0.2,0.85,0.63,1.52,1.27,2.01c0.65,0.49,1.46,0.73,2.41,0.73c0.96,0,1.85-0.25,2.69-0.75s1.43-1.18,1.78-2.04
			c0.35-0.86,0.52-2.1,0.52-3.73V141h3.25v19.06L150.72,160.06L150.72,160.06z"/>
		<path class="st0" d="M165.96,157.2l0.44,2.85c-0.91,0.19-1.73,0.29-2.44,0.29c-1.18,0-2.08-0.19-2.73-0.56s-1.1-0.86-1.36-1.46
			c-0.26-0.61-0.4-1.88-0.4-3.82v-10.97h-2.37v-2.5h2.37v-4.71l3.25-1.94v6.64h3.25v2.5h-3.25v11.17c0,0.92,0.06,1.52,0.17,1.78
			c0.12,0.26,0.3,0.47,0.56,0.63s0.63,0.24,1.1,0.24C164.9,157.34,165.38,157.29,165.96,157.2z"/>
		<path class="st0" d="M176.3,157.2l0.44,2.85c-0.91,0.19-1.72,0.29-2.44,0.29c-1.18,0-2.09-0.19-2.73-0.56
			c-0.65-0.37-1.1-0.86-1.37-1.46c-0.26-0.61-0.39-1.88-0.39-3.82v-10.97h-2.38v-2.5h2.38v-4.71l3.25-1.94v6.64h3.25v2.5h-3.25
			v11.17c0,0.92,0.06,1.52,0.17,1.78s0.3,0.47,0.56,0.63s0.62,0.24,1.1,0.24C175.25,157.34,175.72,157.29,176.3,157.2z"/>
		<path class="st0" d="M179.58,137.51v-3.69h3.25v3.69H179.58z M179.58,160.06V141h3.25v19.06H179.58z"/>
		<path class="st0" d="M187.88,160.06V141h2.94v2.7c1.39-2.09,3.4-3.14,6.03-3.14c1.14,0,2.19,0.2,3.15,0.62
			c0.96,0.41,1.67,0.96,2.15,1.62c0.48,0.67,0.81,1.47,1,2.38c0.12,0.6,0.18,1.65,0.18,3.14v11.72h-3.25v-11.59
			c0-1.32-0.13-2.3-0.38-2.95c-0.25-0.65-0.69-1.17-1.32-1.56c-0.63-0.39-1.38-0.58-2.23-0.58c-1.36,0-2.54,0.44-3.53,1.31
			s-1.48,2.53-1.48,4.97v10.41L187.88,160.06L187.88,160.06z"/>
		<path class="st0" d="M207.81,161.69l3.12,0.44c0.13,0.96,0.5,1.67,1.1,2.11c0.8,0.59,1.9,0.89,3.29,0.89c1.5,0,2.65-0.3,3.47-0.89
			c0.82-0.61,1.37-1.44,1.66-2.52c0.17-0.66,0.25-2.04,0.23-4.14c-1.41,1.66-3.17,2.5-5.27,2.5c-2.62,0-4.64-0.95-6.08-2.84
			c-1.43-1.89-2.15-4.16-2.15-6.81c0-1.82,0.33-3.5,0.99-5.04s1.61-2.72,2.86-3.56s2.72-1.25,4.4-1.25c2.24,0,4.1,0.91,5.56,2.75
			v-2.31h2.94v16.48c0,2.97-0.3,5.07-0.9,6.31s-1.56,2.22-2.87,2.94c-1.31,0.71-2.92,1.08-4.83,1.08c-2.27,0-4.1-0.51-5.5-1.52
			C208.44,165.27,207.76,163.74,207.81,161.69z M210.5,150.19c0,2.5,0.5,4.32,1.48,5.46c0.99,1.15,2.23,1.72,3.72,1.72
			c1.48,0,2.72-0.57,3.73-1.71c1-1.14,1.5-2.93,1.5-5.37c0-2.33-0.52-4.09-1.55-5.27s-2.28-1.77-3.73-1.77
			c-1.43,0-2.65,0.58-3.65,1.75C211,146.17,210.5,147.9,210.5,150.19z"/>
		<path class="st0" d="M238.58,151.63l3.25-0.31c0.15,1.31,0.51,2.39,1.08,3.24c0.56,0.84,1.44,1.53,2.63,2.05
			c1.18,0.52,2.52,0.78,4,0.78c1.32,0,2.48-0.2,3.49-0.59c1.01-0.39,1.76-0.94,2.25-1.62c0.49-0.69,0.74-1.43,0.74-2.24
			s-0.23-1.53-0.7-2.13c-0.47-0.61-1.25-1.12-2.33-1.54c-0.7-0.27-2.24-0.7-4.63-1.27c-2.39-0.57-4.06-1.12-5.04-1.63
			c-1.26-0.66-2.19-1.47-2.81-2.44c-0.61-0.97-0.92-2.07-0.92-3.27c0-1.33,0.38-2.56,1.12-3.72c0.75-1.15,1.84-2.02,3.28-2.62
			s3.03-0.9,4.79-0.9c1.93,0,3.64,0.32,5.12,0.94c1.48,0.63,2.61,1.56,3.41,2.78c0.79,1.22,1.22,2.6,1.28,4.15l-3.31,0.25
			c-0.18-1.65-0.78-2.89-1.8-3.74c-1.03-0.84-2.54-1.26-4.53-1.26c-2.08,0-3.6,0.38-4.55,1.15c-0.95,0.77-1.43,1.69-1.43,2.77
			c0,0.94,0.34,1.71,1.01,2.32c0.66,0.61,2.39,1.23,5.19,1.86c2.79,0.63,4.72,1.19,5.77,1.67c1.52,0.7,2.65,1.59,3.38,2.67
			c0.73,1.08,1.09,2.32,1.09,3.72c0,1.39-0.4,2.7-1.2,3.94c-0.8,1.23-1.94,2.19-3.43,2.87s-3.17,1.03-5.04,1.03
			c-2.37,0-4.35-0.35-5.95-1.04s-2.85-1.73-3.76-3.12C239.11,154.95,238.63,153.38,238.58,151.63z"/>
		<path class="st0" d="M263.77,167.42l-0.44-3.01c0.71,0.19,1.34,0.28,1.88,0.28c0.72,0,1.31-0.12,1.75-0.36s0.8-0.58,1.08-1.01
			c0.21-0.32,0.54-1.12,1-2.4c0.06-0.18,0.16-0.44,0.29-0.79l-7.25-19.12h3.47l3.97,10.95c0.52,1.39,0.98,2.85,1.38,4.38
			c0.38-1.4,0.83-2.8,1.35-4.21l4.08-11.12h3.22l-7.23,19.37c-0.78,2.1-1.39,3.54-1.82,4.34c-0.58,1.07-1.23,1.85-1.98,2.35
			c-0.75,0.49-1.63,0.74-2.67,0.74C265.23,167.81,264.53,167.68,263.77,167.42z"/>
		<path class="st0" d="M281.14,154.32l3.18-0.44c0.18,1.29,0.69,2.28,1.51,2.97c0.83,0.69,1.98,1.03,3.46,1.03
			c1.49,0,2.6-0.3,3.32-0.92c0.72-0.61,1.08-1.32,1.08-2.15c0-0.73-0.31-1.31-0.92-1.74c-0.43-0.29-1.54-0.66-3.31-1.11
			c-2.39-0.6-4.05-1.11-4.97-1.55s-1.61-1.04-2.08-1.81s-0.71-1.62-0.71-2.56c0-0.85,0.19-1.63,0.59-2.36
			c0.39-0.72,0.92-1.33,1.59-1.8c0.5-0.37,1.19-0.69,2.06-0.94c0.87-0.26,1.81-0.39,2.8-0.39c1.5,0,2.82,0.21,3.95,0.64
			c1.14,0.43,1.97,1.01,2.51,1.74c0.54,0.73,0.91,1.71,1.12,2.94l-3.13,0.44c-0.14-0.98-0.56-1.75-1.26-2.3s-1.68-0.82-2.95-0.82
			c-1.5,0-2.57,0.25-3.21,0.74c-0.64,0.49-0.96,1.07-0.96,1.74c0,0.43,0.13,0.81,0.4,1.15c0.26,0.35,0.68,0.64,1.25,0.87
			c0.33,0.12,1.29,0.4,2.88,0.84c2.31,0.61,3.91,1.11,4.8,1.49c0.89,0.39,1.59,0.96,2.1,1.7c0.51,0.74,0.76,1.66,0.76,2.76
			c0,1.08-0.31,2.09-0.94,3.04s-1.54,1.68-2.73,2.2c-1.19,0.52-2.53,0.78-4.03,0.78c-2.48,0-4.38-0.52-5.68-1.56
			C282.33,157.9,281.49,156.36,281.14,154.32z"/>
		<path class="st0" d="M308,157.2l0.44,2.85c-0.91,0.19-1.72,0.29-2.45,0.29c-1.18,0-2.09-0.19-2.73-0.56s-1.1-0.86-1.37-1.46
			c-0.26-0.61-0.39-1.88-0.39-3.82v-10.97h-2.38v-2.5h2.38v-4.71l3.25-1.94v6.64H308v2.5h-3.25v11.17c0,0.92,0.06,1.52,0.17,1.78
			c0.11,0.26,0.3,0.47,0.56,0.63s0.63,0.24,1.11,0.24C306.94,157.34,307.41,157.29,308,157.2z"/>
		<path class="st0" d="M324.31,153.94l3.3,0.44c-0.52,1.94-1.5,3.45-2.92,4.52c-1.42,1.07-3.24,1.61-5.45,1.61
			c-2.79,0-4.99-0.86-6.63-2.58c-1.63-1.72-2.45-4.13-2.45-7.23c0-3.21,0.82-5.7,2.47-7.47s3.79-2.65,6.43-2.65
			c2.54,0,4.62,0.87,6.24,2.61s2.42,4.19,2.42,7.34c0,0.19-0.01,0.48-0.02,0.86h-14.23c0.12,2.1,0.72,3.71,1.78,4.82
			c1.07,1.12,2.4,1.67,4,1.67c1.19,0,2.21-0.31,3.05-0.94C323.15,156.31,323.81,155.31,324.31,153.94z M313.66,148.75h10.69
			c-0.14-1.63-0.55-2.85-1.22-3.67c-1.04-1.26-2.38-1.89-4.02-1.89c-1.49,0-2.74,0.51-3.76,1.52
			C314.33,145.71,313.76,147.06,313.66,148.75z"/>
		<path class="st0" d="M331.84,160.06V141h2.93v2.68c0.6-0.94,1.39-1.69,2.37-2.26c0.99-0.57,2.12-0.85,3.38-0.85
			c1.41,0,2.56,0.29,3.46,0.88s1.54,1.41,1.9,2.47c1.51-2.23,3.48-3.35,5.91-3.35c1.9,0,3.35,0.52,4.37,1.57
			c1.02,1.04,1.53,2.66,1.53,4.84v13.09h-3.25v-12c0-1.29-0.11-2.22-0.31-2.79c-0.21-0.57-0.59-1.03-1.14-1.37
			c-0.55-0.35-1.2-0.52-1.94-0.52c-1.34,0-2.45,0.44-3.34,1.33c-0.89,0.89-1.33,2.32-1.33,4.28v11.07h-3.25v-12.38
			c0-1.44-0.26-2.51-0.79-3.23s-1.38-1.08-2.57-1.08c-0.9,0-1.75,0.24-2.51,0.72c-0.77,0.48-1.33,1.18-1.67,2.1
			c-0.34,0.92-0.52,2.25-0.52,3.98v9.88H331.84z"/>
		<path class="st0" d="M361.24,154.32l3.19-0.44c0.18,1.29,0.69,2.28,1.51,2.97c0.83,0.69,1.98,1.03,3.46,1.03
			c1.5,0,2.6-0.3,3.32-0.92c0.72-0.61,1.08-1.32,1.08-2.15c0-0.73-0.31-1.31-0.92-1.74c-0.43-0.29-1.53-0.66-3.31-1.11
			c-2.39-0.6-4.05-1.11-4.97-1.55s-1.61-1.04-2.08-1.81c-0.48-0.77-0.71-1.62-0.71-2.56c0-0.85,0.19-1.63,0.58-2.36
			c0.39-0.72,0.92-1.33,1.59-1.8c0.51-0.37,1.19-0.69,2.07-0.94c0.87-0.26,1.8-0.39,2.8-0.39c1.5,0,2.82,0.21,3.95,0.64
			c1.14,0.43,1.97,1.01,2.51,1.74c0.54,0.73,0.92,1.71,1.12,2.94l-3.12,0.44c-0.15-0.98-0.56-1.75-1.26-2.3
			c-0.69-0.55-1.68-0.82-2.95-0.82c-1.5,0-2.56,0.25-3.2,0.74s-0.96,1.07-0.96,1.74c0,0.43,0.13,0.81,0.4,1.15
			c0.26,0.35,0.68,0.64,1.25,0.87c0.33,0.12,1.29,0.4,2.88,0.84c2.31,0.61,3.91,1.11,4.8,1.49c0.89,0.39,1.59,0.96,2.09,1.7
			c0.51,0.74,0.76,1.66,0.76,2.76c0,1.08-0.31,2.09-0.94,3.04s-1.54,1.68-2.73,2.2c-1.19,0.52-2.53,0.78-4.03,0.78
			c-2.48,0-4.38-0.52-5.68-1.56C362.42,157.9,361.6,156.36,361.24,154.32z"/>
	</g>
</g>
</svg>
