<svg id="Layer_6" data-name="Layer 6" xmlns="http://www.w3.org/2000/svg" viewBox="0 0 32 26"><defs><style>.cls-1{fill:#231f20;}.cls-2{fill:none;}.cls-2,.cls-4{stroke:#231f20;stroke-linecap:round;stroke-miterlimit:10;stroke-width:0.25px;}.cls-3{font-size:1.79px;font-family:DMSans-Bold, DM Sans;font-weight:700;}.cls-4{fill:#fff;}</style></defs><path class="cls-1" d="M19.58,19.67l-5.94.21L7.7,20,6.22,20H5.47a1,1,0,0,1-1-.53A1,1,0,0,1,4.38,19v-2.6l0-5.94,0-3V6.7a3.56,3.56,0,0,1,0-.44,1.11,1.11,0,0,1,.27-.54,1.07,1.07,0,0,1,.52-.31,1,1,0,0,1,.29,0h.93c2,0,4,0,5.94.06l5.94.12,5.94.21,0,0,0,0H5.62A.78.78,0,0,0,5,6a.86.86,0,0,0-.15.67V18.58a1.64,1.64,0,0,0,.08.71c.25.47.86.27,1.33.31H19.58s0,0,0,0A0,0,0,0,1,19.58,19.67Z"/><path class="cls-1" d="M25.61,8.36c.18,1.13.26,2.26.33,3.38S26,14,26,15.13s0,2.26-.1,3.39l0,.42a1,1,0,0,1-.18.56.93.93,0,0,1-.48.35.73.73,0,0,1-.29,0h-.22c-.56-.07-1.13-.12-1.69-.21a0,0,0,0,1,0,0s0,0,0,0h1.69a.7.7,0,0,0,.71-.28c.15-.23.08-.54.1-.81l0-3.39,0-6.77s0,0,0,0A0,0,0,0,1,25.61,8.36Z"/><path class="cls-1" d="M1.21,23.34C3.12,21,5,18.61,7,16.3s4-4.61,6-6.91h0l0,0a2.59,2.59,0,0,1,.87-.45,8.12,8.12,0,0,1,.81-.22c.53-.12,1.06-.22,1.58-.31l3.16-.47c1.05-.16,2.09-.32,3.13-.51.51-.09,1-.19,1.53-.32a3.8,3.8,0,0,0,1.32-.54l0,0c1.41-1.65,2.85-3.26,4.29-4.87a.06.06,0,0,1,.1.08l-4.14,5h0a4,4,0,0,1-1.45.66c-.51.15-1,.27-1.55.38-1,.21-2.09.37-3.14.54l-3.14.51c-.52.09-1,.19-1.56.31a4.09,4.09,0,0,0-1.46.55h0L1.24,23.37h0S1.2,23.35,1.21,23.34Z"/><polygon class="cls-1" points="30.13 3.36 29.48 2.09 28.11 1.68 31.11 0.12 30.13 3.36"/><line class="cls-2" x1="11.48" y1="17.83" x2="11.48" y2="15.96"/><line class="cls-2" x1="10.43" y1="17.83" x2="10.43" y2="16.58"/><line class="cls-2" x1="9.36" y1="17.83" x2="9.36" y2="15.7"/><line class="cls-2" x1="24.4" y1="17.83" x2="24.4" y2="12.83"/><line class="cls-2" x1="23.18" y1="17.83" x2="23.18" y2="16.08"/><path class="cls-1" d="M22.46,15.33A4.72,4.72,0,0,1,16.81,19a5,5,0,0,1-3.12-2,4.77,4.77,0,0,1-.67-3.7,4.87,4.87,0,0,1,2.22-3,5,5,0,0,1,3.67-.59,4.75,4.75,0,0,1,3,2.07A4.62,4.62,0,0,1,22.46,15.33Zm0,0a4.61,4.61,0,0,0-.56-3.55,4.65,4.65,0,0,0-3-2,4.83,4.83,0,0,0-3.54.61,4.67,4.67,0,0,0-2.08,2.92,4.57,4.57,0,0,0,.59,3.53,4.86,4.86,0,0,0,3,2,4.66,4.66,0,0,0,5.6-3.54Z"/><path class="cls-1" d="M21.53,19.66l-.88-1.55,1.09,1.41a.13.13,0,0,1-.2.16Z"/><path class="cls-1" d="M20.84,20.05,20,18.58l1,1.33a.13.13,0,0,1-.2.16Z"/><path class="cls-2" d="M20.2,20.56l2.34-1.39,2.31,4.45c.29.49.35,1.53-.12,1.86h0c-.51.35-1.41-.2-1.76-.72Z"/><line class="cls-2" x1="22.95" y1="20.3" x2="21.47" y2="21.14"/><line class="cls-2" x1="24.32" y1="22.82" x2="24.08" y2="23.92"/><line class="cls-2" x1="23.89" y1="22.05" x2="23.66" y2="23.15"/><path class="cls-1" d="M14.42,12.92A3.66,3.66,0,0,1,19.29,11a3.57,3.57,0,0,1,2,4.77,3.73,3.73,0,0,1-4.95,1.92A3.5,3.5,0,0,1,14.42,12.92Zm5.06-1.46a3.63,3.63,0,0,0-4.13,1C16.73,11.11,19.48,11.46,19.48,11.46Zm-3.34,2.88h-.21v2.09h.21Zm1.73-.8h-.21v2.89h.21Zm1.72-1h-.2v3.85h.2Z"/><line class="cls-2" x1="23.45" y1="21.23" x2="23.22" y2="22.33"/><path class="cls-1" d="M5.7,17.12a45.64,45.64,0,0,1-.55-6.07A23.13,23.13,0,0,1,5.32,8a4.92,4.92,0,0,1,.16-.8l0-.2,0,0a.5.5,0,0,1,.13-.2.73.73,0,0,1,.19-.14,2,2,0,0,1,.48-.14,12.44,12.44,0,0,1,1.56-.15C10,6.19,12,6.17,14,6.26s4.05.21,6.07.38c0,0,0,0,0,0l0,0c-2,0-4.05-.07-6.07-.07s-4,0-6.06.13a12.35,12.35,0,0,0-1.49.17,1.36,1.36,0,0,0-.36.1C6,7.05,6,7.18,6,7.3A6.08,6.08,0,0,0,5.79,8a21.65,21.65,0,0,0-.21,3c0,2,0,4,.17,6.06a0,0,0,0,1,0,0Z"/><circle class="cls-1" cx="5.88" cy="17.83" r="0.56"/><circle class="cls-1" cx="26.31" cy="5.29" r="0.51"/><circle class="cls-1" cx="13.19" cy="9.34" r="0.51"/><text class="cls-3" transform="translate(6.54 9.63)">RFQ</text><line class="cls-4" x1="5.88" y1="19.64" x2="6.88" y2="18.89"/><line class="cls-4" x1="6.6" y1="19.66" x2="7.6" y2="18.9"/><line class="cls-4" x1="7.33" y1="19.66" x2="8.33" y2="18.9"/><line class="cls-4" x1="8.17" y1="19.64" x2="9.18" y2="18.89"/><line class="cls-4" x1="9.01" y1="19.64" x2="10.02" y2="18.89"/><line class="cls-4" x1="9.77" y1="19.64" x2="10.77" y2="18.89"/><line class="cls-4" x1="10.47" y1="19.64" x2="11.48" y2="18.89"/><line class="cls-4" x1="11.16" y1="19.66" x2="12.16" y2="18.9"/><line class="cls-4" x1="11.92" y1="19.64" x2="12.93" y2="18.89"/><line class="cls-4" x1="12.65" y1="19.64" x2="13.65" y2="18.89"/><line class="cls-4" x1="13.33" y1="19.64" x2="14.33" y2="18.89"/><line class="cls-4" x1="14.18" y1="19.57" x2="15.18" y2="18.81"/><line class="cls-4" x1="7.4" y1="18.09" x2="14.03" y2="18.12"/><line class="cls-4" x1="22.33" y1="18.12" x2="25.08" y2="18.13"/></svg>