<svg id="Layer_6" data-name="Layer 6" xmlns="http://www.w3.org/2000/svg" viewBox="0 0 32 26"><defs><style>.cls-1{fill:#231f20;}.cls-2,.cls-3,.cls-4{fill:none;stroke:#231f20;stroke-linecap:round;stroke-miterlimit:10;}.cls-3{stroke-width:0.75px;}.cls-4{stroke-width:0.5px;}</style></defs><path class="cls-1" d="M2.69,19.71A10.88,10.88,0,0,0,3.18,22a1,1,0,0,0,.1.18s0,.05,0,0l0,0,.48.27c.34.15.65.32,1,.44A22.58,22.58,0,0,0,9.29,24c1.53.27,3.09.4,4.65.55.79.08,1.58.11,2.37.13s1.6.05,2.42.11h0a.05.05,0,0,1,.05.05.07.07,0,0,1,0,.05,30.14,30.14,0,0,1-9.62.1A17.56,17.56,0,0,1,4.5,23.64a8.31,8.31,0,0,1-1-.59L3,22.68a1,1,0,0,1-.29-.56,8.86,8.86,0,0,1-.08-2.41,0,0,0,0,1,.05-.05.07.07,0,0,1,0,0Z"/><ellipse class="cls-2" cx="13.81" cy="3.98" rx="10.85" ry="3.23"/><path class="cls-1" d="M2.69,7.67,2.88,9a3.65,3.65,0,0,0,.35,1.14l0,.06s0,0,0,0l.26.15a3.35,3.35,0,0,0,.53.28l.56.25.58.2c.38.15.8.23,1.19.36s.82.2,1.23.27c.83.17,1.66.31,2.51.4,1.68.23,3.39.31,5.11.39.86,0,1.72,0,2.59,0s1.73-.08,2.63-.12h0a0,0,0,0,1,.05.05s0,0,0,0a24.88,24.88,0,0,1-5.21.8A31,31,0,0,1,10,13.07a19.67,19.67,0,0,1-5.11-1.29l-.6-.27-.58-.33a4.14,4.14,0,0,1-.55-.38l-.26-.2a.75.75,0,0,1-.2-.3,8.08,8.08,0,0,1-.14-2.64,0,0,0,0,1,.05,0,.07.07,0,0,1,0,0Z"/><path class="cls-1" d="M2.69,14a12,12,0,0,0,.48,2.25c.06.15.16.3.15.23l.47.26a8.22,8.22,0,0,0,1,.45,23.27,23.27,0,0,0,4.37,1.08c1.51.26,3,.4,4.58.56.78.09,1.56.13,2.34.16s1.57.06,2.38.13h0a.05.05,0,0,1,.05.05,0,0,0,0,1,0,0,29.85,29.85,0,0,1-9.48,0A17,17,0,0,1,4.44,17.9a7.09,7.09,0,0,1-1-.6l-.48-.36a1,1,0,0,1-.27-.57A9,9,0,0,1,2.59,14s0-.05.05,0a.05.05,0,0,1,0,0Z"/><path class="cls-1" d="M28.31,17.74l-1.68.08c-.59,0-1.18.08-1.8.08-1.24,0-2.55,0-3.86,0l-.68,0,0-.76c0-.7-.08-1.4-.09-2.1V14.5a3.6,3.6,0,0,1,0-.65,3.82,3.82,0,0,1,.4-1.28,4,4,0,0,1,1.92-1.8,4.17,4.17,0,0,1,1.29-.34c.49,0,.77,0,1.14,0a3.81,3.81,0,0,1,3.72,2.91,6.1,6.1,0,0,1-.06,2.34Zm-.06-.07,0-2.08a7.78,7.78,0,0,0-.14-2.05A3.13,3.13,0,0,0,25,11.36c-.35,0-.71,0-1,0a3.32,3.32,0,0,0-1,.27A3.13,3.13,0,0,0,21.48,13a4,4,0,0,0-.36,2v2.1L21,17Z"/><path class="cls-1" d="M26.71,16.27a41.19,41.19,0,0,1-4.11.42l-.41,0,0-.44-.05-1.21v-.63a2.44,2.44,0,0,1,.15-.75,2.24,2.24,0,0,1,1-1.14,2.42,2.42,0,0,1,.72-.27,3.4,3.4,0,0,1,.7,0,3.64,3.64,0,0,1,.68.07,2.18,2.18,0,0,1,.68.29,2.07,2.07,0,0,1,.86,1.14,2.93,2.93,0,0,1,0,1.35Zm0,0c-.05-.46-.12-.88-.18-1.26a2.94,2.94,0,0,0-.23-1,1.47,1.47,0,0,0-.68-.67,1.94,1.94,0,0,0-.45-.14,2.86,2.86,0,0,0-.51,0,2.9,2.9,0,0,0-.51.05,1.35,1.35,0,0,0-.41.16,1.44,1.44,0,0,0-.56.66,1.27,1.27,0,0,0-.09.43v.59l0,1.21-.43-.43C23.87,15.91,25.16,16.08,26.71,16.27Z"/><rect class="cls-3" x="18.98" y="17.78" width="11.36" height="6.61" rx="0.74"/><path class="cls-4" d="M25.34,20.71a.63.63,0,0,1-.14.4s0,.07,0,.11v1.2a.57.57,0,0,1-.95.37.49.49,0,0,1-.16-.37V21.17a.65.65,0,0,1-.2-.46v-.5a.69.69,0,0,1,.72-.67h0a.69.69,0,0,1,.72.67Z"/><circle class="cls-2" cx="8.64" cy="10.12" r="0.44"/><circle class="cls-2" cx="12.17" cy="10.44" r="0.44"/><circle class="cls-2" cx="15.77" cy="10.44" r="0.44"/><circle class="cls-2" cx="8.64" cy="15.83" r="0.44"/><circle class="cls-2" cx="12.17" cy="16.14" r="0.44"/><circle class="cls-2" cx="15.77" cy="16.14" r="0.44"/><circle class="cls-2" cx="8.64" cy="22" r="0.44"/><circle class="cls-2" cx="12.17" cy="22.32" r="0.44"/><circle class="cls-2" cx="15.77" cy="22.32" r="0.44"/></svg>