<svg id="Layer_5" data-name="Layer 5" xmlns="http://www.w3.org/2000/svg" viewBox="0 0 32 26"><defs><style>.cls-1,.cls-3,.cls-4{fill:none;stroke-miterlimit:10;}.cls-1{stroke:#000;stroke-width:0.5px;}.cls-2{fill:#231f20;}.cls-3,.cls-4{stroke:#231f20;stroke-width:0.25px;}.cls-3{stroke-linecap:round;}</style></defs><path d="M7.23,17.1A1.78,1.78,0,0,1,6,17a1.24,1.24,0,0,1-.43-.53,2.4,2.4,0,0,1-.1-.65c-.06-.81-.07-1.62-.11-2.43-.09-1.62-.08-3.23-.11-4.85,0-.81,0-1.62,0-2.42V5.14a1.2,1.2,0,0,1,.08-.42,1.45,1.45,0,0,1,1.31-.93c1.63-.06,3.23-.09,4.85-.1h.33V4c0,1.52.06,3,.06,4.56v4.55h-.05L11.47,4l0,0-4.84.18a1,1,0,0,0-.89.65,5.18,5.18,0,0,0,0,1.19v9.7a1.15,1.15,0,0,0,.37,1.07,1.74,1.74,0,0,0,1.15.21Z"/><path d="M21.74,9.7c0-.47-.07-.94-.06-1.41s0-.93.06-1.39l.13-1.39c0-.46.14-.91.21-1.37l.05-.37h4.48a1.42,1.42,0,0,1,.74.3,1.38,1.38,0,0,1,.44.65,1.34,1.34,0,0,1,.07.39v.31l0,1.17L27.79,9c0,1.56-.05,3.12-.11,4.68L27.6,16a1.1,1.1,0,0,1-.6,1,2.46,2.46,0,0,1-1.17.1v-.05A2.52,2.52,0,0,0,27,16.92a1,1,0,0,0,.51-1V5.46a1.13,1.13,0,0,0-.37-1A1.59,1.59,0,0,0,26,4.23h-3.5l0,0C22.3,6,22,7.87,21.79,9.71Z"/><path d="M11.84,12.73l-.21-4.05-.12-4c0-.68,0-1.35,0-2v-1A1.42,1.42,0,0,1,12.15.42a1.32,1.32,0,0,1,.67-.21h1.53l2,0,4,0a3.46,3.46,0,0,1,.59,0,1.32,1.32,0,0,1,.62.32,1.43,1.43,0,0,1,.48,1.21c0,.68,0,1.35,0,2L22,7.85l-.2,4H21.7l0-8.09v-2A1,1,0,0,0,21.34.9a1.17,1.17,0,0,0-.92-.23H13.34a1.73,1.73,0,0,0-1,.14,1,1,0,0,0-.47.8V12.73Z"/><path d="M7.45,16.54c-.07-1.23-.12-2.47-.15-3.71s-.07-2.47-.07-3.71l0-1.86V6.34a1,1,0,0,1,.56-1,1.28,1.28,0,0,1,.55-.08h3.46v.21c.07,2.53.11,5.07.08,7.6-.23-2.52-.39-5-.52-7.58l.22.21-1.86,0H8.79a3.38,3.38,0,0,0-.83,0,.47.47,0,0,0-.27.53V9.12c0,1.24,0,2.48-.08,3.71S7.51,15.31,7.45,16.54Z"/><path d="M21.76,10.63c0-1.71,0-3.41.1-5.12v-.2h.2l1.93,0h1.44a1,1,0,0,1,.59.16.93.93,0,0,1,.39.5,1.13,1.13,0,0,1,.06.31v1.2l0,1.93c0,2.56-.08,5.13-.2,7.69v0h0l-.4,0,.4,0,0,0c-.11-2.56-.19-5.13-.2-7.69V6.25a.45.45,0,0,0,0-.16.51.51,0,0,0-.18-.25.56.56,0,0,0-.33-.08H24l-1.93,0,.22-.2C22.14,7.24,22,8.94,21.76,10.63Z"/><path d="M13.31,13.9q-.13-3.33-.19-6.66c0-1.11,0-2.22,0-3.33V3.5A1.22,1.22,0,0,1,13.17,3,1,1,0,0,1,14,2.41H15.7l3.33,0a4.07,4.07,0,0,1,.89.05,1,1,0,0,1,.67.77c0,.63,0,1.13,0,1.7,0,2.22-.1,4.44-.19,6.66-.09-2.22-.16-4.44-.19-6.66l0-1.63a.58.58,0,0,0-.38-.42,4.62,4.62,0,0,0-.76,0l-3.33,0H14.05a.52.52,0,0,0-.46.3,2.18,2.18,0,0,0-.05.72c0,1.11,0,2.22,0,3.33C13.47,9.46,13.41,11.68,13.31,13.9Z"/><polygon class="cls-1" points="9 7.03 8.66 7.03 8.66 6.68 9.05 6.68 9 7.03"/><polygon class="cls-1" points="10.51 7.03 10.16 7.03 10.16 6.68 10.55 6.68 10.51 7.03"/><polygon class="cls-1" points="15.98 4.37 15.64 4.37 15.64 4.02 16.03 4.02 15.98 4.37"/><polygon class="cls-1" points="14.48 4.37 14.13 4.37 14.13 4.02 14.53 4.02 14.48 4.37"/><polygon class="cls-1" points="9 10.39 8.66 10.39 8.66 10.04 9.05 10.04 9 10.39"/><polygon class="cls-1" points="10.51 10.39 10.16 10.39 10.16 10.04 10.55 10.04 10.51 10.39"/><polygon class="cls-1" points="10.51 12.07 10.16 12.07 10.16 11.72 10.55 11.72 10.51 12.07"/><polygon class="cls-1" points="9 12.07 8.66 12.07 8.66 11.72 9.05 11.72 9 12.07"/><polygon class="cls-1" points="17.93 7.03 17.58 7.03 17.58 6.68 17.97 6.68 17.93 7.03"/><polygon class="cls-1" points="19.43 7.03 19.08 7.03 19.08 6.68 19.48 6.68 19.43 7.03"/><polygon class="cls-1" points="15.68 10.81 16.03 10.81 16.03 10.46 15.64 10.46 15.68 10.81"/><polygon class="cls-1" points="14.18 10.81 14.53 10.81 14.53 10.46 14.13 10.46 14.18 10.81"/><polygon class="cls-1" points="23.12 8.71 23.46 8.71 23.46 8.36 23.07 8.36 23.12 8.71"/><polygon class="cls-1" points="24.62 8.71 24.97 8.71 24.97 8.36 24.57 8.36 24.62 8.71"/><polygon class="cls-1" points="24.62 10.39 24.97 10.39 24.97 10.04 24.57 10.04 24.62 10.39"/><polygon class="cls-1" points="23.12 10.39 23.46 10.39 23.46 10.04 23.07 10.04 23.12 10.39"/><line class="cls-1" x1="13.93" y1="5.52" x2="19.66" y2="5.52"/><line class="cls-1" x1="8.17" y1="8.36" x2="11.23" y2="8.36"/><line class="cls-1" x1="22.49" y1="7.51" x2="25.55" y2="7.51"/><line class="cls-1" x1="22.53" y1="12.73" x2="25.6" y2="12.73"/><line class="cls-1" x1="8.17" y1="13.57" x2="11.23" y2="13.57"/><line class="cls-1" x1="13.98" y1="9.17" x2="19.72" y2="9.17"/><line class="cls-1" x1="13.98" y1="12.97" x2="16.03" y2="12.97"/><path d="M9,25.26a3.73,3.73,0,0,1-2.37-.78A3.77,3.77,0,0,1,5.27,22.3a3.7,3.7,0,0,1,.41-2.58A3.9,3.9,0,0,1,7.7,18l-.21.37a4.08,4.08,0,0,1,.31-2.57A3.91,3.91,0,0,1,9.69,14a4,4,0,0,1,2.61-.24,4,4,0,0,1,2.2,1.45l-.72.07a6.23,6.23,0,0,1,3.53-3.12,6.34,6.34,0,0,1,4.69.23,6.22,6.22,0,0,1,3.2,3.41,6.15,6.15,0,0,1-.09,4.62L24.88,20a2.83,2.83,0,0,1,1.8,1A2.73,2.73,0,0,1,27.24,23a2.68,2.68,0,0,1-.89,1.76,2.64,2.64,0,0,1-1.81.65,0,0,0,0,1,0,0s0,0,0,0a2.52,2.52,0,0,0,.31-5s0,0,0,0h0a5.83,5.83,0,0,0-3-7.49,5.83,5.83,0,0,0-7.61,2.68,0,0,0,0,1-.06,0h0a3.53,3.53,0,0,0-5.95.5,3.61,3.61,0,0,0-.33,2.31s0,0,0,0A3.56,3.56,0,0,0,6,19.87a3.51,3.51,0,0,0-.44,2.39,3.59,3.59,0,0,0,1.2,2.11A3.64,3.64,0,0,0,9,25.21s0,0,0,0A0,0,0,0,1,9,25.26Z"/><path d="M24.62,25.4l-2,.2-2,.1c-1.32.07-2.63.05-4,.08s-2.64,0-3.95-.12l-2-.13-2-.22v0q7.91,0,15.8.09Z"/><path class="cls-2" d="M21.24,19.73c-.93.07-2,.15-3,.19h-.19V18.78a3.87,3.87,0,0,1,0-1,1.58,1.58,0,0,1,1.65-1.11,1.59,1.59,0,0,1,1,.28,1.5,1.5,0,0,1,.58.86,3.36,3.36,0,0,1,0,1Zm0,0a12.9,12.9,0,0,0-.06-1.87,1.35,1.35,0,0,0-1.43-1,1.36,1.36,0,0,0-1.42,1,12.94,12.94,0,0,0,0,1.87l0,0Z"/><path class="cls-2" d="M20.58,19.41c-.51.06-1.1.14-1.71.17H18.7V19.4c0-.42,0-.79,0-1.24a1,1,0,0,1,1.06-.87,1,1,0,0,1,.68.23.93.93,0,0,1,.31.65C20.7,18.63,20.61,19,20.58,19.41Zm0,0v-1.2a.75.75,0,0,0-.83-.67.77.77,0,0,0-.83.67V19.4l0,0Z"/><rect class="cls-3" x="17.37" y="19.74" width="4.7" height="2.93" rx="0.44"/><path class="cls-4" d="M20,21a.28.28,0,0,1-.06.18.07.07,0,0,1,0,.05v.53a.23.23,0,0,1-.23.23.22.22,0,0,1-.17-.07.23.23,0,0,1-.06-.16v-.56a.28.28,0,0,1-.08-.2v-.22a.29.29,0,0,1,.29-.3h0a.29.29,0,0,1,.29.3Z"/><polygon class="cls-1" points="8.25 23.3 7.91 23.3 7.91 22.95 8.3 22.95 8.25 23.3"/><polygon class="cls-1" points="9.73 23.3 9.39 23.3 9.39 22.95 9.78 22.95 9.73 23.3"/><polygon class="cls-1" points="11.21 23.3 10.87 23.3 10.87 22.95 11.26 22.95 11.21 23.3"/></svg>