<svg id="Layer_5" data-name="Layer 5" xmlns="http://www.w3.org/2000/svg" viewBox="0 0 32 26"><defs><style>.cls-1,.cls-5{fill:none;}.cls-1{stroke:#000;}.cls-1,.cls-4,.cls-5{stroke-miterlimit:10;stroke-width:0.5px;}.cls-2,.cls-4{fill:#fff;}.cls-3{fill:#231f20;}.cls-4,.cls-5{stroke:#231f20;stroke-linecap:round;}</style></defs><path d="M10.73,17.63l-3.28.13-1.68.07c-.29,0-.56,0-.87,0a1.37,1.37,0,0,1-1.31-1.33l0-.83,0-1.65c0-1.11,0-2.21,0-3.31l0-3.31V4.94a1.87,1.87,0,0,1,.2-1,1.51,1.51,0,0,1,.88-.72,1.82,1.82,0,0,1,.54-.07H7.12l3.31,0h.4v.39c.05,2.39,0,4.78,0,7.13S10.74,15.35,10.73,17.63Zm0,0-.3-14,0,0h-5a3.07,3.07,0,0,0-.81.05,1.08,1.08,0,0,0-.6.49,1.44,1.44,0,0,0-.14.77V15.7c0,.54-.12,1.15.3,1.55s1,.32,1.53.33h4.95Z"/><path d="M26.54,17.64l-5.09.06h-.09v-.09l-.06-7c0-2.34,0-4.68,0-7V3.15h.44c.84,0,1.67,0,2.51,0h1.88a3.2,3.2,0,0,1,.71,0A1.43,1.43,0,0,1,28,4.38a4.33,4.33,0,0,1,0,.7l0,.62-.08,2.51-.16,5,0,2.51A3.33,3.33,0,0,1,27.58,17,1.14,1.14,0,0,1,26.54,17.64Zm0-.05a1.09,1.09,0,0,0,1-.63,3.52,3.52,0,0,0,.1-1.22V5.7c0-.41,0-.84,0-1.24a1.05,1.05,0,0,0-.81-.81c-1.64,0-3.33,0-5,0l.05,0-.34,14,0,0Z"/><path d="M10.68,17.61l-.2-5.53-.12-5.53c0-.92,0-1.84,0-2.77V1.71a1.84,1.84,0,0,1,.13-.85,1.55,1.55,0,0,1,1.5-.9h1.38l2.77,0,2.77,0h1.38a1.56,1.56,0,0,1,1.5.9,2,2,0,0,1,.13.85V3.78c0,.93,0,1.85,0,2.77l-.12,5.53-.21,5.53h0V1.71a1.46,1.46,0,0,0-.1-.66A1.07,1.07,0,0,0,20.23.43h-8.3a1.08,1.08,0,0,0-1.08.62,1.46,1.46,0,0,0-.1.66V6.55l0,11.06Z"/><path d="M10.71,17.61l-4.91.14H5.67v-.14c0-2.82-.1-5.64-.1-8.46V6a1.34,1.34,0,0,1,.1-.62,1,1,0,0,1,.48-.49,1.52,1.52,0,0,1,.63-.09h3.92V5c0,2.13.05,4.26.05,6.36Zm0,0-.27-6.35c-.09-2.09-.16-4.16-.21-6.23l.23.22-2.12,0h-1a3.81,3.81,0,0,0-1,.05.53.53,0,0,0-.24.25.8.8,0,0,0,0,.41V9.15c0,2.82,0,5.64-.1,8.46l-.13-.13Z"/><path d="M26.26,17.61l-4.81.14h-.13v-.14l.06-6.29L21.49,5V4.78h3.92a1,1,0,0,1,1,.69,1,1,0,0,1,.05.33V7.15l0,2.12Zm0,0-.18-8.42,0-2.07V5.82a.57.57,0,0,0,0-.18.6.6,0,0,0-.23-.29.55.55,0,0,0-.37-.09H21.74L22,5l-.17,6.3-.23,6.29-.13-.14Z"/><path d="M19.9,17.61l-7.71.15h-.14v-.16c0-3.12-.07-6.25-.08-9.37,0-1.58,0-3.09,0-4.72A2.14,2.14,0,0,1,13.65,1.7a7.34,7.34,0,0,1,1.22,0h2.35a7.25,7.25,0,0,1,1.21.05,2.14,2.14,0,0,1,1.67,1.8c0,1.63,0,3.18,0,4.76Zm0,0L19.74,8.2l-.07-4.62a1.7,1.7,0,0,0-1.33-1.42,8.11,8.11,0,0,0-1.12,0H14.87a7.83,7.83,0,0,0-1.11,0,1.69,1.69,0,0,0-1.31,1.4c0,1.5,0,3.11,0,4.66,0,3.12,0,6.25-.08,9.37l-.15-.14Z"/><polygon class="cls-1" points="7.5 6.67 7.12 6.67 7.12 6.29 7.54 6.29 7.5 6.67"/><polygon class="cls-1" points="9.13 6.67 8.75 6.67 8.75 6.29 9.18 6.29 9.13 6.67"/><polygon class="cls-1" points="15.1 3.77 14.72 3.77 14.72 3.39 15.15 3.39 15.1 3.77"/><polygon class="cls-1" points="13.46 3.77 13.09 3.77 13.09 3.39 13.51 3.39 13.46 3.77"/><polygon class="cls-1" points="7.5 10.33 7.12 10.33 7.12 9.95 7.54 9.95 7.5 10.33"/><polygon class="cls-1" points="9.13 10.33 8.75 10.33 8.75 9.95 9.18 9.95 9.13 10.33"/><polygon class="cls-1" points="9.13 12.16 8.75 12.16 8.75 11.78 9.18 11.78 9.13 12.16"/><polygon class="cls-1" points="7.5 12.16 7.12 12.16 7.12 11.78 7.54 11.78 7.5 12.16"/><polygon class="cls-1" points="17.22 6.67 16.84 6.67 16.84 6.29 17.27 6.29 17.22 6.67"/><polygon class="cls-1" points="18.86 6.67 18.48 6.67 18.48 6.29 18.9 6.29 18.86 6.67"/><polygon class="cls-1" points="9.13 15.82 8.75 15.82 8.75 15.45 9.18 15.45 9.13 15.82"/><polygon class="cls-1" points="7.5 15.82 7.12 15.82 7.12 15.45 7.54 15.45 7.5 15.82"/><polygon class="cls-1" points="14.77 10.79 15.15 10.79 15.15 10.41 14.72 10.41 14.77 10.79"/><polygon class="cls-1" points="13.13 10.79 13.51 10.79 13.51 10.41 13.09 10.41 13.13 10.79"/><polygon class="cls-1" points="22.87 8.5 23.25 8.5 23.25 8.12 22.82 8.12 22.87 8.5"/><polygon class="cls-1" points="24.51 8.5 24.89 8.5 24.89 8.12 24.46 8.12 24.51 8.5"/><polygon class="cls-1" points="24.51 10.33 24.89 10.33 24.89 9.95 24.46 9.95 24.51 10.33"/><polygon class="cls-1" points="22.87 10.33 23.25 10.33 23.25 9.95 22.82 9.95 22.87 10.33"/><polygon class="cls-1" points="16.89 14.88 17.27 14.88 17.27 14.5 16.84 14.5 16.89 14.88"/><polygon class="cls-1" points="18.53 14.88 18.9 14.88 18.9 14.5 18.48 14.5 18.53 14.88"/><polygon class="cls-1" points="18.53 16.39 18.9 16.39 18.9 16.01 18.48 16.01 18.53 16.39"/><polygon class="cls-1" points="16.89 16.39 17.27 16.39 17.27 16.01 16.84 16.01 16.89 16.39"/><polygon class="cls-1" points="22.87 15.82 23.25 15.82 23.25 15.45 22.82 15.45 22.87 15.82"/><polygon class="cls-1" points="24.51 15.82 24.89 15.82 24.89 15.45 24.46 15.45 24.51 15.82"/><line class="cls-1" x1="12.86" y1="5.03" x2="19.11" y2="5.03"/><line class="cls-1" x1="6.59" y1="8.12" x2="9.92" y2="8.12"/><line class="cls-1" x1="22.19" y1="7.2" x2="25.52" y2="7.2"/><line class="cls-1" x1="22.24" y1="12.89" x2="25.57" y2="12.89"/><line class="cls-1" x1="6.59" y1="13.8" x2="9.92" y2="13.8"/><line class="cls-1" x1="12.92" y1="9" x2="19.17" y2="9"/><line class="cls-1" x1="12.92" y1="13.14" x2="19.17" y2="13.14"/><path class="cls-2" d="M7.48,25.46a3.89,3.89,0,0,1-1.29-7.55,3.94,3.94,0,0,1-.07-.77,3.89,3.89,0,0,1,7-2.34,6.4,6.4,0,0,1,12.12,2.88,6.19,6.19,0,0,1-.47,2.4,2.78,2.78,0,0,1-.34,5.53"/><path d="M7.48,25.48a4,4,0,0,1-4-3.22,4,4,0,0,1,.45-2.79A4.21,4.21,0,0,1,6.08,17.6L5.87,18a4.39,4.39,0,0,1,.35-2.78,4.25,4.25,0,0,1,2-2,4.32,4.32,0,0,1,5.21,1.32l-.73.06a6.76,6.76,0,0,1,8.91-3.13A6.69,6.69,0,0,1,25,20.19l-.23-.38a3,3,0,0,1,1.94,1.11,2.89,2.89,0,0,1-2.31,4.72s0,0,0,0a0,0,0,0,1,0,0,2.75,2.75,0,0,0,.34-5.47s0,0,0,0h0a6.36,6.36,0,0,0-11.57-5.25s0,0-.07,0v0a3.86,3.86,0,0,0-4.65-1.2,3.9,3.9,0,0,0-1.84,1.75,3.86,3.86,0,0,0-.36,2.52s0,0,0,0a3.88,3.88,0,0,0-2,1.68A3.87,3.87,0,0,0,5,24.52a3.89,3.89,0,0,0,2.48.91,0,0,0,0,1,0,0S7.5,25.48,7.48,25.48Z"/><path d="M24.51,25.64l-2.15.2-2.15.1c-1.44.06-2.87,0-4.31.08S13,26,11.59,25.89l-2.15-.13-2.15-.22v-.05q8.61,0,17.22.1Z"/><path class="cls-2" d="M20.82,19.46H17.55V17.57a1.22,1.22,0,0,1,1.22-1.22h.84a1.22,1.22,0,0,1,1.21,1.22Z"/><path class="cls-3" d="M20.84,19.48l-1.56.21-1.73.15-.36,0v-.41l0-1.05v-.53a4.16,4.16,0,0,1,0-.6,1.61,1.61,0,0,1,.8-1.14,1.84,1.84,0,0,1,.68-.2c.25,0,.38,0,.57,0s.31,0,.56,0a1.38,1.38,0,0,1,.65.23,1.52,1.52,0,0,1,.68,1.1A15.59,15.59,0,0,1,20.84,19.48Zm0,0c0-.7,0-1.4,0-2.08a1.18,1.18,0,0,0-.58-.81,1.77,1.77,0,0,0-1-.15,1.77,1.77,0,0,0-1,.16,1.2,1.2,0,0,0-.57.8c0,.68,0,1.4,0,2.1l0,0Z"/><path class="cls-2" d="M20.1,19.1H18.24V17.72a.69.69,0,0,1,.69-.69h.48a.69.69,0,0,1,.69.69Z"/><path class="cls-3" d="M20.11,19.12c-.24.07-.54.12-.85.2l-1,.14-.31,0-.05-.39c-.05-.45,0-.9-.07-1.35a1.07,1.07,0,0,1,.45-.94,1.34,1.34,0,0,1,.91-.19,1.28,1.28,0,0,1,.87.24,1,1,0,0,1,.35.89A8.85,8.85,0,0,1,20.11,19.12Zm0,0,0-1.33a.62.62,0,0,0-.27-.55.92.92,0,0,0-.62-.13.92.92,0,0,0-.62.13.66.66,0,0,0-.26.55V19.1l0,0Z"/><rect class="cls-4" x="16.61" y="19.48" width="5.12" height="3.19" rx="1.19"/><path class="cls-5" d="M19.48,20.89a.29.29,0,0,1-.07.19.13.13,0,0,1,0,.06v.58a.25.25,0,0,1-.25.25A.29.29,0,0,1,19,21.9a.24.24,0,0,1-.07-.18v-.61a.28.28,0,0,1-.09-.22v-.24a.32.32,0,0,1,.32-.32h0a.32.32,0,0,1,.32.32Z"/><polygon class="cls-1" points="6.68 23.35 6.3 23.35 6.3 22.97 6.73 22.97 6.68 23.35"/><polygon class="cls-1" points="8.29 23.35 7.91 23.35 7.91 22.97 8.34 22.97 8.29 23.35"/><polygon class="cls-1" points="9.9 23.35 9.52 23.35 9.52 22.97 9.95 22.97 9.9 23.35"/></svg>