<svg id="Layer_3" data-name="Layer 3" xmlns="http://www.w3.org/2000/svg" viewBox="0 0 32 26"><defs><style>.cls-1{fill:#231f20;}.cls-2,.cls-4{fill:none;stroke:#231f20;stroke-linecap:round;stroke-miterlimit:10;}.cls-2{stroke-width:0.5px;}.cls-3{font-size:4.17px;font-family:NexaBold, Nexa Bold;letter-spacing:0.18em;}.cls-4{stroke-width:0.25px;}</style></defs><path class="cls-1" d="M20.79,17.28c-2.69.19-5.39.27-8.08.42l-8.08.23-2,.06H2.36A2.58,2.58,0,0,1,2,18a2.13,2.13,0,0,1-.73-.26,2.25,2.25,0,0,1-1-1.15,2.44,2.44,0,0,1-.15-.75V14.26l0-2L0,4.16V2.38a2.71,2.71,0,0,1,0-.4A2.33,2.33,0,0,1,2.35.08l4,0c2.69,0,5.39,0,8.08.12l8.08.24,1,.05a7.7,7.7,0,0,1,1.09.09A1.8,1.8,0,0,1,26,2.44c0,1.35-.13,2.69-.22,4a0,0,0,0,1-.1,0v-4A1.41,1.41,0,0,0,24.56,1c-.65-.06-1.34,0-2,0H2.35A1.38,1.38,0,0,0,1,2.16c0,.63,0,1.34,0,2V15.27a2.57,2.57,0,0,0,.08,1,1.44,1.44,0,0,0,1.54.91h2l16.16,0a0,0,0,0,1,.05.05A.05.05,0,0,1,20.79,17.28Z"/><path class="cls-2" d="M20.53,8.64H6.32a2,2,0,0,1-2-2h0a2,2,0,0,1,2-2H20.53a2,2,0,0,1,2,2h0"/><path class="cls-1" d="M23.71,7.64l3.13,0,1.57,0A3,3,0,0,1,30,7.8,2.23,2.23,0,0,1,31.07,9a4.61,4.61,0,0,1,.18,1.59l.1,3.14L31.53,20c0,1.06,0,2.06,0,3.17A2.58,2.58,0,0,1,29,25.56H25.87l-1.57,0c-.28,0-.48,0-.82,0a2.61,2.61,0,0,1-.91-.28,2.44,2.44,0,0,1-1.19-1.39,2.55,2.55,0,0,1-.13-.9l0-.79.1-3.14.18-6.27.05-3.15A2.11,2.11,0,0,1,23.71,7.64Zm0,0a2.09,2.09,0,0,0-2.07,2c0,1,0,2.09.05,3.14L21.87,19,22,22.14l0,.79a1.86,1.86,0,0,0,.13.63,1.68,1.68,0,0,0,.85.89,2.67,2.67,0,0,0,1.34.16l1.57,0H29a1.61,1.61,0,0,0,1.6-1.49l.06-3.1.18-6.28.09-3.14A4.5,4.5,0,0,0,30.86,9a2,2,0,0,0-.94-1.12,3.05,3.05,0,0,0-1.51-.24l-1.57,0Z"/><rect class="cls-1" x="6.85" y="18.66" width="12.92" height="0.5" rx="0.25"/><rect class="cls-1" x="11.25" y="17.49" width="4.13" height="1.42"/><text class="cls-3" transform="translate(7.79 8.92) scale(0.98 1)">******</text><path class="cls-1" d="M12,12.31l.73.68a.13.13,0,0,0,.18,0l1.95-2A.12.12,0,0,1,15,11l.55.58a.14.14,0,0,1,0,.19L13,14.44a.13.13,0,0,1-.18,0L11.28,13a.13.13,0,0,1,0-.2l.53-.48A.15.15,0,0,1,12,12.31Z"/><path class="cls-1" d="M2.66,11.5c.11.67.15,1.33.21,2a9.38,9.38,0,0,0,.26,1.83,1.22,1.22,0,0,0,.12.34c0,.08,0,.08.16.14a4.3,4.3,0,0,0,.85.19c.62.1,1.28.15,1.94.25h0s0,0,0,0a0,0,0,0,1,0,0,14.36,14.36,0,0,1-2,.09,4.08,4.08,0,0,1-1-.15,1,1,0,0,1-.61-.77,7.73,7.73,0,0,1-.17-2c0-.66.06-1.32.13-2,0,0,0,0,0,0l0,0Z"/><path class="cls-1" d="M28,15.8c-.91,0-1.9.08-2.92.08h-.19v-.2l0-.92v-.45a2.27,2.27,0,0,1,.09-.52,1.66,1.66,0,0,1,1.64-1.09,1.6,1.6,0,0,1,1.47,1.22,2.69,2.69,0,0,1,0,1Zm0,0,0-.91a3,3,0,0,0,0-.9,1.44,1.44,0,0,0-2.73-.1,3,3,0,0,0-.1.9l0,.92v0Z"/><path class="cls-1" d="M27.43,15.42c-.5.06-1.07.14-1.66.17h-.18v-.19c0-.41,0-.76,0-1.21a1,1,0,0,1,1-.88,1,1,0,0,1,1,.89A9.9,9.9,0,0,1,27.43,15.42Zm0,0c0-.39,0-.78,0-1.17a.8.8,0,0,0-1.59,0c0,.39,0,.79,0,1.18v0Z"/><rect class="cls-4" x="24.31" y="15.76" width="4.56" height="2.91" rx="0.33"/><path class="cls-4" d="M26.87,17a.28.28,0,0,1-.06.18v.58a.23.23,0,0,1-.22.23.24.24,0,0,1-.16-.07.23.23,0,0,1-.06-.16v-.56a.28.28,0,0,1-.08-.2v-.22a.29.29,0,0,1,.29-.29h0a.29.29,0,0,1,.29.29Z"/></svg>